<svg width="24" height="24" viewBox="0 0 24 24" fill="none" xmlns="http://www.w3.org/2000/svg">
<path fill-rule="evenodd" clip-rule="evenodd" d="M19.4996 6.24029L5.57916 18.9442L4.49023 17.751L18.4106 5.0471L19.4996 6.24029Z" fill="white"/>
<path fill-rule="evenodd" clip-rule="evenodd" d="M17.8138 5.59179C15.0078 8.15257 14.9668 12.7127 17.3682 15.344L17.9126 15.9406L19.1058 14.8517L18.5614 14.2551C16.7381 12.2573 16.7809 8.72138 18.9027 6.78499L19.499 6.24082L18.4101 5.04762L17.8138 5.59179Z" fill="white"/>
<path fill-rule="evenodd" clip-rule="evenodd" d="M18.9032 6.78443C16.0972 9.34521 11.5523 8.97011 9.15091 6.33879L8.60645 5.74219L9.79964 4.65327L10.3441 5.24986C12.1674 7.24774 15.6925 7.52763 17.8143 5.59123L18.4106 5.04706L19.4995 6.24026L18.9032 6.78443Z" fill="white"/>
</svg>
