<svg width="17" height="12" viewBox="0 0 17 12" fill="none" xmlns="http://www.w3.org/2000/svg">
<path d="M16.7069 11.9774H0.293117C0.131252 11.9774 0 11.8362 0 11.6622V0.315208C0 0.141144 0.131252 0 0.293117 0H16.7069C16.8687 0 17 0.141144 17 0.315208V11.6622C17 11.8363 16.8687 11.9774 16.7069 11.9774Z" fill="#F5F5F5"/>
<path d="M17 0.921381H0V0.315208C0 0.141144 0.131252 0 0.293117 0H16.7069C16.8687 0 17 0.141144 17 0.315208L17 0.921381Z" fill="#FF184E"/>
<path d="M17 3.68823H0V4.60958H17V3.68823Z" fill="#FF184E"/>
<path d="M17 1.84033H0V2.76167H17V1.84033Z" fill="#FF184E"/>
<path d="M17 6.44995H0.293117C0.131252 6.44995 0 6.3088 0 6.13474V5.52856H17V6.44995Z" fill="#FF184E"/>
<path d="M17 9.21704H0V10.1384H17V9.21704Z" fill="#FF184E"/>
<path d="M17 10.7532H0V11.6745H17V10.7532Z" fill="#FF184E"/>
<path d="M17 7.3689H0V8.29024H17V7.3689Z" fill="#FF184E"/>
<path d="M7.62067 1.99634H0.293117C0.131252 1.99634 0 2.12731 0 2.28887V7.68978C0 7.85134 0.131252 7.98234 0.293117 7.98234H7.6207C7.78256 7.98234 7.91382 7.85134 7.91382 7.68978V2.28887C7.91378 2.12731 7.78253 1.99634 7.62067 1.99634Z" fill="#311C55"/>
<path d="M0.822495 2.67023L0.887374 2.86443L1.09247 2.86599C1.11903 2.86622 1.13002 2.90002 1.10867 2.91577L0.943687 3.03739L1.00558 3.23256C1.01361 3.25781 0.984759 3.27875 0.963144 3.26331L0.796298 3.1443L0.629453 3.26334C0.607838 3.27875 0.579051 3.25784 0.587019 3.23259L0.64891 3.03742L0.483924 2.9158C0.462574 2.90002 0.473565 2.86625 0.500127 2.86602L0.705222 2.86446L0.770101 2.67026C0.778468 2.64507 0.814062 2.64507 0.822495 2.67023Z" fill="#F5F5F5"/>
<path d="M0.822495 3.68363L0.887374 3.87783L1.09247 3.87939C1.11903 3.87962 1.13002 3.91343 1.10867 3.92917L0.943687 4.05079L1.00558 4.24596C1.01361 4.27121 0.984759 4.29216 0.963144 4.27671L0.796298 4.15771L0.629453 4.27675C0.607838 4.29216 0.579051 4.27125 0.587019 4.24599L0.64891 4.05083L0.483924 3.9292C0.462574 3.91343 0.473565 3.87966 0.500127 3.87943L0.705222 3.87787L0.770101 3.68366C0.778468 3.65851 0.814062 3.65851 0.822495 3.68363Z" fill="#F5F5F5"/>
<path d="M0.822495 4.70512L0.887374 4.89932L1.09247 4.90088C1.11903 4.90111 1.13002 4.93491 1.10867 4.95065L0.943687 5.07228L1.00558 5.26744C1.01361 5.2927 0.984759 5.31364 0.963144 5.2982L0.796298 5.17919L0.629453 5.29823C0.607838 5.31364 0.579051 5.29273 0.587019 5.26748L0.64891 5.07231L0.483924 4.95069C0.462574 4.93491 0.473565 4.90114 0.500127 4.90091L0.705222 4.89935L0.770101 4.70515C0.778468 4.68 0.814062 4.67999 0.822495 4.70512Z" fill="#F5F5F5"/>
<path d="M0.822495 5.71881L0.887374 5.91302L1.09247 5.91457C1.11903 5.91481 1.13002 5.94861 1.10867 5.96435L0.943687 6.08598L1.00558 6.28114C1.01361 6.30639 0.984759 6.32734 0.963144 6.3119L0.796298 6.19289L0.629453 6.31193C0.607838 6.32734 0.579051 6.30643 0.587019 6.28117L0.64891 6.08601L0.483924 5.96438C0.462574 5.94861 0.473565 5.91484 0.500127 5.91461L0.705222 5.91305L0.770101 5.71885C0.778468 5.69366 0.814062 5.69366 0.822495 5.71881Z" fill="#F5F5F5"/>
<path d="M0.822495 6.73275L0.887374 6.92696L1.09247 6.92851C1.11903 6.92875 1.13002 6.96255 1.10867 6.97829L0.943687 7.09992L1.00558 7.29508C1.01361 7.32033 0.984759 7.34128 0.963144 7.32584L0.796298 7.20683L0.629453 7.32587C0.607838 7.34128 0.579051 7.32037 0.587019 7.29511L0.64891 7.09995L0.483924 6.97832C0.462574 6.96255 0.473565 6.92878 0.500127 6.92855L0.705222 6.92699L0.770101 6.73279C0.778468 6.70757 0.814062 6.70757 0.822495 6.73275Z" fill="#F5F5F5"/>
<path d="M1.61156 3.16899L1.67644 3.36319L1.88153 3.36475C1.90809 3.36498 1.91908 3.39878 1.89774 3.41452L1.73275 3.53615L1.79464 3.73131C1.80267 3.75657 1.77382 3.77751 1.75221 3.76207L1.58536 3.64303L1.41852 3.76207C1.3969 3.77748 1.36811 3.75657 1.37608 3.73131L1.43797 3.53615L1.27299 3.41452C1.25164 3.39875 1.26263 3.36498 1.28919 3.36475L1.49428 3.36319L1.55916 3.16899C1.5675 3.14387 1.60316 3.14387 1.61156 3.16899Z" fill="#F5F5F5"/>
<path d="M1.61156 4.18268L1.67644 4.37689L1.88153 4.37844C1.90809 4.37868 1.91908 4.41248 1.89774 4.42822L1.73275 4.54985L1.79464 4.74501C1.80267 4.77026 1.77382 4.79121 1.75221 4.77577L1.58536 4.65672L1.41852 4.77577C1.3969 4.79118 1.36811 4.7703 1.37608 4.74501L1.43797 4.54985L1.27299 4.42822C1.25164 4.41245 1.26263 4.37868 1.28919 4.37844L1.49428 4.37689L1.55916 4.18268C1.5675 4.15753 1.60316 4.15753 1.61156 4.18268Z" fill="#F5F5F5"/>
<path d="M1.61156 5.19636L1.67644 5.39056L1.88153 5.39212C1.90809 5.39235 1.91908 5.42615 1.89774 5.44189L1.73275 5.56352L1.79464 5.75868C1.80267 5.78394 1.77382 5.80488 1.75221 5.78944L1.58536 5.6704L1.41852 5.78944C1.3969 5.80485 1.36811 5.78394 1.37608 5.75868L1.43797 5.56352L1.27299 5.44189C1.25164 5.42612 1.26263 5.39235 1.28919 5.39212L1.49428 5.39056L1.55916 5.19636C1.5675 5.1712 1.60316 5.1712 1.61156 5.19636Z" fill="#F5F5F5"/>
<path d="M1.61156 6.21806L1.67644 6.41226L1.88153 6.41382C1.90809 6.41405 1.91908 6.44785 1.89774 6.4636L1.73275 6.58522L1.79464 6.78039C1.80267 6.80564 1.77382 6.82658 1.75221 6.81114L1.58536 6.6921L1.41852 6.81114C1.3969 6.82655 1.36811 6.80564 1.37608 6.78039L1.43797 6.58522L1.27299 6.4636C1.25164 6.44782 1.26263 6.41405 1.28919 6.41382L1.49428 6.41226L1.55916 6.21806C1.5675 6.19294 1.60316 6.19294 1.61156 6.21806Z" fill="#F5F5F5"/>
<path d="M2.40257 2.66999L2.46745 2.86419L2.67255 2.86575C2.69911 2.86598 2.7101 2.89978 2.68875 2.91553L2.52377 3.03715L2.58566 3.23231C2.59369 3.25757 2.56484 3.27851 2.54322 3.26307L2.37638 3.14403L2.20953 3.26307C2.18792 3.27848 2.15913 3.25757 2.1671 3.23231L2.22899 3.03715L2.064 2.91553C2.04265 2.89975 2.05364 2.86598 2.08021 2.86575L2.2853 2.86419L2.35018 2.66999C2.35855 2.64483 2.39417 2.64483 2.40257 2.66999Z" fill="#F5F5F5"/>
<path d="M2.40257 3.68364L2.46745 3.87784L2.67255 3.8794C2.69911 3.87963 2.7101 3.91343 2.68875 3.92917L2.52377 4.0508L2.58566 4.24596C2.59369 4.27121 2.56484 4.29216 2.54322 4.27672L2.37638 4.15768L2.20953 4.27672C2.18792 4.29213 2.15913 4.27121 2.1671 4.24596L2.22899 4.0508L2.064 3.92917C2.04265 3.9134 2.05364 3.87963 2.08021 3.8794L2.2853 3.87784L2.35018 3.68364C2.35855 3.65851 2.39417 3.65851 2.40257 3.68364Z" fill="#F5F5F5"/>
<path d="M2.40257 4.70512L2.46745 4.89932L2.67255 4.90088C2.69911 4.90111 2.7101 4.93492 2.68875 4.95066L2.52377 5.07229L2.58566 5.26745C2.59369 5.2927 2.56484 5.31365 2.54322 5.29821L2.37638 5.17916L2.20953 5.29821C2.18792 5.31362 2.15913 5.2927 2.1671 5.26745L2.22899 5.07229L2.064 4.95066C2.04265 4.93488 2.05364 4.90111 2.08021 4.90088L2.2853 4.89932L2.35018 4.70512C2.35855 4.68 2.39417 4.68 2.40257 4.70512Z" fill="#F5F5F5"/>
<path d="M2.40257 5.71882L2.46745 5.91302L2.67255 5.91458C2.69911 5.91481 2.7101 5.94861 2.68875 5.96435L2.52377 6.08598L2.58566 6.28114C2.59369 6.3064 2.56484 6.32734 2.54322 6.3119L2.37638 6.19286L2.20953 6.3119C2.18792 6.32731 2.15913 6.3064 2.1671 6.28114L2.22899 6.08598L2.064 5.96435C2.04265 5.94858 2.05364 5.91481 2.08021 5.91458L2.2853 5.91302L2.35018 5.71882C2.35855 5.69366 2.39417 5.69366 2.40257 5.71882Z" fill="#F5F5F5"/>
<path d="M2.40257 6.73276L2.46745 6.92696L2.67255 6.92852C2.69911 6.92875 2.7101 6.96255 2.68875 6.9783L2.52377 7.09992L2.58566 7.29509C2.59369 7.32034 2.56484 7.34128 2.54322 7.32584L2.37638 7.2068L2.20953 7.32584C2.18792 7.34125 2.15913 7.32034 2.1671 7.29509L2.22899 7.09992L2.064 6.9783C2.04265 6.96252 2.05364 6.92875 2.08021 6.92852L2.2853 6.92696L2.35018 6.73276C2.35855 6.70757 2.39417 6.70757 2.40257 6.73276Z" fill="#F5F5F5"/>
<path d="M3.19164 3.16899L3.25652 3.36319L3.46161 3.36475C3.48817 3.36498 3.49916 3.39878 3.47782 3.41452L3.31283 3.53615L3.37472 3.73131C3.38275 3.75657 3.3539 3.77751 3.33229 3.76207L3.16544 3.64303L2.99859 3.76207C2.97698 3.77748 2.94819 3.75657 2.95616 3.73131L3.01805 3.53615L2.85306 3.41452C2.83172 3.39875 2.84271 3.36498 2.86927 3.36475L3.07436 3.36319L3.13924 3.16899C3.14758 3.14387 3.18324 3.14387 3.19164 3.16899Z" fill="#F5F5F5"/>
<path d="M3.19164 4.18268L3.25652 4.37689L3.46161 4.37844C3.48817 4.37868 3.49916 4.41248 3.47782 4.42822L3.31283 4.54985L3.37472 4.74501C3.38275 4.77026 3.3539 4.79121 3.33229 4.77577L3.16544 4.65672L2.99859 4.77577C2.97698 4.79118 2.94819 4.7703 2.95616 4.74501L3.01805 4.54985L2.85306 4.42822C2.83172 4.41245 2.84271 4.37868 2.86927 4.37844L3.07436 4.37689L3.13924 4.18268C3.14758 4.15753 3.18324 4.15753 3.19164 4.18268Z" fill="#F5F5F5"/>
<path d="M3.19164 5.19636L3.25652 5.39056L3.46161 5.39212C3.48817 5.39235 3.49916 5.42615 3.47782 5.44189L3.31283 5.56352L3.37472 5.75868C3.38275 5.78394 3.3539 5.80488 3.33229 5.78944L3.16544 5.6704L2.99859 5.78944C2.97698 5.80485 2.94819 5.78394 2.95616 5.75868L3.01805 5.56352L2.85306 5.44189C2.83172 5.42612 2.84271 5.39235 2.86927 5.39212L3.07436 5.39056L3.13924 5.19636C3.14758 5.1712 3.18324 5.1712 3.19164 5.19636Z" fill="#F5F5F5"/>
<path d="M3.19164 6.21806L3.25652 6.41226L3.46161 6.41382C3.48817 6.41405 3.49916 6.44785 3.47782 6.4636L3.31283 6.58522L3.37472 6.78039C3.38275 6.80564 3.3539 6.82658 3.33229 6.81114L3.16544 6.6921L2.99859 6.81114C2.97698 6.82655 2.94819 6.80564 2.95616 6.78039L3.01805 6.58522L2.85306 6.4636C2.83172 6.44782 2.84271 6.41405 2.86927 6.41382L3.07436 6.41226L3.13924 6.21806C3.14758 6.19294 3.18324 6.19294 3.19164 6.21806Z" fill="#F5F5F5"/>
<path d="M3.98269 2.66999L4.04757 2.86419L4.25266 2.86575C4.27922 2.86598 4.29021 2.89978 4.26886 2.91553L4.10388 3.03715L4.16577 3.23231C4.1738 3.25757 4.14495 3.27851 4.12333 3.26307L3.95646 3.14403L3.78961 3.26307C3.76799 3.27848 3.73921 3.25757 3.74718 3.23231L3.80907 3.03715L3.64408 2.91553C3.62273 2.89975 3.63372 2.86598 3.66028 2.86575L3.86538 2.86419L3.93026 2.66999C3.93866 2.64483 3.97429 2.64483 3.98269 2.66999Z" fill="#F5F5F5"/>
<path d="M3.98269 3.68364L4.04757 3.87784L4.25266 3.8794C4.27922 3.87963 4.29021 3.91343 4.26886 3.92917L4.10388 4.0508L4.16577 4.24596C4.1738 4.27121 4.14495 4.29216 4.12333 4.27672L3.95646 4.15768L3.78961 4.27672C3.76799 4.29213 3.73921 4.27121 3.74718 4.24596L3.80907 4.0508L3.64408 3.92917C3.62273 3.9134 3.63372 3.87963 3.66028 3.8794L3.86538 3.87784L3.93026 3.68364C3.93866 3.65851 3.97429 3.65851 3.98269 3.68364Z" fill="#F5F5F5"/>
<path d="M3.98269 4.69731L4.04757 4.89151L4.25266 4.89307C4.27922 4.8933 4.29021 4.9271 4.26886 4.94285L4.10388 5.06447L4.16577 5.25964C4.1738 5.28489 4.14495 5.30584 4.12333 5.29039L3.95646 5.17135L3.78961 5.29039C3.76799 5.3058 3.73921 5.28489 3.74718 5.25964L3.80907 5.06447L3.64408 4.94285C3.62273 4.92707 3.63372 4.8933 3.66028 4.89307L3.86538 4.89151L3.93026 4.69731C3.93866 4.67219 3.97429 4.67219 3.98269 4.69731Z" fill="#F5F5F5"/>
<path d="M3.98269 5.71882L4.04757 5.91302L4.25266 5.91458C4.27922 5.91481 4.29021 5.94861 4.26886 5.96435L4.10388 6.08598L4.16577 6.28114C4.1738 6.3064 4.14495 6.32734 4.12333 6.3119L3.95646 6.19286L3.78961 6.3119C3.76799 6.32731 3.73921 6.3064 3.74718 6.28114L3.80907 6.08598L3.64408 5.96435C3.62273 5.94858 3.63372 5.91481 3.66028 5.91458L3.86538 5.91302L3.93026 5.71882C3.93866 5.69366 3.97429 5.69366 3.98269 5.71882Z" fill="#F5F5F5"/>
<path d="M3.98269 6.73276L4.04757 6.92696L4.25266 6.92852C4.27922 6.92875 4.29021 6.96255 4.26886 6.9783L4.10388 7.09992L4.16577 7.29509C4.1738 7.32034 4.14495 7.34128 4.12333 7.32584L3.95646 7.2068L3.78961 7.32584C3.76799 7.34125 3.73921 7.32034 3.74718 7.29509L3.80907 7.09992L3.64408 6.9783C3.62273 6.96252 3.63372 6.92875 3.66028 6.92852L3.86538 6.92696L3.93026 6.73276C3.93866 6.70757 3.97429 6.70757 3.98269 6.73276Z" fill="#F5F5F5"/>
<path d="M4.77172 3.16899L4.83659 3.36319L5.04169 3.36475C5.06825 3.36498 5.07924 3.39878 5.05789 3.41452L4.89291 3.53615L4.9548 3.73131C4.96283 3.75657 4.93398 3.77751 4.91236 3.76207L4.74552 3.64303L4.57867 3.76207C4.55706 3.77748 4.52827 3.75657 4.53624 3.73131L4.59813 3.53615L4.43314 3.41452C4.41179 3.39875 4.42278 3.36498 4.44935 3.36475L4.65444 3.36319L4.71932 3.16899C4.72772 3.14387 4.76332 3.14387 4.77172 3.16899Z" fill="#F5F5F5"/>
<path d="M4.77172 4.18268L4.83659 4.37689L5.04169 4.37844C5.06825 4.37868 5.07924 4.41248 5.05789 4.42822L4.89291 4.54985L4.9548 4.74501C4.96283 4.77026 4.93398 4.79121 4.91236 4.77577L4.74552 4.65672L4.57867 4.77577C4.55706 4.79118 4.52827 4.7703 4.53624 4.74501L4.59813 4.54985L4.43314 4.42822C4.41179 4.41245 4.42278 4.37868 4.44935 4.37844L4.65444 4.37689L4.71932 4.18268C4.72772 4.15753 4.76332 4.15753 4.77172 4.18268Z" fill="#F5F5F5"/>
<path d="M4.77172 5.19636L4.83659 5.39056L5.04169 5.39212C5.06825 5.39235 5.07924 5.42615 5.05789 5.44189L4.89291 5.56352L4.9548 5.75868C4.96283 5.78394 4.93398 5.80488 4.91236 5.78944L4.74552 5.6704L4.57867 5.78944C4.55706 5.80485 4.52827 5.78394 4.53624 5.75868L4.59813 5.56352L4.43314 5.44189C4.41179 5.42612 4.42278 5.39235 4.44935 5.39212L4.65444 5.39056L4.71932 5.19636C4.72772 5.1712 4.76332 5.1712 4.77172 5.19636Z" fill="#F5F5F5"/>
<path d="M4.77172 6.21806L4.83659 6.41226L5.04169 6.41382C5.06825 6.41405 5.07924 6.44785 5.05789 6.4636L4.89291 6.58522L4.9548 6.78039C4.96283 6.80564 4.93398 6.82658 4.91236 6.81114L4.74552 6.6921L4.57867 6.81114C4.55706 6.82655 4.52827 6.80564 4.53624 6.78039L4.59813 6.58522L4.43314 6.4636C4.41179 6.44782 4.42278 6.41405 4.44935 6.41382L4.65444 6.41226L4.71932 6.21806C4.72772 6.19294 4.76332 6.19294 4.77172 6.21806Z" fill="#F5F5F5"/>
<path d="M5.56273 2.66999L5.62761 2.86419L5.83271 2.86575C5.85927 2.86598 5.87026 2.89978 5.84891 2.91553L5.68392 3.03715L5.74581 3.23231C5.75385 3.25757 5.72499 3.27851 5.70338 3.26307L5.53653 3.14403L5.36969 3.26307C5.34807 3.27848 5.31929 3.25757 5.32725 3.23231L5.38914 3.03715L5.22416 2.91553C5.20281 2.89975 5.2138 2.86598 5.24036 2.86575L5.44546 2.86419L5.51034 2.66999C5.51867 2.64483 5.55433 2.64483 5.56273 2.66999Z" fill="#F5F5F5"/>
<path d="M5.56273 3.68364L5.62761 3.87784L5.83271 3.8794C5.85927 3.87963 5.87026 3.91343 5.84891 3.92917L5.68392 4.0508L5.74581 4.24596C5.75385 4.27121 5.72499 4.29216 5.70338 4.27672L5.53653 4.15768L5.36969 4.27672C5.34807 4.29213 5.31929 4.27121 5.32725 4.24596L5.38914 4.0508L5.22416 3.92917C5.20281 3.9134 5.2138 3.87963 5.24036 3.8794L5.44546 3.87784L5.51034 3.68364C5.51867 3.65851 5.55433 3.65851 5.56273 3.68364Z" fill="#F5F5F5"/>
<path d="M5.56273 4.69731L5.62761 4.89151L5.83271 4.89307C5.85927 4.8933 5.87026 4.9271 5.84891 4.94285L5.68392 5.06447L5.74581 5.25964C5.75385 5.28489 5.72499 5.30584 5.70338 5.29039L5.53653 5.17135L5.36969 5.29039C5.34807 5.3058 5.31929 5.28489 5.32725 5.25964L5.38914 5.06447L5.22416 4.94285C5.20281 4.92707 5.2138 4.8933 5.24036 4.89307L5.44546 4.89151L5.51034 4.69731C5.51867 4.67219 5.55433 4.67219 5.56273 4.69731Z" fill="#F5F5F5"/>
<path d="M5.56273 5.71882L5.62761 5.91302L5.83271 5.91458C5.85927 5.91481 5.87026 5.94861 5.84891 5.96435L5.68392 6.08598L5.74581 6.28114C5.75385 6.3064 5.72499 6.32734 5.70338 6.3119L5.53653 6.19286L5.36969 6.3119C5.34807 6.32731 5.31929 6.3064 5.32725 6.28114L5.38914 6.08598L5.22416 5.96435C5.20281 5.94858 5.2138 5.91481 5.24036 5.91458L5.44546 5.91302L5.51034 5.71882C5.51867 5.69366 5.55433 5.69366 5.56273 5.71882Z" fill="#F5F5F5"/>
<path d="M5.56273 6.73276L5.62761 6.92696L5.83271 6.92852C5.85927 6.92875 5.87026 6.96255 5.84891 6.9783L5.68392 7.09992L5.74581 7.29509C5.75385 7.32034 5.72499 7.34128 5.70338 7.32584L5.53653 7.2068L5.36969 7.32584C5.34807 7.34125 5.31929 7.32034 5.32725 7.29509L5.38914 7.09992L5.22416 6.9783C5.20281 6.96252 5.2138 6.92875 5.24036 6.92852L5.44546 6.92696L5.51034 6.73276C5.51867 6.70757 5.55433 6.70757 5.56273 6.73276Z" fill="#F5F5F5"/>
<path d="M6.35375 3.16899L6.41862 3.36319L6.62372 3.36475C6.65028 3.36498 6.66127 3.39878 6.63992 3.41452L6.47494 3.53615L6.53683 3.73131C6.54486 3.75657 6.51601 3.77751 6.49439 3.76207L6.32755 3.64303L6.1607 3.76207C6.13909 3.77748 6.1103 3.75657 6.11827 3.73131L6.18016 3.53615L6.01517 3.41452C5.99382 3.39875 6.00481 3.36498 6.03138 3.36475L6.23647 3.36319L6.30135 3.16899C6.30972 3.14387 6.34538 3.14387 6.35375 3.16899Z" fill="#F5F5F5"/>
<path d="M6.35375 4.18268L6.41862 4.37689L6.62372 4.37844C6.65028 4.37868 6.66127 4.41248 6.63992 4.42822L6.47494 4.54985L6.53683 4.74501C6.54486 4.77026 6.51601 4.79121 6.49439 4.77577L6.32755 4.65672L6.1607 4.77577C6.13909 4.79118 6.1103 4.7703 6.11827 4.74501L6.18016 4.54985L6.01517 4.42822C5.99382 4.41245 6.00481 4.37868 6.03138 4.37844L6.23647 4.37689L6.30135 4.18268C6.30972 4.15753 6.34538 4.15753 6.35375 4.18268Z" fill="#F5F5F5"/>
<path d="M6.35375 5.19636L6.41862 5.39056L6.62372 5.39212C6.65028 5.39235 6.66127 5.42615 6.63992 5.44189L6.47494 5.56352L6.53683 5.75868C6.54486 5.78394 6.51601 5.80488 6.49439 5.78944L6.32755 5.6704L6.1607 5.78944C6.13909 5.80485 6.1103 5.78394 6.11827 5.75868L6.18016 5.56352L6.01517 5.44189C5.99382 5.42612 6.00481 5.39235 6.03138 5.39212L6.23647 5.39056L6.30135 5.19636C6.30972 5.1712 6.34538 5.1712 6.35375 5.19636Z" fill="#F5F5F5"/>
<path d="M6.35375 6.21806L6.41862 6.41226L6.62372 6.41382C6.65028 6.41405 6.66127 6.44785 6.63992 6.4636L6.47494 6.58522L6.53683 6.78039C6.54486 6.80564 6.51601 6.82658 6.49439 6.81114L6.32755 6.6921L6.1607 6.81114C6.13909 6.82655 6.1103 6.80564 6.11827 6.78039L6.18016 6.58522L6.01517 6.4636C5.99382 6.44782 6.00481 6.41405 6.03138 6.41382L6.23647 6.41226L6.30135 6.21806C6.30972 6.19294 6.34538 6.19294 6.35375 6.21806Z" fill="#F5F5F5"/>
<path d="M7.14281 2.66999L7.20769 2.86419L7.41278 2.86575C7.43935 2.86598 7.45034 2.89978 7.42899 2.91553L7.264 3.03715L7.32589 3.23231C7.33393 3.25757 7.30507 3.27851 7.28346 3.26307L7.11661 3.14403L6.94977 3.26307C6.92815 3.27848 6.89936 3.25757 6.90733 3.23231L6.96922 3.03715L6.80424 2.91553C6.78289 2.89975 6.79388 2.86598 6.82044 2.86575L7.02554 2.86419L7.09041 2.66999C7.09878 2.64483 7.13438 2.64483 7.14281 2.66999Z" fill="#F5F5F5"/>
<path d="M7.14281 3.68364L7.20769 3.87784L7.41278 3.8794C7.43935 3.87963 7.45034 3.91343 7.42899 3.92917L7.264 4.0508L7.32589 4.24596C7.33393 4.27121 7.30507 4.29216 7.28346 4.27672L7.11661 4.15768L6.94977 4.27672C6.92815 4.29213 6.89936 4.27121 6.90733 4.24596L6.96922 4.0508L6.80424 3.92917C6.78289 3.9134 6.79388 3.87963 6.82044 3.8794L7.02554 3.87784L7.09041 3.68364C7.09878 3.65851 7.13438 3.65851 7.14281 3.68364Z" fill="#F5F5F5"/>
<path d="M7.14281 4.69731L7.20769 4.89151L7.41278 4.89307C7.43935 4.8933 7.45034 4.9271 7.42899 4.94285L7.264 5.06447L7.32589 5.25964C7.33393 5.28489 7.30507 5.30584 7.28346 5.29039L7.11661 5.17135L6.94977 5.29039C6.92815 5.3058 6.89936 5.28489 6.90733 5.25964L6.96922 5.06447L6.80424 4.94285C6.78289 4.92707 6.79388 4.8933 6.82044 4.89307L7.02554 4.89151L7.09041 4.69731C7.09878 4.67219 7.13438 4.67219 7.14281 4.69731Z" fill="#F5F5F5"/>
<path d="M7.14281 5.71882L7.20769 5.91302L7.41278 5.91458C7.43935 5.91481 7.45034 5.94861 7.42899 5.96435L7.264 6.08598L7.32589 6.28114C7.33393 6.3064 7.30507 6.32734 7.28346 6.3119L7.11661 6.19286L6.94977 6.3119C6.92815 6.32731 6.89936 6.3064 6.90733 6.28114L6.96922 6.08598L6.80424 5.96435C6.78289 5.94858 6.79388 5.91481 6.82044 5.91458L7.02554 5.91302L7.09041 5.71882C7.09878 5.69366 7.13438 5.69366 7.14281 5.71882Z" fill="#F5F5F5"/>
<path d="M7.14281 6.73276L7.20769 6.92696L7.41278 6.92852C7.43935 6.92875 7.45034 6.96255 7.42899 6.9783L7.264 7.09992L7.32589 7.29509C7.33393 7.32034 7.30507 7.34128 7.28346 7.32584L7.11661 7.2068L6.94977 7.32584C6.92815 7.34125 6.89936 7.32034 6.90733 7.29509L6.96922 7.09992L6.80424 6.9783C6.78289 6.96252 6.79388 6.92875 6.82044 6.92852L7.02554 6.92696L7.09041 6.73276C7.09878 6.70757 7.13438 6.70757 7.14281 6.73276Z" fill="#F5F5F5"/>
</svg>
