<svg width="84" height="84" viewBox="0 0 84 84" fill="none" xmlns="http://www.w3.org/2000/svg">
<g clip-path="url(#clip0_482_881)">
<path d="M72.4522 25.188C71.7514 22.233 68.7884 20.4051 65.8334 21.1032L32.3479 29.0356C29.3929 29.7364 27.5651 32.6994 28.2658 35.6544L34.9379 63.8187C35.6387 66.7737 38.6016 68.6016 41.5566 67.9008L75.0421 59.9684C77.9971 59.2677 79.825 56.3047 79.1269 53.3497L72.4522 25.188Z" fill="#FDBC4B"/>
<path d="M36.9099 39.6538C35.2846 40.0402 34.28 41.6682 34.6637 43.2936L36.7074 51.9241C37.0911 53.5495 38.7218 54.554 40.3472 54.1703C41.9726 53.784 42.9771 52.1559 42.5934 50.5305L40.5497 41.9C40.1634 40.2747 38.5353 39.2675 36.9099 39.6538Z" fill="#FFCC5B"/>
<path d="M35.1355 32.1715C33.5101 32.5579 32.5056 34.1859 32.8893 35.8113L32.9266 35.9712C33.3103 37.5966 34.9384 38.6011 36.5664 38.2174C38.1918 37.8311 39.1963 36.203 38.8126 34.5776L38.7753 34.4178C38.3916 32.7924 36.7636 31.7878 35.1355 32.1715Z" fill="#FFCC5B"/>
<path d="M56.9607 33.8265L50.7309 31.996L45.9854 36.4272L43.6006 26.3711L54.5786 23.7705L56.9607 33.8265Z" fill="#EC9922"/>
<path d="M73.8065 50.6715L69.7697 48.1802L67.2783 52.217L69.4419 51.7054L70.5557 56.4057L72.7566 55.8861L71.6429 51.1831L73.8065 50.6715Z" fill="#464646"/>
<path d="M66.0792 52.5021L62.0424 50.0107L59.5537 54.0475L61.7173 53.536L62.8311 58.2362L65.032 57.714L63.9183 53.0137L66.0792 52.5021Z" fill="#464646"/>
<path d="M34.2052 75.0764C32.9609 75.0764 31.8311 74.2264 31.5327 72.9607L16.6298 10.0292C16.2701 8.49974 15.3322 7.20476 13.9945 6.37875C12.6596 5.5554 11.0848 5.30227 9.55273 5.65932L3.54148 7.08486C2.05733 7.43924 0.581162 6.51997 0.22944 5.04381C-0.119617 3.56498 0.796991 2.08348 2.27316 1.73443L8.28706 0.311554C11.25 -0.391889 14.2983 0.106383 16.8856 1.69979C19.4702 3.29852 21.2821 5.80587 21.9829 8.76353L36.2516 69.0198L80.4593 58.5508C81.9381 58.1991 83.4196 59.1157 83.7686 60.5918C84.1204 62.068 83.2038 63.5521 81.7249 63.9012L34.842 75.0017C34.6289 75.0524 34.4157 75.0764 34.2052 75.0764Z" fill="#E5E5E5"/>
<path d="M34.2193 84.0002C40.6664 84.0002 45.8927 78.7738 45.8927 72.3267C45.8927 65.8797 40.6664 60.6533 34.2193 60.6533C27.7723 60.6533 22.5459 65.8797 22.5459 72.3267C22.5459 78.7738 27.7723 84.0002 34.2193 84.0002Z" fill="#464646"/>
<path d="M34.2187 78.8441C37.8182 78.8441 40.7362 75.9261 40.7362 72.3266C40.7362 68.7271 37.8182 65.8091 34.2187 65.8091C30.6192 65.8091 27.7012 68.7271 27.7012 72.3266C27.7012 75.9261 30.6192 78.8441 34.2187 78.8441Z" fill="#CACACA"/>
<g opacity="0.07">
<path d="M30.4597 75.4308C29.6283 71.9269 31.7973 68.415 35.2985 67.5864C36.5109 67.2986 37.7179 67.3919 38.8211 67.7542C37.2756 66.1981 34.9948 65.4441 32.7059 65.9876C29.202 66.8163 27.0357 70.3309 27.8671 73.8321C28.4106 76.1236 30.1053 77.8209 32.189 78.5057C31.371 77.6797 30.7475 76.6432 30.4597 75.4308Z" fill="#010101"/>
</g>
</g>
<defs>
<clipPath id="clip0_482_881">
<rect width="84" height="84" fill="white"/>
</clipPath>
</defs>
</svg>
