<svg width="70" height="70" viewBox="0 0 70 70" fill="none" xmlns="http://www.w3.org/2000/svg">
<path fill-rule="evenodd" clip-rule="evenodd" d="M25.1512 69.9318C36.8707 69.9318 46.4273 66.4633 46.4273 62.2086C46.4273 57.9539 36.8707 54.4854 25.1512 54.4854C13.4316 54.4854 3.875 57.9525 3.875 62.2086C3.875 66.4647 13.4316 69.9318 25.1512 69.9318Z" fill="#DAEAFA"/>
<path fill-rule="evenodd" clip-rule="evenodd" d="M25.1513 62.2084C17.0821 52.6504 2.08408 35.227 2.21669 22.7596C2.27822 16.9531 4.51083 11.1713 8.91318 6.76895C13.3811 2.30098 19.2642 0.0683594 25.1513 0.0683594C31.0384 0.0683594 36.9255 2.30098 41.3894 6.76895C45.7917 11.1713 48.0243 16.9531 48.0858 22.7596C48.2184 35.227 33.2245 52.6504 25.1513 62.2084Z" fill="#FF4646"/>
<path fill-rule="evenodd" clip-rule="evenodd" d="M25.151 36.2224C32.4326 36.2224 38.3703 30.2847 38.3703 23.003C38.3703 15.7255 32.4326 9.78369 25.151 9.78369C17.8693 9.78369 11.9316 15.7255 11.9316 23.003C11.9316 30.286 17.8693 36.2224 25.151 36.2224Z" fill="#DAEAFA"/>
<path fill-rule="evenodd" clip-rule="evenodd" d="M56.1826 37.7534L51.2266 39.0823L54.6719 51.9339L59.6238 50.605L56.1826 37.7534Z" fill="#DAEAFA"/>
<path fill-rule="evenodd" clip-rule="evenodd" d="M49.5742 4.7959C39.5172 4.7959 31.3633 12.9457 31.3633 23.0027C31.3633 33.0598 39.5172 41.2137 49.5742 41.2137C59.6313 41.2137 67.7852 33.0598 67.7852 23.0027C67.7852 12.9457 59.6313 4.7959 49.5742 4.7959Z" fill="#2F5274"/>
<path fill-rule="evenodd" clip-rule="evenodd" d="M59.7905 46.8576L52.6524 48.7717C52.0632 48.9303 51.7104 49.5386 51.869 50.1279L55.5618 63.9133C56.244 66.4672 58.895 67.9943 61.4448 67.3121C63.9987 66.6258 65.5259 63.9789 64.8436 61.425L61.1509 47.6437C60.9923 47.0545 60.3798 46.6976 59.7905 46.8576Z" fill="#FF4646"/>
<path fill-rule="evenodd" clip-rule="evenodd" d="M39.6335 13.0662C34.1456 18.5541 34.1456 27.4559 39.6335 32.9438C45.1255 38.4316 54.0231 38.4316 59.5151 32.9438C65.003 27.4559 65.003 18.5541 59.5151 13.0662C54.0231 7.57559 45.1255 7.57559 39.6335 13.0662Z" fill="#8BD7FA"/>
<path d="M48.4463 16.6016C48.4463 15.9781 48.9494 15.4736 49.5742 15.4736C50.1977 15.4736 50.7021 15.9781 50.7021 16.6016V21.8803H55.9768C56.6002 21.8803 57.1047 22.3848 57.1047 23.0041C57.1047 23.6275 56.6002 24.132 55.9768 24.132H49.5742C48.9508 24.132 48.4463 23.6275 48.4463 23.0041V16.6016Z" fill="#DAEAFA"/>
<path fill-rule="evenodd" clip-rule="evenodd" d="M27.4301 36.0297C21.2135 34.9482 16.4898 29.5301 16.4898 23.0045C16.4898 16.4816 21.2135 11.0607 27.4301 9.9834C26.6904 9.85488 25.9303 9.78516 25.151 9.78516C17.8502 9.78516 11.9316 15.7023 11.9316 23.0045C11.9316 30.3066 17.8502 36.2238 25.151 36.2238C25.9303 36.2225 26.6891 36.1568 27.4301 36.0297Z" fill="#C4D3E1"/>
<path fill-rule="evenodd" clip-rule="evenodd" d="M18.9893 54.8135C10.242 55.7705 3.875 58.7195 3.875 62.2072C3.875 66.4742 13.4016 69.9305 25.1512 69.9305C25.9223 69.9305 26.6824 69.9154 27.4303 69.8881C16.7498 69.4738 8.4332 66.1953 8.4332 62.2072C8.4332 59.2855 12.9012 56.7426 19.4938 55.4328C19.327 55.2277 19.1561 55.0227 18.9893 54.8135Z" fill="#C4D3E1"/>
<path fill-rule="evenodd" clip-rule="evenodd" d="M38.1104 25.6308C37.7809 23.8986 37.7809 22.1117 38.1104 20.3753C38.6176 17.697 39.9083 15.139 41.9782 13.0664C42.8108 12.2337 43.7254 11.5242 44.6907 10.9458C46.5624 9.82202 48.6405 9.17124 50.7487 8.99624C48.501 8.8103 46.2178 9.15893 44.1096 10.0462C42.4854 10.7326 40.9583 11.7402 39.6334 13.065C38.4782 14.2203 37.5635 15.53 36.8936 16.9246C35.0602 20.7568 35.0602 25.2494 36.8936 29.0775C37.5635 30.4761 38.4782 31.7832 39.6334 32.9412C40.9856 34.2892 42.5401 35.3091 44.2026 35.9955C46.2834 36.8554 48.5311 37.1931 50.7487 37.0113C48.6323 36.8335 46.5514 36.1814 44.6756 35.0507C43.7145 34.4738 42.8081 33.7724 41.9782 32.9425C39.9083 30.8712 38.6176 28.3132 38.1104 25.6308Z" fill="#7DC2E1"/>
<path fill-rule="evenodd" clip-rule="evenodd" d="M53.6706 50.1277C53.5735 49.76 53.6747 49.3799 53.9112 49.1078C54.0507 48.9492 54.2366 48.8289 54.4581 48.7701L55.5478 48.4762L55.4274 48.0264L53.7458 48.4762L52.6534 48.7701C52.0642 48.9287 51.7114 49.5371 51.87 50.1264L55.5628 63.9117C56.2177 66.3535 58.6677 67.8574 61.1122 67.3885C59.3608 67.0508 57.8569 65.7451 57.3647 63.9117L53.6706 50.1277Z" fill="#E63F3F"/>
<path fill-rule="evenodd" clip-rule="evenodd" d="M51.7646 41.0828L53.7443 48.4779L55.426 48.0281L53.4887 40.793C52.9227 40.916 52.3457 41.0131 51.7646 41.0828Z" fill="#C4D3E1"/>
</svg>
