<svg width="64" height="64" viewBox="0 0 64 64" fill="none" xmlns="http://www.w3.org/2000/svg">
<g clip-path="url(#clip0_482_933)">
<path d="M61.0823 39.9591L62.9134 38.1286C64.0657 36.9757 64.0657 35.1002 62.9134 33.9474C62.3548 33.3893 61.6126 33.0817 60.8226 33.0817C60.2298 33.0817 59.6634 33.255 59.1819 33.5778L58.7962 32.2828L60.7781 30.3004C61.931 29.1476 61.931 27.2721 60.7781 26.1197C59.7171 25.0582 58.0443 24.9767 56.8856 25.8697L54.5369 17.985C55.4749 17.0816 56.3734 16.2027 57.22 15.3561C59.66 12.9156 61.6439 10.3331 62.8065 8.0831C64.7708 4.28036 63.9486 2.24764 62.9129 1.212C61.8778 0.176352 59.845 -0.645427 56.0418 1.31893C53.7923 2.48104 51.2093 4.46493 48.7693 6.90536C47.9227 7.75205 47.0433 8.65 46.1404 9.58799L38.2552 7.23935C39.1482 6.08115 39.0667 4.40829 38.0057 3.34677C36.8528 2.19442 34.9773 2.19393 33.825 3.34677L31.8426 5.32919L30.5471 4.94345C30.8699 4.46151 31.0432 3.89511 31.0432 3.30233C31.0432 2.51278 30.7356 1.7701 30.1775 1.212C29.0252 0.0591638 27.1492 0.0591638 25.9968 1.212L24.1663 3.04257L14.8357 0.263266C14.5032 0.164633 14.1438 0.255453 13.8992 0.500571L11.4973 2.90243C11.094 3.30526 11.1472 3.99423 11.6072 4.33065L35.1492 21.5626C29.8411 27.5475 24.7278 33.5397 21.1179 37.8209L14.1931 35.1574C13.845 35.0236 13.4509 35.1071 13.1873 35.3707L10.3406 38.2174C9.97241 38.5861 9.97241 39.1832 10.3406 39.5514L24.5735 53.7843C24.9368 54.1481 25.5442 54.1481 25.908 53.7843L28.7542 50.9381C29.0178 50.6745 29.1018 50.2799 28.9676 49.9318L26.3045 43.0075C30.5857 39.3976 36.5774 34.2843 42.5628 28.9757L44.4329 31.5314C44.7649 31.985 45.4383 32.0436 45.8455 31.6569C46.1849 31.3346 46.2317 30.7941 45.9559 30.4171L43.9788 27.7159C47.1087 24.9225 50.1995 22.1041 53.0037 19.4484L61.8929 49.2897L60.6668 50.5153L48.4495 33.8239C48.1419 33.4035 47.5516 33.3121 47.1312 33.6198C46.7103 33.9279 46.6189 34.5182 46.9271 34.9386L59.7947 52.5182C60.1312 52.9782 60.8201 53.0314 61.223 52.6281L63.6248 50.2262C63.8699 49.9816 63.9608 49.6217 63.8621 49.2897L61.0823 39.9591ZM35.1595 4.68124C35.5716 4.26913 36.2596 4.26913 36.6717 4.68124C37.0887 5.09823 37.0887 5.77646 36.6717 6.19345L36.2293 6.63583L33.8987 5.9415L35.1595 4.68124ZM27.3313 2.54647C27.7478 2.12948 28.4265 2.12948 28.8435 2.54647C29.2605 2.96346 29.2605 3.64169 28.8435 4.05868L28.5525 4.34921L26.2224 3.65536L27.3313 2.54647ZM13.6096 3.45809L14.8357 2.23251L44.677 11.1212C42.0213 13.9259 39.2029 17.0167 36.409 20.1466L13.6096 3.45809ZM14.0881 37.1388L19.8328 39.3483C18.3919 41.0641 17.2869 42.3917 16.635 43.1774L12.342 38.8844L14.0881 37.1388ZM17.9754 44.5177C21.2644 40.5495 38.6497 19.6935 50.1038 8.23935C52.3763 5.9664 54.8567 4.05526 56.908 2.99569C58.4481 2.19979 60.5086 1.47616 61.5789 2.54647C62.6492 3.61679 61.9251 5.67734 61.1297 7.21738C60.0701 9.26865 58.1585 11.7486 55.8856 14.0216C44.4324 25.4747 23.5759 42.8605 19.6077 46.1501L17.9754 44.5177ZM26.9866 50.0373L25.241 51.7829L20.948 47.4899C21.7332 46.8385 23.0613 45.7335 24.7771 44.2926L26.9866 50.0373ZM60.0667 35.2819C60.4837 34.8649 61.1619 34.8649 61.5789 35.2819C61.9959 35.6989 61.9959 36.3771 61.5789 36.7941L60.47 37.903L59.7757 35.5729L60.0667 35.2819ZM57.9319 27.4537C58.3485 27.0367 59.0272 27.0372 59.4442 27.4537C59.8563 27.8658 59.8563 28.5538 59.4442 28.9659L58.1834 30.2267L57.4891 27.8961L57.9319 27.4537Z" fill="#0EB6BD"/>
<path d="M56.6349 54.4626L48.5836 62.5139C48.2404 62.8577 48.2174 63.4251 48.5334 63.7942C48.8864 64.2063 49.5343 64.2322 49.9181 63.8484L57.9694 55.7971C58.3381 55.4285 58.3381 54.8313 57.9694 54.4626C57.6012 54.0945 57.0036 54.0945 56.6349 54.4626Z" fill="#0EB6BD"/>
<path d="M53.944 51.7716C54.3127 51.4034 54.3127 50.8058 53.944 50.4376C53.5758 50.069 52.9782 50.069 52.61 50.4376L47.5778 55.4694C47.2345 55.8131 47.2116 56.3805 47.5275 56.7496C47.8805 57.1618 48.5285 57.1876 48.9123 56.8038L53.944 51.7716Z" fill="#0EB6BD"/>
<path d="M50.9249 46.7399C51.2935 46.3712 51.2935 45.7736 50.9249 45.4054C50.5562 45.0367 49.9591 45.0367 49.5904 45.4054L46.068 48.9279C45.7247 49.2711 45.7017 49.839 46.0181 50.2081C46.3707 50.6202 47.0186 50.6461 47.4024 50.2623L50.9249 46.7399Z" fill="#0EB6BD"/>
<path d="M9.66225 6.65796C9.29359 6.28979 8.69594 6.28979 8.32777 6.65796L0.27649 14.7097C-0.0921632 15.0779 -0.0921632 15.6756 0.27649 16.0437C0.639772 16.407 1.24719 16.407 1.61096 16.0437L9.66225 7.99243C10.0304 7.62378 10.0304 7.02661 9.66225 6.65796Z" fill="#0EB6BD"/>
<path d="M13.6873 10.6837C13.3187 10.3151 12.7215 10.3151 12.3534 10.6837L7.32113 15.716C6.97738 16.0592 6.95491 16.6266 7.27083 16.9957C7.62386 17.4078 8.27132 17.4337 8.65511 17.0499L13.6873 12.0182C14.056 11.6495 14.056 11.0519 13.6873 10.6837Z" fill="#0EB6BD"/>
<path d="M13.863 18.5598C14.2268 18.9231 14.8337 18.9231 15.1975 18.5598L18.72 15.0374C19.0881 14.6687 19.0881 14.0715 18.72 13.7029C18.3513 13.3347 17.7542 13.3347 17.3855 13.7029L13.863 17.2253C13.4949 17.594 13.4949 18.1912 13.863 18.5598Z" fill="#0EB6BD"/>
</g>
<defs>
<clipPath id="clip0_482_933">
<rect width="64" height="64" fill="white"/>
</clipPath>
</defs>
</svg>
