<svg width="39" height="42" viewBox="0 0 39 42" fill="none" xmlns="http://www.w3.org/2000/svg">
<path d="M12.3568 41.6669C13.9355 41.6669 15.3879 40.7982 16.1773 39.4148L24.2288 25.2592C24.7971 24.2618 25.8075 23.6827 26.9126 23.6506L33.0381 23.5862C34.5537 23.5862 36.0692 23.2002 37.4269 22.5246L38.3111 22.0741C39.0057 21.7203 39.0057 20.6908 38.3111 20.3369L37.4269 19.8865C36.0692 19.2108 34.5537 18.8248 33.0381 18.8248L26.9126 18.7604C25.8075 18.7604 24.7656 18.1492 24.2288 17.1518L16.1773 2.99618C15.3879 1.61278 13.9355 0.744141 12.3568 0.744141C15.6405 6.88898 17.5034 14.6103 18.1981 17.7953C18.2928 18.2457 17.9454 18.6318 17.535 18.6318L17.1876 17.3127C17.0298 16.6693 16.3983 16.2832 15.7668 16.3797L14.0618 16.7014C13.8407 16.7336 13.6197 16.8623 13.4619 17.0553C13.304 17.2484 13.083 17.377 12.8304 17.4092L12.1989 17.5057L12.8935 17.6344C13.1145 17.6666 13.304 17.7631 13.4619 17.924L13.7144 18.1813L14.1249 18.5996H12.8304C12.0094 18.5996 11.1569 18.6961 10.3675 18.8891L6.29441 19.9186L4.65255 15.4467C4.30523 14.4816 3.35798 13.9025 2.34759 14.0312L0.832031 14.2242L3.20013 20.6908L2.06341 20.9803C1.87396 21.0125 1.87396 21.302 2.06341 21.3342L3.20013 21.6237L0.832031 28.0903L2.34759 28.2833C3.3264 28.412 4.27365 27.8329 4.65255 26.8678L6.32598 22.3959L10.3675 23.4254C11.1885 23.6184 12.0094 23.7149 12.8304 23.7149H14.1249L13.7144 24.1332L13.4619 24.3905C13.304 24.5514 13.1145 24.6479 12.8935 24.6801L12.1989 24.8088L12.8304 24.9053C13.083 24.9375 13.304 25.0661 13.4619 25.2592C13.6197 25.4522 13.8407 25.5487 14.0618 25.6131L15.7668 25.9348C16.3983 26.0635 17.0298 25.6452 17.1876 25.0018L17.535 23.6827C17.977 23.6827 18.2928 24.101 18.1981 24.5192C17.5034 27.8329 15.6405 35.522 12.3568 41.6669Z" fill="#0EB6BD"/>
</svg>
