<svg width="20" height="20" viewBox="0 0 20 20" fill="none" xmlns="http://www.w3.org/2000/svg">
<path d="M6.46875 0.267578C6.27813 0.267578 6.09531 0.343161 5.96052 0.477698C5.82573 0.612236 5.75 0.794709 5.75 0.984974V3.13716H3.59375C3.40313 3.13716 3.22031 3.21274 3.08552 3.34728C2.95073 3.48182 2.875 3.66429 2.875 3.85456V8.41145L1.47583 8.92319C1.38241 8.95727 1.29708 9.01032 1.22526 9.079C1.15344 9.14769 1.09668 9.2305 1.05857 9.32221C1.02047 9.41391 1.00185 9.51252 1.0039 9.61178C1.00595 9.71103 1.02861 9.80879 1.07046 9.89885L3.30817 14.6997C3.5197 14.6298 3.74306 14.6028 3.96519 14.6201C4.18732 14.6374 4.40375 14.6988 4.60185 14.8006C4.79994 14.9024 4.97571 15.0426 5.11888 15.213C5.26205 15.3834 5.36974 15.5805 5.43567 15.793C5.43567 15.7968 5.4395 15.8054 5.44429 15.8188C5.53268 16.055 5.65363 16.2778 5.80367 16.4807C6.06817 16.8318 6.34417 17.0068 6.70833 17.0068C7.0725 17.0068 7.3485 16.8327 7.61204 16.4807C7.76722 16.2707 7.89117 16.0394 7.98004 15.7939C8.08581 15.4528 8.29809 15.1544 8.58589 14.9423C8.87368 14.7301 9.22189 14.6154 9.57965 14.6149C9.93741 14.6143 10.286 14.728 10.5744 14.9393C10.8628 15.1505 11.076 15.4483 11.1828 15.7891L11.1924 15.8159C11.2817 16.0529 11.4036 16.2763 11.5546 16.4798C11.8201 16.8337 12.097 17.0068 12.4583 17.0068C12.8196 17.0068 13.0956 16.8327 13.362 16.4807C13.5178 16.2697 13.6424 16.0375 13.732 15.7911C13.8002 15.5729 13.9124 15.371 14.0617 15.1978C14.2111 15.0245 14.3944 14.8837 14.6003 14.7838C14.8063 14.684 15.0306 14.6273 15.2593 14.6173C15.4881 14.6073 15.7164 14.6441 15.9304 14.7255L18.2955 9.9132C18.3402 9.82248 18.3651 9.72336 18.3687 9.62235C18.3723 9.52134 18.3545 9.42071 18.3164 9.32705C18.2783 9.2334 18.2208 9.14884 18.1477 9.07891C18.0746 9.00898 17.9875 8.95527 17.8921 8.92128L16.2917 8.35119V3.85456C16.2917 3.66429 16.2159 3.48182 16.0812 3.34728C15.9464 3.21274 15.7635 3.13716 15.5729 3.13716H13.4167V0.984974C13.4167 0.794709 13.3409 0.612236 13.2062 0.477698C13.0714 0.343161 12.8885 0.267578 12.6979 0.267578H6.46875ZM11.9792 3.13716H7.1875V1.70237H11.9792V3.13716ZM14.8542 4.57195V7.83945L10.6404 6.33866C9.95496 6.09481 9.20564 6.0982 8.52246 6.34822L4.3125 7.88536V4.57195H14.8542ZM16.03 16.1115L16.0272 16.1019C15.9863 15.9518 15.8977 15.819 15.7747 15.7235C15.6516 15.628 15.5008 15.575 15.345 15.5725C15.1891 15.57 15.0367 15.6182 14.9107 15.7097C14.7846 15.8012 14.6918 15.9312 14.6462 16.0799V16.0818L14.6424 16.0905L14.6232 16.1459C14.5017 16.4706 14.3349 16.7765 14.1278 17.0546C13.7569 17.5472 13.2279 17.9633 12.4583 17.9633C11.6888 17.9633 11.1588 17.5472 10.788 17.0546C10.5689 16.7603 10.3952 16.435 10.2724 16.0895L10.2695 16.0809C10.2245 15.9338 10.1334 15.805 10.0095 15.7135C9.88566 15.6221 9.73562 15.5728 9.58154 15.5729C9.42746 15.573 9.27749 15.6225 9.15375 15.7141C9.03001 15.8058 8.93906 15.9347 8.89429 16.0818L8.89046 16.0924C8.85805 16.1865 8.82127 16.279 8.78025 16.3698C8.69496 16.5592 8.56271 16.8098 8.37775 17.0546C8.00879 17.5472 7.48075 17.9633 6.70833 17.9633C5.93592 17.9633 5.40692 17.5472 5.037 17.0546C4.81895 16.7609 4.64614 16.4362 4.52429 16.0914L4.52142 16.0809C4.47611 15.932 4.38357 15.8019 4.25772 15.7102C4.13188 15.6184 3.97957 15.5699 3.82373 15.5721C3.66789 15.5743 3.51698 15.6269 3.39374 15.7221C3.2705 15.8174 3.18161 15.95 3.14046 16.1L3.13758 16.1086L3.12033 16.1603C3.00754 16.4781 2.84448 16.7759 2.63733 17.0422C2.26933 17.5109 1.68283 17.9633 0.71875 17.9633C0.528126 17.9633 0.345309 18.0389 0.210517 18.1735C0.0757251 18.308 0 18.4905 0 18.6807C0 18.871 0.0757251 19.0535 0.210517 19.188C0.345309 19.3225 0.528126 19.3981 0.71875 19.3981C2.22717 19.3981 3.19796 18.6549 3.76913 17.9279L3.83333 17.8428L3.887 17.9155C4.416 18.6186 5.3245 19.3981 6.70833 19.3981C8.09217 19.3981 9.00067 18.6186 9.52871 17.9155L9.58333 17.8409L9.63892 17.9165C10.1679 18.6186 11.0764 19.3981 12.4583 19.3981C13.8403 19.3981 14.7487 18.6186 15.2778 17.9155L15.3305 17.8438C15.3506 17.8725 15.3717 17.8992 15.3937 17.927C15.9639 18.6549 16.9366 19.3981 18.4479 19.3981C18.6385 19.3981 18.8214 19.3225 18.9562 19.188C19.0909 19.0535 19.1667 18.871 19.1667 18.6807C19.1667 18.4905 19.0909 18.308 18.9562 18.1735C18.8214 18.0389 18.6385 17.9633 18.4479 17.9633C17.4781 17.9633 16.8925 17.5109 16.5265 17.0432C16.3093 16.7629 16.1414 16.4479 16.03 16.1115Z" fill="#F2F2F2"/>
</svg>
