<svg width="20" height="23" viewBox="0 0 20 23" fill="none" xmlns="http://www.w3.org/2000/svg">
<path d="M0 16.8848C0 17.9461 0.47125 18.8989 1.20833 19.5622V21.709C1.20833 22.3723 1.75208 22.9151 2.41667 22.9151H3.625C4.28958 22.9151 4.83333 22.3723 4.83333 21.709V20.503H14.5V21.709C14.5 22.3723 15.0438 22.9151 15.7083 22.9151H16.9167C17.5813 22.9151 18.125 22.3723 18.125 21.709V19.5622C18.8621 18.8989 19.3333 17.9461 19.3333 16.8848V4.82422C19.3333 0.603028 15.0075 0 9.66667 0C4.32583 0 0 0.603028 0 4.82422V16.8848ZM4.22917 18.0908C3.22625 18.0908 2.41667 17.2828 2.41667 16.2818C2.41667 15.2807 3.22625 14.4727 4.22917 14.4727C5.23208 14.4727 6.04167 15.2807 6.04167 16.2818C6.04167 17.2828 5.23208 18.0908 4.22917 18.0908ZM15.1042 18.0908C14.1013 18.0908 13.2917 17.2828 13.2917 16.2818C13.2917 15.2807 14.1013 14.4727 15.1042 14.4727C16.1071 14.4727 16.9167 15.2807 16.9167 16.2818C16.9167 17.2828 16.1071 18.0908 15.1042 18.0908ZM16.9167 10.8545H2.41667V4.82422H16.9167V10.8545Z" fill="#F2F2F2"/>
</svg>
