<svg width="13" height="14" viewBox="0 0 13 14" fill="none" xmlns="http://www.w3.org/2000/svg">
<path d="M0.923842 1.93412V1.39078C0.923842 0.6239 1.54548 0 2.30959 0H6.1636C6.53379 0 6.88175 0.144676 7.14349 0.407391L12.5941 5.87782C12.8558 6.1405 13 6.48976 13 6.86126C13 7.23277 12.8558 7.58202 12.5941 7.84471L12.0402 8.40057C12.0637 8.50275 12.0761 8.60824 12.0761 8.71566C12.0761 9.08716 11.932 9.43642 11.6702 9.69911L7.81628 13.567C7.54614 13.8381 7.19127 13.9736 6.83642 13.9736C6.48158 13.9736 6.1267 13.8381 5.85656 13.5669L0.405916 8.09645C0.144152 7.83374 0 7.48451 0 7.11301V3.24515C0 2.6408 0.386229 2.12549 0.923842 1.93412ZM11.9408 7.18907C12.0281 7.10152 12.0762 6.98509 12.0762 6.86124C12.0762 6.73738 12.0281 6.62101 11.9408 6.5334L6.49022 1.06298C6.40296 0.975451 6.28698 0.927199 6.16358 0.927199H2.30962C2.05492 0.927199 1.84771 1.13517 1.84771 1.39078V1.85437H5.23976C5.60995 1.85437 5.95791 1.99905 6.21965 2.26176L11.5349 7.59641L11.9408 7.18907ZM1.05916 7.44084L6.5098 12.9113C6.68996 13.0921 6.98297 13.092 7.16304 12.9113L11.017 9.04344C11.1042 8.95589 11.1523 8.83946 11.1523 8.71561C11.1523 8.59175 11.1042 8.47538 11.017 8.38777L5.56638 2.91732C5.47912 2.82979 5.36314 2.78154 5.23974 2.78154H1.38578C1.13108 2.78154 0.923868 2.98951 0.923868 3.24513V7.11298C0.923868 7.23683 0.97192 7.35326 1.05916 7.44084Z" fill="#0EB6BD"/>
</svg>
