<svg width="53" height="53" viewBox="0 0 53 53" fill="none" xmlns="http://www.w3.org/2000/svg">
<path d="M40.0283 31.5103C36.3445 31.5103 33.3477 34.5071 33.3477 38.1909C33.3477 41.8748 36.3445 44.8716 40.0283 44.8716C43.7128 44.8716 46.709 41.8748 46.709 38.1909C46.709 34.5071 43.7122 31.5103 40.0283 31.5103ZM40.0283 41.5313C38.1862 41.5313 36.688 40.0331 36.688 38.1909C36.688 36.3488 38.1862 34.8506 40.0283 34.8506C41.8705 34.8506 43.3687 36.3488 43.3687 38.1909C43.3687 40.0332 41.8705 41.5313 40.0283 41.5313Z" fill="black"/>
<path d="M17.2031 31.5103C13.5193 31.5103 10.5225 34.5071 10.5225 38.1909C10.5225 41.8748 13.5193 44.8716 17.2031 44.8716C20.887 44.8716 23.8838 41.8748 23.8838 38.1909C23.8838 34.5071 20.887 31.5103 17.2031 31.5103ZM17.2031 41.5313C15.361 41.5313 13.8628 40.0331 13.8628 38.1909C13.8628 36.3488 15.361 34.8506 17.2031 34.8506C19.0448 34.8506 20.5435 36.3488 20.5435 38.1909C20.5435 40.0332 19.0453 41.5313 17.2031 41.5313Z" fill="black"/>
<path d="M44.5271 12.388C44.2432 11.824 43.6659 11.4683 43.0345 11.4683H34.2383V14.8086H42.0045L46.5524 23.8542L49.5376 22.3532L44.5271 12.388Z" fill="black"/>
<path d="M35.0175 36.5767H22.3799V39.917H35.0175V36.5767Z" fill="black"/>
<path d="M12.1924 36.5767H6.40254C5.48001 36.5767 4.73242 37.3244 4.73242 38.2468C4.73242 39.1693 5.48011 39.9169 6.40254 39.9169H12.1925C13.115 39.9169 13.8626 39.1692 13.8626 38.2468C13.8626 37.3243 13.1149 36.5767 12.1924 36.5767Z" fill="black"/>
<path d="M52.6495 26.3661L49.3643 22.135C49.0487 21.7275 48.5616 21.4892 48.0454 21.4892H35.9088V9.79805C35.9088 8.87552 35.1611 8.12793 34.2387 8.12793H6.40254C5.48001 8.12793 4.73242 8.87562 4.73242 9.79805C4.73242 10.7205 5.48012 11.4682 6.40254 11.4682H32.5685V23.1593C32.5685 24.0819 33.3162 24.8295 34.2386 24.8295H47.2276L49.6599 27.9627V36.5763H45.039C44.1165 36.5763 43.3689 37.324 43.3689 38.2464C43.3689 39.169 44.1166 39.9165 45.039 39.9165H51.33C52.2525 39.9165 53.0001 39.1689 53.0002 38.2464V27.3905C53.0002 27.0197 52.8766 26.659 52.6495 26.3661Z" fill="black"/>
<path d="M12.0805 28.1147H4.39766C3.47513 28.1147 2.72754 28.8624 2.72754 29.7849C2.72754 30.7074 3.47523 31.455 4.39766 31.455H12.0804C13.0029 31.455 13.7505 30.7073 13.7505 29.7849C13.7506 28.8624 13.0029 28.1147 12.0805 28.1147Z" fill="black"/>
<path d="M15.9223 21.5449H1.67012C0.747693 21.5449 0 22.2926 0 23.2151C0 24.1377 0.747693 24.8853 1.67012 24.8853H15.9223C16.8448 24.8853 17.5924 24.1376 17.5924 23.2151C17.5924 22.2927 16.8448 21.5449 15.9223 21.5449Z" fill="black"/>
<path d="M18.6498 14.9756H4.39766C3.47513 14.9756 2.72754 15.7233 2.72754 16.6457C2.72754 17.5682 3.47523 18.3158 4.39766 18.3158H18.6498C19.5723 18.3158 20.3199 17.5681 20.3199 16.6457C20.32 15.7233 19.5723 14.9756 18.6498 14.9756Z" fill="black"/>
</svg>
