<svg width="38" height="42" viewBox="0 0 38 42" fill="none" xmlns="http://www.w3.org/2000/svg">
<path d="M11.5032 41.0372C13.079 41.0423 14.5314 40.1767 15.3237 38.7933L23.4052 24.6371C23.9756 23.6398 24.986 23.0629 26.0891 23.0342L32.2032 22.9896C33.7159 22.9945 35.2298 22.6127 36.5871 21.9402L37.471 21.4918C38.1655 21.1395 38.1687 20.1081 37.4765 19.7513L36.5955 19.2971C35.2426 18.6158 33.7311 18.2241 32.2184 18.2192L26.1047 18.1349C25.0017 18.1313 23.9636 17.5155 23.4311 16.5145L15.4399 2.30609C14.6565 0.917525 13.2096 0.0425322 11.6338 0.0374079C14.8918 6.20448 16.7265 13.9463 17.4097 17.1396C17.5028 17.5912 17.1548 17.9768 16.7451 17.9755L16.4027 16.6528C16.2472 16.0077 15.6181 15.6188 14.9875 15.7135L13.2847 16.0303C13.064 16.0618 12.843 16.19 12.6848 16.3829C12.5266 16.5758 12.3056 16.704 12.0533 16.7354L11.4227 16.83L12.1156 16.9612C12.3361 16.9942 12.5249 17.0915 12.682 17.2532L12.9333 17.5118L13.3417 17.9322L12.0495 17.928C11.2302 17.9253 10.3789 18.0193 9.59044 18.2101L5.52173 19.2283L3.89724 14.7427C3.55365 13.7746 2.61004 13.1913 1.60115 13.3169L0.0878384 13.5054L2.43082 19.9918L1.29533 20.2783C1.10614 20.3099 1.10521 20.6 1.2942 20.6328L2.42784 20.9266L0.0435854 27.3976L1.55566 27.596C2.53222 27.7281 3.47953 27.151 3.86079 26.1852L5.54533 21.7103L9.57597 22.7549C10.3947 22.9509 11.2138 23.0503 12.0332 23.053L13.3253 23.0572L12.9143 23.4749L12.6614 23.7319C12.5033 23.8925 12.3139 23.9886 12.0932 24.0202L11.3994 24.1468L12.0294 24.2456C12.2814 24.2786 12.5016 24.4083 12.6586 24.6022C12.8156 24.7961 13.0358 24.8935 13.2562 24.9587L14.957 25.2865C15.5869 25.4175 16.2185 25.0006 16.3782 24.3564L16.729 23.036C17.1702 23.0374 17.4841 23.4575 17.3882 23.8762C16.6843 27.1939 14.8004 34.8914 11.5032 41.0372Z" fill="white"/>
</svg>
