<svg width="66" height="66" viewBox="0 0 66 66" fill="none" xmlns="http://www.w3.org/2000/svg">
<path fill-rule="evenodd" clip-rule="evenodd" d="M60.4413 39.1889L23.5233 34.5232C23.2659 34.4909 23.0077 34.5702 22.8134 34.7415C22.6192 34.9128 22.5078 35.1594 22.5078 35.4184V59.8434C22.5078 60.1024 22.6192 60.349 22.8134 60.5203C22.9792 60.6664 23.1916 60.7458 23.41 60.7458C23.4477 60.7458 23.4854 60.7433 23.5232 60.7387L60.4412 56.0729C60.8922 56.016 61.2305 55.6323 61.2305 55.1777V40.0842C61.2306 39.6296 60.8923 39.246 60.4413 39.1889ZM33.5954 37.6151L36.515 37.984V57.2776L33.5954 57.6465V37.6151ZM31.7907 57.8747L28.871 58.2437V37.018L31.7907 37.3871V57.8747ZM38.3198 38.2122L41.2394 38.5811V56.6805L38.3198 57.0494V38.2122ZM43.0441 38.8093L45.9637 39.1782V56.0834L43.0441 56.4523V38.8093ZM47.7684 39.4064L50.688 39.7753V55.4864L47.7684 55.8553V39.4064ZM52.4927 40.0035L55.4125 40.3725V54.8894L52.4927 55.2585V40.0035ZM24.3126 36.4419L27.0663 36.79V58.4717L24.3126 58.8198V36.4419ZM59.4259 54.3821L57.2172 54.6611V40.6006L59.4259 40.8797V54.3821ZM7.20135 42.6155V52.6463C7.20135 53.1447 6.79736 53.5487 6.299 53.5487C5.80065 53.5487 5.39666 53.1447 5.39666 52.6463V42.6155C5.39666 42.1171 5.80065 41.7132 6.299 41.7132C6.79736 41.7132 7.20135 42.1171 7.20135 42.6155ZM12.232 53.3649V41.8916C12.232 41.3932 12.636 40.9892 13.1344 40.9892C13.6327 40.9892 14.0367 41.3932 14.0367 41.8916V53.3649C14.0367 53.8632 13.6327 54.2672 13.1344 54.2672C12.636 54.2672 12.232 53.8632 12.232 53.3649ZM64.3678 36.1092L36.227 20.8404C36.8891 20.085 37.2917 19.0968 37.2917 18.0158C37.2917 17.5175 36.8877 17.1135 36.3893 17.1135C35.891 17.1135 35.487 17.5175 35.487 18.0158C35.487 18.7917 35.1294 19.4853 34.5708 19.9418L33.4304 19.3229C33.1753 19.1845 32.8694 19.1773 32.608 19.3033L31.378 19.8968C30.8495 19.4404 30.5131 18.7672 30.5131 18.0158C30.5131 16.6445 31.6287 15.5289 33 15.5289C33.4983 15.5289 33.9023 15.125 33.9023 14.6266V11.2554C35.7462 10.8426 37.1286 9.19385 37.1286 7.22726C37.1286 5.26066 35.7461 3.61195 33.9023 3.1992V2.0625C33.9023 1.56415 33.4983 1.16016 33 1.16016C32.5016 1.16016 32.0977 1.56415 32.0977 2.0625V3.19932C30.2539 3.61221 28.8714 5.26092 28.8714 7.22739C28.8714 9.19398 30.2539 10.8426 32.0977 11.2554V13.8197C30.163 14.2352 28.7084 15.9589 28.7084 18.0158C28.7084 19.0404 29.0698 19.9818 29.671 20.7204L1.67037 34.2303C1.35854 34.3807 1.16016 34.6965 1.16016 35.0429V60.2188C1.16016 60.6458 1.45948 61.0143 1.87739 61.1019L19.6158 64.8206C19.6768 64.8334 19.7388 64.8398 19.8009 64.8398C19.8387 64.8398 19.8764 64.8374 19.9139 64.8326L64.0505 59.2546C64.5016 59.1976 64.8397 58.814 64.8397 58.3593V36.9023C64.8398 36.5715 64.6587 36.267 64.3678 36.1092ZM30.6761 7.22726C30.6761 5.9458 31.7185 4.90334 33 4.90334C34.2813 4.90334 35.3239 5.9458 35.3239 7.22726C35.3239 8.50872 34.2815 9.55131 33 9.55131C31.7187 9.55131 30.6761 8.50872 30.6761 7.22726ZM19.3916 30.4881L9.11354 32.6428L27.0395 23.9938L19.3916 30.4881ZM18.8986 32.4354V62.8263L10.5449 61.075V34.1865L18.8986 32.4354ZM31.9633 22.1801C32.2955 22.2629 32.6427 22.3075 33 22.3075C33.3339 22.3075 33.6583 22.2679 33.9704 22.1955L46.9944 33.8516L21.9467 30.686L31.9633 22.1801ZM50.1454 34.2497L39.3497 24.588L59.2857 35.405L50.1454 34.2497ZM2.96484 35.7757L8.74023 34.5649V60.6968L2.96484 59.486V35.7757ZM20.7032 62.914V32.3477L63.0351 37.6979V57.564L20.7032 62.914ZM33 8.1296C32.5029 8.1296 32.0977 7.72432 32.0977 7.22726C32.0977 6.7302 32.5029 6.32491 33 6.32491C33.4971 6.32491 33.9023 6.7302 33.9023 7.22726C33.9025 7.72432 33.4971 8.1296 33 8.1296Z" fill="white"/>
</svg>
