<svg width="25" height="26" viewBox="0 0 25 26" fill="none" xmlns="http://www.w3.org/2000/svg">
<path d="M7.31729 25.392C8.31438 25.3905 9.23089 24.8507 9.72813 23.9924L14.8 15.2103C15.158 14.5916 15.7956 14.2317 16.4935 14.2107L20.3622 14.1649C21.3194 14.1634 22.2762 13.9227 23.1331 13.5026L23.691 13.2226C24.1294 13.0026 24.1284 12.3644 23.6894 12.1457L23.1306 11.8674C22.2724 11.4499 21.3149 11.2121 20.3577 11.2135L16.4889 11.1795C15.7909 11.1806 15.1323 10.8027 14.7923 10.185L9.69384 1.41832C9.19399 0.561575 8.27585 0.0245398 7.27876 0.0260542C9.35853 3.85173 10.5424 8.63598 10.9841 10.6096C11.0443 10.8886 10.8253 11.1283 10.5661 11.1287L10.3455 10.3114C10.2452 9.91271 9.84597 9.67402 9.44723 9.73445L8.37067 9.9355C8.23111 9.95565 8.09164 10.0356 7.99211 10.1554C7.89258 10.2752 7.75311 10.3552 7.59361 10.3754L7.19486 10.4358L7.6337 10.5149C7.77333 10.5347 7.89307 10.5943 7.99293 10.6939L8.15271 10.8532L8.41234 11.112L7.59473 11.1132C7.07624 11.114 6.5379 11.1747 6.03954 11.2951L3.46802 11.9371L2.42683 9.16679C2.20656 8.56887 1.60776 8.21083 0.969746 8.29157L0.0127211 8.41267L1.53442 12.4386L0.816784 12.6192C0.697164 12.6393 0.697436 12.8188 0.817118 12.8385L1.5353 13.0169L0.0457474 17.0275L1.00314 17.1457C1.62145 17.2245 2.21916 16.8647 2.45756 16.266L3.51026 13.4925L6.06378 14.1268C6.58245 14.2457 7.10103 14.3047 7.61952 14.3039L8.43713 14.3027L8.17828 14.5623L8.01899 14.7221C7.91943 14.8219 7.79987 14.8819 7.66031 14.9021L7.22171 14.9825L7.62064 15.0418C7.7802 15.0615 7.91992 15.141 8.01981 15.2605C8.1197 15.38 8.25938 15.4396 8.39903 15.4793L9.4762 15.6771C9.87515 15.7562 10.2736 15.4964 10.3727 15.0974L10.5908 14.2795C10.87 14.279 11.0698 14.538 11.0104 14.7973C10.5547 16.7922 9.38542 21.5601 7.31729 25.392Z" fill="#DF1119"/>
</svg>
