<svg width="33" height="33" viewBox="0 0 33 33" fill="none" xmlns="http://www.w3.org/2000/svg">
<g clip-path="url(#clip0_86_3604)">
<path fill-rule="evenodd" clip-rule="evenodd" d="M19.8296 29.9854C19.8296 28.8448 18.905 27.9201 17.7644 27.9201H15.2356C14.6878 27.9201 14.1625 28.1377 13.7752 28.525C13.3879 28.9123 13.1704 29.4376 13.1704 29.9854C13.1704 31.1259 14.095 32.0506 15.2356 32.0506H17.7644C18.905 32.0506 19.8296 31.1259 19.8296 29.9854ZM4.34163 24.66C4.68658 24.6864 5.10391 24.7015 5.52312 24.677C5.74645 25.8096 6.30126 26.86 7.12942 27.6882C8.22886 28.7876 9.71998 29.4053 11.2748 29.4053H12.0628C12.028 29.5954 12.0102 29.7895 12.0102 29.9854C12.0102 30.1834 12.028 30.3774 12.0623 30.5654H11.2748C9.41228 30.5654 7.62603 29.8256 6.30906 28.5086C5.25841 27.4579 4.57501 26.1086 4.34163 24.66ZM3.75149 23.4256C2.83555 23.2711 1.98322 22.8357 1.31787 22.1703C0.474053 21.3265 0 20.182 0 18.9886V16.2466C0 15.0532 0.474053 13.9087 1.31787 13.0649C2.16169 12.2211 3.30619 11.747 4.49954 11.747H4.79905C5.27781 5.70412 10.3336 0.949219 16.5 0.949219C22.6664 0.949219 27.7222 5.70412 28.2009 11.747H28.5005C29.6938 11.747 30.8383 12.2211 31.6821 13.0649C32.5259 13.9087 33 15.0532 33 16.2466V18.9886C33 20.182 32.5259 21.3265 31.6821 22.1703C30.8383 23.0142 29.6938 23.4882 28.5005 23.4882H27.1727C26.622 23.4882 26.1756 23.0417 26.1756 22.4911V12.6873C26.1756 7.34361 21.8437 3.01172 16.5 3.01172C11.1563 3.01172 6.82443 7.34361 6.82443 12.6873V22.4911C6.82443 22.8799 6.60187 23.2168 6.27715 23.3812C5.38332 23.6914 3.99713 23.467 3.75149 23.4256Z" fill="#0EB6BD"/>
</g>
<defs>
<clipPath id="clip0_86_3604">
<rect width="33" height="33" fill="white"/>
</clipPath>
</defs>
</svg>
