<svg width="32" height="32" viewBox="0 0 32 32" fill="none" xmlns="http://www.w3.org/2000/svg">
<path d="M23.5729 19.3603C22.9996 18.5758 22.1384 18.0509 21.1784 17.9009C20.2184 17.7509 19.2381 17.988 18.4529 18.5603L16.9462 19.6536C14.779 17.6926 13.0405 15.3049 11.8396 12.6403L13.3329 11.547C14.1204 10.9733 14.6482 10.1107 14.8007 9.14841C14.9532 8.18612 14.7178 7.20263 14.1462 6.41362L12.5996 4.26695C12.3205 3.87486 11.9654 3.54295 11.5553 3.29097C11.1453 3.039 10.6888 2.87212 10.2129 2.80028C9.2728 2.66163 8.31576 2.8961 7.54622 3.45362L5.17289 5.13362C4.41898 5.67771 3.8322 6.42175 3.47879 7.2817C3.12539 8.14166 3.01943 9.08329 3.17289 10.0003C3.85036 13.9485 5.43006 17.687 7.78897 20.9248C10.1479 24.1625 13.2223 26.812 16.7729 28.667C17.4866 29.0336 18.2772 29.2256 19.0796 29.227C20.135 29.2299 21.1634 28.8933 22.0129 28.267L24.3329 26.667C25.1195 26.0957 25.6471 25.2355 25.7996 24.2753C25.9521 23.3152 25.7171 22.3338 25.1462 21.547L23.5729 19.3603ZM23.1596 25.027L20.8396 26.667C20.3885 26.9939 19.8556 27.1894 19.3002 27.2318C18.7447 27.2742 18.1883 27.1617 17.6929 26.907C14.4033 25.1852 11.558 22.7236 9.38093 19.7159C7.20383 16.7082 5.75425 13.2364 5.14622 9.57362C5.05352 9.0234 5.11679 8.4582 5.32889 7.94211C5.54098 7.42601 5.89341 6.97965 6.34622 6.65362L8.65289 5.06695C8.94179 4.86283 9.28585 4.75125 9.63956 4.74695H9.89289C10.1101 4.7805 10.3185 4.85667 10.5061 4.97109C10.6938 5.0855 10.8569 5.2359 10.9862 5.41362L12.5596 7.60028C12.8164 7.95789 12.9213 8.40259 12.8513 8.83727C12.7814 9.27195 12.5423 9.6613 12.1862 9.92028L10.0262 11.4936C9.8461 11.6258 9.7154 11.8144 9.65499 12.0295C9.59457 12.2446 9.60792 12.4737 9.69289 12.6803C11.104 16.1755 13.3521 19.2707 16.2396 21.6936C16.414 21.8321 16.6302 21.9074 16.8529 21.9074C17.0756 21.9074 17.2918 21.8321 17.4662 21.6936L19.6262 20.1336C19.8037 20.0044 20.0051 19.9115 20.2186 19.8603C20.4321 19.8091 20.6537 19.8006 20.8705 19.8353C21.0873 19.87 21.2951 19.9472 21.482 20.0625C21.6689 20.1777 21.8312 20.3288 21.9596 20.507L23.5196 22.667C23.6519 22.8452 23.7477 23.0478 23.8012 23.2633C23.8548 23.4787 23.8651 23.7026 23.8317 23.922C23.7982 24.1415 23.7216 24.3521 23.6062 24.5418C23.4908 24.7314 23.339 24.8963 23.1596 25.027ZM17.4529 7.88028C17.4968 7.75045 17.5672 7.63119 17.6597 7.53009C17.7522 7.42898 17.8648 7.34826 17.9902 7.29307C18.1157 7.23788 18.2513 7.20942 18.3883 7.20952C18.5253 7.20961 18.6609 7.23825 18.7862 7.29362C20.3059 7.85558 21.6243 8.85655 22.5739 10.1694C23.5236 11.4822 24.0615 13.0477 24.1196 14.667C24.1268 14.93 24.0301 15.1852 23.8504 15.3774C23.6707 15.5696 23.4225 15.6832 23.1596 15.6936C22.9011 15.6938 22.6527 15.594 22.4662 15.415C22.2798 15.236 22.1699 14.9918 22.1596 14.7336C22.1171 13.5136 21.7146 12.3335 21.0028 11.3418C20.291 10.35 19.3018 9.59101 18.1596 9.16028C18.0266 9.12683 17.9019 9.06638 17.7933 8.98269C17.6846 8.899 17.5944 8.79387 17.5281 8.67383C17.4618 8.55378 17.421 8.42139 17.408 8.28487C17.3951 8.14836 17.4104 8.01064 17.4529 7.88028ZM28.8929 14.4136C28.9152 14.6783 28.8327 14.9412 28.6632 15.1457C28.4936 15.3502 28.2505 15.4799 27.9862 15.507H27.8929C27.6439 15.5051 27.4044 15.4116 27.22 15.2444C27.0355 15.0771 26.9191 14.8479 26.8929 14.6003C26.6996 12.4424 25.9258 10.377 24.6534 8.62345C23.3811 6.86986 21.6577 5.49345 19.6662 4.64028C19.4222 4.53596 19.2297 4.33899 19.1309 4.09269C19.0321 3.84639 19.0352 3.57095 19.1396 3.32695C19.2439 3.08295 19.4408 2.89038 19.6871 2.79162C19.9334 2.69285 20.2089 2.69596 20.4529 2.80028C22.7812 3.78778 24.7969 5.39039 26.2837 7.43627C27.7706 9.48215 28.6725 11.8941 28.8929 14.4136Z" fill="white"/>
</svg>
