<svg width="28" height="28" viewBox="0 0 28 28" fill="none" xmlns="http://www.w3.org/2000/svg">
<path d="M22.167 23.9163H5.83366C4.59639 23.915 3.41017 23.4229 2.53528 22.5481C1.6604 21.6732 1.16831 20.4869 1.16699 19.2497V8.74968C1.16831 7.5124 1.6604 6.32618 2.53528 5.4513C3.41017 4.57642 4.59639 4.08433 5.83366 4.08301H22.167C23.4043 4.08433 24.5905 4.57642 25.4654 5.4513C26.3402 6.32618 26.8323 7.5124 26.8337 8.74968V19.2497C26.8323 20.4869 26.3402 21.6732 25.4654 22.5481C24.5905 23.4229 23.4043 23.915 22.167 23.9163ZM5.83366 6.41634C5.21504 6.41705 4.62196 6.66311 4.18452 7.10054C3.74709 7.53797 3.50103 8.13105 3.50033 8.74968V19.2497C3.50103 19.8683 3.74709 20.4614 4.18452 20.8988C4.62196 21.3362 5.21504 21.5823 5.83366 21.583H22.167C22.7856 21.5823 23.3787 21.3362 23.8161 20.8988C24.2536 20.4614 24.4996 19.8683 24.5003 19.2497V8.74968C24.4996 8.13105 24.2536 7.53797 23.8161 7.10054C23.3787 6.66311 22.7856 6.41705 22.167 6.41634H5.83366Z" fill="white"/>
<path d="M14.0001 15.6723C12.7025 15.6728 11.4418 15.2399 10.4181 14.4424L2.78345 8.50424C2.53915 8.31417 2.38036 8.03485 2.34201 7.7277C2.30365 7.42056 2.38888 7.11076 2.57895 6.86646C2.76901 6.62216 3.04834 6.46337 3.35548 6.42501C3.66263 6.38666 3.97242 6.47189 4.21673 6.66196L11.8513 12.6001C12.4653 13.0788 13.2215 13.3388 14.0001 13.3388C14.7786 13.3388 15.5349 13.0788 16.1489 12.6001L23.7835 6.66196C24.0278 6.47189 24.3376 6.38666 24.6447 6.42501C24.9518 6.46337 25.2312 6.62216 25.4212 6.86646C25.6113 7.11076 25.6965 7.42056 25.6582 7.7277C25.6198 8.03485 25.461 8.31417 25.2167 8.50424L17.5821 14.4424C16.5583 15.2396 15.2977 15.6725 14.0001 15.6723Z" fill="white"/>
</svg>
