<svg width="51" height="51" viewBox="0 0 51 51" fill="none" xmlns="http://www.w3.org/2000/svg">
<g clip-path="url(#clip0_285_571)">
<path d="M48.6744 31.8424L50.1335 30.3837C51.0518 29.465 51.0518 27.9705 50.1335 27.0518C49.6884 26.6071 49.097 26.362 48.4674 26.362C47.995 26.362 47.5437 26.5001 47.16 26.7573L46.8526 25.7254L48.432 24.1456C49.3507 23.227 49.3507 21.7325 48.432 20.8142C47.5865 19.9683 46.2534 19.9033 45.3301 20.615L43.4585 14.3318C44.206 13.6119 44.9219 12.9116 45.5966 12.2369C47.541 10.2921 49.1219 8.23419 50.0483 6.44122C51.6137 3.41091 50.9584 1.79109 50.1331 0.965811C49.3082 0.14053 47.6884 -0.514325 44.6577 1.05102C42.8651 1.97708 40.8068 3.55799 38.8625 5.50271C38.1878 6.17741 37.487 6.89297 36.7676 7.64043L30.484 5.76886C31.1957 4.84591 31.1307 3.51286 30.2852 2.66695C29.3665 1.74868 27.872 1.74829 26.9537 2.66695L25.374 4.2467L24.3417 3.93931C24.5989 3.55527 24.737 3.10391 24.737 2.63155C24.737 2.00237 24.4919 1.41055 24.0471 0.965811C23.1288 0.0471462 21.6339 0.0471462 20.7157 0.965811L19.2569 2.42455L11.8216 0.20979C11.5566 0.131192 11.2703 0.203564 11.0753 0.398892L9.16134 2.31287C8.83995 2.63388 8.88236 3.1829 9.24889 3.45099L28.0089 17.1827C23.779 21.9519 19.7044 26.7269 16.8278 30.1386L11.3096 28.016C11.0321 27.9094 10.7181 27.9759 10.508 28.1861L8.23957 30.4545C7.94619 30.7483 7.94619 31.2242 8.23957 31.5175L19.5814 42.8594C19.8709 43.1493 20.355 43.1493 20.6448 42.8594L22.9129 40.5913C23.123 40.3812 23.1899 40.0668 23.0829 39.7894L20.9608 34.2716C24.3724 31.395 29.1471 27.3203 33.9166 23.09L35.4069 25.1266C35.6715 25.488 36.208 25.5347 36.5326 25.2266C36.803 24.9698 36.8403 24.539 36.6205 24.2386L35.045 22.0861C37.5392 19.8601 40.0022 17.6142 42.2367 15.4979L49.3203 39.2777L48.3433 40.2544L38.6076 26.9534C38.3625 26.6184 37.8921 26.5456 37.557 26.7908C37.2216 27.0363 37.1489 27.5067 37.3944 27.8417L47.6483 41.8505C47.9164 42.217 48.4655 42.2594 48.7865 41.938L50.7004 40.024C50.8958 39.8291 50.9681 39.5423 50.8895 39.2777L48.6744 31.8424ZM28.0171 3.73036C28.3455 3.40196 28.8937 3.40196 29.2221 3.73036C29.5544 4.06266 29.5544 4.60312 29.2221 4.93541L28.8696 5.28793L27.0125 4.73463L28.0171 3.73036ZM21.7791 2.02922C22.111 1.69693 22.6518 1.69693 22.9841 2.02922C23.3164 2.36151 23.3164 2.90197 22.9841 3.23426L22.7522 3.46578L20.8954 2.91287L21.7791 2.02922ZM10.8446 2.75567L11.8216 1.77903L35.6014 8.8622C33.4851 11.0972 31.2392 13.5602 29.0128 16.0543L10.8446 2.75567ZM11.2259 29.595L15.8037 31.3557C14.6554 32.723 13.7749 33.7809 13.2554 34.407L9.83449 30.986L11.2259 29.595ZM14.3235 35.4751C16.9445 32.3129 30.7984 15.6932 39.9259 6.56573C41.7368 4.75447 43.7134 3.23154 45.348 2.38719C46.5752 1.75296 48.2172 1.17631 49.0701 2.02922C49.923 2.88213 49.346 4.52413 48.7121 5.75135C47.8678 7.38596 46.3445 9.36219 44.5332 11.1735C35.4065 20.3002 18.7865 34.1545 15.6243 36.7758L14.3235 35.4751ZM21.5044 39.8735L20.1133 41.2645L16.6924 37.8435C17.318 37.3245 18.3764 36.4439 19.7437 35.2957L21.5044 39.8735ZM47.8651 28.1152C48.1974 27.783 48.7378 27.783 49.0701 28.1152C49.4024 28.4475 49.4024 28.988 49.0701 29.3203L48.1865 30.2039L47.6332 28.3471L47.8651 28.1152ZM46.1639 21.8772C46.4958 21.5449 47.0367 21.5453 47.369 21.8772C47.6974 22.2056 47.6974 22.7538 47.369 23.0822L46.3643 24.0869L45.811 22.2297L46.1639 21.8772Z" fill="#DF1119"/>
<path d="M45.1315 43.4002L38.7157 49.8161C38.4421 50.09 38.4239 50.5421 38.6756 50.8363C38.9569 51.1647 39.4733 51.1853 39.7791 50.8795L46.1949 44.4636C46.4887 44.1699 46.4887 43.694 46.1949 43.4002C45.9016 43.1068 45.4253 43.1068 45.1315 43.4002Z" fill="#DF1119"/>
<path d="M42.987 41.2555C43.2808 40.9621 43.2808 40.4859 42.987 40.1925C42.6936 39.8987 42.2174 39.8987 41.924 40.1925L37.9139 44.2022C37.6404 44.4761 37.6221 44.9282 37.8738 45.2224C38.1552 45.5508 38.6715 45.5714 38.9773 45.2656L42.987 41.2555Z" fill="#DF1119"/>
<path d="M40.5811 37.2457C40.8749 36.9519 40.8749 36.4756 40.5811 36.1822C40.2873 35.8885 39.8115 35.8885 39.5177 36.1822L36.7107 38.9892C36.4372 39.2627 36.4189 39.7153 36.671 40.0094C36.952 40.3378 37.4683 40.3584 37.7741 40.0526L40.5811 37.2457Z" fill="#DF1119"/>
<path d="M7.6996 5.30549C7.40583 5.0121 6.92958 5.0121 6.6362 5.30549L0.220328 11.7217C-0.0734426 12.0151 -0.0734426 12.4914 0.220328 12.7848C0.509818 13.0743 0.993858 13.0743 1.28374 12.7848L7.6996 6.3689C7.99299 6.07512 7.99299 5.59926 7.6996 5.30549Z" fill="#DF1119"/>
<path d="M10.9071 8.51378C10.6133 8.22001 10.1374 8.22001 9.84404 8.51378L5.83398 12.5238C5.56005 12.7974 5.54215 13.2495 5.7939 13.5437C6.07522 13.8721 6.59116 13.8927 6.897 13.5869L10.9071 9.57719C11.2008 9.28342 11.2008 8.80717 10.9071 8.51378Z" fill="#DF1119"/>
<path d="M11.0472 14.7901C11.3371 15.0796 11.8207 15.0796 12.1106 14.7901L14.9176 11.9832C15.2109 11.6894 15.2109 11.2135 14.9176 10.9197C14.6238 10.6264 14.1479 10.6264 13.8542 10.9197L11.0472 13.7267C10.7538 14.0205 10.7538 14.4963 11.0472 14.7901Z" fill="#DF1119"/>
</g>
<defs>
<clipPath id="clip0_285_571">
<rect width="51" height="51" fill="white"/>
</clipPath>
</defs>
</svg>
