<svg width="50" height="50" viewBox="0 0 50 50" fill="none" xmlns="http://www.w3.org/2000/svg">
<path d="M4.70206 26.8123V37.7812C4.70669 38.7686 4.94591 39.7409 5.40007 40.6182C5.85424 41.4955 6.51039 42.2527 7.31467 42.8278V43.0156C7.31551 44.6049 7.9482 46.1289 9.07381 47.253C10.1994 48.3771 11.726 49.0094 13.3182 49.0111H15.5959C17.0164 49.0091 18.3904 48.5054 19.4746 47.5894C20.5587 46.6733 21.2832 45.4039 21.5197 44.0058H29.2682C29.5067 45.4021 30.2321 46.6693 31.3161 47.5835C32.4001 48.4976 33.7729 48.9999 35.192 49.0015H37.4697C39.062 48.9998 40.5885 48.3675 41.7141 47.2434C42.8397 46.1194 43.4724 44.5954 43.4733 43.0061V42.1591C44.6383 40.9936 45.2933 39.4148 45.2948 37.7684V26.8123C46.6129 26.5759 47.8059 25.885 48.6659 24.8603C49.5258 23.8356 49.998 22.542 50 21.2053V14.7832C49.998 13.4465 49.5258 12.153 48.6659 11.1283C47.8059 10.1036 46.6129 9.4127 45.2948 9.17624V6.23424C45.2931 4.58134 44.6345 2.99661 43.4635 1.82783C42.2925 0.659048 40.7048 0.00168578 39.0487 0H10.9481C9.29204 0.00168578 7.70433 0.659048 6.53334 1.82783C5.36235 2.99661 4.70375 4.58134 4.70206 6.23424V9.17624C3.38427 9.41278 2.19158 10.1038 1.33218 11.1285C0.472791 12.1533 0.00129274 13.4468 4.62082e-06 14.7832V21.1926C-0.0017003 22.5312 0.468438 23.8277 1.32809 24.8551C2.18774 25.8826 3.38212 26.5754 4.70206 26.8123Z" fill="white"/>
<path d="M6.81431 13.707H5.7042C5.10871 13.707 4.62598 14.1889 4.62598 14.7832V21.1926C4.62598 21.7869 5.10871 22.2688 5.7042 22.2688H6.81431C7.4098 22.2688 7.89253 21.7869 7.89253 21.1926V14.7832C7.89253 14.1889 7.4098 13.707 6.81431 13.707Z" fill="#ED5F57"/>
<path d="M44.2928 13.707H43.1827C42.5872 13.707 42.1045 14.1889 42.1045 14.7832V21.1926C42.1045 21.7869 42.5872 22.2688 43.1827 22.2688H44.2928C44.8883 22.2688 45.3711 21.7869 45.3711 21.1926V14.7832C45.3711 14.1889 44.8883 13.707 44.2928 13.707Z" fill="#ED5F57"/>
<path d="M11.9404 40.8218V43.006C11.9404 43.3708 12.0856 43.7207 12.3441 43.9786C12.6025 44.2366 12.953 44.3815 13.3185 44.3815H15.5962C15.7771 44.3815 15.9563 44.3459 16.1235 44.2768C16.2907 44.2076 16.4426 44.1063 16.5706 43.9786C16.6986 43.8509 16.8001 43.6992 16.8693 43.5324C16.9386 43.3655 16.9742 43.1866 16.9742 43.006V40.8218H11.9404Z" fill="#414042"/>
<path d="M33.8135 40.8218V43.006C33.8135 43.3708 33.9587 43.7207 34.2171 43.9786C34.4755 44.2366 34.8261 44.3815 35.1916 44.3815H37.4692C37.8347 44.3815 38.1852 44.2366 38.4437 43.9786C38.7021 43.7207 38.8473 43.3708 38.8473 43.006V40.8218H33.8135Z" fill="#414042"/>
<path d="M15.1366 31.8813C14.7984 31.8813 14.4678 31.9814 14.1867 32.169C13.9055 32.3565 13.6863 32.623 13.5569 32.9349C13.4275 33.2467 13.3936 33.5899 13.4596 33.9209C13.5256 34.252 13.6884 34.5561 13.9276 34.7947C14.1667 35.0334 14.4713 35.1959 14.803 35.2618C15.1347 35.3276 15.4785 35.2938 15.7909 35.1647C16.1034 35.0355 16.3704 34.8168 16.5583 34.5361C16.7462 34.2555 16.8464 33.9255 16.8464 33.588C16.8464 33.1353 16.6663 32.7013 16.3456 32.3812C16.025 32.0612 15.5901 31.8813 15.1366 31.8813Z" fill="white"/>
<path d="M9.32422 37.7683C9.32506 38.1962 9.49573 38.6063 9.79885 38.9088C10.102 39.2114 10.5129 39.3817 10.9415 39.3826H39.0422C39.4709 39.3817 39.8818 39.2114 40.1849 38.9088C40.488 38.6063 40.6587 38.1962 40.6595 37.7683V6.24685C40.6587 5.81898 40.488 5.40886 40.1849 5.10631C39.8818 4.80376 39.4709 4.63341 39.0422 4.63257H10.9479C10.5192 4.63341 10.1084 4.80376 9.80523 5.10631C9.50211 5.40886 9.33144 5.81898 9.3306 6.24685V37.7683H9.32422ZM15.13 36.7271C14.507 36.7278 13.8978 36.5439 13.3796 36.1988C12.8613 35.8538 12.4573 35.363 12.2186 34.7886C11.9799 34.2143 11.9173 33.5821 12.0386 32.9722C12.16 32.3623 12.46 31.8021 12.9005 31.3624C13.341 30.9227 13.9023 30.6233 14.5134 30.5022C15.1244 30.381 15.7577 30.4435 16.3332 30.6818C16.9086 30.92 17.4003 31.3233 17.7461 31.8406C18.0918 32.3579 18.276 32.9659 18.2753 33.5877C18.2737 34.4187 17.9426 35.2153 17.3545 35.8035C16.7664 36.3917 15.969 36.7238 15.1364 36.7271H15.13ZM29.3925 38.0899H20.5977C20.4152 38.0777 20.2441 37.9968 20.1191 37.8635C19.9942 37.7302 19.9247 37.5545 19.9247 37.3719C19.9247 37.1893 19.9942 37.0136 20.1191 36.8803C20.2441 36.747 20.4152 36.666 20.5977 36.6539H29.3989C29.5814 36.666 29.7524 36.747 29.8774 36.8803C30.0023 37.0136 30.0719 37.1893 30.0719 37.3719C30.0719 37.5545 30.0023 37.7302 29.8774 37.8635C29.7524 37.9968 29.5814 38.0777 29.3989 38.0899H29.3925ZM29.3925 35.3644H20.5977C20.4152 35.3523 20.2441 35.2713 20.1191 35.138C19.9942 35.0047 19.9247 34.829 19.9247 34.6464C19.9247 34.4638 19.9942 34.2881 20.1191 34.1548C20.2441 34.0215 20.4152 33.9405 20.5977 33.9284H29.3989C29.5814 33.9405 29.7524 34.0215 29.8774 34.1548C30.0023 34.2881 30.0719 34.4638 30.0719 34.6464C30.0719 34.829 30.0023 35.0047 29.8774 35.138C29.7524 35.2713 29.5814 35.3523 29.3989 35.3644H29.3925ZM29.3925 32.6389H20.5977C20.4152 32.6268 20.2441 32.5458 20.1191 32.4125C19.9942 32.2792 19.9247 32.1035 19.9247 31.9209C19.9247 31.7383 19.9942 31.5626 20.1191 31.4293C20.2441 31.296 20.4152 31.2151 20.5977 31.2029H29.3989C29.5814 31.2151 29.7524 31.296 29.8774 31.4293C30.0023 31.5626 30.0719 31.7383 30.0719 31.9209C30.0719 32.1035 30.0023 32.2792 29.8774 32.4125C29.7524 32.5458 29.5814 32.6268 29.3989 32.6389H29.3925ZM35.6449 36.7271C35.022 36.7271 34.4132 36.5427 33.8953 36.1973C33.3775 35.8518 32.9739 35.3608 32.7357 34.7864C32.4975 34.212 32.4353 33.58 32.5571 32.9703C32.6788 32.3606 32.979 31.8006 33.4197 31.3613C33.8603 30.9219 34.4216 30.6228 35.0326 30.5019C35.6435 30.381 36.2767 30.4437 36.852 30.6821C37.4272 30.9204 37.9187 31.3237 38.2643 31.8409C38.6099 32.3581 38.794 32.966 38.7934 33.5877C38.7926 34.4195 38.4613 35.2171 37.8723 35.8056C37.2834 36.394 36.4846 36.7254 35.6513 36.7271H35.6449ZM10.6162 13.4204C10.6162 12.1537 11.1203 10.9389 12.0177 10.0432C12.915 9.14757 14.1321 8.64439 15.4012 8.64439H34.5635C35.8325 8.64439 37.0496 9.14757 37.947 10.0432C38.8443 10.9389 39.3485 12.1537 39.3485 13.4204V23.9275C39.3485 25.1942 38.8443 26.409 37.947 27.3046C37.0496 28.2003 35.8325 28.7035 34.5635 28.7035H15.4171C14.1481 28.7035 12.931 28.2003 12.0336 27.3046C11.1362 26.409 10.6321 25.1942 10.6321 23.9275L10.6162 13.4204Z" fill="#ED5F57"/>
<path d="M35.6512 31.8813C35.3131 31.8813 34.9825 31.9814 34.7013 32.169C34.4201 32.3565 34.201 32.623 34.0716 32.9349C33.9421 33.2467 33.9083 33.5899 33.9743 33.9209C34.0402 34.252 34.2031 34.5561 34.4422 34.7947C34.6813 35.0334 34.986 35.1959 35.3177 35.2618C35.6493 35.3276 35.9931 35.2938 36.3056 35.1647C36.618 35.0355 36.885 34.8168 37.0729 34.5361C37.2608 34.2555 37.3611 33.9255 37.3611 33.588C37.3611 33.1353 37.1809 32.7013 36.8603 32.3812C36.5396 32.0612 36.1047 31.8813 35.6512 31.8813Z" fill="white"/>
<path d="M34.5797 10.0708H15.4174C13.564 10.0708 12.0615 11.5704 12.0615 13.4204V23.9148C12.0615 25.7647 13.564 27.2643 15.4174 27.2643H34.5797C36.4331 27.2643 37.9356 25.7647 37.9356 23.9148V13.4204C37.9356 11.5704 36.4331 10.0708 34.5797 10.0708Z" fill="#2ABCBF"/>
<path d="M8.94506 32.3303C8.94506 32.3303 12.8783 37.3196 25.214 37.3196C37.5498 37.3196 41.483 32.5436 41.483 32.5436C41.483 32.5436 42.2263 37.2146 41.483 38.5932C40.7397 39.9719 38.0793 40.1852 36.2706 40.0801C34.4618 39.9751 11.8161 39.9719 10.2211 39.8668C8.62606 39.7617 8.1986 33.0754 8.94506 32.3303Z" fill="#EA3745"/>
<path d="M4.16 19.3842C4.16 19.3842 4.58427 21.0813 6.17927 20.9762C7.77427 20.8711 8.51753 16.7288 8.51753 16.7288C8.51753 16.7288 8.83653 21.3997 8.41226 22.2498C7.98799 23.0999 3.30827 24.5836 4.16 19.3842Z" fill="#EA3745"/>
<path d="M45.9485 19.3842C45.9485 19.3842 45.521 21.0813 43.926 20.9762C42.331 20.8711 41.5877 16.7288 41.5877 16.7288C41.5877 16.7288 41.2687 21.3997 41.693 22.2498C42.1173 23.0999 46.797 24.5836 45.9485 19.3842Z" fill="#EA3745"/>
<path d="M10.9639 19.0657L15.9626 9.40552L17.7681 9.51377L11.0691 23.415L10.9639 19.0657Z" fill="white"/>
<path d="M11.6016 25.5388L19.7903 9.6189H24.1478L14.4726 27.7676C14.4726 27.7676 12.2396 27.2359 11.6016 25.5388Z" fill="white"/>
<path d="M15.1369 34.8201C15.8187 34.8201 16.3714 34.2684 16.3714 33.5879C16.3714 32.9074 15.8187 32.3557 15.1369 32.3557C14.4551 32.3557 13.9023 32.9074 13.9023 33.5879C13.9023 34.2684 14.4551 34.8201 15.1369 34.8201Z" fill="#F4C117"/>
<path d="M35.6515 34.8201C36.3333 34.8201 36.886 34.2684 36.886 33.5879C36.886 32.9074 36.3333 32.3557 35.6515 32.3557C34.9697 32.3557 34.417 32.9074 34.417 33.5879C34.417 34.2684 34.9697 34.8201 35.6515 34.8201Z" fill="#F4C117"/>
<path d="M8.58744 12.4843C8.58744 12.4843 9.36899 7.28489 10.964 5.90304C12.559 4.52119 38.5415 5.26624 39.3741 5.90304C40.2067 6.53984 41.4731 11.1057 41.4731 11.1057C41.4731 11.1057 42.5449 6.05587 40.1971 4.61989C37.8493 3.18392 12.4952 3.86211 10.6131 3.9831C8.73099 4.10409 8.44389 10.9974 8.58744 12.4843Z" fill="white"/>
<path d="M4.15969 19.3841C4.15969 19.3841 4.69242 15.7194 5.75469 14.7132C6.81696 13.7071 8.19823 15.35 8.19823 15.35C8.19823 15.35 9.58269 15.1431 8.19823 13.7071C6.81377 12.2711 4.9221 12.6309 4.05123 13.7071C3.18037 14.7833 4.15969 19.3841 4.15969 19.3841Z" fill="white"/>
<path d="M45.8335 19.3841C45.8335 19.3841 45.3008 15.7194 44.2385 14.7132C43.1763 13.7071 41.795 15.35 41.795 15.35C41.795 15.35 40.4105 15.1431 41.795 13.7071C43.1795 12.2711 45.0711 12.6309 45.942 13.7071C46.8129 14.7833 45.8335 19.3841 45.8335 19.3841Z" fill="white"/>
<path d="M15.4168 28.7005H34.5791C35.8482 28.7005 37.0653 28.1973 37.9626 27.3016C38.86 26.4059 39.3641 25.1912 39.3641 23.9245V13.4173C39.3641 12.1507 38.86 10.9359 37.9626 10.0402C37.0653 9.14454 35.8482 8.64136 34.5791 8.64136H15.4168C14.1478 8.64136 12.9307 9.14454 12.0333 10.0402C11.136 10.9359 10.6318 12.1507 10.6318 13.4173V23.9245C10.6318 25.1912 11.136 26.4059 12.0333 27.3016C12.9307 28.1973 14.1478 28.7005 15.4168 28.7005ZM12.061 13.4173C12.0618 12.5292 12.4156 11.6778 13.0448 11.0498C13.674 10.4218 14.5271 10.0686 15.4168 10.0678H34.5791C35.4689 10.0686 36.322 10.4218 36.9512 11.0498C37.5803 11.6778 37.9342 12.5292 37.935 13.4173V23.9245C37.9342 24.8123 37.5802 25.6634 36.951 26.2909C36.3217 26.9184 35.4686 27.2709 34.5791 27.2709H15.4168C14.5273 27.2709 13.6743 26.9184 13.045 26.2909C12.4157 25.6634 12.0618 24.8123 12.061 23.9245V13.4173Z" fill="#152532"/>
<path d="M15.1361 30.4453C14.5132 30.4447 13.9042 30.6285 13.386 30.9734C12.8678 31.3183 12.4638 31.8089 12.225 32.3831C11.9862 32.9573 11.9234 33.5892 12.0445 34.199C12.1656 34.8089 12.4652 35.3691 12.9054 35.8089C13.3456 36.2487 13.9066 36.5484 14.5175 36.6699C15.1283 36.7914 15.7615 36.7293 16.3371 36.4916C16.9126 36.2538 17.4045 35.851 17.7506 35.3342C18.0967 34.8173 18.2814 34.2096 18.2814 33.5879C18.2806 32.7552 17.949 31.9569 17.3594 31.3678C16.7699 30.7787 15.9703 30.447 15.1361 30.4453ZM15.1361 35.2913C14.7978 35.2913 14.4671 35.1912 14.1858 35.0035C13.9046 34.8158 13.6854 34.5491 13.5561 34.2371C13.4268 33.925 13.3931 33.5817 13.4593 33.2506C13.5256 32.9195 13.6887 32.6154 13.9282 32.3768C14.1676 32.1383 14.4726 31.976 14.8045 31.9105C15.1364 31.845 15.4803 31.8793 15.7926 32.0089C16.105 32.1386 16.3718 32.3578 16.5593 32.6389C16.7468 32.92 16.8466 33.2502 16.8459 33.5879C16.8451 34.04 16.6646 34.4732 16.344 34.7926C16.0234 35.112 15.589 35.2913 15.1361 35.2913Z" fill="#152532"/>
<path d="M35.6515 30.4453C35.0287 30.4453 34.42 30.6296 33.9022 30.9749C33.3845 31.3202 32.9809 31.8111 32.7426 32.3853C32.5043 32.9595 32.4419 33.5914 32.5634 34.201C32.6849 34.8106 32.9848 35.3706 33.4251 35.8101C33.8654 36.2496 34.4265 36.5489 35.0372 36.6701C35.648 36.7914 36.281 36.7291 36.8563 36.4913C37.4317 36.2534 37.9234 35.8506 38.2694 35.3338C38.6153 34.817 38.8 34.2094 38.8 33.5879C38.7991 32.7547 38.4671 31.9559 37.8769 31.3667C37.2866 30.7775 36.4862 30.4462 35.6515 30.4453ZM35.6515 35.2913C35.3131 35.2913 34.9824 35.1912 34.7012 35.0035C34.4199 34.8158 34.2008 34.5491 34.0715 34.2371C33.9421 33.925 33.9085 33.5817 33.9747 33.2506C34.0409 32.9195 34.2041 32.6154 34.4435 32.3768C34.683 32.1383 34.988 31.976 35.3198 31.9105C35.6517 31.845 35.9956 31.8793 36.308 32.0089C36.6204 32.1386 36.8872 32.3578 37.0747 32.6389C37.2622 32.92 37.3619 33.2502 37.3613 33.5879C37.3604 34.04 37.1799 34.4732 36.8594 34.7926C36.5388 35.112 36.1044 35.2913 35.6515 35.2913Z" fill="#152532"/>
<path d="M29.399 31.2029H20.5978C20.4153 31.215 20.2442 31.2959 20.1193 31.4293C19.9943 31.5626 19.9248 31.7383 19.9248 31.9209C19.9248 32.1034 19.9943 32.2792 20.1193 32.4125C20.2442 32.5458 20.4153 32.6267 20.5978 32.6389H29.399C29.5815 32.6267 29.7526 32.5458 29.8775 32.4125C30.0025 32.2792 30.072 32.1034 30.072 31.9209C30.072 31.7383 30.0025 31.5626 29.8775 31.4293C29.7526 31.2959 29.5815 31.215 29.399 31.2029Z" fill="#152532"/>
<path d="M29.399 33.9285H20.5978C20.4153 33.9406 20.2442 34.0215 20.1193 34.1548C19.9943 34.2882 19.9248 34.4639 19.9248 34.6465C19.9248 34.829 19.9943 35.0048 20.1193 35.1381C20.2442 35.2714 20.4153 35.3523 20.5978 35.3644H29.399C29.5815 35.3523 29.7526 35.2714 29.8775 35.1381C30.0025 35.0048 30.072 34.829 30.072 34.6465C30.072 34.4639 30.0025 34.2882 29.8775 34.1548C29.7526 34.0215 29.5815 33.9406 29.399 33.9285Z" fill="#152532"/>
<path d="M29.399 36.6541H20.5978C20.4153 36.6662 20.2442 36.7471 20.1193 36.8804C19.9943 37.0137 19.9248 37.1895 19.9248 37.372C19.9248 37.5546 19.9943 37.7303 20.1193 37.8637C20.2442 37.997 20.4153 38.0779 20.5978 38.09H29.399C29.5815 38.0779 29.7526 37.997 29.8775 37.8637C30.0025 37.7303 30.072 37.5546 30.072 37.372C30.072 37.1895 30.0025 37.0137 29.8775 36.8804C29.7526 36.7471 29.5815 36.6662 29.399 36.6541Z" fill="#152532"/>
<path d="M5.70317 23.7046H6.81329C7.18747 23.703 7.55631 23.6159 7.89151 23.4499V37.7778C7.89391 38.5078 8.15907 39.2126 8.63865 39.7638C9.11823 40.3149 9.78028 40.6757 10.5041 40.7803V43.0091C10.505 43.7539 10.8016 44.4681 11.3289 44.9951C11.8563 45.522 12.5714 45.8189 13.3177 45.8206H15.5953C16.3421 45.8197 17.0581 45.5233 17.5862 44.9962C18.1142 44.4691 18.4113 43.7545 18.4121 43.0091V40.8217H32.3747V43.0059C32.3756 43.7513 32.6726 44.4659 33.2007 44.993C33.7287 45.5201 34.4447 45.8165 35.1915 45.8174H37.4691C38.2156 45.8165 38.9313 45.52 39.4588 44.9928C39.9864 44.4656 40.2827 43.751 40.2827 43.0059V40.5543C40.8237 40.3163 41.2838 39.9266 41.6071 39.4326C41.9305 38.9386 42.1032 38.3615 42.1042 37.7715V23.4435C42.4395 23.6092 42.8083 23.6963 43.1824 23.6982H44.2926C44.9598 23.6974 45.5995 23.4325 46.0713 22.9615C46.5432 22.4906 46.8086 21.8521 46.8095 21.1861V14.7831C46.8086 14.1171 46.5432 13.4786 46.0713 13.0077C45.5995 12.5367 44.9598 12.2718 44.2926 12.2709H43.1824C42.8083 12.2729 42.4395 12.36 42.1042 12.5256V6.2341C42.1034 5.42538 41.7811 4.65002 41.2082 4.07817C40.6353 3.50632 39.8584 3.18468 39.0482 3.18384H10.9475C10.1373 3.18468 9.36046 3.50632 8.78753 4.07817C8.2146 4.65002 7.89235 5.42538 7.89151 6.2341V12.5225C7.55556 12.359 7.18705 12.273 6.81329 12.2709H5.70317C5.0362 12.2718 4.39683 12.5368 3.92551 13.0078C3.45419 13.4789 3.18945 14.1174 3.18945 14.7831V21.1925C3.18945 21.8582 3.45419 22.4967 3.92551 22.9677C4.39683 23.4387 5.0362 23.7038 5.70317 23.7046ZM42.1042 14.7895C42.1051 14.5043 42.2189 14.2311 42.4209 14.0294C42.623 13.8278 42.8967 13.7141 43.1824 13.7133H44.2926C44.5783 13.7141 44.852 13.8278 45.054 14.0294C45.2561 14.2311 45.3699 14.5043 45.3708 14.7895V21.1988C45.3699 21.484 45.2561 21.7572 45.054 21.9589C44.852 22.1605 44.5783 22.2742 44.2926 22.275H43.1824C42.8967 22.2742 42.623 22.1605 42.4209 21.9589C42.2189 21.7572 42.1051 21.484 42.1042 21.1988V14.7895ZM9.32382 6.2341C9.32466 5.80622 9.49533 5.39611 9.79845 5.09356C10.1016 4.791 10.5125 4.62066 10.9411 4.61982H39.0418C39.4705 4.62066 39.8814 4.791 40.1845 5.09356C40.4876 5.39611 40.6583 5.80622 40.6591 6.2341V37.7555C40.6583 38.1834 40.4876 38.5935 40.1845 38.8961C39.8814 39.1986 39.4705 39.369 39.0418 39.3698H10.9475C10.5188 39.369 10.108 39.1986 9.80483 38.8961C9.50171 38.5935 9.33104 38.1834 9.3302 37.7555V6.2341H9.32382ZM37.4628 44.3782H35.1851C34.8196 44.3782 34.4691 44.2333 34.2107 43.9754C33.9522 43.7174 33.807 43.3675 33.807 43.0027V40.8217H38.8408V43.0059C38.84 43.3691 38.6953 43.7172 38.4384 43.9742C38.1814 44.2313 37.833 44.3765 37.4691 44.3782H37.4628ZM15.589 44.3782H13.3113C12.9458 44.3782 12.5953 44.2333 12.3369 43.9754C12.0784 43.7174 11.9332 43.3675 11.9332 43.0027V40.8217H16.9798V43.0059C16.9794 43.1868 16.9432 43.3659 16.8734 43.5328C16.8035 43.6997 16.7014 43.8513 16.5728 43.9787C16.4442 44.1062 16.2917 44.2071 16.1239 44.2757C15.9562 44.3442 15.7766 44.3791 15.5953 44.3782H15.589ZM4.62495 14.7831C4.62579 14.4979 4.73966 14.2247 4.94168 14.023C5.14371 13.8214 5.41747 13.7077 5.70317 13.7069H6.81329C7.09899 13.7077 7.37275 13.8214 7.57478 14.023C7.7768 14.2247 7.89067 14.4979 7.89151 14.7831V21.1925C7.89067 21.4776 7.7768 21.7509 7.57478 21.9525C7.37275 22.1541 7.09899 22.2678 6.81329 22.2686H5.70317C5.41747 22.2678 5.14371 22.1541 4.94168 21.9525C4.73966 21.7509 4.62579 21.4776 4.62495 21.1925V14.7831Z" fill="#152532"/>
</svg>
