<svg width="64" height="64" viewBox="0 0 64 64" fill="none" xmlns="http://www.w3.org/2000/svg">
<g clip-path="url(#clip0_19_106)">
<path d="M61.0823 39.9589L62.9134 38.1283C64.0657 36.9755 64.0657 35.1 62.9134 33.9472C62.3548 33.389 61.6126 33.0814 60.8226 33.0814C60.2298 33.0814 59.6634 33.2548 59.1819 33.5775L58.7962 32.2826L60.7781 30.3002C61.931 29.1473 61.931 27.2718 60.7781 26.1195C59.7171 25.058 58.0443 24.9764 56.8856 25.8695L54.5369 17.9847C55.4749 17.0814 56.3734 16.2025 57.22 15.3558C59.66 12.9154 61.6439 10.3329 62.8065 8.08286C64.7708 4.28012 63.9486 2.2474 62.9129 1.21175C61.8778 0.176107 59.845 -0.645671 56.0418 1.31869C53.7923 2.4808 51.2093 4.46469 48.7693 6.90512C47.9227 7.7518 47.0433 8.64975 46.1404 9.58774L38.2552 7.23911C39.1482 6.0809 39.0667 4.40805 38.0057 3.34652C36.8528 2.19418 34.9773 2.19369 33.825 3.34652L31.8426 5.32895L30.5471 4.9432C30.8699 4.46127 31.0432 3.89486 31.0432 3.30209C31.0432 2.51254 30.7356 1.76986 30.1775 1.21175C29.0252 0.0589197 27.1492 0.0589197 25.9968 1.21175L24.1663 3.04232L14.8357 0.263022C14.5032 0.164389 14.1438 0.255209 13.8992 0.500327L11.4973 2.90219C11.094 3.30502 11.1472 3.99398 11.6072 4.33041L35.1492 21.5624C29.8411 27.5472 24.7278 33.5394 21.1179 37.8207L14.1931 35.1571C13.845 35.0233 13.4509 35.1068 13.1873 35.3705L10.3406 38.2172C9.97241 38.5858 9.97241 39.183 10.3406 39.5512L24.5735 53.7841C24.9368 54.1479 25.5442 54.1479 25.908 53.7841L28.7542 50.9379C29.0178 50.6742 29.1018 50.2797 28.9676 49.9316L26.3045 43.0072C30.5857 39.3974 36.5774 34.2841 42.5628 28.9755L44.4329 31.5311C44.7649 31.9847 45.4383 32.0433 45.8455 31.6566C46.1849 31.3344 46.2317 30.7938 45.9559 30.4169L43.9788 27.7157C47.1087 24.9222 50.1995 22.1039 53.0037 19.4481L61.8929 49.2895L60.6668 50.515L48.4495 33.8236C48.1419 33.4032 47.5516 33.3119 47.1312 33.6195C46.7103 33.9276 46.6189 34.518 46.9271 34.9384L59.7947 52.518C60.1312 52.9779 60.8201 53.0312 61.223 52.6278L63.6248 50.226C63.8699 49.9814 63.9608 49.6215 63.8621 49.2895L61.0823 39.9589ZM35.1595 4.681C35.5716 4.26889 36.2596 4.26889 36.6717 4.681C37.0887 5.09799 37.0887 5.77621 36.6717 6.19321L36.2293 6.63559L33.8987 5.94125L35.1595 4.681ZM27.3313 2.54623C27.7478 2.12924 28.4265 2.12924 28.8435 2.54623C29.2605 2.96322 29.2605 3.64144 28.8435 4.05844L28.5525 4.34897L26.2224 3.65512L27.3313 2.54623ZM13.6096 3.45785L14.8357 2.23226L44.677 11.1209C42.0213 13.9256 39.2029 17.0165 36.409 20.1464L13.6096 3.45785ZM14.0881 37.1386L19.8328 39.348C18.3919 41.0639 17.2869 42.3915 16.635 43.1771L12.342 38.8842L14.0881 37.1386ZM17.9754 44.5175C21.2644 40.5492 38.6497 19.6932 50.1038 8.23911C52.3763 5.96616 54.8567 4.05502 56.908 2.99545C58.4481 2.19955 60.5086 1.47591 61.5789 2.54623C62.6492 3.61654 61.9251 5.67709 61.1297 7.21713C60.0701 9.26841 58.1585 11.7484 55.8856 14.0213C44.4324 25.4745 23.5759 42.8603 19.6077 46.1498L17.9754 44.5175ZM26.9866 50.037L25.241 51.7826L20.948 47.4897C21.7332 46.8383 23.0613 45.7333 24.7771 44.2924L26.9866 50.037ZM60.0667 35.2816C60.4837 34.8646 61.1619 34.8646 61.5789 35.2816C61.9959 35.6986 61.9959 36.3768 61.5789 36.7938L60.47 37.9027L59.7757 35.5726L60.0667 35.2816ZM57.9319 27.4535C58.3485 27.0365 59.0272 27.037 59.4442 27.4535C59.8563 27.8656 59.8563 28.5536 59.4442 28.9657L58.1834 30.2264L57.4891 27.8959L57.9319 27.4535Z" fill="#0EB6BD"/>
<path d="M56.6349 54.4631L48.5836 62.5144C48.2404 62.8582 48.2174 63.4255 48.5334 63.7947C48.8864 64.2068 49.5343 64.2327 49.9181 63.8489L57.9694 55.7976C58.3381 55.429 58.3381 54.8318 57.9694 54.4631C57.6012 54.095 57.0036 54.095 56.6349 54.4631Z" fill="#0EB6BD"/>
<path d="M53.944 51.7716C54.3127 51.4034 54.3127 50.8058 53.944 50.4376C53.5758 50.069 52.9782 50.069 52.61 50.4376L47.5778 55.4694C47.2345 55.8131 47.2116 56.3805 47.5275 56.7496C47.8805 57.1618 48.5285 57.1876 48.9123 56.8038L53.944 51.7716Z" fill="#0EB6BD"/>
<path d="M50.9249 46.7399C51.2935 46.3712 51.2935 45.7736 50.9249 45.4054C50.5562 45.0367 49.9591 45.0367 49.5904 45.4054L46.068 48.9279C45.7247 49.2711 45.7017 49.839 46.0181 50.2081C46.3707 50.6202 47.0186 50.6461 47.4024 50.2623L50.9249 46.7399Z" fill="#0EB6BD"/>
<path d="M9.66225 6.6582C9.29359 6.29004 8.69594 6.29004 8.32777 6.6582L0.27649 14.71C-0.0921632 15.0781 -0.0921632 15.6758 0.27649 16.044C0.639772 16.4072 1.24719 16.4072 1.61096 16.044L9.66225 7.99268C10.0304 7.62403 10.0304 7.02686 9.66225 6.6582Z" fill="#0EB6BD"/>
<path d="M13.6873 10.684C13.3187 10.3153 12.7215 10.3153 12.3534 10.684L7.32113 15.7162C6.97738 16.0595 6.95491 16.6268 7.27083 16.996C7.62386 17.4081 8.27132 17.434 8.65511 17.0502L13.6873 12.0184C14.056 11.6498 14.056 11.0521 13.6873 10.684Z" fill="#0EB6BD"/>
<path d="M13.863 18.5601C14.2268 18.9233 14.8337 18.9233 15.1975 18.5601L18.72 15.0376C19.0881 14.6689 19.0881 14.0718 18.72 13.7031C18.3513 13.335 17.7542 13.335 17.3855 13.7031L13.863 17.2256C13.4949 17.5942 13.4949 18.1914 13.863 18.5601Z" fill="#0EB6BD"/>
</g>
<defs>
<clipPath id="clip0_19_106">
<rect width="64" height="64" fill="white"/>
</clipPath>
</defs>
</svg>
