<svg width="68" height="68" viewBox="0 0 68 68" fill="none" xmlns="http://www.w3.org/2000/svg">
<g clip-path="url(#clip0_482_845)">
<path fill-rule="evenodd" clip-rule="evenodd" d="M38.5144 60.8127C54.7548 60.8127 67.9996 47.5679 67.9996 31.3313C67.9996 15.0909 54.7548 1.84619 38.5144 1.84619C22.2778 1.84619 9.0332 15.0909 9.0332 31.3313C9.0332 47.5679 22.2779 60.8127 38.5144 60.8127Z" fill="#24D1F8"/>
<path fill-rule="evenodd" clip-rule="evenodd" d="M50.5252 58.262C60.8206 53.6639 67.9965 43.3336 67.9965 31.3313C67.9965 15.0484 54.7982 1.84619 38.5152 1.84619C32.3032 1.84619 26.5401 3.76985 21.7871 7.05191C25.4563 5.41473 29.5164 4.50124 33.7971 4.50124C50.0762 4.50124 63.2783 17.7033 63.2783 33.9864C63.2783 44.0536 58.2274 52.944 50.5252 58.262Z" fill="#20BDE0"/>
<path fill-rule="evenodd" clip-rule="evenodd" d="M9.83916 24.4692C12.9626 24.5661 15.6913 24.9337 16.4537 25.851C18.509 28.3126 16.0202 33.619 21.8066 34.3583C32.6517 35.7478 34.2695 50.68 27.0859 58.5139C16.4808 54.0512 9.03418 43.5584 9.03418 31.3317C9.03405 28.9668 9.31269 26.6715 9.83916 24.4692Z" fill="#23F1A8"/>
<path fill-rule="evenodd" clip-rule="evenodd" d="M52.971 57.0276L43.4845 47.9436L43.5658 38.0082C43.5658 38.0082 30.2901 27.4186 37.8645 24.7325C45.4389 22.0463 49.1856 32.3882 57.1664 32.3882C60.9402 32.3882 64.8763 32.334 67.9804 32.276C67.6477 42.9081 61.6834 52.1159 52.971 57.0276Z" fill="#23F1A8"/>
<path fill-rule="evenodd" clip-rule="evenodd" d="M52.9712 57.0275L52.6113 56.683C59.1253 51.2721 63.2783 43.1131 63.2783 33.9866C63.2783 33.4371 63.2628 32.8913 63.2318 32.3495C64.927 32.3301 66.545 32.303 67.9809 32.2759C67.8339 36.9282 66.6108 41.3057 64.5517 45.1722C64.482 45.3039 64.4085 45.4355 64.335 45.5671L64.3194 45.598C64.2497 45.722 64.1801 45.8496 64.1065 45.9735L64.0833 46.0161C64.0135 46.14 63.9401 46.2638 63.8665 46.3877L63.851 46.4148C63.3788 47.2044 62.8718 47.9669 62.3337 48.7061L62.3066 48.7448C62.2254 48.8531 62.1479 48.9577 62.0667 49.066L62.0163 49.1358C61.9389 49.2364 61.8615 49.337 61.7802 49.4377L61.7183 49.5189C61.6409 49.6196 61.5634 49.7163 61.4821 49.8131L61.4203 49.8905C61.339 49.9912 61.2577 50.0879 61.1764 50.1886L61.1299 50.2466C60.6616 50.804 60.1701 51.3498 59.6592 51.8722C59.6359 51.8955 59.6127 51.9226 59.5894 51.9458C59.5081 52.031 59.423 52.1122 59.3417 52.1974C59.3069 52.2283 59.276 52.2631 59.2411 52.2942C59.1636 52.3755 59.0785 52.4529 58.9972 52.5342C58.9624 52.5651 58.9315 52.5999 58.8965 52.631C58.8153 52.7084 58.734 52.7859 58.6489 52.8633C58.6141 52.8981 58.5753 52.933 58.5405 52.964C58.4592 53.0414 58.3779 53.1188 58.2928 53.1923C58.258 53.2232 58.2231 53.2542 58.1883 53.2891C58.0993 53.3665 58.0141 53.4439 57.9289 53.5174C57.9018 53.5406 57.8785 53.56 57.8553 53.5831C57.5302 53.8618 57.2012 54.1404 56.8645 54.4075L56.8413 54.423C56.7523 54.4966 56.6593 54.5662 56.5665 54.6398C56.5278 54.6669 56.4891 54.6978 56.4504 54.7288C56.3691 54.7945 56.284 54.8565 56.1989 54.9184C56.1524 54.9532 56.106 54.992 56.0557 55.0268C55.9744 55.0848 55.8931 55.1467 55.8118 55.2049C55.7615 55.2436 55.7112 55.2785 55.6608 55.3133C55.5796 55.3752 55.4983 55.4332 55.4131 55.4914C55.3628 55.5262 55.3125 55.5611 55.2583 55.5959C55.177 55.6539 55.0919 55.712 55.0106 55.7662C54.9603 55.801 54.9061 55.8359 54.8557 55.8707C54.7706 55.9287 54.6855 55.9829 54.6003 56.041C54.5538 56.0719 54.5035 56.1029 54.4572 56.1338C54.3643 56.1918 54.2752 56.2499 54.1824 56.3079C54.163 56.3195 54.1437 56.3312 54.1243 56.3427C53.892 56.4897 53.6599 56.6291 53.4237 56.7685C53.4082 56.7801 53.3928 56.7879 53.3773 56.7956C53.2844 56.8498 53.1953 56.9001 53.1063 56.9543C53.0602 56.9772 53.0176 57.0043 52.9712 57.0275Z" fill="#1FDA98"/>
<path fill-rule="evenodd" clip-rule="evenodd" d="M27.9678 3.78924C28.7264 6.59915 29.6785 9.25434 30.6578 9.7071C32.8562 10.725 36.2351 7.87256 37.9032 11.9442C41.3518 20.3508 54.581 17.3976 57.6232 8.87875C52.4755 4.49354 45.8068 1.84619 38.5148 1.84619C34.7991 1.84632 31.246 2.53522 27.9678 3.78924Z" fill="#23F1A8"/>
<path fill-rule="evenodd" clip-rule="evenodd" d="M27.9678 3.7891C28.08 4.20321 28.1961 4.61347 28.3161 5.01217C30.0888 4.67549 31.9235 4.50124 33.7966 4.50124C41.9942 4.50124 49.4101 7.84918 54.7551 13.2524C56.0091 12.0449 57.0193 10.5741 57.6231 8.87874C57.5689 8.83226 57.5147 8.78591 57.4605 8.74327C57.3521 8.65044 57.2476 8.56132 57.1354 8.47234C57.0464 8.39876 56.9573 8.32916 56.8683 8.25559C56.7522 8.16275 56.6322 8.06978 56.5161 7.9808C56.4542 7.93431 56.3922 7.88398 56.3303 7.83763C56.2104 7.74864 56.0903 7.65567 55.9704 7.56669C55.9046 7.5202 55.8387 7.47385 55.773 7.42352C55.6531 7.33838 55.5369 7.25325 55.4169 7.17197C55.3318 7.11008 55.2467 7.05204 55.1615 6.99387C55.0609 6.92813 54.9642 6.8584 54.8635 6.79266C54.7551 6.72293 54.6506 6.65334 54.5422 6.58361C54.4494 6.52172 54.3564 6.46368 54.2636 6.40166C54.1629 6.33977 54.0584 6.27389 53.9579 6.212C53.8533 6.14626 53.7488 6.08424 53.6404 6.01849C53.5436 5.96046 53.4431 5.90242 53.3463 5.84438C53.2456 5.78634 53.145 5.7283 53.0405 5.67026C52.9166 5.60053 52.7928 5.52709 52.6651 5.46121C52.5915 5.41858 52.518 5.37993 52.4406 5.3373C52.3128 5.26757 52.1812 5.19798 52.0497 5.1321C51.98 5.09346 51.9066 5.05853 51.8368 5.02373C51.6975 4.95015 51.5582 4.88441 51.4189 4.81468C51.3453 4.77989 51.2757 4.74496 51.2021 4.71016C51.0551 4.64043 50.9079 4.57084 50.7571 4.50111C50.6835 4.47017 50.6139 4.43537 50.5403 4.40429C50.3778 4.33071 50.2191 4.26112 50.0565 4.19139C50.0023 4.16815 49.9481 4.14491 49.8939 4.12167C49.7314 4.05592 49.5688 3.99005 49.4062 3.92431C49.3521 3.90492 49.2979 3.88168 49.2475 3.86242C49.0773 3.79667 48.903 3.7308 48.7327 3.66506C48.6901 3.64952 48.6438 3.63411 48.6011 3.61857C48.4115 3.54885 48.2218 3.4831 48.0322 3.41736L47.9238 3.37871C47.7226 3.31297 47.5212 3.2471 47.32 3.18521C47.2852 3.17365 47.2543 3.16196 47.2193 3.15426C47.0258 3.09237 46.8323 3.03433 46.635 2.98014L46.5343 2.9492C46.3331 2.89501 46.1356 2.84082 45.9344 2.78664L45.8454 2.76725C45.6325 2.70921 45.4158 2.65887 45.199 2.60853L45.1604 2.60083C44.9321 2.54664 44.6998 2.49631 44.4676 2.44982L44.4367 2.44212C44.2122 2.39564 43.9838 2.35314 43.7593 2.3105L43.7051 2.3028C43.4807 2.26415 43.2562 2.22537 43.0278 2.19057L42.9852 2.18287C42.749 2.14807 42.513 2.11314 42.273 2.08605L42.2692 2.0822C41.7776 2.02031 41.2861 1.96997 40.7907 1.93518L40.7752 1.93132C40.5313 1.91579 40.2875 1.90038 40.0436 1.88484H40.0204C39.7727 1.87329 39.525 1.8616 39.2773 1.85775C39.0219 1.85004 38.7702 1.84619 38.5148 1.84619C37.4505 1.84619 36.3977 1.90423 35.3642 2.01261L35.341 2.01646C35.252 2.02416 35.1629 2.03585 35.0739 2.0474H35.0662C34.9849 2.05511 34.8998 2.06679 34.8147 2.07835L34.776 2.0822C34.6947 2.09375 34.6173 2.10159 34.536 2.11314L34.4703 2.12085C34.4005 2.1324 34.3271 2.14409 34.2535 2.15179L34.1684 2.16733C34.1181 2.17118 34.0677 2.17889 34.0174 2.18672C33.9826 2.19443 33.9477 2.19828 33.9129 2.20611C33.851 2.21382 33.7851 2.2255 33.7232 2.23321L33.5993 2.25645L33.5065 2.27199C33.429 2.28354 33.3477 2.29908 33.2703 2.31462L33.2238 2.32232C31.4085 2.65117 29.6514 3.14669 27.9678 3.7891Z" fill="#1FDA98"/>
<path fill-rule="evenodd" clip-rule="evenodd" d="M2.60059 36.5142H33.5216V54.6241H2.60059V36.5142Z" fill="#FFC06C"/>
<path fill-rule="evenodd" clip-rule="evenodd" d="M20.0918 36.5142H33.5223V54.6241H20.0918V36.5142Z" fill="#EDA558"/>
<path fill-rule="evenodd" clip-rule="evenodd" d="M31.0723 36.5142H33.5223V54.6241H31.0723V36.5142Z" fill="#E1994C"/>
<path fill-rule="evenodd" clip-rule="evenodd" d="M24.5352 36.5142H29.0751V45.8652L26.807 43.5971L24.5352 45.8652V36.5142Z" fill="#FF4C4C"/>
<path fill-rule="evenodd" clip-rule="evenodd" d="M26.8066 36.5142H29.0747V45.8652L26.8066 43.5971V36.5142Z" fill="#D11E1E"/>
<path fill-rule="evenodd" clip-rule="evenodd" d="M1.78035 54.624H51.5931C52.5724 54.624 53.3735 55.4251 53.3735 56.4044V60.8013C53.3735 61.7805 52.5724 62.5816 51.5931 62.5816H1.78035C0.801125 62.5818 0 61.7805 0 60.8013V56.4045C0 55.4253 0.801125 54.624 1.78035 54.624Z" fill="#CD353E"/>
<path fill-rule="evenodd" clip-rule="evenodd" d="M35.3993 10.663C38.9331 7.12926 44.7155 7.12926 48.2492 10.663C51.7829 14.1967 51.7829 19.9791 48.2492 23.5129L41.8243 29.9378L35.3993 23.5129C31.8656 19.9791 31.8656 14.1967 35.3993 10.663Z" fill="#FF4C4C"/>
<path fill-rule="evenodd" clip-rule="evenodd" d="M37.9421 13.2058C40.0863 11.0616 43.562 11.0616 45.7062 13.2058C47.8504 15.3501 47.8504 18.8258 45.7062 20.9699C43.5619 23.1142 40.0862 23.1142 37.9421 20.9699C35.798 18.8258 35.798 15.3501 37.9421 13.2058Z" fill="white"/>
<path fill-rule="evenodd" clip-rule="evenodd" d="M46.7123 10.6631C50.2461 14.1969 50.2461 19.9793 46.7123 23.513L44.7887 25.4367L41.0537 29.1716L41.8239 29.9379L46.0544 25.7076L48.249 23.513C51.7827 19.9793 51.7827 14.1969 48.249 10.6631C47.6529 10.0671 46.9911 9.56782 46.2867 9.17297C44.6766 8.27117 42.8459 7.89571 41.0538 8.04274C42.9426 8.20145 44.7888 8.94453 46.2945 10.2683C46.4375 10.396 46.5769 10.5277 46.7123 10.6631Z" fill="#D11E1E"/>
<path fill-rule="evenodd" clip-rule="evenodd" d="M41.2939 11.6229C42.8692 11.4719 44.4987 11.9984 45.7062 13.2059C47.8505 15.3501 47.8505 18.8259 45.7062 20.97C44.4987 22.1775 42.8692 22.704 41.2939 22.553C42.517 22.4369 43.7091 21.9066 44.6457 20.97C46.79 18.8257 46.79 15.35 44.6457 13.2059C43.709 12.2693 42.517 11.743 41.2939 11.6229Z" fill="#E6E6E6"/>
<path fill-rule="evenodd" clip-rule="evenodd" d="M36.5215 62.5816H55.897V44.9245L49.4759 36.3088C48.8798 35.5037 48.0167 35.0742 47.0182 35.0742H38.6851C37.493 35.0742 36.5215 36.0457 36.5215 37.2377V62.5816Z" fill="#FF4C4C"/>
<path fill-rule="evenodd" clip-rule="evenodd" d="M39.835 38.1475V44.9246H52.054L47.0689 38.2326C47.0108 38.1552 46.9914 38.1475 46.8986 38.1475H39.835Z" fill="#F0F0FC"/>
<path fill-rule="evenodd" clip-rule="evenodd" d="M45.1914 38.1475L50.2384 44.9246H52.0537L47.0686 38.2326C47.0105 38.1552 46.9911 38.1475 46.8983 38.1475H45.1914Z" fill="#D7D7E3"/>
<path fill-rule="evenodd" clip-rule="evenodd" d="M53.8114 62.5816H55.8976V44.9245L49.4765 36.3088C48.8805 35.5037 48.0173 35.0742 47.0188 35.0742H44.9326C45.9351 35.0742 46.7943 35.5039 47.3942 36.3088L53.8114 44.9245V62.5816Z" fill="#D11E1E"/>
<path fill-rule="evenodd" clip-rule="evenodd" d="M46.2089 66.154C49.5916 66.154 52.3513 63.3945 52.3513 60.0116C52.3513 56.625 49.5917 53.8691 46.2089 53.8691C42.8223 53.8691 40.0664 56.6249 40.0664 60.0116C40.0664 63.3945 42.8223 66.154 46.2089 66.154Z" fill="#363D52"/>
<path fill-rule="evenodd" clip-rule="evenodd" d="M46.2098 62.7673C47.727 62.7673 48.9655 61.5287 48.9655 60.0115C48.9655 58.4904 47.7269 57.252 46.2098 57.252C44.6887 57.252 43.4502 58.4906 43.4502 60.0115C43.4502 61.5287 44.6887 62.7673 46.2098 62.7673Z" fill="#E1EFFF"/>
<path fill-rule="evenodd" clip-rule="evenodd" d="M46.209 53.8691C49.5995 53.8691 52.3514 56.6172 52.3514 60.0116C52.3514 63.4022 49.5995 66.154 46.209 66.154C45.9922 66.154 45.7793 66.1425 45.5664 66.1192C48.6589 65.798 51.0702 63.1854 51.0702 60.0117C51.0702 56.834 48.6588 54.2215 45.5664 53.9002C45.7793 53.8768 45.9922 53.8691 46.209 53.8691Z" fill="#2A3146"/>
<path fill-rule="evenodd" clip-rule="evenodd" d="M46.2093 57.252C47.7304 57.252 48.965 58.4866 48.965 60.0115C48.965 61.5326 47.7304 62.7673 46.2093 62.7673C46.0429 62.7673 45.8765 62.7517 45.7178 62.7246C47.0106 62.4923 47.9898 61.3661 47.9898 60.0114C47.9898 58.6529 47.0106 57.5266 45.7178 57.2943C45.8765 57.2675 46.0429 57.252 46.2093 57.252Z" fill="#D7D7E3"/>
<path fill-rule="evenodd" clip-rule="evenodd" d="M14.0077 66.1384C17.3904 66.1384 20.1501 63.3788 20.1501 59.996C20.1501 56.6131 17.3905 53.8535 14.0077 53.8535C10.6248 53.8535 7.86523 56.6131 7.86523 59.996C7.86523 63.3788 10.6248 66.1384 14.0077 66.1384Z" fill="#363D52"/>
<path fill-rule="evenodd" clip-rule="evenodd" d="M14.0076 62.7516C15.5249 62.7516 16.7634 61.513 16.7634 59.9959C16.7634 58.4748 15.5247 57.2363 14.0076 57.2363C12.4865 57.2363 11.248 58.4749 11.248 59.9959C11.2479 61.5132 12.4865 62.7516 14.0076 62.7516Z" fill="#E1EFFF"/>
<path fill-rule="evenodd" clip-rule="evenodd" d="M14.0068 53.8535C17.3974 53.8535 20.1492 56.6015 20.1492 59.996C20.1492 63.3865 17.3974 66.1384 14.0068 66.1384C13.7901 66.1384 13.5772 66.1269 13.3643 66.1036C16.4568 65.7862 18.868 63.1736 18.868 59.9961C18.868 56.8186 16.4567 54.2059 13.3643 53.8846C13.5772 53.8652 13.7901 53.8535 14.0068 53.8535Z" fill="#2A3146"/>
<path fill-rule="evenodd" clip-rule="evenodd" d="M14.0072 57.2363C15.5283 57.2363 16.7629 58.471 16.7629 59.9959C16.7629 61.517 15.5283 62.7516 14.0072 62.7516C13.8408 62.7516 13.6744 62.7401 13.5195 62.709C14.8083 62.4807 15.7876 61.3505 15.7876 59.9958C15.7876 58.6372 14.8083 57.511 13.5195 57.2787C13.6782 57.2519 13.8408 57.2363 14.0072 57.2363Z" fill="#D7D7E3"/>
</g>
<defs>
<clipPath id="clip0_482_845">
<rect width="68" height="68" fill="white"/>
</clipPath>
</defs>
</svg>
