<svg width="75" height="65" viewBox="0 0 75 65" fill="none" xmlns="http://www.w3.org/2000/svg">
<path d="M23.0829 9.95752H18.86H14.5321L11.6076 27.3208C11.5458 27.3287 11.484 27.3326 11.4201 27.3404C4.95906 28.1588 -0.055186 33.3381 0.000458647 39.1298C0.0251904 41.5517 0.89284 43.4436 2.44885 44.9941C3.85441 46.3954 5.76901 47.155 7.70216 47.155C8.45853 47.155 9.21698 47.0392 9.94857 46.7997C13.4315 45.6575 14.5878 42.8745 15.1298 40.3271C15.1298 40.329 15.1277 40.3329 15.1277 40.3368C15.2843 37.493 13.6891 34.6845 10.6472 33.0222L9.68474 38.8099C9.37568 40.4526 8.97376 41.434 8.11229 41.7166C7.59705 41.8853 6.96229 41.7107 6.53361 41.2828C5.98128 40.7313 5.65772 40.1171 5.64741 39.0788C5.61856 36.184 8.00924 33.9113 10.6472 33.0222C11.4758 32.7376 12.3372 32.6041 13.2997 32.6041C14.2765 32.6041 15.305 32.7827 16.2447 33.083C19.8081 33.8838 21.9679 37.4832 22.5017 41.3809L22.815 43.5654H28.7443L23.0829 9.95752ZM17.001 27.6937L18.7013 15.2684H18.7529H18.9116L20.8097 29.1343C19.6041 28.5081 18.3221 28.0195 17.001 27.6937ZM73.8848 19.3309V43.5634H67.9679V19.3309H73.8848ZM56.6142 51.9575C64.3839 51.9575 64.9837 47.7399 64.9837 41.7794L65.0352 19.333H61.9727C60.8701 19.333 59.5181 20.1199 59.4254 21.1346L59.3532 21.9177L59.0668 21.1797C58.4959 19.7137 57.0594 18.9384 54.9119 18.9384C52.7542 18.9384 51.161 19.7274 50.1759 21.2818C49.2175 22.793 49.0176 24.7478 49.0176 26.1216V35.5441C49.0176 37.8816 49.3762 39.6028 50.114 40.804C51.0106 42.2642 52.4615 42.9746 54.5533 42.9746C56.5318 42.9746 58.0281 42.1738 58.7659 40.7196L59.1183 40.0267V40.7961V43.4946C59.1183 45.8674 58.9637 47.5475 56.9749 47.5475C56.5195 47.5475 55.0377 47.4003 55.0377 45.5063V45.4377H49.0692V45.5554C49.0692 47.3964 49.5926 48.8782 50.6252 49.9576C51.8906 51.2843 53.9062 51.9575 56.6142 51.9575ZM59.0152 34.5648C59.0152 36.8748 58.6731 38.1269 56.8718 38.1269C55.1654 38.1269 54.9346 36.5745 54.9346 35.0554V26.6143C54.9346 24.7125 55.6518 23.7881 57.1295 23.7881C58.7906 23.7881 59.0152 25.3405 59.0152 26.8596V34.5648ZM74.194 14.0025C74.194 15.7198 72.7596 17.0641 70.9274 17.0641C69.1241 17.0641 67.7124 15.7198 67.7124 14.0025C67.7124 12.2577 69.1241 10.8917 70.9274 10.8917C72.7287 10.8917 74.194 12.2871 74.194 14.0025ZM36.549 27.154V43.5654H30.5805L30.5291 19.333H33.8471C34.9869 19.333 36.3017 20.0984 36.446 21.2386L36.5119 21.7607L36.7901 21.3073C37.7526 19.7372 39.3107 18.9404 41.4231 18.9404C44.8216 18.9404 46.5466 21.0267 46.5466 25.1442V43.5673H40.6297V26.418C40.6297 24.6732 39.9949 23.7881 38.7439 23.7881C37.124 23.7881 36.549 24.6693 36.549 27.154Z" fill="#032532"/>
<path d="M15.127 40.3366C15.4259 39.1218 16.1183 34.4567 16.242 33.0829C15.3043 32.7846 14.2738 32.604 13.297 32.604C12.3345 32.604 11.473 32.7394 10.6445 33.022C13.6886 34.6844 15.2837 37.4928 15.127 40.3366Z" fill="#032532"/>
</svg>
