<svg width="102" height="64" viewBox="0 0 102 64" fill="none" xmlns="http://www.w3.org/2000/svg">
<path d="M15.7029 22.0664L7.85035 17.5332L0 22.0664V17.5332L7.85147 13L15.7041 17.5332V22.0664H15.7029Z" fill="#FD5B38"/>
<path d="M0 25.8729H4.11294V35.8658C4.11294 38.4476 6.04088 39.7061 7.85147 39.7061C9.6777 39.7061 11.5911 38.4141 11.5911 35.8312V25.8729H15.7041V36.1039C15.7041 38.4822 14.9564 40.3174 13.4609 41.5759C11.9644 42.8332 10.0957 43.4457 7.81682 43.4457C5.54018 43.4457 3.67035 42.8344 2.20959 41.5759C0.747706 40.3185 0 38.5515 0 36.2056V25.8729ZM51.262 38.2922C50.0169 39.4009 48.5986 39.9441 46.9814 39.9441C44.0308 39.9441 42.0526 38.2632 41.8291 35.6602H55.1179C55.1179 35.6602 55.2073 34.8197 55.2073 34.0307C55.2073 31.583 54.4249 29.5433 52.8267 27.878C51.2642 26.2127 49.2256 25.3968 46.7433 25.3968C44.1269 25.3968 41.9844 26.2127 40.2845 27.878C38.6192 29.5433 37.7698 31.7182 37.7698 34.4386V34.5727C37.7698 37.2584 38.6192 39.3998 40.2845 40.9981C41.9498 42.5952 44.1593 43.4111 46.8451 43.4111C49.9678 43.4111 52.4523 42.1794 54.3165 40.0559L51.262 38.2922ZM43.4452 29.9512C44.3616 29.2371 45.4849 28.8638 46.7422 28.8638C47.9314 28.8638 48.9172 29.2371 49.7677 29.9859C50.5791 30.6677 51.0172 31.5048 51.0552 32.4671H41.9341C42.066 31.4724 42.5689 30.6341 43.4463 29.9524L43.4452 29.9512ZM92.6641 45.7201C90.9955 49.6598 89.2497 50.9999 86.5729 50.9999H84.7176V47.3541H86.2175C87.1385 47.3541 87.9946 47.0077 88.8105 45.1255L89.6263 43.2412L82.5896 25.8729H86.7708L91.7678 38.3817L96.9011 25.8729H101.081L92.6652 45.7201H92.6641ZM31.7155 19.3135V27.4242C30.3676 26.2172 28.2709 25.4985 26.2435 25.4985C23.8294 25.4985 21.7908 26.3479 20.1255 28.0803C18.4937 29.7802 17.6778 31.887 17.6778 34.4364C17.6778 36.9868 18.4937 39.0936 20.1255 40.8271C21.7908 42.527 23.8305 43.3775 26.2435 43.3775C29.0264 43.3775 30.7856 42.2834 31.7155 41.4261V43.0031H35.7949V19.3146H31.7155V19.3135ZM30.4916 38.1771C29.5059 39.1629 28.2485 39.6737 26.7866 39.6737C25.3248 39.6737 24.1356 39.1629 23.1498 38.1771C22.1998 37.1914 21.7226 35.934 21.7226 34.4386C21.7226 32.9421 22.1987 31.6847 23.1498 30.6989C24.1356 29.7132 25.3248 29.2035 26.7866 29.2035C28.2485 29.2035 29.5059 29.7132 30.4916 30.6989C31.5109 31.6847 32.0228 32.9421 32.0228 34.4386C32.0228 35.934 31.5109 37.1914 30.4916 38.1771ZM76.2481 25.5332C73.15 25.5332 71.5395 26.8185 70.4363 28.0568C69.9949 27.2152 68.7521 25.5332 65.8484 25.5332C63.3941 25.5332 61.9478 26.7738 61.2258 27.6567V25.8752H57.1822V43.0054H61.2258V33.1477C61.2258 30.8364 62.6542 29.1711 64.5564 29.1711C66.4955 29.1711 67.6165 30.633 67.6165 32.9778V43.0042H71.6613V33.1466C71.6613 30.8018 73.0539 29.17 75.0589 29.17C76.9969 29.17 78.1179 30.6319 78.1179 32.9756V43.0031H82.1973V32.3989C82.1973 27.9328 79.7966 25.5343 76.2481 25.5343V25.5332Z" fill="#032532"/>
</svg>
