<svg width="167" height="31" viewBox="0 0 167 31" fill="none" xmlns="http://www.w3.org/2000/svg">
<path d="M3.45384 24.5022C2.84008 24.5036 2.23696 24.3383 1.70609 24.0234C1.17523 23.7084 0.735655 23.2551 0.432274 22.7096C0.133535 22.1679 -0.0154531 21.5534 0.00126741 20.9318C0.0179879 20.3102 0.199787 19.705 0.527192 19.181L6.74962 9.19088C7.0681 8.65397 7.52026 8.2131 8.05992 7.91332C8.59958 7.61353 9.20739 7.46556 9.82129 7.48453C10.4347 7.49956 11.0332 7.68095 11.5556 8.01013C12.0779 8.33931 12.5053 8.80447 12.7941 9.35801C13.3741 10.4794 13.3016 11.8286 12.6069 12.8812L6.38841 22.8713C6.07306 23.3737 5.63877 23.7866 5.12578 24.0717C4.61279 24.3568 4.03771 24.5048 3.45384 24.5022Z" fill="#DF1119"/>
<path d="M14.1263 24.5022C12.8712 24.5022 11.7164 23.8162 11.11 22.7137C10.8119 22.1735 10.6633 21.5606 10.68 20.9406C10.6967 20.3207 10.8782 19.717 11.2049 19.1945L17.4155 9.22732C17.7292 8.68286 18.1798 8.23414 18.7204 7.9277C19.2609 7.62127 19.8719 7.46827 20.4898 7.48458C21.7553 7.51288 22.9023 8.23667 23.4823 9.36884C24.0584 10.501 23.9741 11.8583 23.2582 12.9082L17.049 22.8754C16.7346 23.3757 16.3021 23.7869 15.7913 24.0712C15.2805 24.3556 14.7079 24.5038 14.1263 24.5022Z" fill="#DF1119"/>
<path d="M24.5609 24.5853C26.3302 24.5853 27.7644 23.1497 27.7644 21.3788C27.7644 19.608 26.3302 18.1724 24.5609 18.1724C22.7917 18.1724 21.3574 19.608 21.3574 21.3788C21.3574 23.1497 22.7917 24.5853 24.5609 24.5853Z" fill="#DF1119"/>
<path d="M163.731 18.3586C164.698 18.3586 165.277 19.0622 165.277 20.2145V24.1637H166.592V20.1242C166.592 18.1645 165.689 17.0283 163.991 17.0283C163.326 17.0283 162.271 17.2143 161.643 18.4637C161.497 18.0952 161.255 17.774 160.945 17.5343C160.635 17.2946 160.267 17.1454 159.88 17.1024C159.637 17.0568 159.389 17.0419 159.142 17.0579C158.601 17.1024 157.639 17.4461 157.279 18.2252V17.1779H155.963V24.1637H157.279V20.3938C157.279 18.9274 158.218 18.3586 159.158 18.3586C160.038 18.3586 160.617 19.0473 160.617 20.1997V24.1637H161.925V20.3938C161.925 19.2266 162.61 18.3451 163.731 18.3586ZM151.134 22.9965C151.735 23.0099 152.316 22.7646 152.736 22.3198C153.158 21.8751 153.382 21.2699 153.36 20.6485C153.36 19.2414 152.347 18.3586 151.134 18.3586C149.92 18.3586 148.909 19.2414 148.909 20.6485C148.885 21.2685 149.109 21.8724 149.529 22.3158C149.948 22.7606 150.525 23.0072 151.124 22.9965H151.134ZM151.134 24.3065C149.212 24.3065 147.608 22.8549 147.608 20.6405C147.608 18.426 149.212 17.0202 151.134 17.0202C153.056 17.0202 154.674 18.426 154.674 20.6405C154.674 22.8549 153.047 24.3133 151.125 24.3133L151.134 24.3065ZM140.838 20.6405L140.825 20.6485C140.825 18.4341 142.472 17.0283 144.407 17.0202C144.893 17.0106 145.376 17.1054 145.824 17.2986C146.272 17.4918 146.675 17.779 147.008 18.1416L146.011 19.0096C145.8 18.7971 145.549 18.6295 145.274 18.5166C144.998 18.4037 144.704 18.3477 144.407 18.3518C143.194 18.3518 142.14 19.2347 142.14 20.6405C142.14 21.5907 142.692 22.4465 143.54 22.8105C144.387 23.1744 145.363 22.9722 146.011 22.301L147.023 23.169C146.689 23.5353 146.284 23.8259 145.833 24.0219C145.382 24.2179 144.897 24.3148 144.407 24.3065C142.486 24.3065 140.838 22.8549 140.838 20.6405ZM136.629 22.8226C136.628 22.7005 136.65 22.5792 136.694 22.4659C136.739 22.3525 136.804 22.2492 136.888 22.1618C136.971 22.0744 137.071 22.0047 137.181 21.9567C137.291 21.9087 137.409 21.8832 137.528 21.8818C137.648 21.8832 137.766 21.9087 137.875 21.9567C137.985 22.0047 138.085 22.0744 138.168 22.1618C138.252 22.2492 138.318 22.3525 138.362 22.4659C138.406 22.5792 138.429 22.7005 138.427 22.8226C138.415 23.0591 138.316 23.2822 138.149 23.4462C137.982 23.6103 137.76 23.703 137.528 23.7054C137.296 23.703 137.074 23.6103 136.907 23.4462C136.74 23.2822 136.641 23.0591 136.629 22.8226Z" fill="#333333"/>
<path fill-rule="evenodd" clip-rule="evenodd" d="M140.225 8.29722H135.543L132.262 16.9462L128.998 8.29722H124.317L130.008 21.9642L126.468 31H131.115L140.225 8.29722ZM111.754 15.899C111.754 18.0824 113.621 19.5192 115.455 19.5192C117.257 19.5192 119.028 18.1822 119.028 15.8976C119.028 13.613 117.257 12.2747 115.455 12.2747C113.621 12.2747 111.754 13.7128 111.754 15.8976V15.899ZM119.028 23.5303V21.8011C118.078 23.2702 115.864 23.8255 114.727 23.8255C110.965 23.8255 107.201 20.7929 107.201 15.8976C107.201 11.0037 110.963 7.97104 114.727 7.97104C115.675 7.97104 117.89 8.29452 119.028 9.99278V8.30261H123.391V23.533L119.028 23.5317V23.5303ZM105.959 23.5303H101.595V21.638C100.866 23.0397 99.0986 23.8565 97.2635 23.8565C93.4681 23.8565 90.1156 20.7579 90.1156 15.9596C90.1156 11.071 93.4681 7.96835 97.2635 7.96835C99.0959 7.96835 100.869 8.75009 101.595 10.1532V0H105.959V23.5303ZM101.501 15.8639C101.501 13.5807 99.8882 12.2423 98.0861 12.2423C96.2194 12.2423 94.669 13.6777 94.669 15.8639C94.669 18.1202 96.2194 19.5489 98.0848 19.5489C99.9212 19.5516 101.501 18.0501 101.501 15.8639ZM79.3265 15.4703C79.3265 13.1548 80.4972 12.3717 82.0462 12.3717C83.532 12.3717 84.6077 13.3826 84.6077 15.4043V23.5277H89.0029V14.4271C89.0029 10.0898 86.9147 7.96835 83.5939 7.96835C81.8551 7.96835 80.1162 8.97922 79.3252 10.513V8.29722H74.9326V23.5277H79.3265V15.4703ZM66.0076 23.7891C61.8339 23.7891 58.3522 20.6581 58.3522 15.8626C58.3522 11.0643 61.8299 7.9643 66.0076 7.9643C70.1854 7.9643 73.6934 11.0643 73.6934 15.8626C73.6934 20.6608 70.1814 23.7905 66.0076 23.7905V23.7891ZM66.0076 19.3548C67.8401 19.3548 69.3601 17.9827 69.3601 15.8639C69.3601 13.8085 67.8414 12.4054 66.0076 12.4054C65.5661 12.3983 65.1278 12.4832 64.7194 12.6549C64.3109 12.8266 63.941 13.0815 63.632 13.4041C63.3213 13.7284 63.0775 14.1133 62.9151 14.5359C62.7527 14.9584 62.6751 15.4101 62.6868 15.8639C62.6881 17.9854 64.2055 19.3548 66.0076 19.3548ZM50.4727 12.373C51.7686 12.373 52.9076 13.4176 52.9076 15.4057V23.5303H57.2712V14.88C57.2712 10.2812 55.0841 7.96565 51.5787 7.96565C50.5372 7.96565 48.5756 8.28913 47.1518 10.6721C46.3292 8.91048 44.7485 7.99665 42.4125 7.99665C41.6014 7.99243 40.8064 8.22712 40.1223 8.67265C39.4382 9.11818 38.8942 9.7557 38.5551 10.509V8.29857H34.1572V23.529H38.5512V15.4703C38.5512 13.1548 39.7851 12.3717 41.1126 12.3717C42.3782 12.3717 43.5146 13.3826 43.5476 15.3073V23.529H47.9428V15.4703C47.9428 13.2559 49.0818 12.3744 50.4727 12.3744V12.373Z" fill="black"/>
</svg>
