<svg width="126" height="30" viewBox="0 0 126 30" fill="none" xmlns="http://www.w3.org/2000/svg">
<path fill-rule="evenodd" clip-rule="evenodd" d="M97.4114 20.4324C100.638 20.4324 103.263 17.8024 103.263 14.5698C103.263 11.337 100.638 8.70708 97.4114 8.70708C94.1853 8.70708 91.5602 11.337 91.5602 14.5698C91.5602 17.8024 94.1853 20.4324 97.4114 20.4324ZM103.263 0H103.421H106.035V23.2296H103.263V20.9102C101.663 22.3959 99.6 23.2098 97.4114 23.2098C92.6568 23.2098 88.7885 19.3338 88.7885 14.5698C88.7885 9.80539 92.6568 5.9296 97.4114 5.9296C99.6 5.9296 101.663 6.74335 103.263 8.22916V0ZM39.9232 20.33C43.1495 20.33 45.7743 17.7001 45.7743 14.4674C45.7743 11.2348 43.1495 8.60486 39.9232 8.60486C36.6967 8.60486 34.0718 11.2348 34.0718 14.4674C34.0718 17.7001 36.6967 20.33 39.9232 20.33ZM34.0718 8.12711C35.6717 6.6413 37.735 5.82743 39.9232 5.82743C44.6779 5.82743 48.5463 9.70335 48.5463 14.4674C48.5463 19.2315 44.6779 23.1074 39.9232 23.1074C37.735 23.1074 35.6717 22.2937 34.0718 20.8078V29.037H31.2998V5.80741H34.0718V8.12711ZM53.8355 13.1184C54.4594 10.493 56.784 8.60782 59.4355 8.60782C62.0525 8.60782 64.2446 10.4527 64.8289 13.1184H53.8355ZM59.4355 5.80741C54.7519 5.80741 50.9417 9.71538 50.9417 14.5185C50.9417 19.3218 54.7519 23.2296 59.4355 23.2296C62.0583 23.2296 64.4654 22.2226 66.0408 20.4667L66.8593 19.554L66.9647 19.4363L66.85 19.3276L65.0706 17.649L64.9558 17.5405L64.8497 17.6583L64.0313 18.5711C62.9874 19.7346 61.2694 20.4294 59.4355 20.4294C56.784 20.4294 54.4595 18.5442 53.8355 15.9186H67.709V14.5185C67.709 9.63378 64.0748 5.80741 59.4355 5.80741ZM122.425 14.5186C122.425 17.7778 119.801 20.4293 116.574 20.4293C113.348 20.4293 110.723 17.7778 110.723 14.5186C110.723 11.2593 113.348 8.6077 116.574 8.6077C119.801 8.6077 122.425 11.2593 122.425 14.5186ZM116.574 5.80741C111.819 5.80741 107.951 9.7152 107.951 14.5186C107.951 19.3218 111.819 23.2296 116.574 23.2296C121.329 23.2296 125.198 19.3218 125.198 14.5186C125.198 9.7152 121.329 5.80741 116.574 5.80741ZM78.0088 5.80741C76.0827 5.80741 74.2476 6.55733 72.8032 7.92699V5.80741H70.1045V23.2296H72.8032V14.3388C72.8032 11.1668 75.1385 8.58596 78.0088 8.58596C80.8796 8.58596 83.2154 11.1668 83.2154 14.3388V23.2296H85.9136V14.3388C85.9136 9.63461 82.3675 5.80741 78.0088 5.80741Z" fill="#1A2022"/>
<path fill-rule="evenodd" clip-rule="evenodd" d="M0 16.5926H13.0413V29.6297L26.0827 16.5926V3.55566H13.0413L0 16.5926Z" fill="#FF4876"/>
</svg>
