<svg width="151" height="48" viewBox="0 0 151 48" fill="none" xmlns="http://www.w3.org/2000/svg">
<g clip-path="url(#clip0_251_718)">
<path d="M60.3576 25.6624L57.7391 18.6559C57.6323 18.3694 57.2239 18.3694 57.1169 18.6559L54.4988 25.6628C54.4802 25.7126 54.4741 25.7662 54.4808 25.8188C54.4876 25.8715 54.5071 25.9218 54.5377 25.9654C54.5682 26.009 54.609 26.0446 54.6564 26.0692C54.7038 26.0938 54.7566 26.1066 54.8101 26.1066H60.0464C60.0999 26.1066 60.1526 26.0937 60.2 26.0691C60.2475 26.0445 60.2882 26.0089 60.3187 25.9653C60.3493 25.9216 60.3688 25.8713 60.3755 25.8186C60.3822 25.7659 60.376 25.7124 60.3574 25.6626L60.3576 25.6624ZM61.5672 29.6006H53.2895C53.2217 29.6006 53.1556 29.6212 53.1 29.6596C53.0444 29.698 53.002 29.7523 52.9784 29.8154L51.3488 34.175C51.3252 34.238 51.2828 34.2923 51.2272 34.3307C51.1716 34.3691 51.1055 34.3897 51.0377 34.3897H47.4499C47.3957 34.3897 47.3423 34.3765 47.2944 34.3512C47.2465 34.326 47.2055 34.2895 47.1751 34.2449C47.1447 34.2003 47.1258 34.149 47.1201 34.0954C47.1143 34.0419 47.1218 33.9878 47.142 33.9378L55.4023 13.5118C55.427 13.4507 55.4696 13.3985 55.5245 13.3617C55.5794 13.3249 55.6441 13.3053 55.7104 13.3053H59.1458C59.2812 13.3053 59.4031 13.387 59.4537 13.5118L67.7138 33.9376C67.7341 33.9876 67.7417 34.0417 67.7359 34.0953C67.7302 34.1489 67.7113 34.2003 67.6809 34.245C67.6505 34.2896 67.6095 34.3262 67.5616 34.3515C67.5136 34.3767 67.4602 34.3899 67.4059 34.3899H63.8187C63.751 34.3899 63.6848 34.3693 63.6292 34.3309C63.5736 34.2924 63.5312 34.238 63.5077 34.175L61.8778 29.8154C61.8542 29.7523 61.8118 29.698 61.7562 29.6596C61.7006 29.6212 61.6345 29.6006 61.5668 29.6006H61.5672ZM69.3948 20.4739H72.4634C72.5514 20.4739 72.6358 20.5086 72.6981 20.5703C72.7603 20.6321 72.7953 20.7159 72.7953 20.8032V34.0603C72.7953 34.1477 72.7603 34.2315 72.6981 34.2932C72.6358 34.355 72.5514 34.3897 72.4634 34.3897H69.3948C69.3068 34.3897 69.2224 34.355 69.1602 34.2932C69.0979 34.2315 69.063 34.1477 69.063 34.0603V20.803C69.063 20.7157 69.0979 20.6319 69.1602 20.5701C69.2224 20.5083 69.3068 20.4736 69.3948 20.4736V20.4739ZM83.9868 23.6986C83.9868 23.786 83.9519 23.8698 83.8896 23.9316C83.8274 23.9933 83.743 24.028 83.655 24.028H83.5621C82.0448 24.028 80.9319 24.3895 80.224 25.1123C79.5157 25.8352 79.1622 27.0302 79.1622 28.6968V34.0603C79.1622 34.1477 79.1272 34.2315 79.065 34.2932C79.0028 34.355 78.9184 34.3897 78.8304 34.3897H75.7918C75.7038 34.3897 75.6194 34.355 75.5572 34.2932C75.4949 34.2315 75.46 34.1477 75.46 34.0603V20.803C75.46 20.7157 75.4949 20.6319 75.5572 20.5701C75.6194 20.5083 75.7038 20.4736 75.7918 20.4736H78.7998C78.8878 20.4736 78.9722 20.5083 79.0345 20.5701C79.0967 20.6319 79.1317 20.7157 79.1317 20.803V23.4253H79.1925C79.5566 22.341 80.1331 21.5081 80.9224 20.9253C81.711 20.3432 82.6821 20.0518 83.8351 20.0518H83.9868V23.6984V23.6986ZM92.3774 23.5761C92.2894 23.5761 92.205 23.6108 92.1428 23.6726C92.0805 23.7344 92.0456 23.8181 92.0456 23.9055V29.4197C92.0456 29.982 92.1562 30.3836 92.3792 30.6245C92.6015 30.8654 92.9859 30.9859 93.5321 30.9859H93.8376C93.9256 30.9859 94.01 31.0207 94.0722 31.0824C94.1345 31.1442 94.1694 31.228 94.1694 31.3153V34.0902C94.1694 34.1775 94.1345 34.2613 94.0722 34.3231C94.01 34.3849 93.9256 34.4196 93.8376 34.4196H92.5307C91.1753 34.4196 90.1336 34.0733 89.4054 33.3805C88.6769 32.6877 88.3128 31.659 88.3128 30.2932V23.9055C88.3128 23.8181 88.2779 23.7344 88.2156 23.6726C88.1534 23.6108 88.069 23.5761 87.981 23.5761H86.0655C85.9775 23.5761 85.8931 23.5414 85.8309 23.4796C85.7687 23.4179 85.7337 23.3341 85.7337 23.2467V20.803C85.7337 20.7157 85.7687 20.6319 85.8309 20.5701C85.8931 20.5083 85.9775 20.4736 86.0655 20.4736H87.9812C88.0692 20.4736 88.1536 20.4389 88.2159 20.3772C88.2781 20.3154 88.3131 20.2316 88.3131 20.1443V15.2307C88.3131 15.1433 88.348 15.0595 88.4102 14.9977C88.4725 14.936 88.5569 14.9013 88.6449 14.9013H91.7135C91.8015 14.9013 91.8859 14.936 91.9482 14.9977C92.0104 15.0595 92.0453 15.1433 92.0453 15.2307V20.1443C92.0453 20.2316 92.0803 20.3154 92.1425 20.3772C92.2048 20.4389 92.2892 20.4736 92.3772 20.4736H94.5961C94.6841 20.4736 94.7685 20.5083 94.8308 20.5701C94.893 20.6319 94.928 20.7157 94.928 20.803V23.247C94.928 23.3343 94.893 23.4181 94.8308 23.4799C94.7685 23.5416 94.6841 23.5763 94.5961 23.5763H92.3774V23.5761ZM106.429 30.2631C107.127 29.5402 107.476 28.5964 107.476 27.4316C107.476 26.2673 107.127 25.3231 106.429 24.6003C105.731 23.8774 104.815 23.516 103.683 23.516C102.55 23.516 101.635 23.8774 100.937 24.6003C100.239 25.3231 99.8897 26.2673 99.8897 27.4316C99.8897 28.5964 100.239 29.5402 100.937 30.2631C101.635 30.9859 102.55 31.3474 103.683 31.3474C104.815 31.3474 105.731 30.9859 106.429 30.2631ZM99.3436 33.9679C98.3118 33.3858 97.4973 32.5371 96.9009 31.4227C96.3039 30.3083 96.0057 28.9781 96.0057 27.4316C96.0057 25.8857 96.3039 24.555 96.9009 23.4406C97.4973 22.3263 98.3118 21.4782 99.3436 20.8955C100.375 20.3131 101.508 20.022 102.742 20.022C103.834 20.022 104.77 20.2328 105.549 20.6543C106.327 21.0759 106.949 21.6686 107.415 22.4317H107.476V20.803C107.476 20.7157 107.511 20.6319 107.573 20.5701C107.635 20.5083 107.72 20.4736 107.808 20.4736H110.846C110.934 20.4736 111.018 20.5083 111.081 20.5701C111.143 20.6319 111.178 20.7157 111.178 20.803V34.0601C111.178 34.1475 111.143 34.2312 111.081 34.293C111.018 34.3548 110.934 34.3895 110.846 34.3895H107.808C107.72 34.3895 107.635 34.3548 107.573 34.293C107.511 34.2312 107.476 34.1475 107.476 34.0601V32.4317H107.415C106.949 33.1952 106.327 33.7872 105.549 34.2088C104.77 34.6304 103.835 34.8412 102.742 34.8412C101.508 34.8412 100.375 34.55 99.3436 33.9679V33.9679ZM123.814 30.2631C124.512 29.5402 124.861 28.5964 124.861 27.4316C124.861 26.2673 124.512 25.3231 123.814 24.6003C123.116 23.8774 122.201 23.516 121.068 23.516C119.935 23.516 119.02 23.8774 118.322 24.6003C117.624 25.3231 117.275 26.2673 117.275 27.4316C117.275 28.5964 117.624 29.5402 118.322 30.2631C119.02 30.9859 119.935 31.3474 121.068 31.3474C122.201 31.3474 123.116 30.9859 123.814 30.2631ZM119.202 34.2088C118.423 33.7872 117.801 33.1952 117.336 32.4317H117.275V34.0601C117.275 34.1475 117.24 34.2312 117.178 34.293C117.115 34.3548 117.031 34.3895 116.943 34.3895H113.874C113.786 34.3895 113.702 34.3548 113.64 34.293C113.577 34.2312 113.542 34.1475 113.542 34.0601V13.6341C113.542 13.5467 113.577 13.4629 113.64 13.4012C113.702 13.3394 113.786 13.3047 113.874 13.3047H116.943C117.031 13.3047 117.115 13.3394 117.178 13.4012C117.24 13.4629 117.275 13.5467 117.275 13.6341V22.4314H117.336C117.801 21.6684 118.423 21.0759 119.202 20.6543C119.98 20.2325 120.916 20.0217 122.009 20.0217C123.242 20.0217 124.375 20.3129 125.407 20.8952C126.439 21.478 127.253 22.326 127.85 23.4402C128.446 24.5552 128.745 25.8859 128.745 27.4318C128.745 28.9783 128.446 30.3083 127.85 31.4229C127.253 32.5373 126.439 33.386 125.407 33.9679C124.376 34.5502 123.243 34.8416 122.009 34.8416C120.916 34.8416 119.981 34.6308 119.202 34.209L119.202 34.2088ZM133.915 34.3897H130.847C130.759 34.3897 130.674 34.355 130.612 34.2932C130.55 34.2315 130.515 34.1477 130.515 34.0603V13.6347C130.515 13.5474 130.55 13.4636 130.612 13.4018C130.674 13.34 130.759 13.3053 130.847 13.3053H133.915C134.003 13.3053 134.088 13.34 134.15 13.4018C134.212 13.4636 134.247 13.5474 134.247 13.6347V34.0603C134.247 34.1477 134.212 34.2315 134.15 34.2932C134.088 34.355 134.003 34.3897 133.915 34.3897V34.3897ZM141.154 23.6969C140.645 24.0908 140.302 24.6595 140.124 25.4035C140.075 25.6086 140.236 25.8053 140.449 25.8053H146.288C146.491 25.8053 146.65 25.6253 146.618 25.4268C146.501 24.723 146.197 24.162 145.706 23.7421C145.129 23.2503 144.375 23.0043 143.445 23.0043C142.514 23.0043 141.75 23.2351 141.154 23.6969V23.6969ZM148.634 21.9648C149.827 23.2604 150.424 25.0928 150.424 27.4619V27.8554C150.424 27.9427 150.389 28.0265 150.327 28.0883C150.265 28.15 150.18 28.1847 150.092 28.1847H140.336C140.287 28.1848 140.239 28.1955 140.195 28.2159C140.151 28.2363 140.112 28.266 140.081 28.3029C140.05 28.3398 140.027 28.3831 140.014 28.4296C140.001 28.4762 139.999 28.525 140.007 28.5725C140.163 29.4526 140.556 30.1518 141.184 30.6697C141.902 31.2626 142.808 31.5584 143.9 31.5584C145.31 31.5584 146.616 31.0121 147.816 29.9192C147.963 29.7857 148.195 29.814 148.309 29.9763L149.801 32.1019C149.847 32.168 149.868 32.2488 149.859 32.3291C149.849 32.4093 149.811 32.4834 149.75 32.5371C149.018 33.1733 148.204 33.7102 147.329 34.1337C146.358 34.6053 145.215 34.8416 143.9 34.8416C142.383 34.8416 141.058 34.5351 139.925 33.9229C138.792 33.3107 137.912 32.4473 137.285 31.3324C136.658 30.2181 136.344 28.928 136.344 27.4619C136.344 25.9964 136.648 24.7013 137.255 23.5763C137.861 22.4521 138.711 21.5786 139.804 20.9558C140.896 20.3338 142.17 20.0222 143.627 20.0222C145.771 20.0222 147.44 20.6699 148.634 21.9648V21.9648ZM73.1961 15.5728C73.1961 16.8152 72.1814 17.8224 70.9296 17.8224C69.6775 17.8224 68.6628 16.8152 68.6628 15.5725C68.6628 14.3299 69.6777 13.3227 70.9296 13.3227C72.1814 13.3227 73.1961 14.3299 73.1961 15.5725" fill="#333333"/>
<path d="M17.4761 7.3644L2.88499 13.3575C2.07359 13.6908 2.08199 14.8351 2.89849 15.1563L17.5505 20.9239C18.8378 21.4307 20.2715 21.4307 21.5588 20.9239L36.211 15.1561C37.0273 14.8351 37.0362 13.691 36.2243 13.3577L21.6336 7.36418C20.3024 6.81741 18.8071 6.81741 17.4759 7.36418" fill="#FCB400"/>
<path d="M20.8545 24.0732V38.4816C20.8545 39.1667 21.5506 39.6361 22.1924 39.3836L38.5192 33.093C38.7013 33.0214 38.8575 32.8971 38.9675 32.7362C39.0776 32.5754 39.1364 32.3854 39.1364 32.191V17.7828C39.1364 17.0975 38.4402 16.6283 37.7985 16.8808L21.4717 23.1714C21.2896 23.2431 21.1334 23.3674 21.0234 23.5282C20.9134 23.6891 20.8545 23.879 20.8545 24.0734" fill="#18BFFF"/>
<path d="M17.0417 24.8166L12.1963 27.1389L11.7043 27.3749L1.47593 32.2398C0.827776 32.5503 0 32.0813 0 31.3663V17.843C0 17.5844 0.133612 17.3611 0.312794 17.1931C0.386303 17.1204 0.469698 17.0583 0.560552 17.0086C0.80477 16.863 1.1534 16.8242 1.44982 16.9406L16.9603 23.041C17.7487 23.3515 17.8107 24.4481 17.0417 24.8168" fill="#F82B60"/>
<path d="M17.0415 24.8166L12.196 27.1389L0.3125 17.1929C0.386023 17.1203 0.469418 17.0583 0.560258 17.0086C0.804476 16.863 1.15311 16.8242 1.44953 16.9406L16.9601 23.041C17.7485 23.3515 17.8104 24.4481 17.0415 24.8168" fill="black" fill-opacity="0.25"/>
</g>
<defs>
<clipPath id="clip0_251_718">
<rect width="150.628" height="48" fill="white"/>
</clipPath>
</defs>
</svg>
