<svg width="222" height="28" viewBox="0 0 222 28" fill="none" xmlns="http://www.w3.org/2000/svg">
<path d="M218.316 8.14C218.316 8.318 218.076 8.396 217.962 8.26C217.072 7.202 215.601 6.4 213.588 6.4C209.232 6.4 206.755 9.996 206.755 14.35C206.755 18.676 209.232 22.27 213.588 22.27C215.629 22.27 217.223 21.54 218.213 20.28C218.324 20.14 218.573 20.216 218.573 20.396V21.742C218.573 21.842 218.651 21.922 218.747 21.922H221.528C221.626 21.922 221.705 21.842 221.705 21.742V0.18C221.705 0.132261 221.686 0.0864773 221.653 0.0527208C221.62 0.0189642 221.575 0 221.528 0L218.49 0C218.444 0.000526605 218.4 0.0197231 218.367 0.0534227C218.335 0.0871223 218.316 0.132606 218.316 0.18V8.14ZM218.457 14.35C218.457 17.07 216.892 19.202 214.3 19.202C211.738 19.202 210.143 17.068 210.143 14.35C210.143 11.574 211.738 9.47 214.3 9.47C216.892 9.47 218.457 11.574 218.457 14.35ZM205.91 6.8C205.91 6.75512 205.894 6.71184 205.864 6.67884C205.834 6.64583 205.793 6.62553 205.75 6.622C205.642 6.6135 205.533 6.60817 205.425 6.606C203.332 6.606 202.113 7.464 201.442 8.304C201.329 8.444 201.069 8.368 201.069 8.184V6.93C201.069 6.88261 201.05 6.83712 201.018 6.80342C200.985 6.76972 200.941 6.75053 200.894 6.75H198.111C198.064 6.75053 198.02 6.76972 197.988 6.80342C197.955 6.83712 197.937 6.88261 197.937 6.93V21.742C197.937 21.842 198.015 21.922 198.111 21.922H201.151C201.197 21.9215 201.241 21.9023 201.274 21.8686C201.307 21.8349 201.325 21.7894 201.325 21.742V14.03C201.325 11.106 202.749 9.82 205.141 9.82C205.345 9.82 205.56 9.84 205.709 9.854C205.734 9.85677 205.759 9.85422 205.783 9.8465C205.807 9.83878 205.829 9.82606 205.848 9.80915C205.867 9.79224 205.882 9.77149 205.893 9.74823C205.904 9.72497 205.909 9.6997 205.91 9.674V6.8ZM191.561 14.82C191.586 14.8163 191.612 14.8181 191.636 14.8253C191.66 14.8325 191.683 14.845 191.702 14.8619C191.721 14.8788 191.736 14.8997 191.747 14.9232C191.757 14.9467 191.763 14.9722 191.763 14.998V15.754C191.763 17.8 190.425 19.554 187.69 19.554C186.066 19.554 185.069 18.998 185.069 17.566C185.069 16.514 185.753 15.726 187.833 15.402L191.561 14.822V14.82ZM187.007 22.272C189.114 22.272 190.699 21.644 191.726 20.412C191.837 20.276 192.082 20.352 192.09 20.532C192.131 21.402 192.252 21.92 192.275 21.92H195.227C195.352 21.92 195.441 21.788 195.401 21.666C195.196 21.002 195.065 19.926 195.065 19.056V12.07C195.065 8.592 193.015 6.4 188.688 6.4C184.327 6.4 182.541 8.736 182.189 11.318C182.186 11.3428 182.189 11.368 182.196 11.3918C182.204 11.4156 182.216 11.4376 182.232 11.4563C182.248 11.4749 182.268 11.4899 182.29 11.5002C182.313 11.5105 182.337 11.5159 182.361 11.516H185.321C185.407 11.516 185.478 11.452 185.497 11.366C185.773 10.052 186.818 9.266 188.602 9.266C190.622 9.266 191.763 10.2 191.763 12.042V12.12C191.763 12.1632 191.748 12.205 191.72 12.2377C191.692 12.2703 191.654 12.2918 191.612 12.298L187.491 12.89C183.59 13.444 181.825 15.11 181.825 17.682C181.825 20.282 183.334 22.272 187.007 22.272ZM172.856 22.272C177.582 22.272 180.544 18.618 180.544 14.352C180.544 10.084 177.582 6.4 172.856 6.4C168.157 6.4 165.198 10.084 165.198 14.35C165.198 18.618 168.157 22.27 172.856 22.27V22.272ZM168.586 14.352C168.586 11.398 170.407 9.47 172.856 9.47C175.335 9.47 177.156 11.398 177.156 14.35C177.156 17.274 175.335 19.202 172.856 19.202C170.407 19.202 168.586 17.274 168.586 14.35V14.352ZM152.719 8.26C152.606 8.396 152.367 8.318 152.367 8.14V0.18C152.367 0.132261 152.348 0.0864773 152.315 0.0527208C152.282 0.0189642 152.237 0 152.191 0L149.153 0C149.106 0 149.061 0.0189642 149.028 0.0527208C148.995 0.0864773 148.977 0.132261 148.977 0.18V21.74C148.977 21.84 149.055 21.92 149.153 21.92H151.935C152.032 21.92 152.111 21.84 152.111 21.74V20.38C152.111 20.2 152.353 20.124 152.463 20.264C153.474 21.534 155.07 22.272 157.093 22.272C161.477 22.272 163.955 18.676 163.955 14.352C163.955 9.996 161.477 6.4 157.093 6.4C155.104 6.4 153.615 7.202 152.719 8.26ZM152.251 14.35C152.251 11.574 153.816 9.47 156.408 9.47C158.971 9.47 160.567 11.574 160.567 14.35C160.567 17.07 158.971 19.202 156.408 19.202C153.818 19.202 152.251 17.068 152.251 14.35ZM146.099 19.062C146.098 19.0339 146.091 19.0063 146.079 18.9812C146.067 18.9561 146.049 18.9341 146.027 18.9167C146.006 18.8993 145.981 18.8871 145.954 18.8807C145.927 18.8744 145.899 18.8741 145.872 18.88C145.677 18.92 145.375 18.97 145.047 18.97C143.879 18.97 143.396 18.384 143.396 17.186V9.706C143.396 9.65861 143.415 9.61334 143.448 9.58001C143.481 9.54669 143.525 9.528 143.572 9.528H145.982C146.08 9.528 146.158 9.448 146.158 9.348V6.934C146.158 6.88626 146.139 6.84048 146.106 6.80672C146.073 6.77296 146.028 6.754 145.982 6.754H143.57C143.547 6.754 143.524 6.74934 143.502 6.7403C143.481 6.73125 143.462 6.71799 143.445 6.70128C143.429 6.68456 143.416 6.66472 143.407 6.64288C143.398 6.62104 143.394 6.59764 143.394 6.574V2.988C143.394 2.94061 143.375 2.89512 143.343 2.86142C143.31 2.82772 143.266 2.80853 143.22 2.808H140.182C140.135 2.808 140.09 2.82696 140.057 2.86072C140.024 2.89448 140.006 2.94026 140.006 2.988V6.576C140.006 6.59964 140.001 6.62304 139.992 6.64488C139.983 6.66672 139.97 6.68656 139.954 6.70328C139.938 6.71999 139.918 6.73325 139.897 6.7423C139.876 6.75134 139.853 6.756 139.83 6.756H137.932C137.886 6.756 137.841 6.77469 137.808 6.80801C137.775 6.84134 137.756 6.88661 137.756 6.934V9.352C137.756 9.452 137.834 9.532 137.932 9.532H139.83C139.927 9.532 140.006 9.612 140.006 9.71V17.54C140.006 20.404 141.316 22.012 144.335 22.012C145.172 22.012 145.731 21.916 145.97 21.866C146.007 21.8577 146.041 21.8363 146.064 21.8057C146.088 21.775 146.1 21.737 146.099 21.698V19.062ZM122.198 14.35C122.198 18.734 125.217 22.27 129.573 22.27C133.849 22.27 136.068 19.298 136.545 16.63C136.549 16.6048 136.548 16.5789 136.542 16.5542C136.535 16.5295 136.523 16.5065 136.507 16.4871C136.491 16.4676 136.47 16.452 136.448 16.4414C136.425 16.4309 136.4 16.4256 136.375 16.426H133.241C133.202 16.4264 133.164 16.4398 133.133 16.4644C133.102 16.489 133.079 16.5232 133.069 16.562C132.631 18.124 131.316 19.202 129.544 19.202C127.124 19.202 125.586 17.186 125.586 14.35C125.586 11.486 127.124 9.47 129.544 9.47C131.316 9.47 132.631 10.548 133.069 12.11C133.09 12.19 133.161 12.246 133.241 12.246H136.375C136.4 12.2464 136.425 12.2411 136.448 12.2306C136.47 12.22 136.491 12.2044 136.507 12.1849C136.523 12.1655 136.535 12.1425 136.542 12.1178C136.548 12.0931 136.549 12.0672 136.545 12.042C136.068 9.374 133.849 6.402 129.573 6.402C125.217 6.402 122.198 9.938 122.198 14.35ZM116.492 15.49C116.492 17.974 115.183 19.29 113.076 19.29C111.026 19.29 110.201 17.916 110.201 15.842V6.93C110.201 6.88226 110.182 6.83648 110.149 6.80272C110.116 6.76896 110.072 6.75 110.025 6.75H106.987C106.94 6.75 106.895 6.76896 106.862 6.80272C106.829 6.83648 106.811 6.88226 106.811 6.93V16.31C106.811 19.846 108.663 22.27 112.249 22.27C114.24 22.27 115.6 21.504 116.361 20.554C116.476 20.41 116.75 20.492 116.75 20.678V21.742C116.75 21.842 116.828 21.922 116.926 21.922H119.706C119.804 21.922 119.882 21.842 119.882 21.742V6.93C119.882 6.88226 119.864 6.83648 119.831 6.80272C119.798 6.76896 119.753 6.75 119.706 6.75H116.668C116.621 6.75 116.577 6.76896 116.544 6.80272C116.511 6.83648 116.492 6.88226 116.492 6.93V15.49ZM100.823 8.14C100.823 8.318 100.582 8.396 100.469 8.26C99.5787 7.202 98.1076 6.4 96.0947 6.4C91.7382 6.4 89.2597 9.996 89.2597 14.35C89.2597 18.676 91.7382 22.27 96.0947 22.27C98.133 22.27 99.7274 21.54 100.719 20.28C100.831 20.14 101.077 20.216 101.077 20.396V21.742C101.077 21.842 101.155 21.922 101.253 21.922H104.035C104.133 21.922 104.211 21.842 104.211 21.742V0.18C104.211 0.132261 104.192 0.0864773 104.159 0.0527208C104.126 0.0189642 104.082 0 104.035 0L100.997 0C100.95 0 100.905 0.0189642 100.872 0.0527208C100.839 0.0864773 100.821 0.132261 100.821 0.18V8.14H100.823ZM100.964 14.35C100.964 17.07 99.3987 19.202 96.8067 19.202C94.2441 19.202 92.6479 17.068 92.6479 14.35C92.6479 11.574 94.2441 9.47 96.8067 9.47C99.3968 9.47 100.964 11.574 100.964 14.35ZM80.2044 22.272C84.9326 22.272 87.8923 18.618 87.8923 14.352C87.8923 10.082 84.9345 6.4 80.2044 6.4C75.5076 6.4 72.5459 10.084 72.5459 14.35C72.5459 18.618 75.5076 22.27 80.2044 22.27V22.272ZM75.934 14.352C75.934 11.398 77.7553 9.47 80.2044 9.47C82.6829 9.47 84.5042 11.398 84.5042 14.35C84.5042 17.274 82.6829 19.202 80.2044 19.202C77.7553 19.202 75.934 17.274 75.934 14.35V14.352ZM72.1566 6.8C72.1567 6.75512 72.1403 6.71184 72.1105 6.67884C72.0808 6.64583 72.04 6.62553 71.9962 6.622C71.8888 6.6135 71.7811 6.60817 71.6734 6.606C69.5803 6.606 68.3596 7.464 67.6886 8.304C67.5752 8.444 67.317 8.368 67.317 8.184V6.93C67.317 6.88226 67.2984 6.83648 67.2654 6.80272C67.2324 6.76896 67.1876 6.75 67.1409 6.75H64.3592C64.3125 6.75 64.2677 6.76896 64.2347 6.80272C64.2017 6.83648 64.1831 6.88226 64.1831 6.93V21.742C64.1831 21.842 64.2614 21.922 64.3592 21.922H67.3972C67.495 21.922 67.5732 21.842 67.5732 21.742V14.03C67.5732 11.106 68.9954 9.82 71.3878 9.82C71.5932 9.82 71.8064 9.84 71.9551 9.854C71.9801 9.85677 72.0054 9.85422 72.0294 9.8465C72.0534 9.83878 72.0755 9.82606 72.0945 9.80915C72.1134 9.79224 72.1287 9.77149 72.1394 9.74823C72.1501 9.72497 72.1559 9.6997 72.1566 9.674V6.8ZM50.5014 20.544C50.5014 20.364 50.744 20.286 50.8594 20.424C51.7534 21.494 53.2421 22.272 55.2296 22.272C59.6134 22.272 62.0919 18.676 62.0919 14.352C62.0919 9.996 59.6134 6.4 55.2296 6.4C53.2049 6.4 51.6086 7.162 50.5973 8.42C50.4877 8.558 50.2452 8.48 50.2452 8.3V6.93C50.2452 6.88226 50.2266 6.83648 50.1936 6.80272C50.1606 6.76896 50.1158 6.75 50.0691 6.75H47.2893C47.2426 6.75 47.1979 6.76896 47.1648 6.80272C47.1318 6.83648 47.1133 6.88226 47.1133 6.93V27.82C47.1133 27.92 47.1915 28 47.2893 28H50.3273C50.4251 28 50.5034 27.92 50.5034 27.82V20.544H50.5014ZM50.388 14.35C50.388 11.544 51.9529 9.41 54.5449 9.41C57.1075 9.41 58.7038 11.544 58.7038 14.35C58.7038 17.07 57.1075 19.202 54.5449 19.202C51.9549 19.202 50.388 17.068 50.388 14.35Z" fill="#000C2C"/>
<path fill-rule="evenodd" clip-rule="evenodd" d="M30.5602 10.5045C31.1094 11.051 31.4903 11.7498 31.6561 12.5148C31.8219 13.2797 31.7654 14.0776 31.4934 14.8101L29.4213 20.5654C28.8774 22.0764 27.6379 23.2453 26.1061 23.5504C25.3399 23.7072 24.5464 23.6481 23.8105 23.3794C23.0746 23.1107 22.424 22.6425 21.9283 22.025L9.50269 6.80459C9.4718 6.76713 9.43183 6.73863 9.38678 6.72192C9.34172 6.70522 9.29317 6.7009 9.24598 6.7094C9.19878 6.71789 9.1546 6.73891 9.11784 6.77035C9.08108 6.80179 9.05305 6.84254 9.03653 6.88854L4.99383 18.0678C4.90996 18.2989 5.13244 18.5227 5.35316 18.4306L10.3141 16.3591C10.5937 16.2432 10.8938 16.1876 11.1955 16.1958C11.4972 16.2041 11.7939 16.2759 12.0672 16.407C12.3404 16.538 12.5842 16.7253 12.7833 16.9572C12.9823 17.1891 13.1324 17.4606 13.224 17.7546C13.5904 18.9036 12.9742 20.1448 11.8891 20.5979L5.40878 23.3031C4.20895 23.8041 2.83078 23.7156 1.75014 22.9782C1.01371 22.475 0.464676 21.7327 0.191703 20.8712C-0.0812691 20.0097 -0.0622412 19.0793 0.245714 18.2303L5.02208 5.02638C5.58801 3.4612 6.87701 2.35636 8.4706 2.07113C9.24666 1.92894 10.0458 2.00076 10.7856 2.27919C11.5255 2.55762 12.1795 3.03261 12.6802 3.65527L19.8121 12.3929L26.3718 9.65334C27.8295 9.04495 29.4345 9.37081 30.5602 10.5045ZM26.7771 14.8932C26.8601 14.6621 26.6376 14.4383 26.4169 14.5312L22.7927 16.0441L24.9663 18.7078C24.9971 18.7457 25.0372 18.7746 25.0825 18.7916C25.1277 18.8085 25.1766 18.813 25.2241 18.8045C25.2716 18.796 25.316 18.7748 25.3529 18.743C25.3898 18.7113 25.4179 18.6702 25.4342 18.6238L26.7762 14.8932H26.7771Z" fill="url(#paint0_linear_3004_96)"/>
<defs>
<linearGradient id="paint0_linear_3004_96" x1="0" y1="2" x2="20.1371" y2="31.5495" gradientUnits="userSpaceOnUse">
<stop stop-color="#FF4244"/>
<stop offset="1" stop-color="#FF8E3C"/>
</linearGradient>
</defs>
</svg>
