<svg width="160" height="48" viewBox="0 0 160 48" fill="none" xmlns="http://www.w3.org/2000/svg">
<path d="M9.75995 32.0001C8.92211 31.1397 8.2593 30.1196 7.80949 28.9981C7.35968 27.8767 7.1317 26.6759 7.13862 25.4647C7.13557 24.2535 7.36986 23.0538 7.82778 21.9358C8.2857 20.8178 8.95806 19.8039 9.80556 18.9535C10.1686 18.6251 10.4619 18.2248 10.6677 17.777C10.8734 17.3293 10.9871 16.8435 11.0019 16.3495C11.0167 15.8555 10.9322 15.3636 10.7537 14.9039C10.5752 14.4443 10.3063 14.0265 9.96363 13.6763C9.62092 13.326 9.21157 13.0506 8.76063 12.867C8.30969 12.6833 7.82666 12.5953 7.34111 12.6082C6.85556 12.6211 6.37772 12.7347 5.93683 12.9421C5.49594 13.1495 5.10129 13.4463 4.77704 13.8143C1.73139 16.8952 0.0130892 21.081 7.44703e-05 25.4511C-0.0129403 29.8211 1.6804 34.0175 4.70764 37.1171C5.03083 37.4846 5.42419 37.7813 5.86372 37.989C6.30326 38.1968 6.77977 38.3112 7.2642 38.3255C7.74863 38.3397 8.23084 38.2534 8.68142 38.0718C9.13201 37.8902 9.54153 37.6172 9.88503 37.2693C10.2285 36.9214 10.4988 36.5059 10.6794 36.0483C10.8599 35.5906 10.947 35.1004 10.9353 34.6074C10.9236 34.1143 10.8134 33.6289 10.6113 33.1807C10.4092 32.7324 10.1196 32.3308 9.75995 32.0001V32.0001Z" fill="#FFC700"/>
<path d="M9.80612 18.9532C11.5141 17.2326 13.8228 16.2713 16.2261 16.28C18.6295 16.2887 20.9314 17.2667 22.6273 18.9996C22.9493 19.3709 23.3426 19.6714 23.783 19.8823C24.2233 20.0933 24.7014 20.2104 25.1879 20.2264C25.6744 20.2425 26.1589 20.1571 26.6118 19.9755C27.0646 19.7939 27.4762 19.52 27.8212 19.1706C28.1661 18.8212 28.4372 18.4037 28.6178 17.9438C28.7984 17.4838 28.8846 16.9912 28.8711 16.4961C28.8577 16.001 28.7449 15.5139 28.5396 15.0648C28.3344 14.6157 28.041 14.2141 27.6776 13.8846C26.1842 12.3453 24.4066 11.1214 22.4471 10.2832C20.4875 9.44499 18.3845 9.00895 16.2589 9.00014C14.1332 8.99132 12.0268 9.40991 10.0606 10.2319C8.09436 11.0538 6.30709 12.2629 4.8014 13.7898C4.43705 14.1165 4.14205 14.5154 3.93444 14.9621C3.72683 15.4088 3.61098 15.8939 3.59398 16.3877C3.57699 16.8816 3.6592 17.3737 3.8356 17.8341C4.01199 18.2945 4.27886 18.7134 4.61986 19.0653C4.96086 19.4171 5.36882 19.6944 5.81878 19.8802C6.26873 20.066 6.75122 20.1564 7.23671 20.1459C7.7222 20.1355 8.20048 20.0243 8.64228 19.8192C9.08408 19.6141 9.48011 19.3194 9.80612 18.9532V18.9532Z" fill="#67B3FF"/>
<path d="M22.6048 32.0462C21.7596 32.9005 20.7571 33.5768 19.6547 34.0362C18.5523 34.4957 17.3717 34.7293 16.1804 34.7238C14.9894 34.7256 13.8101 34.4856 12.7114 34.0178C11.6126 33.5501 10.6167 32.8641 9.78172 31.9998C9.45904 31.6304 9.06565 31.3319 8.62565 31.1226C8.18565 30.9132 7.70829 30.7975 7.2228 30.7824C6.73731 30.7674 6.25391 30.8533 5.8022 31.035C5.35048 31.2167 4.93996 31.4902 4.59577 31.839C4.25157 32.1877 3.98095 32.6043 3.80047 33.0631C3.61999 33.522 3.53344 34.0135 3.54614 34.5076C3.55884 35.0017 3.67051 35.488 3.87431 35.9366C4.07811 36.3853 4.36976 36.7869 4.73139 37.1168C6.22737 38.656 8.00715 39.8796 9.96872 40.7175C11.9303 41.5554 14.0351 41.9912 16.1625 41.9998C18.2898 42.0084 20.398 41.5898 22.366 40.7678C24.3341 39.9458 26.1234 38.7366 27.6314 37.2096C27.9646 36.8738 28.2295 36.4744 28.411 36.0344C28.5925 35.5944 28.687 35.1223 28.6892 34.6451C28.6914 34.1678 28.6013 33.6948 28.4238 33.2531C28.2464 32.8113 27.9852 32.4095 27.6552 32.0705C27.3251 31.7314 26.9327 31.4619 26.5003 31.2772C26.0678 31.0925 25.6039 30.9962 25.1349 30.994C24.666 30.9917 24.2012 31.0835 23.767 31.2641C23.3329 31.4446 22.938 31.7104 22.6048 32.0462V32.0462Z" fill="#EB5A68"/>
<path d="M9.80528 18.9531C9.30503 19.4615 8.66764 19.8073 7.97397 19.9466C7.2803 20.0859 6.5616 20.0124 5.90904 19.7354C5.25648 19.4585 4.69946 18.9905 4.30865 18.3909C3.91784 17.7913 3.71083 17.0871 3.7139 16.3676C3.71697 15.6482 3.92997 14.9458 4.32588 14.3497C4.72179 13.7536 5.28277 13.2906 5.93767 13.0194C6.59256 12.7482 7.31186 12.681 8.00432 12.8264C8.69678 12.9718 9.33119 13.3232 9.82709 13.8361C10.4878 14.5193 10.8562 15.4406 10.8521 16.3991C10.848 17.3577 10.4717 18.2757 9.80528 18.9531Z" fill="#1688FF"/>
<path d="M9.73592 37.1169C9.23547 37.6252 8.59795 37.9707 7.90422 38.1097C7.2105 38.2487 6.49183 38.1749 5.83938 37.8977C5.18693 37.6205 4.63009 37.1523 4.23951 36.5525C3.84893 35.9528 3.6422 35.2485 3.64555 34.529C3.64889 33.8096 3.86216 33.1073 4.2583 32.5114C4.65444 31.9154 5.21561 31.4526 5.87061 31.1817C6.52561 30.9107 7.24493 30.8439 7.93733 30.9895C8.62973 31.1352 9.26401 31.4869 9.75972 31.9999C10.4201 32.6834 10.7882 33.6049 10.7837 34.5634C10.7793 35.5219 10.4026 36.4398 9.73592 37.1169V37.1169Z" fill="#D5465F"/>
<path d="M43.5595 29.0239C44.5886 28.2329 44.7254 28.6748 45.5939 29.5586C46.0282 30.0004 47.2159 30.7692 46.4386 31.4189C44.8166 32.7668 43.3533 33.3721 41.2832 33.3721C36.5977 33.3499 33.2844 29.7906 33.5501 25.0691C33.6631 22.9545 34.486 20.9529 36.1099 19.5808C37.5951 18.3016 39.4451 17.7447 41.3883 17.7911C42.3407 17.7882 43.2842 17.9775 44.1643 18.348C44.7604 18.567 45.3221 18.8729 45.8319 19.256C46.861 20.0631 46.3811 20.5352 45.58 21.3484C45.3976 21.534 45.2152 21.7217 45.0546 21.9073C44.6441 22.325 44.3685 22.6276 43.8213 22.2321C42.7703 21.4876 41.4418 21.0921 40.1867 21.4251C36.1417 22.4702 36.3241 29.7966 41.2852 29.8209C42.1076 29.8098 42.9048 29.5305 43.5595 29.0239V29.0239ZM156.001 33.4629C155.839 33.4637 155.678 33.4318 155.528 33.369C155.378 33.3063 155.242 33.2139 155.127 33.0972C155.012 32.9805 154.921 32.8419 154.859 32.6892C154.797 32.5366 154.765 32.373 154.766 32.2078L154.835 15.9751C154.835 15.81 154.866 15.6464 154.928 15.4936C154.989 15.3409 155.08 15.2021 155.195 15.0852C155.309 14.9683 155.446 14.8757 155.596 14.8127C155.746 14.7497 155.906 14.7176 156.069 14.7181H157.395C157.558 14.7176 157.719 14.7498 157.869 14.8129C158.019 14.8761 158.155 14.9688 158.27 15.0859C158.385 15.203 158.475 15.342 158.537 15.495C158.598 15.648 158.63 15.8119 158.629 15.9772L158.559 32.2099C158.56 32.3749 158.529 32.5385 158.467 32.6911C158.405 32.8437 158.314 32.9824 158.2 33.0991C158.085 33.2158 157.949 33.3082 157.799 33.371C157.649 33.4338 157.488 33.4657 157.326 33.4649L156.001 33.4629ZM149.061 31.5803C147.622 32.9524 146.25 33.6727 144.215 33.6727C140.103 33.6485 138.136 30.1841 138.136 26.2999L138.16 19.6959C138.159 19.5308 138.191 19.3673 138.253 19.2148C138.315 19.0622 138.406 18.9237 138.52 18.8072C138.635 18.6907 138.772 18.5985 138.922 18.536C139.072 18.4734 139.233 18.4418 139.395 18.4428H140.721C140.884 18.442 141.044 18.474 141.194 18.5367C141.344 18.5995 141.481 18.6919 141.595 18.8086C141.71 18.9253 141.801 19.064 141.862 19.2166C141.924 19.3693 141.955 19.5328 141.955 19.6979L141.933 26.3019C141.933 28.4649 143.075 30.1619 145.316 30.1619C147.556 30.1619 148.926 28.2551 148.948 26.1264V23.7676C148.93 23.676 148.923 23.5826 148.926 23.4892L148.948 19.7443C148.947 19.5792 148.979 19.4157 149.041 19.2631C149.102 19.1104 149.193 18.9718 149.308 18.8551C149.422 18.7383 149.559 18.6459 149.709 18.5831C149.859 18.5204 150.019 18.4884 150.182 18.4892H151.49C151.652 18.4884 151.813 18.5204 151.963 18.5831C152.113 18.6459 152.249 18.7383 152.364 18.8551C152.479 18.9718 152.57 19.1104 152.631 19.2631C152.693 19.4157 152.724 19.5792 152.724 19.7443L152.68 32.2099C152.677 32.5397 152.545 32.8548 152.314 33.0859C152.083 33.3171 151.771 33.4454 151.447 33.4427H150.326C150.008 33.4326 149.706 33.2995 149.481 33.0704C149.256 32.8414 149.125 32.5336 149.115 32.2099L149.061 31.5803ZM133.284 18.4892H135.844C136.006 18.4916 136.166 18.5266 136.315 18.5923C136.464 18.658 136.599 18.7531 136.711 18.872C136.824 18.9909 136.912 19.1314 136.971 19.2853C137.03 19.4391 137.059 19.6034 137.055 19.7685V20.628C137.053 20.9594 136.922 21.2765 136.692 21.5112C136.463 21.7459 136.151 21.8794 135.826 21.8831H133.26L133.214 32.1392C133.215 32.3044 133.184 32.468 133.122 32.6208C133.06 32.7735 132.97 32.9123 132.855 33.0292C132.74 33.146 132.604 33.2386 132.454 33.3017C132.304 33.3647 132.143 33.3968 131.981 33.3963H130.656C130.494 33.3968 130.333 33.3647 130.183 33.3017C130.033 33.2387 129.897 33.1461 129.782 33.0293C129.667 32.9125 129.576 32.7737 129.514 32.6209C129.452 32.4682 129.421 32.3045 129.421 32.1392L129.467 17.9545C129.467 14.8614 131.204 12.4179 134.313 12.1394C134.404 12.1394 134.471 12.1172 134.563 12.1172C134.746 12.1051 134.929 12.1051 135.112 12.1172H136.302C136.464 12.1196 136.624 12.1546 136.773 12.2201C136.921 12.2857 137.056 12.3806 137.169 12.4993C137.281 12.618 137.37 12.7582 137.429 12.9119C137.488 13.0655 137.517 13.2295 137.513 13.3945V14.1854C137.511 14.5178 137.38 14.836 137.15 15.0712C136.919 15.3065 136.606 15.4398 136.28 15.4425H135.32C133.857 15.4425 133.24 16.5805 133.216 17.9767L133.284 18.4892ZM124.097 18.4428H126.903C127.227 18.446 127.537 18.58 127.764 18.8153C127.991 19.0506 128.117 19.368 128.114 19.6979V20.5574C128.111 20.8873 127.98 21.2023 127.748 21.4335C127.517 21.6646 127.205 21.793 126.881 21.7903H124.073L124.052 28.0654C124.052 29.2761 124.623 29.9722 125.81 29.9722H126.381C126.706 29.9759 127.015 30.1103 127.242 30.346C127.469 30.5816 127.596 30.8992 127.593 31.2292V32.1009C127.589 32.4306 127.457 32.7453 127.226 32.9764C126.995 33.2074 126.684 33.3359 126.36 33.3337H125.285C125.086 33.3378 124.888 33.3297 124.69 33.3095C121.65 33.1078 120.302 31.1021 120.302 28.0775C120.326 24.0078 120.326 19.9622 120.348 15.8924C120.349 15.7289 120.382 15.5674 120.445 15.4169C120.508 15.2665 120.6 15.1301 120.714 15.0156C120.829 14.9012 120.965 14.8108 121.114 14.7497C121.263 14.6886 121.422 14.658 121.583 14.6596H122.886C123.21 14.6628 123.519 14.7967 123.747 15.032C123.974 15.2674 124.1 15.5848 124.097 15.9146V18.4428ZM83.4486 18.2794H86.2543C86.5785 18.2826 86.8881 18.4166 87.1153 18.6519C87.3424 18.8872 87.4685 19.2046 87.4659 19.5344V20.398C87.4622 20.7277 87.3304 21.0425 87.0993 21.2735C86.8681 21.5045 86.5565 21.633 86.2325 21.6309H83.4169V27.908C83.4169 29.1187 83.9879 29.8148 85.1757 29.8148H85.7487C85.9091 29.8164 86.0676 29.8501 86.2152 29.914C86.3628 29.978 86.4966 30.0709 86.6089 30.1874C86.7213 30.3039 86.8099 30.4419 86.8698 30.5933C86.9298 30.7447 86.9598 30.9066 86.9583 31.0698V31.9294C86.9551 32.2592 86.8235 32.5743 86.5922 32.8055C86.361 33.0366 86.049 33.1649 85.7249 33.1622H84.8802C81.5649 33.14 79.6455 31.6974 79.6455 27.9161C79.6693 23.8463 79.6693 19.7988 79.6911 15.729C79.6948 15.399 79.8268 15.0839 80.0584 14.8528C80.2899 14.6217 80.6021 14.4935 80.9264 14.4961H82.2291C82.5533 14.4999 82.8627 14.6343 83.0895 14.87C83.3163 15.1057 83.4419 15.4234 83.4387 15.7532L83.4486 18.2794ZM66.9493 20.0469C68.2976 18.7677 69.761 17.9545 71.6566 17.9545C75.771 17.9767 77.8966 21.3847 77.8728 25.3253L77.851 31.9294C77.8515 32.0946 77.8199 32.2583 77.758 32.4111C77.6961 32.5638 77.6052 32.7026 77.4904 32.8195C77.3755 32.9363 77.2392 33.0289 77.089 33.0918C76.9389 33.1548 76.7781 33.187 76.6157 33.1864H75.2911C75.1288 33.187 74.9679 33.1548 74.8178 33.0918C74.6677 33.0289 74.5313 32.9363 74.4165 32.8195C74.3017 32.7026 74.2107 32.5638 74.1488 32.4111C74.0869 32.2583 74.0553 32.0946 74.0558 31.9294L74.0796 25.3718C74.0796 23.2087 72.9375 21.5118 70.6969 21.5118C68.4562 21.5118 67.0861 23.3964 67.0643 25.5352L67.0405 31.9294C67.0373 32.2592 66.9057 32.5743 66.6745 32.8055C66.4432 33.0366 66.1313 33.1649 65.8071 33.1622H64.5044C64.1803 33.159 63.8706 33.0251 63.6435 32.7898C63.4163 32.5545 63.2902 32.237 63.2929 31.9072C63.3147 27.9302 63.3147 23.9311 63.3385 19.9541V19.4194C63.3395 19.0899 63.4689 18.7743 63.6982 18.5417C63.9275 18.3091 64.2381 18.1785 64.5619 18.1785H65.6822C66.0005 18.1881 66.3032 18.3211 66.5284 18.5503C66.7536 18.7794 66.8843 19.0874 66.8937 19.4114L66.9493 20.0469ZM107.675 20.2084C109.023 18.9311 110.485 18.116 112.382 18.116C116.497 18.1402 118.62 21.5582 118.599 25.4888L118.575 32.1009C118.576 32.266 118.544 32.4297 118.483 32.5824C118.421 32.7352 118.33 32.874 118.216 32.9908C118.101 33.1077 117.965 33.2003 117.815 33.2633C117.665 33.3263 117.504 33.3585 117.342 33.358H116.017C115.855 33.3585 115.694 33.3263 115.544 33.2634C115.394 33.2004 115.257 33.1078 115.142 32.991C115.028 32.8741 114.937 32.7353 114.875 32.5826C114.813 32.4298 114.781 32.2661 114.782 32.1009L114.805 25.5433C114.805 23.3802 113.661 21.6833 111.423 21.6833C109.184 21.6833 107.812 23.5659 107.788 25.7067L107.756 32.1009C107.753 32.4309 107.621 32.746 107.389 32.9771C107.158 33.2082 106.845 33.3364 106.521 33.3337H105.218C104.895 33.33 104.585 33.1958 104.359 32.9606C104.132 32.7253 104.006 32.4082 104.009 32.0787L104.054 19.5889C104.055 19.4247 104.087 19.2623 104.15 19.1109C104.212 18.9596 104.304 18.8222 104.418 18.7069C104.533 18.5916 104.669 18.5005 104.819 18.4389C104.968 18.3773 105.128 18.3464 105.29 18.348H106.41C106.73 18.3587 107.033 18.4935 107.258 18.7246C107.483 18.9558 107.612 19.2657 107.62 19.5909L107.675 20.2084ZM54.5069 17.8375C50.0494 17.8133 46.8967 21.0921 46.8729 25.6038C46.8511 30.1619 49.9582 33.3963 54.4613 33.4185C58.9643 33.4407 62.1171 30.2325 62.1389 25.6441C62.1627 21.1627 58.9405 17.8597 54.5069 17.8375ZM91.5069 27.1635C91.8262 29.2559 93.7932 30.1155 95.7126 30.1397C96.6747 30.1311 97.6245 29.9173 98.5005 29.5121C98.6413 29.4538 98.7784 29.3864 98.9109 29.3104C99.3689 29.0541 99.7794 28.8927 100.192 29.3104C100.42 29.5424 100.626 29.7765 100.854 29.9843C101.069 30.1934 101.268 30.4194 101.449 30.6602C102.066 31.4492 101.631 31.6368 100.923 32.1251C99.4145 33.1481 97.4495 33.6586 95.6432 33.6586C90.799 33.6364 87.5987 30.632 87.5987 25.6603C87.6225 20.961 90.8209 17.8456 95.4369 17.8678C100.146 17.892 102.819 20.7067 102.889 25.4968C102.91 26.7983 102.956 27.218 101.631 27.218L91.5069 27.1635ZM54.5069 21.3484C56.8149 21.3484 58.3457 23.3964 58.3457 25.6522C58.3457 28.0009 56.9061 29.8895 54.4831 29.8895C52.06 29.8895 50.6443 27.9827 50.6443 25.6341C50.6443 23.2854 52.1076 21.3484 54.5069 21.3484V21.3484ZM91.608 23.9311L99.1964 23.9533C98.9208 22.0223 97.3444 21.2556 95.54 21.2556C93.7356 21.2556 92.1692 22.1171 91.608 23.9311Z" fill="black"/>
</svg>
