<svg width="100" height="30" viewBox="0 0 100 30" fill="none" xmlns="http://www.w3.org/2000/svg">
<g clip-path="url(#clip0_158_271)">
<mask id="mask0_158_271" style="mask-type:luminance" maskUnits="userSpaceOnUse" x="0" y="0" width="100" height="30">
<path d="M100 0H0V29.7521H100V0Z" fill="white"/>
</mask>
<g mask="url(#mask0_158_271)">
<path d="M21.5604 5.08586C21.5604 6.75185 20.2099 8.10239 18.5439 8.10239C16.8779 8.10239 15.5273 6.75185 15.5273 5.08586C15.5273 3.41988 16.8779 2.06934 18.5439 2.06934C20.2099 2.06934 21.5604 3.41988 21.5604 5.08586Z" fill="black" fill-opacity="0.32"/>
<path d="M17.2567 23.6937C16.5356 23.6937 15.9512 23.109 15.9512 22.3879V10.8698C15.9512 10.1486 16.5356 9.56396 17.2567 9.56396H19.7638C20.4849 9.56396 21.0693 10.1486 21.0693 10.8698V22.3879C21.0693 23.109 20.4849 23.6937 19.7638 23.6937H17.2567Z" fill="#032532"/>
<path fill-rule="evenodd" clip-rule="evenodd" d="M3.86945 22.6907C3.86945 23.2446 4.31832 23.6936 4.87203 23.6936H7.91991C8.64089 23.6936 9.22538 23.1089 9.22538 22.3878V16.3083C10.0828 16.4404 10.9539 16.384 11.8079 16.1355L12.4925 15.9363C12.8862 15.8216 13.157 15.4606 13.157 15.0505V11.3968C13.157 10.796 12.5919 10.3555 12.0094 10.5024L11.0397 10.7469C10.4384 10.922 9.82152 10.9214 9.22538 10.7499V6.9425C9.22538 6.60335 9.26056 6.32406 9.33092 6.10461C9.41887 5.86521 9.49997 5.71894 9.65827 5.59925C9.83417 5.47955 10.0766 5.38928 10.358 5.38928C10.7496 5.38928 11.124 5.4782 11.4076 5.56596C11.4587 5.58178 11.5098 5.59731 11.5607 5.61256C12.246 5.81772 12.9529 5.39201 13.134 4.69974L13.8967 1.78488C14.0347 1.25705 13.7701 0.698888 13.2533 0.524735C12.4876 0.266769 11.8308 0.155973 11.0577 0.0700199C10.428 0 9.81463 0 9.09346 0C7.97889 0 7.11467 0.289272 6.32315 0.867813C5.54922 1.4264 4.94239 2.17451 4.50265 3.11216C4.08051 4.0498 3.86945 5.08717 3.86945 6.22431V8.31843C3.03272 8.19881 2.18377 8.25838 1.35112 8.50076L0.666452 8.70006C0.272725 8.81466 0.00195312 9.17556 0.00195312 9.58574V13.3154C0.00195312 13.945 0.61856 14.3896 1.21568 14.1905L2.11927 13.8893C2.69901 13.7206 3.29326 13.7151 3.86945 13.8686V22.6907Z" fill="#032532"/>
<path d="M31.2553 29.7522C29.9873 29.7522 28.7282 29.5761 27.4778 29.2238C26.6982 29.0009 26.0067 28.7359 25.4032 28.4284C24.8271 28.1352 24.6564 27.4232 24.9489 26.8465L25.6417 25.4805C25.9745 24.8245 26.7991 24.6076 27.4778 24.8905C27.9005 25.0667 28.3407 25.1987 28.7986 25.2869C29.2741 25.3749 29.7759 25.419 30.3043 25.419C31.132 25.419 31.8012 25.3044 32.3119 25.0755C32.8227 24.8641 33.1924 24.5206 33.4213 24.0449C33.6679 23.5693 33.7912 22.9617 33.7912 22.2218V20.6888C33.7912 20.3767 34.0588 20.1318 34.3694 20.1595C34.6916 20.1882 34.9166 20.4988 34.7816 20.7928C34.6135 21.1593 34.3713 21.4948 34.0554 21.799C33.5799 22.2571 32.9899 22.6182 32.2855 22.8824C31.5811 23.1466 30.8327 23.2787 30.0401 23.2787C28.7898 23.2787 27.6804 22.9968 26.7118 22.4332C25.7608 21.8695 25.0036 21.0857 24.44 20.0816C23.8941 19.0599 23.6211 17.8621 23.6211 16.4882C23.6211 15.0614 23.8941 13.8107 24.44 12.7362C24.986 11.6441 25.7255 10.7898 26.6589 10.1733C27.6099 9.55679 28.693 9.24854 29.908 9.24854C30.4364 9.24854 30.9383 9.30138 31.4138 9.40707C31.8893 9.51276 32.3296 9.66248 32.7345 9.85625C33.1396 10.0324 33.5007 10.2525 33.8176 10.5168C34.1347 10.781 34.39 11.0716 34.5836 11.3887C34.708 11.5752 34.808 11.7709 34.8836 11.9757C34.9723 12.2163 34.8069 12.4629 34.5565 12.5179C34.2433 12.5867 33.9536 12.3307 33.9835 12.0113L34.1034 10.7238C34.166 10.0524 34.7292 9.53918 35.4033 9.53918H37.8746C38.5956 9.53918 39.18 10.1238 39.18 10.845V22.301C39.18 23.4813 38.9952 24.5294 38.6253 25.4454C38.2731 26.3789 37.7537 27.1627 37.0669 27.7969C36.3801 28.4487 35.5434 28.933 34.5573 29.2502C33.5887 29.5849 32.4881 29.7522 31.2553 29.7522ZM31.3874 19.4475C31.9333 19.4475 32.3911 19.333 32.761 19.104C33.1484 18.875 33.4391 18.5491 33.6328 18.1264C33.8264 17.686 33.9233 17.1575 33.9233 16.5411C33.9233 15.9245 33.8264 15.396 33.6328 14.9557C33.4391 14.5153 33.1484 14.1806 32.761 13.9517C32.3911 13.7227 31.9333 13.6082 31.3874 13.6082C30.8415 13.6082 30.3835 13.7227 30.0138 13.9517C29.6439 14.1806 29.3621 14.5153 29.1685 14.9557C28.9748 15.396 28.8778 15.9245 28.8778 16.5411C28.8778 17.1575 28.9748 17.686 29.1685 18.1264C29.3621 18.5491 29.6439 18.875 30.0138 19.104C30.3835 19.333 30.8415 19.4475 31.3874 19.4475Z" fill="#032532"/>
<path d="M46.8539 23.9657C45.7796 23.9657 44.8727 23.7455 44.1332 23.3052C43.3935 22.8647 42.83 22.2218 42.4425 21.3762C42.055 20.5131 41.8613 19.4738 41.8613 18.2584V10.845C41.8613 10.1237 42.4458 9.53906 43.1669 9.53906H45.9182C46.6393 9.53906 47.2239 10.1237 47.2239 10.845V17.8093C47.2239 18.1968 47.2854 18.5227 47.4087 18.7868C47.5495 19.0511 47.7433 19.2537 47.9899 19.3946C48.2364 19.5355 48.5358 19.606 48.888 19.606C49.1522 19.606 49.3899 19.5708 49.6012 19.5003C49.8301 19.4122 50.0238 19.289 50.1824 19.1303C50.3409 18.9718 50.4642 18.7958 50.5522 18.602C50.6402 18.3906 50.6843 18.1704 50.6843 17.9413V10.845C50.6843 10.1237 51.2687 9.53906 51.9897 9.53906H54.7412C55.4621 9.53906 56.0467 10.1237 56.0467 10.845V22.3692C56.0467 23.0903 55.4621 23.675 54.7412 23.675H52.3018C51.6366 23.675 51.0778 23.1747 51.0044 22.5134L50.8518 21.1411C50.8312 20.9553 50.9448 20.7809 51.123 20.7245C51.4211 20.6304 51.6953 20.905 51.5592 21.1865C51.3655 21.5876 51.109 21.959 50.7899 22.301C50.3145 22.8119 49.7333 23.217 49.0465 23.5165C48.3597 23.816 47.6288 23.9657 46.8539 23.9657Z" fill="#032532"/>
<path d="M60.2782 23.6751C59.5571 23.6751 58.9727 23.0904 58.9727 22.3692V10.845C58.9727 10.1238 59.5571 9.53918 60.2782 9.53918H62.7184C63.4053 9.53918 63.9748 10.0716 64.021 10.7572L64.1879 13.2337C64.2162 13.6549 63.756 13.9313 63.3978 13.7083C63.2019 13.5864 63.1083 13.3489 63.1836 13.1308C63.4115 12.4697 63.7337 11.8714 64.1502 11.3359C64.6432 10.6841 65.2333 10.1733 65.9201 9.80339C66.6245 9.43349 67.3729 9.24854 68.1655 9.24854C68.4824 9.24854 68.7818 9.27495 69.0636 9.3278C69.455 9.37674 69.6956 9.81371 69.6956 10.2083V13.603C69.6956 14.5658 68.4865 15.3412 67.5579 15.0878C67.188 14.9821 66.7829 14.9293 66.3427 14.9293C66.0256 14.9293 65.7351 14.9821 65.4709 15.0878C65.2245 15.1759 65.0131 15.3168 64.837 15.5106C64.6785 15.7044 64.5552 15.9333 64.4672 16.1976C64.3791 16.4617 64.3351 16.7701 64.3351 17.1224V22.3692C64.3351 23.0904 63.7506 23.6751 63.0297 23.6751H60.2782Z" fill="#032532"/>
<path d="M78.9629 23.9393C77.3251 23.9393 75.9163 23.6222 74.7363 22.9881C73.5564 22.3539 72.6494 21.4908 72.0154 20.3986C71.3815 19.289 71.0645 18.0207 71.0645 16.5938C71.0645 15.5369 71.2406 14.5594 71.5928 13.661C71.945 12.7627 72.4381 11.9876 73.0721 11.3359C73.7238 10.6665 74.481 10.1557 75.3439 9.8034C76.2244 9.43349 77.1842 9.24854 78.2232 9.24854C79.2622 9.24854 80.2044 9.43349 81.0497 9.8034C81.9127 10.1557 82.6523 10.6665 83.2687 11.3359C83.8851 11.9876 84.3516 12.7627 84.6687 13.661C85.0033 14.5594 85.153 15.5369 85.1178 16.5938C85.1031 17.211 84.5987 17.7036 83.9816 17.7036H75.0103C74.431 17.7036 73.9271 17.3071 73.7909 16.7438C73.5995 15.9541 74.1979 15.1936 75.0103 15.1936H80.4872C80.6196 15.1936 80.6877 15.3521 80.5965 15.4481C80.5027 15.5469 80.3365 15.4806 80.3365 15.3443V15.2463C80.3365 14.9117 80.2485 14.621 80.0723 14.3744C79.9139 14.1102 79.6848 13.9076 79.3855 13.7667C79.0862 13.6258 78.7339 13.5553 78.3288 13.5553C77.818 13.5553 77.3867 13.661 77.0345 13.8724C76.6823 14.0838 76.4094 14.3832 76.2156 14.7707C76.0394 15.1583 75.9514 15.6251 75.9514 16.1711C75.9514 16.8052 76.0835 17.3601 76.3477 17.8357C76.6295 18.3114 77.0345 18.6812 77.5629 18.9455C78.1088 19.2096 78.7778 19.3417 79.5704 19.3417C80.0988 19.3417 80.5478 19.2801 80.9176 19.1569C80.9435 19.1475 80.9694 19.1376 80.9953 19.1276C81.6668 18.8666 82.4705 18.9723 82.8876 19.5599L83.8687 20.9422C84.2721 21.5105 84.164 22.3068 83.5682 22.6688C83.2639 22.8538 82.9615 23.0131 82.6611 23.1466C82.0447 23.4284 81.4284 23.631 80.812 23.7543C80.2132 23.8777 79.5968 23.9393 78.9629 23.9393Z" fill="#032532"/>
<path d="M92.7292 23.9394C91.1969 23.9394 89.8586 23.7102 88.7139 23.2523C88.0934 22.9905 87.5476 22.694 87.0767 22.3627C86.4763 21.9406 86.5318 21.0887 87.0892 20.6114L88.3311 19.5481C88.8238 19.1263 89.5446 19.1464 90.1076 19.4684C90.4251 19.65 90.7617 19.8015 91.1177 19.9232C91.8574 20.1521 92.4738 20.2665 92.9668 20.2665C93.143 20.2665 93.2927 20.2577 93.416 20.2402C93.5569 20.205 93.6624 20.1609 93.7329 20.108C93.7804 20.0701 93.8201 20.0321 93.8523 19.9941C93.9028 19.9344 93.9471 19.867 93.9724 19.7929C93.9889 19.745 93.9971 19.6915 93.9971 19.6324C93.9971 19.3683 93.8562 19.1745 93.5744 19.0511C93.416 18.9807 93.1518 18.8926 92.782 18.7869C92.4297 18.6813 91.9631 18.5579 91.3819 18.417C90.6951 18.2409 90.0611 18.0208 89.4799 17.7565C88.9164 17.4922 88.4321 17.184 88.0271 16.8317C87.6044 16.4441 87.2698 16.0038 87.0233 15.5106C86.7943 15.0174 86.6799 14.4625 86.6799 13.846C86.6799 13.1238 86.8472 12.4808 87.1818 11.9172C87.5164 11.3535 87.9743 10.8779 88.5554 10.4904C89.1365 10.0852 89.7882 9.77698 90.5101 9.56559C91.2322 9.35423 91.9719 9.24854 92.7292 9.24854C93.592 9.24854 94.3933 9.3366 95.133 9.51275C95.8903 9.67129 96.5947 9.90908 97.2463 10.2261C97.4692 10.3258 97.6852 10.4324 97.8942 10.5458C98.5606 10.9069 98.6387 11.7898 98.1332 12.3545L97.1836 13.4149C96.7168 13.9364 95.9209 13.9925 95.3125 13.6465C95.3054 13.6425 95.2984 13.6386 95.2915 13.6346C94.9041 13.4056 94.4901 13.2207 94.0499 13.0797C93.6273 12.9212 93.231 12.8419 92.8613 12.8419C92.6675 12.8419 92.5001 12.8596 92.3593 12.8948C92.2361 12.9124 92.1304 12.9564 92.0424 13.0269C91.9543 13.0797 91.8838 13.1502 91.831 13.2383C91.7957 13.3087 91.7782 13.3968 91.7782 13.5025C91.7782 13.6434 91.8223 13.7755 91.9103 13.8988C91.9983 14.0221 92.1392 14.1278 92.3329 14.2159C92.4913 14.2864 92.7555 14.3832 93.1254 14.5065C93.5128 14.6298 94.0763 14.7972 94.816 15.0086C95.6085 15.2375 96.3041 15.5018 96.9029 15.8012C97.5193 16.1006 98.0124 16.4529 98.3821 16.8581C98.6287 17.1399 98.8225 17.4571 98.9634 17.8094C99.1042 18.1617 99.1747 18.5403 99.1747 18.9455C99.1747 19.9142 98.8929 20.7775 98.3293 21.5348C97.7833 22.2747 97.0261 22.8647 96.0575 23.3052C95.0889 23.728 93.9795 23.9394 92.7292 23.9394Z" fill="#032532"/>
</g>
</g>
<defs>
<clipPath id="clip0_158_271">
<rect width="100" height="30" fill="white"/>
</clipPath>
</defs>
</svg>
