<svg width="100" height="28" viewBox="0 0 100 28" fill="none" xmlns="http://www.w3.org/2000/svg">
<g clip-path="url(#clip0_158_302)">
<mask id="mask0_158_302" style="mask-type:luminance" maskUnits="userSpaceOnUse" x="0" y="0" width="100" height="28">
<path d="M100 0H0V27.1583H100V0Z" fill="white"/>
</mask>
<g mask="url(#mask0_158_302)">
<path fill-rule="evenodd" clip-rule="evenodd" d="M73.2178 5.41194C72.8129 5.81669 72.4496 6.26089 72.1333 6.73796C71.8169 6.26089 71.4538 5.81669 71.0489 5.41194C70.2516 4.61449 69.305 3.98194 68.2631 3.55041C67.2214 3.11888 66.1047 2.89686 64.977 2.89697H47.132V5.07992C45.559 3.67411 43.5232 2.89701 41.4135 2.89697H32.1554C29.8781 2.89697 27.6941 3.80163 26.0836 5.41194C25.6788 5.81669 25.3156 6.26089 24.9993 6.73796C24.6829 6.26089 24.3196 5.81669 23.9147 5.41194C22.3045 3.80163 20.1203 2.89697 17.8429 2.89697H0V27.0121H17.845C18.9727 27.0121 20.0894 26.79 21.1313 26.3584C22.173 25.9265 23.1196 25.2938 23.9169 24.4961C24.3221 24.0918 24.6854 23.6476 25.0013 23.1701C25.3171 23.6476 25.6804 24.0918 26.0856 24.4961C26.8829 25.2938 27.8293 25.9265 28.8712 26.3584C29.9131 26.79 31.0299 27.0121 32.1576 27.0121H41.4156C43.5254 27.0121 45.561 26.235 47.1342 24.8292V27.0121H61.7817V22.3862H64.9791C66.1068 22.3864 67.2234 22.1643 68.2653 21.7328C69.307 21.3013 70.2536 20.6688 71.0509 19.8713C71.1613 19.7609 71.2682 19.6483 71.3718 19.5332H76.5969V27.0121H91.2444V19.5332H97.1336V2.89697H79.2887C78.1611 2.89688 77.0446 3.11893 76.0029 3.55046C74.9613 3.98199 74.0149 4.61453 73.2178 5.41194Z" fill="black" fill-opacity="0.25"/>
<path d="M20.7083 1.46533H4.29492V22.7172H20.7083C22.6061 22.717 24.4264 21.9632 25.7689 20.6217C27.1104 19.2792 27.8642 17.4591 27.8645 15.5612V8.62139C27.8644 6.72378 27.1106 4.90389 25.7689 3.56198C25.1043 2.89731 24.3154 2.37006 23.4471 2.01031C22.5788 1.65056 21.6482 1.46538 20.7083 1.46533Z" fill="white"/>
<path fill-rule="evenodd" clip-rule="evenodd" d="M2.86328 0.0336914H20.7083C22.9856 0.0336925 25.1698 0.938359 26.7802 2.54868C28.3905 4.15898 29.2951 6.34305 29.2951 8.62037V15.5612C29.2951 17.8385 28.3905 20.0225 26.7802 21.6328C25.1698 23.2432 22.9856 24.1479 20.7083 24.1479H2.86328V0.0336914ZM5.7256 2.89594V21.2857H20.7083C21.4601 21.2857 22.2045 21.1376 22.8991 20.8501C23.5937 20.5625 24.2248 20.1409 24.7565 19.6092C25.2881 19.0778 25.7097 18.4466 25.9973 17.752C26.2851 17.0574 26.4329 16.313 26.4329 15.5612V8.62139C26.4325 7.10319 25.8297 5.64718 24.7565 4.57326C24.2248 4.04171 23.5937 3.62008 22.8991 3.33245C22.2045 3.04483 21.4601 2.89686 20.7083 2.89695L5.7256 2.89594Z" fill="black"/>
<path fill-rule="evenodd" clip-rule="evenodd" d="M17.5156 17.447V8.00439H20.3779V17.447H17.5156Z" fill="black"/>
<path d="M67.8439 1.46533H51.4297V22.7172H63.2149V18.0915H67.8439C69.7416 18.0913 71.5615 17.3375 72.9034 15.9958C74.2453 14.6539 74.9991 12.834 74.9991 10.9364V8.62139C74.9991 6.72378 74.2453 4.90389 72.9034 3.56198C72.2392 2.89725 71.4505 2.36997 70.5824 2.0102C69.7142 1.65045 68.7836 1.46529 67.8439 1.46533Z" fill="white"/>
<path fill-rule="evenodd" clip-rule="evenodd" d="M49.998 0.0336914H67.843C70.1205 0.0336925 72.3045 0.938359 73.915 2.54868C75.5254 4.15898 76.4301 6.34305 76.4301 8.62037V10.9364C76.4301 13.2137 75.5254 15.3977 73.915 17.008C72.3045 18.6184 70.1205 19.5231 67.843 19.5231H64.6446V24.1479H49.998V0.0336914ZM52.8605 2.89594V21.2857H61.7824V16.6608H67.843C69.3614 16.6605 70.8173 16.0576 71.8914 14.9845C72.9644 13.9105 73.5675 12.4545 73.5676 10.9364V8.62139C73.5675 7.10319 72.9644 5.64718 71.8914 4.57326C70.8173 3.50013 69.3614 2.89722 67.843 2.89695L52.8605 2.89594Z" fill="black"/>
<path fill-rule="evenodd" clip-rule="evenodd" d="M64.6562 13.7823V8.00098H67.5197V13.7823H64.6562Z" fill="black"/>
<path d="M44.2805 1.46533H35.0224C34.0828 1.46516 33.1523 1.65015 32.2843 2.00974C31.4161 2.36932 30.6273 2.89643 29.9629 3.56096C29.2983 4.22528 28.7713 5.01404 28.4116 5.88215C28.0521 6.75028 27.867 7.68074 27.8672 8.62038V15.5612C27.8672 16.501 28.0523 17.4316 28.4118 18.2999C28.7713 19.1681 29.2985 19.9571 29.9629 20.6217C31.305 21.9634 33.1247 22.7172 35.0224 22.7172H44.2805C46.1785 22.717 47.9987 21.9632 49.3411 20.6217C50.6828 19.2792 51.4366 17.4591 51.4368 15.5612V8.62139C51.4368 6.72378 50.6828 4.90389 49.3411 3.56199C48.6765 2.89733 47.8877 2.37006 47.0193 2.01031C46.1512 1.65056 45.2204 1.46538 44.2805 1.46533Z" fill="white"/>
<path fill-rule="evenodd" clip-rule="evenodd" d="M28.9487 2.54868C30.5589 0.938359 32.7431 0.0336925 35.0204 0.0336914H44.2805C46.558 0.0336925 48.742 0.938359 50.3525 2.54868C51.9629 4.15898 52.8676 6.34305 52.8676 8.62037V15.5612C52.8676 17.8385 51.9629 20.0225 50.3525 21.6328C48.742 23.2432 46.558 24.1479 44.2805 24.1479H35.0224C32.7451 24.1479 30.5611 23.2432 28.9507 21.6328C27.3402 20.0225 26.4355 17.8385 26.4355 15.5612V8.62139C26.4352 7.49373 26.657 6.37706 27.0881 5.3351C27.5194 4.29314 28.1516 3.3463 28.9487 2.54868ZM35.0204 2.89594C33.5023 2.89619 32.0462 3.49911 30.9722 4.57224C29.899 5.64618 29.2962 7.10216 29.2958 8.62037V15.5612C29.2958 16.313 29.4438 17.0574 29.7314 17.752C30.019 18.4466 30.4408 19.0778 30.9722 19.6092C32.0462 20.6824 33.5023 21.2853 35.0204 21.2857H44.2805C45.7989 21.2857 47.255 20.6826 48.3289 19.6092C48.8604 19.0778 49.2819 18.4466 49.5697 17.752C49.8573 17.0574 50.0053 16.313 50.0051 15.5612V8.62139C50.005 7.10319 49.4019 5.64718 48.3289 4.57326C47.7972 4.04171 47.1661 3.62008 46.4715 3.33245C45.7769 3.04483 45.0323 2.89686 44.2805 2.89695L35.0204 2.89594Z" fill="black"/>
<path fill-rule="evenodd" clip-rule="evenodd" d="M38.214 8.00439V17.447H35.3516V8.00439H38.214Z" fill="black"/>
<path d="M98.5688 1.46533H82.1524C81.2126 1.46516 80.2821 1.65015 79.4141 2.00974C78.5459 2.36932 77.7571 2.89643 77.0927 3.56096C76.4281 4.22522 75.9008 5.01395 75.5411 5.88208C75.1812 6.75019 74.9961 7.68067 74.9961 8.62038V15.2383H80.8851V22.7172H92.6704V15.2383H98.5596L98.5688 1.46533Z" fill="white"/>
<path fill-rule="evenodd" clip-rule="evenodd" d="M76.083 2.54868C77.6935 0.938359 79.8776 0.0336925 82.155 0.0336914H99.9999V16.6689H94.1109V24.1479H79.4633V16.6689H73.5742V8.62139C73.5722 6.34457 74.4748 4.16022 76.083 2.54868ZM82.155 2.89594C81.4032 2.89585 80.6588 3.04382 79.9642 3.33145C79.2695 3.61907 78.6384 4.04069 78.1068 4.57224C77.0336 5.64618 76.4307 7.10216 76.4303 8.62037V13.8067H82.3194V21.2857H91.2424V13.8067H97.1316V2.89594H82.155Z" fill="black"/>
</g>
</g>
<defs>
<clipPath id="clip0_158_302">
<rect width="100" height="28" fill="white"/>
</clipPath>
</defs>
</svg>
