<svg width="120" height="35" viewBox="0 0 120 35" fill="none" xmlns="http://www.w3.org/2000/svg">
<g clip-path="url(#clip0_158_320)">
<mask id="mask0_158_320" style="mask-type:luminance" maskUnits="userSpaceOnUse" x="0" y="0" width="120" height="35">
<path d="M120 0H0V34.2005H120V0Z" fill="white"/>
</mask>
<g mask="url(#mask0_158_320)">
<path fill-rule="evenodd" clip-rule="evenodd" d="M14.4747 0.0952531C14.2545 0.142486 14.0089 0.205658 13.9289 0.235497C13.7068 0.318464 12.842 0.748219 12.8008 0.796034C12.7808 0.819323 12.7153 0.859788 12.6552 0.886061C12.5952 0.912261 12.4151 1.01466 12.255 1.11349C12.0948 1.21233 11.882 1.33867 11.7819 1.39427C11.6818 1.4498 11.4772 1.56617 11.327 1.65278C10.7222 2.00168 10.0626 2.37437 9.70771 2.56782C9.62766 2.61149 9.54578 2.66352 9.52577 2.68354C9.47905 2.73026 9.2249 2.87487 8.73765 3.13207C8.52434 3.24466 8.26234 3.39734 8.15543 3.47136C8.04852 3.54538 7.91191 3.62791 7.85187 3.65469C7.79183 3.68147 7.6117 3.78467 7.45159 3.88401C7.29148 3.98343 7.04585 4.12069 6.90575 4.1891C6.76566 4.25751 6.63465 4.33153 6.61464 4.35365C6.57723 4.39492 6.46887 4.45838 5.89261 4.77649C5.70928 4.87773 5.47748 5.01426 5.37741 5.08005C5.27734 5.14584 5.09721 5.24751 4.97713 5.30603C4.85705 5.36461 4.74242 5.42895 4.72241 5.44896C4.68413 5.48739 4.54738 5.56664 4.00037 5.86751C3.81705 5.96831 3.63437 6.07565 3.59435 6.10608C3.55432 6.1365 3.39879 6.23038 3.24865 6.31466C3.09851 6.39901 2.8611 6.5335 2.72101 6.61356C2.58091 6.69362 2.34343 6.82825 2.19336 6.91282C1.21879 7.46164 0.655634 8.13128 0.210813 9.26996C-0.00773965 9.82948 -0.0139993 10.0765 0.0089986 17.2028C0.0325787 24.5265 0.0363635 24.6267 0.309718 25.1746C0.375073 25.3055 0.428493 25.4568 0.428493 25.5107C0.428493 25.5646 0.453237 25.6087 0.483513 25.6087C0.513789 25.6087 0.584457 25.7124 0.640569 25.8392C0.765602 26.1217 1.62133 26.9985 1.92045 27.1507C2.36374 27.3762 2.7948 27.6111 2.83017 27.6465C2.86693 27.6832 3.0782 27.8082 3.4124 27.9911C3.51247 28.0459 3.72535 28.1722 3.88546 28.2719C4.04557 28.3716 4.23385 28.4721 4.30393 28.495C4.37402 28.518 4.43129 28.5657 4.43129 28.6011C4.43129 28.6364 4.49679 28.6654 4.57685 28.6654C4.65691 28.6654 4.7227 28.6899 4.72299 28.7199C4.72328 28.75 4.797 28.81 4.88674 28.8533C5.13389 28.9726 5.74196 29.3206 6.0688 29.5298C6.22892 29.6323 6.49092 29.7853 6.65103 29.8698C6.95881 30.0323 7.21994 30.1815 7.81934 30.5371C8.02152 30.657 8.33526 30.8379 8.51641 30.9391C9.13306 31.2833 9.19827 31.3218 9.23466 31.3619C9.25467 31.3841 9.38567 31.4594 9.52577 31.5293C9.66587 31.5993 9.92787 31.7506 10.108 31.8656C10.2881 31.9805 10.4765 32.077 10.5265 32.0802C10.5765 32.0834 10.6174 32.1126 10.6174 32.1451C10.6174 32.1777 10.7321 32.2493 10.8722 32.3043C11.0123 32.3592 11.1269 32.4228 11.1269 32.4457C11.1269 32.4684 11.2333 32.5339 11.3634 32.591C11.4935 32.6482 11.7784 32.8088 11.9966 32.9478C12.529 33.2872 13.5869 33.8526 13.9289 33.9805C14.7216 34.2769 16.3362 34.2731 16.8935 33.9734C16.963 33.936 17.0695 33.9054 17.1301 33.9054C17.1907 33.9054 17.2403 33.8764 17.2403 33.8411C17.2403 33.8057 17.2976 33.7581 17.3676 33.7352C17.4376 33.7122 17.6424 33.6065 17.8225 33.5002C19.1613 32.7099 19.4462 32.5461 19.9206 32.2939C20.1339 32.1805 20.3959 32.0271 20.5028 31.9531C20.6097 31.8791 20.7464 31.7966 20.8064 31.7698C20.8664 31.743 21.0466 31.638 21.2067 31.5365C21.3668 31.435 21.5551 31.3331 21.6251 31.3102C21.6952 31.2872 21.7525 31.2394 21.7525 31.2041C21.7525 31.1688 21.818 31.1398 21.8981 31.1398C21.9781 31.1398 22.0439 31.1153 22.0442 31.0852C22.0445 31.0552 22.1182 30.9952 22.208 30.9519C22.4844 30.8184 23.0887 30.4711 23.2921 30.3288C23.3983 30.2545 23.5212 30.1937 23.565 30.1937C23.6089 30.1937 23.6447 30.1687 23.6447 30.1381C23.6447 30.1075 23.7676 30.0254 23.9177 29.9558C24.1957 29.8267 24.4276 29.6974 24.882 29.4184C25.2015 29.2222 25.6076 28.9931 26.1068 28.7277C26.3201 28.6143 26.5821 28.461 26.689 28.387C26.7959 28.313 26.9325 28.2304 26.9925 28.2036C27.0526 28.1769 27.2327 28.0718 27.3928 27.9704C27.5529 27.8689 27.7413 27.767 27.8113 27.7441C27.8813 27.7211 27.9387 27.6733 27.9387 27.6379C27.9387 27.6026 28.0042 27.5737 28.0842 27.5737C28.1643 27.5737 28.2298 27.5447 28.2298 27.5094C28.2298 27.474 28.2871 27.4258 28.3571 27.4022C28.6236 27.3125 29.3139 26.8553 29.5794 26.5928C30.0353 26.1418 30.5986 25.0705 30.7283 24.4078C30.7675 24.2077 30.8118 22.8322 30.8269 21.3511C30.8568 18.406 30.8356 18.2017 30.4603 17.8179C30.2713 17.6245 30.204 17.6031 29.7881 17.6031C29.4499 17.6031 29.2521 17.6448 29.0507 17.7589C28.6817 17.9679 28.1541 18.2631 27.975 18.3607C27.895 18.4044 27.8131 18.4564 27.7931 18.4764C27.7731 18.4964 27.6785 18.5568 27.583 18.6106C27.4874 18.6644 27.2992 18.7709 27.1645 18.8471C27.0299 18.9234 26.797 19.0548 26.6468 19.1392C26.4968 19.2235 26.3412 19.3174 26.3011 19.3478C26.2186 19.4104 25.6445 19.7331 25.2095 19.9612C25.0494 20.0452 24.902 20.1327 24.882 20.1556C24.862 20.1785 24.7965 20.2188 24.7364 20.2451C24.6764 20.2713 24.4962 20.3737 24.3361 20.4725C24.176 20.5713 23.9631 20.6977 23.8631 20.7533C23.763 20.8088 23.5584 20.9252 23.4082 21.0118C22.9377 21.2832 22.6008 21.4746 22.262 21.6629C22.0818 21.7631 21.847 21.9062 21.7401 21.981C21.6332 22.0559 21.3712 22.2099 21.1578 22.3232C20.9445 22.4367 20.639 22.6054 20.4789 22.6982C20.3188 22.791 20.1059 22.9124 20.0058 22.9679C19.9058 23.0235 19.6929 23.1488 19.5328 23.2463C19.3727 23.3439 19.127 23.4797 18.9869 23.5481C18.8468 23.6165 18.7158 23.6905 18.6958 23.7126C18.6584 23.7539 18.55 23.8174 17.9738 24.1355C17.7905 24.2367 17.5587 24.3751 17.4586 24.4432C17.3585 24.5112 17.1702 24.6128 17.0401 24.6689C16.91 24.725 16.8036 24.7956 16.8036 24.8259C16.8036 24.8561 16.7627 24.8816 16.7126 24.8825C16.6626 24.8834 16.5398 24.9481 16.4397 25.0264C16.3396 25.1048 16.186 25.1695 16.0983 25.1704C16.0106 25.1713 15.9186 25.2047 15.8939 25.2448C15.8308 25.3467 15.0835 25.3357 14.771 25.2281C14.628 25.179 14.3801 25.0629 14.22 24.9703C14.0599 24.8775 13.8715 24.7829 13.8015 24.76C13.7315 24.7371 13.6741 24.6894 13.6741 24.654C13.6741 24.6187 13.6441 24.5898 13.6074 24.5898C13.5706 24.5898 13.2913 24.4424 12.9867 24.2623C12.682 24.0821 12.4009 23.9348 12.362 23.9348C12.3231 23.9348 12.2911 23.9102 12.2908 23.8802C12.2905 23.8501 12.2167 23.7894 12.127 23.7453C11.7389 23.5543 11.1002 23.1981 10.921 23.0727C10.7217 22.9333 10.224 22.6479 9.70771 22.3772C9.5476 22.2932 9.40568 22.1999 9.39237 22.1699C9.37897 22.1398 9.32352 22.1153 9.26915 22.1153C9.11552 22.1153 8.29909 21.3252 8.18905 21.0699C8.1349 20.9444 8.05332 20.7501 8.00769 20.6381C7.89102 20.3521 7.89102 13.8351 8.00769 13.5491C8.23061 13.0024 8.30237 12.8867 8.59814 12.5977C8.90621 12.2965 9.28094 12.0408 9.54396 11.9523C9.61398 11.9287 9.67133 11.8804 9.67133 11.8451C9.67133 11.8098 9.73683 11.7808 9.81688 11.7808C9.89694 11.7808 9.96273 11.7563 9.96302 11.7262C9.96331 11.6962 10.037 11.6362 10.1268 11.5929C10.404 11.4591 11.0078 11.112 11.2121 10.969C11.319 10.8942 11.581 10.7402 11.7943 10.6268C12.3257 10.3442 12.6873 10.1365 13.1228 9.86376C13.326 9.73654 13.5904 9.58466 13.7105 9.52621C13.8306 9.46777 14.0599 9.33583 14.22 9.23299C14.6859 8.93366 15.6317 8.75389 15.7483 8.94246C15.7731 8.98249 15.8896 9.01524 16.0073 9.01524C16.1251 9.01524 16.2214 9.04799 16.2214 9.08802C16.2214 9.12805 16.2842 9.1608 16.3609 9.1608C16.4376 9.1608 16.5112 9.18532 16.5246 9.21538C16.5379 9.24544 16.7112 9.35184 16.9096 9.45191C17.5951 9.79775 17.8811 10.2324 17.7743 10.7663C17.7258 11.0088 17.3645 11.4169 17.1983 11.4169C17.1413 11.4169 17.0947 11.442 17.0947 11.4725C17.0947 11.5031 16.9719 11.5846 16.8218 11.6537C16.6717 11.7227 16.4179 11.8612 16.2578 11.9614C16.0976 12.0617 15.9175 12.1658 15.8575 12.1929C15.7974 12.2199 15.6173 12.3275 15.4572 12.4321C15.2971 12.5367 15.068 12.6703 14.9482 12.7292C14.8283 12.788 14.4017 13.0326 14.0001 13.2728C13.5986 13.5129 13.1726 13.7585 13.0536 13.8185C12.9346 13.8785 12.8208 13.944 12.8008 13.964C12.7469 14.018 12.4458 14.188 12.0553 14.3849C11.408 14.7112 11.418 14.6686 11.418 17.0893C11.418 18.9532 11.4328 19.2319 11.5404 19.3962C11.6932 19.6294 12.1938 19.9559 13.0731 20.3961C13.1629 20.4411 13.2366 20.5023 13.2369 20.5324C13.2372 20.5624 13.303 20.587 13.383 20.587C13.4631 20.587 13.5286 20.6197 13.5286 20.6598C13.5286 20.6998 13.5645 20.7325 13.6083 20.7325C13.6521 20.7325 13.775 20.7942 13.8813 20.8695C13.9875 20.9448 14.2982 21.1249 14.5717 21.2698C14.9664 21.4787 15.1504 21.5331 15.4632 21.5331C15.68 21.5331 15.8575 21.5003 15.8575 21.4603C15.8575 21.4203 15.9203 21.3875 15.997 21.3875C16.0737 21.3875 16.1473 21.3624 16.1607 21.3318C16.1856 21.2747 17.0745 20.7325 17.1432 20.7325C17.1642 20.7325 17.274 20.6667 17.3871 20.5861C17.5001 20.5056 17.7672 20.3469 17.9805 20.2335C18.5118 19.951 18.8734 19.7433 19.309 19.4705C19.5121 19.3433 19.7764 19.1904 19.8962 19.1308C20.0161 19.0711 20.4489 18.8208 20.858 18.5747C21.2671 18.3284 21.7012 18.083 21.8227 18.0293C21.9442 17.9754 22.0436 17.9105 22.0436 17.8849C22.0436 17.8593 22.101 17.8189 22.171 17.7949C22.2964 17.7522 22.712 17.5194 23.5478 17.024C23.7813 16.8855 24.1032 16.7027 24.2634 16.6176C24.7964 16.3344 25.2801 16.0554 25.4766 15.9179C25.6558 15.7925 26.2945 15.4363 26.6827 15.2453C26.7724 15.2012 26.8461 15.1405 26.8464 15.1104C26.8467 15.0804 26.8813 15.0558 26.9233 15.0558C26.9652 15.0558 27.1699 14.9472 27.3781 14.8145C27.5863 14.6818 27.8631 14.5264 27.9932 14.4692C28.1234 14.4121 28.2298 14.3443 28.2298 14.3188C28.2298 14.2932 28.2871 14.2527 28.3571 14.2288C28.4271 14.2049 28.681 14.0714 28.9212 13.9321C29.1613 13.7927 29.4762 13.6135 29.621 13.5338C30.2134 13.2076 30.6296 12.7171 30.7379 12.2175C30.9083 11.4307 30.8608 10.3897 30.6135 9.4883C30.3932 8.68577 29.4926 7.43435 28.9265 7.14448C28.8035 7.08145 28.6865 7.00991 28.6664 6.98546C28.6464 6.96108 28.499 6.87243 28.3389 6.78852C27.9523 6.5859 27.5521 6.35942 27.0653 6.0678C26.237 5.57152 26.0065 5.44154 25.8827 5.401C25.8127 5.37808 25.7553 5.33041 25.7553 5.29504C25.7553 5.25974 25.6898 5.23077 25.6098 5.23077C25.5297 5.23077 25.4642 5.19802 25.4642 5.158C25.4642 5.11797 25.4283 5.08522 25.3844 5.08522C25.3406 5.08522 25.2178 5.02437 25.1115 4.95007C25.0053 4.87576 24.7684 4.73217 24.5851 4.63093C24.025 4.32177 23.9009 4.24972 23.8631 4.21173C23.8431 4.19172 23.7284 4.12651 23.6084 4.0669C23.4883 4.0073 23.2196 3.85177 23.0114 3.72128C22.8032 3.59086 22.5985 3.4841 22.5566 3.4841C22.5146 3.4841 22.4803 3.45906 22.4803 3.42849C22.4803 3.39793 22.3575 3.31583 22.2074 3.24618C22.0573 3.17646 21.8362 3.06082 21.7161 2.9892C20.3959 2.20167 19.8449 1.88727 19.6965 1.83669C19.6265 1.81275 19.5692 1.77228 19.5692 1.74666C19.5692 1.72112 19.4628 1.65336 19.3326 1.59623C19.2025 1.53903 18.9257 1.38364 18.7175 1.25097C18.5093 1.11822 18.3187 1.00964 18.2939 1.00964C18.2692 1.00964 18.1121 0.918301 17.9448 0.806659C16.8781 0.0950344 15.6498 -0.156778 14.4747 0.0952531ZM39.5832 8.86495C39.5231 8.90636 39.3835 8.94071 39.2728 8.94137C39.1622 8.94195 39.0148 8.97135 38.9453 9.00672C38.8758 9.04209 38.7266 9.11436 38.6138 9.16735C38.2173 9.35337 37.7637 9.992 37.7637 10.3642C37.7637 10.4581 37.7352 10.5526 37.7003 10.5741C37.6014 10.6353 37.5346 11.2711 37.4834 12.6388C37.4459 13.638 37.4137 13.9122 37.327 13.9706C37.2664 14.0115 36.9498 14.0321 36.6148 14.0171L36.0117 13.99L36.0326 14.6066L36.0534 15.2234L36.7012 15.2076C37.1714 15.1961 37.3656 15.2181 37.4096 15.2876C37.4431 15.3402 37.4709 17.5694 37.4715 20.2413L37.4726 25.0992H38.2004H38.9282V20.1945C38.9282 15.7891 38.9399 15.2852 39.0433 15.2456C39.1066 15.2213 39.8543 15.2014 40.7048 15.2014H42.2511L42.2594 14.601L42.2676 14.0005L40.7504 14.025C39.7241 14.0415 39.1838 14.023 39.0806 13.9679C38.9383 13.8917 38.9284 13.8273 38.932 12.9973C38.9357 12.1354 39.0453 11.2912 39.2046 10.8975C39.302 10.6565 39.6133 10.3417 39.8643 10.2301C39.9742 10.1812 40.5952 10.1289 41.3167 10.1076L42.5773 10.0705L42.5904 9.51333L42.6035 8.95607L42.0212 8.91357C40.6167 8.81088 39.6883 8.79239 39.5832 8.86495ZM87.9079 11.5522V14.0529L87.635 14.0088C86.6113 13.8436 85.9997 13.7915 85.1059 13.7933C84.0472 13.7956 83.348 13.8646 83.2807 13.9735C83.2591 14.0084 83.168 14.0369 83.0781 14.0369C82.7858 14.0369 82.165 14.4059 81.7366 14.8343C81.3145 15.2564 80.7756 16.1899 80.7756 16.499C80.7756 16.5812 80.7429 16.6686 80.7029 16.6933C80.6628 16.7181 80.6301 16.8608 80.6301 17.0106C80.6301 17.1604 80.6005 17.314 80.5644 17.352C80.307 17.6231 80.3434 21.3951 80.6142 22.5156C80.7949 23.2631 81.2393 24.0987 81.6533 24.4697C82.0276 24.805 82.537 25.0992 82.7432 25.0992C82.8171 25.0992 82.895 25.1273 82.9163 25.1617C83.0516 25.3806 85.7047 25.3808 85.84 25.1619C85.8613 25.1274 85.9731 25.0992 86.0884 25.0992C86.2038 25.0992 86.3184 25.0665 86.3432 25.0264C86.3679 24.9864 86.4457 24.9537 86.516 24.9537C86.5863 24.9537 86.8999 24.8235 87.2129 24.6644C87.526 24.5052 87.8104 24.3925 87.845 24.4139C87.8796 24.4353 87.9079 24.5982 87.9079 24.776V25.0992H88.6357H89.3635V17.0754V9.05163H88.6357H87.9079V11.5522ZM47.7707 13.8158C47.6907 13.8517 47.4879 13.8834 47.3201 13.8863C47.1524 13.889 46.9949 13.9241 46.9702 13.9642C46.9454 14.0042 46.8308 14.0369 46.7154 14.0369C46.6001 14.0369 46.4855 14.0697 46.4607 14.1097C46.436 14.1497 46.3656 14.1825 46.3042 14.1825C46.1307 14.1825 45.3751 14.7422 45.12 15.0597C44.4715 15.8666 44.2151 16.7064 44.0822 18.4589C43.9996 19.5471 44.078 21.3402 44.2403 22.0789C44.2843 22.2791 44.3399 22.5395 44.3638 22.6577C44.5128 23.3928 45.4089 24.5695 46.0246 24.8389C46.1844 24.9088 46.372 24.9959 46.4415 25.0326C46.511 25.0692 46.6483 25.0992 46.7465 25.0992C46.8448 25.0992 46.9424 25.1272 46.9635 25.1613C47.1022 25.3856 50.4038 25.3863 50.5424 25.1621C50.5638 25.1275 50.6757 25.0992 50.791 25.0992C50.9064 25.0992 51.021 25.0665 51.0457 25.0264C51.0705 24.9864 51.1706 24.9537 51.2684 24.9537C51.3661 24.9537 51.446 24.9209 51.446 24.8809C51.446 24.8409 51.4949 24.8081 51.5546 24.8081C51.8181 24.8081 52.5528 24.0382 52.8 23.5029C52.9028 23.2801 53.0169 23.041 53.0535 22.9715C53.09 22.902 53.1199 22.7811 53.1199 22.7029C53.1199 22.6246 53.1483 22.543 53.183 22.5216C53.2177 22.5001 53.2669 22.3426 53.2923 22.1716C53.3177 22.0005 53.3698 21.6477 53.408 21.3875C53.5016 20.7502 53.5039 18.2559 53.4113 17.7122C53.3704 17.4721 53.3165 17.1356 53.2915 16.9646C53.2666 16.7936 53.2177 16.6361 53.183 16.6146C53.1483 16.5931 53.1199 16.5115 53.1199 16.4333C53.1199 16.3551 53.0907 16.2342 53.0551 16.1647C53.0195 16.0952 52.9132 15.8746 52.819 15.6744C52.6348 15.2832 52.6108 15.2508 52.1562 14.7841C51.8559 14.4758 51.0653 14.0369 50.8102 14.0369C50.7356 14.0369 50.6435 14.0074 50.6054 13.9712C50.4508 13.8243 48.0455 13.6924 47.7707 13.8158ZM72.8792 13.8156C72.7991 13.8516 72.6128 13.8834 72.465 13.8863C72.3173 13.889 72.1762 13.9241 72.1514 13.9642C72.1267 14.0042 72.026 14.0369 71.9278 14.0369C71.8295 14.0369 71.6923 14.0658 71.6228 14.1012C71.5533 14.1366 71.4145 14.1981 71.3145 14.2381C71.2144 14.278 70.9576 14.3965 70.7437 14.5013C70.175 14.7801 70.0898 14.762 70.0631 14.3561L70.0408 14.0203L69.3131 14.0153L68.5853 14.0104L68.5684 19.5548L68.5515 25.0992H69.349H70.1466L70.1467 20.5463C70.1467 18.0422 70.1652 15.9634 70.1879 15.9268C70.2105 15.8902 70.3504 15.8076 70.4988 15.7431C70.6472 15.6786 70.8255 15.5958 70.895 15.5592C70.9645 15.5225 71.0854 15.4925 71.1636 15.4925C71.2418 15.4925 71.3261 15.4597 71.3509 15.4197C71.3756 15.3797 71.5066 15.3469 71.642 15.3469C71.7773 15.3469 71.9062 15.3177 71.9284 15.2819C72.0293 15.1185 73.8296 15.0015 74.2565 15.1306C74.7133 15.2686 74.9756 15.3953 75.185 15.5791C75.4085 15.7752 75.6812 16.2408 75.6812 16.4262C75.6812 16.4971 75.7109 16.5862 75.7472 16.6242C75.8818 16.765 75.9165 17.5826 75.9453 21.2966L75.9748 25.0992H76.7031H77.4315L77.4028 21.151C77.3856 18.7764 77.3428 17.0288 77.2956 16.7661C77.2524 16.5259 77.1967 16.2148 77.1719 16.0747C77.1287 15.8306 77.0481 15.6014 76.9099 15.3298C76.8745 15.2603 76.8456 15.1674 76.8456 15.1235C76.8456 15.0002 76.1167 14.2654 75.8745 14.1446C75.7559 14.0853 75.6002 14.0369 75.5287 14.0369C75.4572 14.0369 75.3805 14.0077 75.3584 13.9719C75.3363 13.9361 75.1788 13.885 75.0084 13.8584C74.4792 13.7757 73.0323 13.7467 72.8792 13.8156ZM96.1318 13.8154C96.0718 13.8559 95.9018 13.8896 95.754 13.8903C95.6063 13.8909 95.4652 13.9241 95.4404 13.9642C95.4157 14.0042 95.3352 14.0369 95.2616 14.0369C95.089 14.0369 94.3719 14.4142 94.0304 14.6847C93.6891 14.955 93.0643 15.8709 92.9332 16.2931C92.8773 16.4732 92.8044 16.6517 92.7714 16.6897C92.7383 16.7278 92.7113 16.844 92.7113 16.9481C92.7113 17.0521 92.6814 17.1684 92.6449 17.2064C92.5312 17.3248 92.4786 18.0906 92.4752 19.6772C92.4718 21.2275 92.5314 22.0855 92.6473 22.1572C92.6825 22.1789 92.7113 22.3074 92.7113 22.4428C92.7113 22.5782 92.744 22.7092 92.784 22.7339C92.8241 22.7587 92.8568 22.8303 92.8568 22.893C92.8568 23.1215 93.3228 23.9456 93.6497 24.2953C94.0041 24.6744 94.7213 25.0992 95.0069 25.0992C95.1005 25.0992 95.1945 25.1274 95.2159 25.1619C95.2741 25.2561 96.1451 25.3426 97.0052 25.3394C97.8084 25.3364 99.474 25.2117 101.102 25.0328C101.134 25.0293 101.15 24.7759 101.138 24.4696L101.117 23.9127L100.475 23.9284C100.122 23.937 99.6475 23.9745 99.4201 24.0118C98.8764 24.1008 96.5321 24.0998 96.2462 24.0105C96.1233 23.972 95.8596 23.8983 95.6604 23.8467C95.3838 23.775 95.203 23.6582 94.8955 23.3525C94.2376 22.6984 93.9428 21.8737 93.92 20.6234L93.9121 20.1867L97.6784 20.1678L101.445 20.149L101.456 19.5492C101.477 18.4521 101.431 17.2764 101.365 17.2064C101.329 17.1684 101.299 17.0148 101.299 16.865C101.299 16.7152 101.266 16.5725 101.226 16.5478C101.186 16.523 101.154 16.4388 101.154 16.3605C101.154 16.2823 101.124 16.1614 101.087 16.0919C101.05 16.0224 100.969 15.8509 100.907 15.7108C100.772 15.4065 100.32 14.8342 100.049 14.623C99.7693 14.4053 99.0499 14.0369 98.9045 14.0369C98.8366 14.0369 98.7499 14.0075 98.7118 13.9716C98.5492 13.8179 96.3272 13.6834 96.1318 13.8154ZM109.778 13.8186C109.753 13.8586 109.622 13.8914 109.487 13.8914C109.351 13.8914 109.22 13.9241 109.196 13.9642C109.171 14.0042 109.073 14.0369 108.977 14.0369C108.882 14.0369 108.784 14.0697 108.759 14.1097C108.734 14.1497 108.655 14.1825 108.584 14.1825C108.512 14.1825 108.359 14.2286 108.242 14.285C108.126 14.3413 107.785 14.5048 107.485 14.6482C106.849 14.952 106.565 15.1156 106.365 15.2924C106.285 15.3624 106.145 15.4197 106.052 15.4197C105.888 15.4197 105.884 15.4031 105.884 14.7101V14.0005H105.12H104.356V19.5499V25.0992H105.154H105.952L105.954 21.0418C105.955 18.8102 105.956 16.9271 105.956 16.8571C105.957 16.7802 106.012 16.7297 106.096 16.7297C106.173 16.7297 106.247 16.7052 106.26 16.6751C106.298 16.5909 107.406 16.0741 108.013 15.8578C108.203 15.7901 108.381 15.7129 108.407 15.6864C108.434 15.6598 108.53 15.6381 108.621 15.6381C108.712 15.6381 108.807 15.6053 108.832 15.5653C108.856 15.5252 108.966 15.4925 109.076 15.4925C109.186 15.4925 109.307 15.4619 109.345 15.4246C109.383 15.3873 109.545 15.3463 109.705 15.3336L109.996 15.3106L110.032 14.528C110.065 13.8273 110.056 13.7455 109.946 13.7457C109.878 13.7457 109.803 13.7786 109.778 13.8186ZM114.727 13.8153C114.647 13.8515 114.46 13.8834 114.312 13.8863C114.165 13.889 114.024 13.9241 113.999 13.9642C113.974 14.0042 113.893 14.0369 113.819 14.0369C113.585 14.0369 112.774 14.4852 112.449 14.7947C112.098 15.1285 111.82 15.6576 111.738 16.1475C111.631 16.7812 111.712 18.1351 111.861 18.2275C111.896 18.249 111.925 18.3286 111.925 18.4042C111.925 18.7022 112.924 19.4953 113.3 19.4953C113.368 19.4953 113.455 19.5225 113.493 19.5558C113.641 19.685 114.606 19.9186 115.236 19.9777C115.436 19.9964 115.666 20.0411 115.746 20.0769C115.826 20.1127 116.03 20.1603 116.2 20.1825C116.903 20.2746 117.095 20.3145 117.133 20.3764C117.155 20.4122 117.236 20.4414 117.312 20.4414C117.681 20.4414 118.401 21.0522 118.402 21.365C118.402 21.4527 118.435 21.5447 118.475 21.5695C118.577 21.6328 118.563 22.3911 118.454 22.7051C118.318 23.0947 118.028 23.488 117.802 23.5895C117.691 23.6389 117.601 23.7039 117.601 23.7342C117.601 23.7645 117.522 23.7892 117.424 23.7892C117.326 23.7892 117.228 23.8177 117.207 23.8526C117.093 24.0364 115.344 24.085 113.999 23.9418C113.559 23.895 112.969 23.8389 112.689 23.8172C112.409 23.7956 112.148 23.7477 112.11 23.7108C111.976 23.5804 111.945 23.6491 111.905 24.1713C111.882 24.4615 111.841 24.7563 111.814 24.8263C111.772 24.9325 111.805 24.9537 112.012 24.9537C112.148 24.9537 112.291 24.9836 112.329 25.0203C112.367 25.0569 112.594 25.105 112.834 25.1271C113.075 25.1492 113.648 25.2052 114.108 25.2516C115.201 25.3618 116.267 25.3664 116.946 25.2639C117.877 25.1233 117.947 25.1037 118.571 24.8032C118.936 24.6276 119.712 23.86 119.712 23.6749C119.712 23.6166 119.741 23.512 119.776 23.4425C119.943 23.1122 120.003 22.7349 120 22.0374C119.997 21.3394 119.891 20.6692 119.764 20.542C119.735 20.5133 119.712 20.4367 119.712 20.3717C119.712 20.1778 119.128 19.6761 118.611 19.4262C118.139 19.1981 117.788 19.0826 117.347 19.0113C117.227 18.9918 117.063 18.9471 116.983 18.9119C116.903 18.8767 116.69 18.8317 116.51 18.812C116.101 18.7671 115.139 18.5756 114.536 18.419C114.065 18.2964 113.507 17.9459 113.355 17.6758C113.242 17.4753 113.212 17.2899 113.216 16.805C113.218 16.425 113.251 16.1785 113.3 16.1621C113.344 16.1474 113.38 16.0949 113.38 16.0454C113.38 15.8421 113.973 15.3469 114.216 15.3469C114.277 15.3469 114.326 15.3178 114.326 15.2821C114.326 15.2465 114.449 15.1929 114.599 15.163C115.011 15.0809 117.027 15.1007 117.893 15.1951C118.313 15.241 118.878 15.2966 119.148 15.3187L119.639 15.3589V14.8858C119.639 14.6256 119.657 14.3652 119.68 14.3072C119.729 14.1797 119.572 14.1253 118.875 14.0275C117.395 13.8197 114.989 13.6966 114.727 13.8153ZM56.4906 18.0761C56.5059 20.5393 56.5464 22.3101 56.593 22.552C56.6999 23.1058 56.9541 23.8398 57.1645 24.2023C57.3662 24.5499 57.822 24.9537 58.0127 24.9537C58.0836 24.9537 58.1416 24.9864 58.1416 25.0264C58.1416 25.0665 58.2379 25.0992 58.3557 25.0992C58.4734 25.0992 58.5871 25.1273 58.6083 25.1617C58.6594 25.2443 59.4335 25.3403 60.0702 25.3427C60.6092 25.3449 61.2594 25.2716 61.5622 25.1745C61.6623 25.1424 61.8915 25.0726 62.0716 25.0194C62.2518 24.9663 62.6396 24.7986 62.9335 24.647C63.2274 24.4955 63.4976 24.3714 63.534 24.3714C63.5703 24.3714 63.6 24.5352 63.6 24.7353V25.0992H64.346H65.0919L65.0751 19.5599L65.0583 14.0205L64.3291 14.0105L63.5999 14.0005L63.6 18.5923V23.1841L63.2543 23.349C63.0642 23.4398 62.8517 23.5432 62.7822 23.5788C62.7127 23.6145 62.5919 23.6437 62.5136 23.6437C62.4354 23.6437 62.3511 23.6764 62.3264 23.7164C62.3016 23.7565 62.187 23.7892 62.0716 23.7892C61.9563 23.7892 61.8443 23.8177 61.8227 23.8526C61.7297 24.003 60.1557 24.0895 59.5972 23.9749C58.9992 23.8521 58.4631 23.4377 58.2844 22.9601C58.2378 22.8357 58.1721 22.6684 58.1384 22.5884C58.0012 22.2628 57.9753 21.6207 57.9487 17.8942L57.9208 14.0005H57.1931H56.4654L56.4906 18.0761ZM98.2241 15.1218C98.2942 15.1588 98.4695 15.2402 98.6136 15.3027C98.9369 15.4427 99.4205 15.9569 99.5863 16.3367C99.6544 16.4928 99.7402 16.6774 99.7769 16.7469C99.8135 16.8164 99.8435 16.9864 99.8435 17.1247C99.8435 17.263 99.8763 17.3964 99.9163 17.4211C99.9573 17.4464 99.9891 17.7979 99.9891 18.226V18.9859H96.9245H93.8598L93.9034 18.4582C93.9756 17.5838 94.0319 17.2064 94.1011 17.1336C94.1373 17.0957 94.1668 17.0087 94.1668 16.9404C94.1668 16.5382 94.9187 15.6093 95.452 15.3525C95.9896 15.0937 96.0754 15.0628 96.3502 15.0284C96.7417 14.9793 98.0808 15.0461 98.2241 15.1218ZM49.8813 15.1286C49.906 15.1686 50.0052 15.2014 50.1017 15.2014C50.5184 15.2014 51.2249 15.7923 51.4939 16.3658C51.8513 17.128 51.9786 17.9189 51.9858 19.4225C51.9916 20.6569 51.8605 22.0027 51.7262 22.0857C51.6922 22.1067 51.6644 22.2183 51.6644 22.3336C51.6644 22.449 51.6316 22.5636 51.5916 22.5884C51.5515 22.6131 51.5188 22.6995 51.5188 22.7804C51.5188 23.0139 50.7354 23.7423 50.3725 23.8462C50.2025 23.8949 49.9405 23.9698 49.7903 24.0126C49.4702 24.104 47.8904 24.0664 47.5149 23.9585C47.075 23.8322 46.7212 23.6348 46.4523 23.366C46.1653 23.079 45.8421 22.4694 45.8421 22.2152C45.8421 22.1249 45.8134 22.0334 45.7784 22.0118C45.6584 21.9376 45.601 21.1313 45.6017 19.5317C45.6026 17.655 45.6703 17.162 46.0328 16.3919C46.3079 15.8076 46.7913 15.4116 47.5524 15.1472C47.8384 15.0478 49.8216 15.032 49.8813 15.1286ZM87.1437 15.1628C87.3839 15.1876 87.6543 15.2448 87.7448 15.29L87.9091 15.3722L87.8904 19.2708L87.8715 23.1694L87.5804 23.3279C87.4203 23.4151 87.2175 23.489 87.1298 23.4922C87.0421 23.4955 86.9501 23.5309 86.9254 23.5709C86.9007 23.6109 86.8024 23.6437 86.7071 23.6437C86.6117 23.6437 86.5135 23.6764 86.4887 23.7164C86.464 23.7565 86.354 23.7892 86.2443 23.7892C86.1345 23.7892 86.0136 23.8188 85.9756 23.8549C85.819 24.0038 84.3396 24.0833 83.8336 23.97C83.4612 23.8867 83.1099 23.6683 82.8174 23.3384C82.5049 22.9858 82.2312 22.5226 82.2312 22.3462C82.2312 22.2753 82.2018 22.1861 82.1659 22.1481C82.0441 22.0192 81.9961 21.4286 81.9655 19.6834C81.9454 18.5402 81.9608 17.9171 82.0103 17.8676C82.0517 17.8262 82.0856 17.6857 82.0856 17.5555C82.0856 17.4253 82.1225 17.2272 82.1675 17.1152C82.2125 17.0033 82.2736 16.8462 82.3033 16.7661C82.5963 15.976 83.1563 15.4453 84.0143 15.1445C84.2388 15.0659 86.322 15.078 87.1437 15.1628Z" fill="#032532"/>
</g>
</g>
<defs>
<clipPath id="clip0_158_320">
<rect width="120" height="35" fill="white"/>
</clipPath>
</defs>
</svg>
