<svg width="115" height="41" viewBox="0 0 115 41" fill="none" xmlns="http://www.w3.org/2000/svg">
<g clip-path="url(#clip0_158_327)">
<path fill-rule="evenodd" clip-rule="evenodd" d="M40.4297 20.2148C40.4297 31.3792 31.3792 40.4297 20.2148 40.4297C9.0505 40.4297 0 31.3792 0 20.2148C0 9.0505 9.0505 0 20.2148 0C31.3792 0 40.4297 9.0505 40.4297 20.2148ZM25.0473 22.3385L27.463 21.7283C29.5561 21.1996 31.6894 22.4726 32.218 24.5658C32.7466 26.6589 31.4737 28.7921 29.3806 29.3209C27.2874 29.8494 25.1543 28.5764 24.6256 26.4833L24.0155 24.0675L18.4938 25.4622L19.1039 27.878C19.6325 29.9711 18.3597 32.1044 16.2665 32.633C14.1734 33.1617 12.0402 31.8887 11.5115 29.7956C10.9829 27.7024 12.2559 25.5692 14.3489 25.0405L16.7648 24.4304L15.3701 18.9085L12.9544 19.5186C10.8613 20.0474 8.72803 18.7744 8.19946 16.6812C7.67077 14.5881 8.94373 12.4549 11.0368 11.9261C13.1299 11.3976 15.2632 12.6706 15.7917 14.7637L16.4019 17.1795L21.9237 15.7848L21.3135 13.369C20.7848 11.2759 22.0577 9.14259 24.1509 8.61398C26.244 8.08528 28.3771 9.3583 28.9059 11.4514C29.4344 13.5446 28.1614 15.6778 26.0684 16.2064L23.6526 16.8166L25.0473 22.3385ZM24.4996 9.9944C23.1675 10.3309 22.3575 11.6885 22.6939 13.0203L23.304 15.4361L25.7197 14.826C27.0519 14.4896 27.8617 13.1318 27.5253 11.8C27.189 10.4683 25.8317 9.65793 24.4996 9.9944ZM9.57986 16.3325C9.91623 17.6644 11.2736 18.4747 12.6057 18.1383L15.0215 17.5281L14.4114 15.1123C14.075 13.7805 12.7176 12.9702 11.3854 13.3067C10.0533 13.643 9.24348 15.0009 9.57986 16.3325ZM15.9178 31.2526C17.25 30.9161 18.0598 29.5584 17.7236 28.2266L17.1133 25.8108L14.6976 26.421C13.3655 26.7574 12.5557 28.1152 12.892 29.4469C13.2284 30.7787 14.5857 31.5891 15.9178 31.2526ZM16.7506 18.5598L18.1451 24.0817L23.6669 22.6871L22.2723 17.1653L16.7506 18.5598ZM26.0061 26.1346C26.3425 27.4665 27.6998 28.2768 29.0319 27.9403C30.3641 27.604 31.1739 26.2461 30.8376 24.9145C30.5012 23.5826 29.1438 22.7723 27.8117 23.1087L25.3959 23.7188L26.0061 26.1346Z" fill="#FF3346"/>
<path d="M63.9925 27.0442V30.3942H51.2109V8.57373H55.2703V27.0442H63.9925ZM75.9902 23.7847C74.9137 23.8351 74.0083 23.9305 73.274 24.0714C72.5396 24.2022 71.9511 24.3732 71.5084 24.5845C71.0657 24.7958 70.7488 25.0422 70.5577 25.3239C70.3666 25.6055 70.2709 25.9124 70.2709 26.2444C70.2709 26.8984 70.462 27.3661 70.8444 27.6478C71.2367 27.9294 71.7447 28.0703 72.3685 28.0703C73.1331 28.0703 73.7921 27.9345 74.3453 27.6629C74.9088 27.3812 75.457 26.9587 75.9902 26.3953V23.7847ZM67.4491 17.0696C69.2297 15.4398 71.3726 14.6249 73.8775 14.6249C74.783 14.6249 75.5927 14.7759 76.3071 15.0776C77.0214 15.3694 77.625 15.7818 78.118 16.3151C78.6109 16.8381 78.9832 17.4669 79.2346 18.2013C79.4963 18.9357 79.627 19.7405 79.627 20.6157V30.3942H77.9368C77.5847 30.3942 77.3131 30.3439 77.122 30.2433C76.9309 30.1326 76.78 29.9164 76.6692 29.5944L76.3373 28.4777C75.9449 28.8299 75.5626 29.1417 75.1904 29.4134C74.8182 29.6749 74.4308 29.8962 74.0285 30.0773C73.6261 30.2584 73.1935 30.3942 72.7307 30.4848C72.278 30.5853 71.7749 30.6356 71.2217 30.6356C70.5677 30.6356 69.9641 30.5502 69.4109 30.3791C68.8576 30.1981 68.3796 29.9315 67.9772 29.5793C67.5749 29.2272 67.263 28.7896 67.0417 28.2665C66.8204 27.7434 66.7096 27.1347 66.7096 26.4405C66.7096 26.0482 66.7751 25.661 66.9058 25.2786C67.0366 24.8862 67.2479 24.5141 67.5396 24.1619C67.8415 23.8098 68.2287 23.4778 68.7015 23.166C69.1745 22.8542 69.7528 22.5826 70.437 22.3511C71.1311 22.1197 71.936 21.9336 72.8514 21.7927C73.7668 21.6419 74.8132 21.5513 75.9902 21.5211V20.6157C75.9902 19.5795 75.7689 18.815 75.3263 18.322C74.8835 17.819 74.2448 17.5675 73.4098 17.5675C72.8061 17.5675 72.3031 17.6379 71.9007 17.7788C71.5084 17.9196 71.1613 18.0806 70.8595 18.2617C70.5577 18.4327 70.281 18.5886 70.0295 18.7294C69.7881 18.8703 69.5164 18.9407 69.2146 18.9407C68.953 18.9407 68.7317 18.8753 68.5507 18.7445C68.3696 18.6037 68.2237 18.4427 68.1131 18.2617L67.4491 17.0696ZM95.768 16.4508C95.768 16.7124 95.7231 16.9689 95.6324 17.2204C95.5416 17.472 95.4212 17.6782 95.2703 17.8392L87.921 27.527H95.5416V30.3942H83.5901V28.8399C83.5901 28.6688 83.6303 28.4678 83.7108 28.2363C83.7912 27.9948 83.9119 27.7685 84.073 27.5572L91.4978 17.7637H84.0277V14.9116H95.768V16.4508ZM114.102 14.9116L105.666 34.6497C105.556 34.9113 105.409 35.1074 105.229 35.2381C105.057 35.3791 104.791 35.4494 104.429 35.4494H101.652L104.549 29.2323L98.2873 14.9116H101.561C101.853 14.9116 102.08 14.982 102.24 15.1229C102.412 15.2637 102.537 15.4247 102.618 15.6057L105.908 23.6338C106.018 23.9054 106.109 24.177 106.179 24.4486C106.26 24.7203 106.335 24.997 106.406 25.2786C106.496 24.997 106.586 24.7203 106.677 24.4486C106.768 24.167 106.868 23.8903 106.979 23.6187L110.087 15.6057C110.168 15.4046 110.298 15.2385 110.48 15.1078C110.671 14.977 110.882 14.9116 111.113 14.9116H114.102Z" fill="#032532"/>
</g>
<defs>
<clipPath id="clip0_158_327">
<rect width="115" height="40.4297" fill="white"/>
</clipPath>
</defs>
</svg>
