<svg width="120" height="36" viewBox="0 0 120 36" fill="none" xmlns="http://www.w3.org/2000/svg">
<mask id="mask0_158_339" style="mask-type:luminance" maskUnits="userSpaceOnUse" x="0" y="0" width="120" height="35">
<path d="M120 0.705078H0V34.7051H120V0.705078Z" fill="white"/>
</mask>
<g mask="url(#mask0_158_339)">
<path fill-rule="evenodd" clip-rule="evenodd" d="M35.4597 0.781738V26.898H28.5235V0.781738H35.4597ZM26.9739 10.921V26.898H0V16.7297L13.4869 10.921V16.7297L26.9739 10.921Z" fill="#FD5B38"/>
<path d="M46.8582 26.8979V15.1828H50.2013V11.5239H46.8582V9.46976C46.8582 7.99335 47.5547 7.25514 48.9477 7.25514C49.462 7.25514 50.0406 7.34072 50.6834 7.51191V3.94925C49.8262 3.71388 48.9369 3.59619 48.0154 3.59619C46.2153 3.59619 44.8439 4.07229 43.901 5.02447C42.958 5.97665 42.4866 7.36213 42.4866 9.1809V11.5239H40.3008V15.1828H42.4866V26.8979H46.8582ZM57.9187 27.4114C60.0403 27.4114 61.7118 26.5984 62.9333 24.9722H63.0618V26.8979H67.2407V11.5239H63.0618V13.5138H62.9333C61.8404 11.9091 60.276 11.1067 58.2402 11.1067C56.2043 11.1067 54.4739 11.8556 53.0488 13.3534C51.6238 14.8512 50.9111 16.7984 50.9111 19.1949C50.9111 20.5857 51.1309 21.8267 51.5702 22.918C52.0094 24.0092 52.5881 24.8705 53.3059 25.5017C54.0239 26.1329 54.7739 26.609 55.5561 26.93C56.3383 27.251 57.1259 27.4114 57.9187 27.4114ZM58.9287 23.6562C57.5529 23.6562 56.4919 23.2229 55.7457 22.3563C54.9995 21.4897 54.6263 20.4466 54.6263 19.2269C54.6263 18.0287 55.0053 16.9909 55.7632 16.1136C56.521 15.2363 57.5879 14.7977 58.9637 14.7977C60.153 14.7977 61.144 15.2096 61.9369 16.0334C62.7298 16.8572 63.1262 17.9324 63.1262 19.2591C63.1262 20.5215 62.7123 21.57 61.8845 22.4045C61.0566 23.239 60.0714 23.6562 58.9287 23.6562ZM77.8474 27.4114C79.7975 27.4114 81.4958 26.6625 82.9423 25.1648C84.3889 23.6669 85.1121 21.7091 85.1121 19.2912C85.1121 17.9431 84.8924 16.7235 84.4531 15.6322C84.0138 14.5409 83.4459 13.6797 82.7495 13.0485C82.053 12.4172 81.3083 11.9358 80.5154 11.6042C79.7225 11.2725 78.9403 11.1067 78.1688 11.1067C76.1544 11.1067 74.4615 11.8556 73.09 13.3534H72.9614V3.78877H68.7826V26.8979H73.0257V25.1968H73.1543C74.2901 26.6732 75.8544 27.4114 77.8474 27.4114ZM76.9419 23.7204C75.8183 23.7204 74.8633 23.3032 74.0768 22.4687C73.2904 21.6341 72.8971 20.575 72.8971 19.2912C72.8971 17.9859 73.2847 16.9214 74.06 16.0976C74.8353 15.2738 75.7847 14.8619 76.9083 14.8619C78.2565 14.8619 79.2902 15.2898 80.0092 16.1458C80.7283 17.0016 81.0878 18.0501 81.0878 19.2912C81.0878 20.468 80.7227 21.5004 79.9924 22.3884C79.262 23.2764 78.2453 23.7204 76.9419 23.7204ZM90.5989 26.8979V19.4195C90.5989 18.0287 90.9256 16.9535 91.5792 16.1939C92.2328 15.4342 93.1919 15.0545 94.4562 15.0545C95.0991 15.0545 95.7848 15.1187 96.5134 15.2471V11.203C96.1492 11.1174 95.6776 11.0746 95.0991 11.0746C94.1347 11.0746 93.2561 11.342 92.4632 11.8769C91.6703 12.4119 91.0489 13.0859 90.5989 13.899H90.5024V11.5239H86.2593V26.8979H90.5989ZM102.204 26.8979V11.5239H97.865V26.8979H102.204ZM120.001 34.4405V11.5239H115.757V13.2892H115.629C114.472 11.77 112.929 11.0104 111 11.0104C108.965 11.0104 107.234 11.7753 105.808 13.3052C104.384 14.8351 103.671 16.7984 103.671 19.1949C103.671 20.5857 103.896 21.8267 104.346 22.918C104.796 24.0092 105.375 24.8705 106.082 25.5017C106.789 26.1329 107.539 26.6144 108.332 26.9461C109.125 27.2777 109.907 27.4436 110.678 27.4436C112.757 27.4436 114.429 26.7053 115.694 25.2289H115.821V34.4405H120.001ZM111.411 14.7015C112.558 14.7015 113.512 15.1293 114.276 15.9853C115.04 16.8412 115.422 17.9324 115.422 19.2591C115.422 20.5215 115.024 21.5753 114.226 22.4205C113.428 23.2657 112.479 23.6883 111.377 23.6883C110.052 23.6883 109.03 23.2497 108.311 22.3724C107.592 21.495 107.232 20.4466 107.232 19.2269C107.232 18.0073 107.592 16.9481 108.311 16.0495C109.052 15.1508 110.086 14.7015 111.411 14.7015ZM102.333 4.17392V8.31431H97.7686V4.17392H102.333Z" fill="#032532"/>
</g>
</svg>
