<svg width="144" height="57" viewBox="0 0 144 57" fill="none" xmlns="http://www.w3.org/2000/svg">
<mask id="mask0_158_333" style="mask-type:luminance" maskUnits="userSpaceOnUse" x="0" y="16" width="144" height="23">
<path d="M143.649 16.3896H0V38.8088H143.649V16.3896Z" fill="white"/>
</mask>
<g mask="url(#mask0_158_333)">
<path fill-rule="evenodd" clip-rule="evenodd" d="M12.2936 30.2051C12.4872 30.0086 12.4872 29.6777 12.2936 29.4813C12.2936 29.4813 8.59324 25.7171 8.57285 25.7171C8.47092 25.6137 8.41995 25.4897 8.41995 25.3552C8.43014 25.2208 8.48111 25.0967 8.57285 24.9933L16.1773 17.2789C16.2793 17.1755 16.3404 17.0514 16.3404 16.8963C16.3404 16.6171 16.1161 16.3896 15.841 16.3896H8.44034C8.30782 16.3896 8.1753 16.4516 8.08356 16.5448L0.41794 24.3211C0.163099 24.59 0 24.952 0 25.3552C0 25.7585 0.152905 26.1101 0.407746 26.3789L7.87969 33.9588C8.07337 34.1553 8.39956 34.1553 8.59324 33.9588L12.2936 30.2051ZM17.3904 24.9933C17.1967 25.1898 17.1967 25.5207 17.3904 25.7172L21.111 29.4813C21.2028 29.5847 21.2537 29.7088 21.2537 29.8433C21.2537 29.9777 21.2129 30.1121 21.111 30.2051L13.5066 37.9194C13.4047 38.0125 13.3435 38.147 13.3435 38.3021C13.3435 38.5813 13.5677 38.8088 13.843 38.8088H21.2436C21.3761 38.8088 21.5085 38.7467 21.6004 38.6537L29.266 30.8773C29.5207 30.6084 29.6839 30.2465 29.6839 29.8433C29.6839 29.4399 29.5207 29.0883 29.2762 28.8194L21.8042 21.2396C21.6105 21.0431 21.2843 21.0431 21.0907 21.2396L17.3904 24.9933ZM47.319 22.0978C46.065 21.6531 44.118 21.2706 42.4565 21.2706C39.4494 21.2706 37.5534 22.7183 37.5534 25.1277C37.5534 27.2579 38.8072 28.1473 41.4983 28.716C41.6531 28.7486 41.8064 28.7798 41.9566 28.8102C43.2814 29.0788 44.3832 29.3021 44.3832 30.1844C44.3832 30.8876 43.7103 31.2392 42.4362 31.2289C41.376 31.2082 39.796 30.9186 37.8695 30.1844L37.1966 32.8627C39.0722 33.5763 41.0192 33.9175 42.5584 33.9175C45.586 33.9175 47.5839 32.5939 47.5839 29.988C47.5839 27.6406 45.9428 26.8443 43.4657 26.3066C43.3523 26.2824 43.242 26.2592 43.1352 26.2368L43.1336 26.2365C41.6381 25.9223 40.795 25.7452 40.795 24.9829C40.795 24.2281 41.4269 23.9075 42.4769 23.9075C43.5064 23.9075 45.0049 24.197 46.6869 24.714L47.319 22.0978ZM51.0599 21.6118C52.4768 21.5394 54.0568 21.467 55.698 21.467C58.8785 21.467 60.9273 22.9561 60.9273 25.8103C60.9273 28.5919 58.8682 30.35 55.6879 30.35H54.0263V33.6072H51.0599V21.6118ZM54.0364 23.9798V27.713H55.8713C57.0945 27.713 57.961 27.0201 57.961 25.8309C57.961 24.6107 57.0945 23.9489 55.8713 23.9489C55.2597 23.9489 54.6379 23.9592 54.0364 23.9798ZM84.8009 21.6118V28.5506L79.225 21.6118H76.4829V33.6074H79.4492V26.7307L85.0354 33.6074H87.7573V21.6118H84.8009ZM91.7022 21.6014C93.0069 21.5291 94.5158 21.4566 96.1766 21.4566C100.091 21.4566 102.722 23.711 102.711 27.5371C102.711 31.3943 100.081 33.7623 96.4732 33.7623C94.6883 33.7623 93.0069 33.69 91.7022 33.6176V21.6014ZM94.6788 31.0013C95.2997 31.0323 95.9533 31.0323 96.5543 31.0323C98.2667 31.0323 99.6429 29.688 99.6524 27.5061C99.6524 25.3758 98.2771 24.1556 96.3094 24.1556C95.7894 24.1556 95.2289 24.1556 94.6788 24.1867V31.0013ZM128.379 22.0978C127.125 21.6531 125.178 21.2706 123.516 21.2706C120.509 21.2706 118.613 22.7183 118.613 25.1277C118.613 27.2579 119.867 28.1473 122.558 28.716C122.713 28.7486 122.866 28.7798 123.017 28.8102C124.341 29.0788 125.443 29.3021 125.443 30.1844C125.443 30.8876 124.77 31.2392 123.495 31.2289C122.435 31.2082 120.856 30.9186 118.929 30.1844L118.256 32.8627C120.131 33.5763 122.079 33.9175 123.619 33.9175C126.646 33.9175 128.644 32.5939 128.644 29.988C128.644 27.6406 127.002 26.8443 124.525 26.3066C124.412 26.2824 124.301 26.2591 124.194 26.2365C122.698 25.9223 121.854 25.7452 121.854 24.9829C121.854 24.2281 122.486 23.9075 123.537 23.9075C124.566 23.9075 126.065 24.197 127.747 24.714L128.379 22.0978ZM136.952 29.5433H135.096V33.6074H132.13V21.6118H135.107V26.5961H135.688L139.612 21.6118H143.221L138.848 27.1339L143.496 33.6074H139.857L136.952 29.5433ZM66.8193 26.3273V24.1556H72.9355V21.6015H63.8428V33.5969H72.9355V31.0428H66.8193V28.8711H71.9264V26.3273H66.8193ZM109.082 24.1556V26.3273H114.189V28.8711H109.082V31.0428H115.198V33.5969H106.106V21.6015H115.198V24.1556H109.082Z" fill="#032532"/>
</g>
</svg>
