<svg width="391" height="216" viewBox="0 0 391 216" fill="none" xmlns="http://www.w3.org/2000/svg">
<g opacity="0.08">
<path d="M250.168 141.806C246.684 144.161 242.132 144.866 238.101 143.671C237.648 143.539 237.158 143.344 236.952 142.918C236.64 142.28 237.137 141.56 237.226 140.856C237.483 138.835 234.604 137.963 233.688 136.145C233.326 135.427 233.298 134.593 233.235 133.792C232.677 126.681 228.971 120.273 225.851 113.859C225.626 113.392 225.395 112.885 225.489 112.373C225.584 111.863 226.17 111.422 226.625 111.674C226.285 112.882 227.029 114.292 228.214 114.698C228.759 112.629 229.052 109.912 227.199 108.847C226.568 108.485 225.811 108.421 225.084 108.385C222.22 108.243 219.343 108.404 216.516 108.864C216.043 108.94 215.524 109.018 215.116 108.774C214.75 108.558 214.564 108.143 214.307 107.805C213.614 106.876 211.763 106.371 210.779 107.181C209.687 108.081 210.52 110.039 208.431 110.312C207.248 110.466 206.112 109.857 205.073 109.267C203.962 108.636 202.826 107.985 202.016 106.999C201.729 106.646 201.475 106.25 201.092 106.009C200.352 105.544 199.402 105.796 198.53 105.786C197.658 105.779 196.593 105.144 196.828 104.305C196.901 104.044 197.091 103.836 197.241 103.608C198.338 101.926 196.886 99.5295 194.973 98.9208C193.058 98.312 190.991 98.9182 189.073 99.5224C186.201 100.429 183.326 101.338 180.451 102.242C179.365 102.586 178.228 102.932 177.106 102.728C176.147 102.552 175.14 101.984 174.262 102.411C173.072 102.989 173.265 104.761 172.546 105.873C171.859 106.935 170.394 107.276 169.685 108.325C168.866 109.541 169.353 111.164 169.268 112.628C169.101 115.45 166.779 117.593 164.739 119.552C162.698 121.509 160.627 124.061 161.151 126.841C161.312 127.694 161.715 128.5 161.775 129.364C161.823 130.082 161.633 130.791 161.443 131.483C160.846 133.67 160.248 135.857 159.648 138.044C161.656 141.592 163.876 145.02 166.294 148.302C167.486 149.92 168.753 151.53 170.404 152.674C172.054 153.82 174.161 154.461 176.104 153.944C176.973 153.712 177.786 153.259 178.682 153.167C179.931 153.037 181.158 153.624 182.409 153.569C183.872 153.508 185.142 152.595 186.317 151.723C187.492 150.851 188.77 149.949 190.232 149.905C191.697 149.863 193.274 151.133 192.963 152.562C192.893 152.874 192.742 153.184 192.787 153.502C192.882 154.183 193.764 154.417 194.442 154.325C195.122 154.232 195.847 153.981 196.463 154.282C197.303 154.695 197.397 155.877 197.12 156.77C196.743 157.981 195.932 159.002 195.394 160.149C194.856 161.298 194.633 162.753 195.398 163.763C195.794 164.286 196.396 164.609 196.887 165.044C197.705 165.767 198.193 166.788 198.589 167.805C200.291 172.156 200.667 177.006 199.722 181.577C199.302 183.595 198.017 185.243 197.613 187.108C197.157 189.212 198.835 191.562 199.819 193.275C201.319 195.884 202.208 198.844 202.397 201.846C202.47 203.042 202.449 204.296 202.997 205.362C203.41 206.161 204.101 206.772 204.673 207.467C206.858 210.133 207.132 213.831 207.313 217.275C207.774 217.888 208.724 217.881 209.418 217.556C210.111 217.229 210.671 216.668 211.347 216.306C213.043 215.396 215.113 215.869 217.024 215.654C220.312 215.282 223.199 212.566 223.767 209.306C223.927 208.4 223.929 207.451 224.319 206.621C224.906 205.37 226.314 204.521 226.502 203.152C226.576 202.61 226.442 202.045 226.56 201.51C226.934 199.82 229.52 199.289 229.743 197.572C229.85 196.748 229.348 195.986 229.028 195.219C228.076 192.939 228.877 190.06 230.866 188.598C231.609 188.05 232.481 187.695 233.237 187.169C236.891 184.634 236.813 179.134 235.271 174.961C234.669 173.333 233.897 171.689 234.007 169.957C234.08 168.815 234.538 167.732 235.072 166.72C236.41 164.175 238.266 161.903 240.491 160.084C241.943 158.899 243.608 157.833 244.435 156.152C244.943 155.127 245.084 153.958 245.482 152.885C246.202 150.927 247.71 149.388 248.885 147.667C250.063 145.949 250.935 143.745 250.168 141.806ZM228.856 184.179C228.756 184.895 227.95 185.565 227.33 185.193C227.306 183.281 226.898 181.397 226.487 179.527C226.29 178.632 226.094 177.736 225.898 176.843C225.806 176.426 225.678 175.961 225.306 175.76C225.039 175.615 224.699 175.639 224.453 175.461C224.086 175.194 224.113 174.618 223.806 174.278C223.408 173.838 222.66 173.994 222.157 173.679C221.657 173.366 221.537 172.702 221.469 172.115L220.71 165.639C220.681 165.39 220.655 165.118 220.788 164.902C220.935 164.663 221.228 164.57 221.492 164.471C222.623 164.042 223.579 163.168 224.102 162.078C224.325 161.613 224.476 161.112 224.78 160.696C225.882 159.204 227.358 159.649 227.484 161.114C227.659 163.149 226.853 162.891 225.712 163.606C224.838 164.154 223.333 165.075 222.73 165.988C221.822 167.365 222.628 167.751 223.254 169.089C223.832 170.331 223.28 172.002 224.191 173.027C224.78 173.693 225.767 173.812 226.518 174.288C227.691 175.032 228.125 176.537 228.204 177.92C228.282 179.306 228.102 180.721 228.45 182.065C228.63 182.767 228.955 183.464 228.856 184.179Z" fill="white"/>
<path d="M240.231 187.134C239.485 188.497 241.009 190.078 240.886 191.626C240.76 193.213 238.983 194.209 238.619 195.759C238.47 196.396 238.58 197.065 238.726 197.704C239.009 198.927 239.436 200.117 239.996 201.242C240.174 201.604 240.373 201.966 240.668 202.243C241.579 203.094 243.153 202.808 244.035 201.93C244.919 201.052 245.262 199.77 245.445 198.537C245.631 197.304 245.705 196.032 246.197 194.885C246.911 193.218 248.495 191.811 248.406 190C248.361 189.095 247.888 188.272 247.678 187.391C247.469 186.509 247.647 185.389 248.474 185.018C248.563 185.596 248.652 186.174 248.741 186.753C251.089 186.02 248.21 178.264 245.66 182.188C244.624 183.786 245.65 184.862 243.59 185.688C242.477 186.133 240.901 185.908 240.231 187.134Z" fill="white"/>
<path d="M418.775 48.8848C418.715 48.6225 418.506 48.414 418.299 48.2284C416.883 46.9309 415.307 45.8098 413.613 44.9142C414.681 44.8213 415.786 44.7205 416.736 44.211C417.689 43.7091 418.453 42.6889 418.315 41.6228C418.074 39.7995 415.493 38.7411 415.755 36.9249C415.88 36.106 416.59 35.2791 416.205 34.545C415.933 34.0433 415.283 33.9117 414.713 33.8339C411.729 33.432 408.747 33.0302 405.756 32.6361C405.886 33.7722 405.57 35.0388 404.651 35.7271C403.722 36.4073 402.162 36.183 401.722 35.1247C401.575 34.7536 401.56 34.3207 401.303 34.0046C400.772 33.3244 399.696 33.7183 398.879 34.0354C397.125 34.7156 395.115 34.7156 393.361 34.0273C393.021 33.8889 392.649 33.7033 392.511 33.3631C392.301 32.8614 392.649 32.3129 392.681 31.7714C392.725 30.8448 391.767 30.1256 390.841 30.0408C389.922 29.9639 389.024 30.3342 388.137 30.6202C385.561 31.455 382.512 31.5629 380.391 29.8783C379.766 29.3837 379.25 28.7501 378.577 28.3253C377.627 27.7229 376.46 27.5991 375.34 27.4834C372.455 27.1901 369.581 26.8959 366.699 26.6028C366.422 26.5719 366.105 26.5567 365.872 26.7185C365.5 26.9888 365.563 27.5533 365.437 27.9932C365.207 28.8508 364.233 29.2989 363.351 29.3606C362.464 29.4224 361.566 29.2141 360.686 29.3146C360.029 29.3844 359.388 29.6318 358.731 29.593C358.066 29.554 357.346 29.0903 357.362 28.4339C356.535 28.9516 355.985 29.8942 355.957 30.8756C354.279 31.0612 352.169 29.8634 352.533 28.2097C352.632 27.7847 352.878 27.4057 352.918 26.9736C353.143 24.2848 346.497 23.6903 344.997 24.8493C344.586 25.1663 344.272 25.5913 343.884 25.9305C342.254 27.3518 339.332 26.7883 338.343 24.8563C335.995 24.5631 333.605 24.5781 331.249 24.8872C330.291 23.2645 327.802 24.0295 326.211 25.0418C324.619 26.0543 322.3 27.0506 321.088 25.6062C325.106 24.6947 328.915 22.8714 332.152 20.3211C332.477 20.0658 332.833 19.7186 332.757 19.3008C332.71 19.0146 332.464 18.8141 332.223 18.6445C330.731 17.6091 328.899 17.0606 327.085 17.1065C325.755 17.1374 324.177 17.3768 323.337 16.3574C322.81 15.7311 322.755 14.7656 322.114 14.2479C321.504 13.7533 320.633 13.869 319.858 14.0006C318.151 14.3098 316.434 14.6189 314.727 14.9273C314.463 14.9732 314.17 15.035 313.984 15.2285C313.746 15.4908 313.759 15.8928 313.738 16.2558C313.591 18.512 310.754 20.1038 308.746 19.0526C308.121 18.7204 307.587 18.1948 306.906 17.9864C306.048 17.7311 305.129 18.0252 304.286 18.3185C300.739 19.5473 297.198 20.7752 293.661 22.0039C294.612 22.6532 295.855 22.8617 296.967 22.5675C297.3 23.1629 296.433 23.6876 295.768 23.8272C293.065 24.3917 290.368 24.9552 287.662 25.5118C289.209 26.6858 290.709 27.9304 292.146 29.2361C292.839 28.7493 293.499 30.0162 293.235 30.828C292.978 31.6388 292.491 32.6432 293.112 33.2226C292.284 32.9444 291.573 32.3341 291.172 31.5461C291.604 31.2289 292.02 30.9047 292.455 30.5804C291.512 30.7741 290.476 30.1557 290.19 29.2361C288.465 28.904 286.819 28.1618 285.437 27.0807C285.16 27.73 285.539 28.5797 286.209 28.8192C285.576 28.904 284.934 28.9817 284.301 29.0586C284.51 30.0479 285.4 30.8508 286.403 30.9667C285.136 31.2907 283.722 30.9895 282.686 30.1866C283.628 28.7653 282.246 26.5091 280.545 26.7096C281.518 26.8412 281.683 28.2395 281.257 29.1204C280.825 30.0091 280.066 30.805 280.084 31.7864C280.097 32.992 281.22 34.4364 280.283 35.2013C281.419 36.1518 283.537 34.4215 284.487 35.5494C284.78 35.9045 284.811 36.3913 284.934 36.8323C285.306 38.1536 286.759 39.0725 288.112 38.8408C287.332 40.0769 285.476 38.8568 284.626 37.6668C283.785 36.4771 281.882 35.295 281.149 36.5538C280.909 36.9707 280.956 37.4734 280.956 37.9443C280.909 41.3825 276.875 44.1102 273.668 42.8664C274.888 41.3595 277.754 41.9549 278.692 40.2622C279.068 39.5671 278.969 38.7173 278.854 37.9364C278.474 35.3869 278.103 32.8366 277.726 30.2873C277.948 29.1133 278.035 27.9074 277.98 26.7177C276.634 27.1893 274.472 27.1275 274.519 25.7052C273.375 27.5983 272.231 29.4834 271.088 31.3765C270.391 32.5126 269.868 34.3047 271.056 34.8993C271.852 34.5751 272.781 35.2466 273.004 36.0812C273.237 36.9082 272.943 37.7888 272.564 38.5619C270.847 33.8182 262.17 36.0045 259.913 31.4922C258.877 31.8942 259.819 33.4859 260.863 33.864C261.916 34.243 263.35 34.9142 262.965 35.9577C262.672 36.7765 261.544 36.7765 260.678 36.7148C258.173 36.5371 255.615 37.1165 253.422 38.3525C253.228 37.4716 253.026 36.5988 252.833 35.7253C251.011 37.016 249.179 38.3057 247.354 39.6042C246.467 40.2297 245.522 40.879 244.441 40.9947C243.36 41.1025 242.114 40.454 241.975 39.3797C241.836 38.2976 243.404 37.3552 244.101 38.19C244.402 36.212 241.698 34.5583 240.075 35.7331C241.148 37.5564 241.179 39.9513 240.135 41.7984C239.75 42.4856 239.153 43.1349 238.381 43.2587C237.601 43.3743 236.703 42.702 236.868 41.93C235.876 42.8028 235.321 44.1393 235.389 45.4531C233.782 45.9786 231.866 45.3523 230.869 43.9768C230.994 44.7417 231.117 45.4989 231.24 46.2638C230.081 47.5077 227.547 46.6119 227.432 44.9113C227.401 44.4096 227.531 43.915 227.531 43.4123C227.531 41.6968 226.016 40.4221 224.642 39.3949C226.696 40.1747 228.77 40.9557 230.824 41.7358C231.984 42.1757 233.219 42.6243 234.434 42.3922C236.211 42.052 237.355 39.6652 235.777 38.4284C232.942 36.2113 229.673 34.5416 226.21 33.545C225.215 33.259 224.147 33.0274 223.165 33.3445C222.362 33.6 221.289 34.1095 220.857 33.3906C221.66 33.5063 222.524 33.1972 223.074 32.5867C221.396 32.2156 219.697 31.9764 217.98 31.8916C216.001 33.6458 214.658 36.1335 215.229 38.637C216.111 42.4927 221.118 45.7216 219.286 49.2224C221.011 48.8364 222.809 48.4574 224.519 48.89C225.437 49.1145 226.327 49.6552 226.929 50.3812C226.922 50.3425 226.929 50.3045 226.937 50.2655C227.448 50.0959 227.995 49.9185 228.521 50.0651C229.039 50.2038 229.463 50.8141 229.201 51.2938C229.023 51.6259 228.56 51.9043 228.722 52.2443C228.83 52.4607 229.118 52.4916 229.34 52.5614C229.974 52.7548 230.33 53.5737 230.036 54.1683C229.125 54.1144 228.212 54.0676 227.301 54.0296C226.992 54.6938 226.573 55.3271 226.28 55.9924C225.053 58.7662 225.948 61.949 226.05 64.978C226.094 66.5309 225.738 68.2616 224.966 69.6059C225.152 69.5672 225.338 69.5293 225.524 69.4984C228.963 68.9109 232.89 69.7844 234.999 72.5653C237.101 75.3469 236.397 80.1296 233.167 81.4352C231.937 81.9298 230.508 81.9141 229.387 82.6171C228.932 82.8955 228.592 83.3901 228.437 83.9078C230.523 82.7259 232.672 81.5899 235.028 81.15C234.512 82.263 233.484 83.1119 232.301 83.4061C232.696 83.6613 232.562 84.3257 232.17 84.5801C231.774 84.8353 231.256 84.7884 230.801 84.6958C230.337 84.6029 229.858 84.4793 229.403 84.595C229 84.6958 228.686 85.0041 228.529 85.383C228.453 85.5534 228.414 85.7381 228.414 85.9237C228.414 86.0553 228.437 86.171 228.476 86.2945C229.675 85.2904 231.591 85.2592 232.811 86.2409C233.282 86.6188 233.654 87.1137 234.156 87.4536C234.714 87.8247 235.439 87.9943 235.863 88.5198C236.282 89.0534 235.989 90.1196 235.332 89.9801C235.308 90.3122 235.656 90.5517 235.981 90.6134C236.305 90.6752 236.661 90.6524 236.955 90.799C237.635 91.1541 237.512 92.2512 236.915 92.7309C236.321 93.2098 235.494 93.2485 234.73 93.2564C232.719 93.2875 230.641 93.3024 228.801 92.4836C227.937 92.1046 227.157 91.5409 226.259 91.2237C225.369 90.9068 224.288 90.8759 223.561 91.4862C223.22 91.7725 222.998 92.1734 222.673 92.4828C221.893 93.2318 220.571 93.3325 219.689 92.7071C218.964 92.1813 218.608 91.208 218.778 90.3271C217.943 91.169 217.234 92.1426 216.721 93.2017C217.163 94.4534 217.603 95.7203 218.043 96.972C218.189 97.3819 218.331 97.7828 218.477 98.1848C218.901 99.4135 219.598 100.851 220.888 100.936C222.527 101.044 224.165 98.8191 225.464 100.828C225.71 101.214 225.788 101.678 225.788 102.141C225.78 103.053 227.031 104.197 227.704 103.486C227.626 102.829 227.558 102.126 227.859 101.531C228.16 100.944 228.987 100.58 229.513 100.99C229.866 101.269 229.937 101.77 229.96 102.211C229.992 102.867 229.96 103.533 229.877 104.181C229.675 105.734 229.057 107.349 227.743 108.184C226.715 108.833 225.246 109.297 226.081 110.671C226.275 110.972 227.055 110.625 227.27 110.918C227.757 111.599 227.416 112.317 227.487 113.121C227.618 114.828 229.557 115.686 230.617 117.031C232.086 118.885 231.777 121.543 232.502 123.799C233.978 128.412 239.789 131.371 239.465 136.2C239.334 138.077 238.413 140.434 239.96 141.516C240.996 142.234 242.41 141.724 243.553 141.192C245.695 140.202 247.841 139.206 249.99 138.209C250.864 137.807 251.791 137.352 252.239 136.494C252.471 136.046 252.547 135.52 252.872 135.134C253.351 134.57 254.178 134.493 254.882 134.262C256.466 133.728 257.523 132.237 258.319 130.762C259.178 129.162 259.85 127.462 260.329 125.709C260.452 125.245 260.57 124.758 260.452 124.287C260.036 122.58 257.044 122.417 256.89 120.664C256.83 119.93 257.337 119.28 257.578 118.585C257.817 117.89 257.555 116.863 256.822 116.87C256.379 118.167 255.9 119.52 254.919 120.47C253.929 121.429 252.262 121.83 251.178 120.988C250.375 120.37 250.113 119.296 249.563 118.446C248.728 117.132 247.215 116.336 246.488 114.961C245.763 113.586 246.828 111.268 248.268 111.863C248.969 114.467 250.754 116.754 253.121 118.067C254.581 117.572 255.987 116.908 257.301 116.089C257.958 115.563 258.824 116.545 258.892 117.379C258.963 118.221 258.832 119.242 259.51 119.728C259.858 119.984 260.322 119.999 260.756 119.999C264.295 119.999 267.826 119.589 271.266 118.778C270.561 120.833 272.456 123.305 274.626 123.152C274.365 123.993 273.522 124.62 272.64 124.628C273.066 125.454 273.514 126.319 274.27 126.876C275.027 127.424 276.181 127.548 276.844 126.892C277.472 126.281 277.556 125.145 278.367 124.805C279.309 124.411 280.244 125.593 280.168 126.613C280.092 127.634 279.451 128.507 279.11 129.472C278.422 131.442 279.063 133.605 279.697 135.591C280.927 139.423 282.202 143.356 284.712 146.509C285.615 145.659 286.521 144.817 287.424 143.966C288.646 144.175 288.685 145.929 288.298 147.095C287.903 148.277 287.539 149.861 288.599 150.502C289.549 151.074 290.824 150.155 291.033 149.073C291.24 147.984 290.745 146.91 290.266 145.913C289.641 144.638 289.023 143.356 288.405 142.073C288.188 141.632 287.963 141.161 288.002 140.667C288.034 140.242 288.243 139.863 288.421 139.477C288.976 138.233 289.154 136.811 288.908 135.467C292.222 133.783 294.996 131.048 296.703 127.741C296.967 127.246 297.213 126.721 297.669 126.388C299.03 125.399 301.318 126.79 302.524 125.608C304.2 126.234 305.616 127.516 306.411 129.124C306.99 130.298 307.532 131.859 308.838 131.959C306.836 132.778 305.474 134.958 305.629 137.113C307.647 137.623 309.872 135.715 309.67 133.651C310.458 133.203 311.503 133.752 311.919 134.555C312.338 135.359 312.29 136.316 312.238 137.213C312.081 139.94 311.919 142.66 311.764 145.38C311.72 146.191 311.688 147.064 312.136 147.737C312.56 148.37 313.366 148.726 313.659 149.436C314.099 150.479 313.217 151.793 313.79 152.774C314.099 153.291 314.709 153.523 315.18 153.886C316.185 154.659 316.526 156.01 317.251 157.053C317.978 158.097 319.656 158.776 320.444 157.78C318.766 156.466 317.693 154.41 317.583 152.279C317.562 151.792 317.575 151.282 317.376 150.842C317.128 150.285 316.596 149.922 316.146 149.513C313.518 147.11 313.845 142.961 314.377 139.438C315.599 141.222 317.554 142.482 319.685 142.853C318.999 144.268 319.593 146.16 320.96 146.933C321.054 145.549 322.088 144.283 323.426 143.92C324.007 143.757 324.624 143.749 325.174 143.509C326.818 142.798 326.996 140.573 326.912 138.789C326.881 138.086 326.841 137.352 326.465 136.765C325.831 135.799 324.548 135.575 323.543 135.004C321.742 133.984 320.86 131.581 321.588 129.634C322.305 127.695 324.541 126.443 326.572 126.852C327.245 127.145 326.944 128.211 326.355 128.652C325.768 129.092 324.965 129.355 324.695 130.043C324.308 130.985 325.452 132.036 326.449 131.82C327.446 131.611 328.087 130.553 328.155 129.533C328.218 128.513 327.847 127.524 327.478 126.566C329.624 127.037 331.99 126.279 333.467 124.658C333.883 124.202 334.254 123.668 334.788 123.36C335.83 122.75 337.322 123.082 338.181 122.224C338.838 121.567 338.791 120.516 338.992 119.613C339.372 117.928 340.667 116.638 341.442 115.101C342.199 113.562 342.955 111.199 342.547 109.499C342.254 108.263 341.612 107.142 341.17 105.952C340.853 105.11 340.639 104.237 340.521 103.341C340.476 102.978 340.445 102.576 340.615 102.252C340.916 101.672 341.657 101.534 342.214 101.194C343.042 100.684 343.473 99.6097 343.227 98.6749C340.932 99.4402 338.241 98.8605 336.471 97.2068C336.982 96.2175 338.118 95.7546 339.099 95.2291C340.089 94.7114 341.118 93.8617 341.071 92.7416C341.696 92.7416 342.314 92.7416 342.934 92.7335C342.979 93.7528 342.5 94.781 341.696 95.4065C342.547 96.1406 343.822 95.4455 344.827 94.9198C345.824 94.3942 347.494 94.3942 347.617 95.5143C347.732 96.5886 346.101 97.3146 346.327 98.3729C347.468 97.9869 348.69 99.509 348.072 100.544C347.902 100.822 347.633 101.093 347.677 101.417C347.732 101.811 348.195 101.966 348.544 102.159C349.509 102.669 349.928 103.998 349.434 104.972C350.104 104.446 350.776 103.928 351.449 103.404C351.604 104.022 352.3 104.439 352.925 104.299C353.543 104.153 353.978 103.458 353.839 102.839C353.705 102.229 353.143 101.804 352.957 101.217C352.679 100.328 353.313 99.3394 353.004 98.4577C352.763 97.7705 352.03 97.4075 351.433 96.9746C350.839 96.5418 350.305 95.7617 350.661 95.1205C350.878 94.7263 351.342 94.5638 351.719 94.3325C353.614 93.1585 354.014 89.8123 356.242 89.7354C356.689 89.7194 357.129 89.8589 357.569 89.7972C358.836 89.6197 359.278 88.0817 359.872 86.9456C361.186 84.4192 364.246 83.1905 365.631 80.6948C366.689 78.7789 366.565 76.438 367.191 74.3286C367.647 72.7985 368.513 71.2068 367.979 69.7007C367.314 67.8235 364.278 67.4524 363.181 69.121C363.359 68.1786 363.534 67.236 363.72 66.2854C363.055 68.4259 358.645 66.494 362.485 64.4004C365.05 63.01 367.346 61.1008 369.194 58.8449C369.819 58.0797 370.413 57.253 371.233 56.6964C374.256 54.6566 378.413 57.1831 381.951 56.2946C382.075 56.6427 382.19 56.9897 382.315 57.3378C381.363 57.7317 380.42 58.1336 379.478 58.5278C381.472 59.4623 383.621 57.2452 385.823 57.3378C386.464 57.3608 387.391 57.3687 387.43 56.7354C386.833 56.6427 386.072 56.3185 386.179 55.7309C386.218 55.5145 386.373 55.3449 386.527 55.1903C387.098 54.58 387.679 53.9775 388.257 53.367C389.223 52.3469 390.783 51.2655 391.89 52.1461C392.725 52.8184 392.338 54.4334 391.286 54.6577C391.974 55.3457 393.142 54.7195 393.83 54.0244C394.516 53.3361 395.406 52.5023 396.317 52.8574C396.573 52.3476 396.573 51.7214 396.332 51.2116C397.068 50.8018 397.971 50.7099 398.767 50.9564C398.28 51.3662 397.947 51.9608 397.848 52.5942C397.777 53.004 397.809 53.4209 397.686 53.815C397.243 55.2832 395.283 55.4527 393.898 56.1248C391.456 57.3069 390.605 60.4366 388.412 62.0205C387.87 62.4146 387.26 62.7087 386.812 63.2026C385.846 64.2688 385.969 65.9295 386.417 67.2977C386.88 68.6651 387.616 69.9789 387.7 71.4161C387.715 71.6865 387.708 71.9566 387.687 72.2198C387.584 73.1785 388.76 73.711 389.432 73.0309C389.595 72.8613 389.757 72.6988 389.919 72.5362C390.699 71.7323 391.511 70.9063 391.906 69.8551C392.176 69.1132 392.299 68.2095 392.987 67.8235C393.49 67.5372 394.115 67.661 394.686 67.561C395.259 67.4683 395.869 66.8887 395.584 66.3791C394.649 65.7147 394.812 64.0382 395.845 63.5514C396.28 63.7519 396.712 63.9613 397.144 64.1698C398.172 63.698 396.618 62.0144 397.183 61.0331C397.4 60.6538 397.916 60.4225 397.9 59.9896C397.885 59.449 397.12 59.3563 396.586 59.4411C396.233 57.6877 397.445 55.7637 399.175 55.3308C399.146 55.6938 399.115 56.0649 399.083 56.4279C399.942 55.8872 400.798 55.3457 401.656 54.7972C401.811 55.2141 401.957 55.632 402.104 56.057C403.133 56.5896 403.936 54.2486 405.002 54.6815C405.235 54.7823 405.389 54.9906 405.583 55.1452C406.347 55.7707 407.724 55.2918 407.931 54.3264C408.729 50.6638 413.179 50.4942 416.912 50.1852C417.778 50.1137 418.977 49.7345 418.775 48.8848ZM253.987 93.5974C253.361 94.1619 252.456 94.3157 251.623 94.1849C251.422 94.3545 251.568 94.7025 251.791 94.8412C252.016 94.9799 252.293 95.0187 252.487 95.2042C252.835 95.5363 252.697 96.1079 252.749 96.5797C252.851 97.3525 253.508 97.9393 253.683 98.6891C254.003 100.042 252.54 101.285 251.15 101.293C248.244 101.316 246.202 98.9594 245.454 96.4251C245.022 94.9799 244.195 91.0481 246.42 90.8236C245.747 89.9429 246.451 88.9694 246.035 88.027C245.802 87.5172 245.229 87.2699 244.844 86.8601C244.072 86.0412 244.187 84.6578 244.844 83.7382C245.501 82.8186 246.551 82.2779 247.603 81.8681C248.629 81.4661 249.788 81.157 250.801 81.5747C251.822 81.9919 252.432 83.437 251.673 84.2328C250.856 85.0907 249.179 84.5958 248.43 85.5235C247.956 86.0951 248.121 86.9996 248.592 87.5711C249.071 88.1427 249.781 88.4599 250.469 88.7302C250.856 88.8846 251.273 89.0623 251.427 89.4412C251.668 90.0057 251.181 90.5773 250.872 91.102C250.571 91.6354 250.631 92.5621 251.241 92.5621C251.838 92.5542 251.93 91.7123 252.262 91.2177C252.725 90.5223 253.924 90.6302 254.388 91.3334C254.846 92.0295 254.605 93.041 253.987 93.5974ZM326.527 66.5788C326.396 66.834 326.234 67.0884 326.15 67.3668C326.056 67.6759 326.056 68.008 325.98 68.3173C325.747 69.2437 324.891 69.8472 324.117 70.4107C323.577 70.7967 323.043 71.2295 322.719 71.8092C322.588 72.0484 322.494 72.3109 322.347 72.5512C321.583 73.8419 319.287 74.1041 320.732 72.3038C321.622 71.1838 322.949 69.5379 324.056 68.5646C324.433 68.2323 324.897 67.9541 325.153 67.5212C325.569 66.8102 325.339 65.9214 325.368 65.1025C325.391 64.2837 326.02 63.3023 326.807 63.5347C327.101 64.531 327.001 65.6432 326.527 66.5788ZM227.712 52.316C227.72 52.4008 227.72 52.4855 227.712 52.5782C227.688 52.8954 227.618 53.1966 227.518 53.4897C227.641 53.4978 227.757 53.4978 227.851 53.4897C228.037 53.0958 227.921 52.7098 227.712 52.316ZM221.676 71.9178C223.144 71.81 224.241 70.8825 224.969 69.6078C223.579 69.9391 222.21 70.6193 221.676 71.9178Z" fill="white"/>
<path d="M233.167 81.4362C231.939 81.9308 230.51 81.9151 229.39 82.6183C228.932 82.8965 228.591 83.3911 228.437 83.9088C228.254 84.0095 228.068 84.1173 227.882 84.2181C224.62 86.0723 225.84 81.9928 222.788 82.0159C219.815 82.0386 220.671 87.0228 219.341 86.5818C219.001 87.3389 219.558 88.2434 219.32 89.0384C219.234 89.3169 219.063 89.5561 218.94 89.8186C218.862 89.9811 218.81 90.1507 218.778 90.3284C217.943 91.17 217.231 92.1435 216.721 93.2027C216.681 93.087 216.645 92.9784 216.606 92.8627C215.88 92.1446 214.551 92.9085 214.318 93.898C214.085 94.8865 214.519 95.8987 214.812 96.8723C215.106 97.8458 215.208 99.0355 214.48 99.7539C214.101 100.133 213.483 100.395 214.032 101.261C214.226 101.578 214.614 101.702 214.983 101.647C215.771 101.531 216.443 102.991 215.671 103.037C214.25 103.207 213.205 101.716 212.758 100.348C212.318 98.9889 212.009 97.4048 210.81 96.6161C210.224 96.23 209.428 96.0445 209.143 95.4033C208.664 94.329 210.054 93.0702 209.543 92.0111C209.041 90.9758 207.358 91.3548 206.483 90.5898C205.751 89.9335 205.85 88.6736 205.139 88.0016C204.776 87.6535 204.273 87.5226 203.81 87.3452C202.342 86.7807 201.128 85.6067 200.518 84.1613C199.676 84.316 199.8 85.5677 200.202 86.3248C201.747 89.2143 204.205 91.6099 207.133 93.0852C206.182 93.5641 205.711 94.6462 205.324 95.6425C204.73 97.1258 204.142 98.6168 203.555 100.108C202.658 100 201.723 99.8685 201.005 99.3281C200.286 98.7874 199.9 97.6822 200.433 96.9641C201.415 97.9146 203.316 97.5744 203.903 96.3457C204.49 95.1021 203.563 93.4175 202.203 93.2628C202.775 91.64 200.951 90.2187 199.344 89.6084C197.737 88.9979 195.765 88.2251 195.573 86.5174C194.838 85.8611 193.656 86.1932 192.86 86.7647C192.064 87.3442 191.4 88.1403 190.465 88.4572C189.538 88.7744 188.216 88.2408 188.27 87.2594C187.791 87.6763 187.312 88.0863 186.833 88.5032C187.922 88.8123 187.305 90.5589 186.3 91.0766C185.295 91.5861 183.928 91.9111 183.68 93.0155C183.58 93.4562 183.711 93.9192 183.703 94.3829C183.695 95.078 183.371 95.7354 183.054 96.3609C182.266 97.8987 181.253 99.6133 179.553 99.9305C178.557 100.116 177.034 100.224 177.173 101.221C175.736 99.9693 173.726 99.3898 171.841 99.6911C171.957 98.8104 172.072 97.9295 172.181 97.056C171.531 96.9552 170.875 96.8626 170.226 96.7697C171.23 95.3792 171.593 93.5321 171.191 91.8635C170.967 90.929 170.696 89.6155 171.601 89.2831C171.115 88.8503 170.759 88.2709 170.581 87.6375C171.934 87.0429 173.51 86.9812 174.917 87.452C175.527 87.6524 176.106 87.9537 176.725 88.1392C178.472 88.665 180.574 88.0774 181.578 86.5632C182.583 85.0412 182.166 82.6775 180.566 81.8036C179.724 81.348 178.703 81.309 177.876 80.8144C177.065 80.3198 176.64 78.9602 177.459 78.4734C178.132 79.5009 179.677 79.8178 180.697 79.1458C180.219 78.3269 180.01 77.3612 180.103 76.4188C180.853 76.1095 181.819 76.8205 181.726 77.6315C183.055 77.6624 184.354 76.7509 184.778 75.4911C184.933 75.0582 184.995 74.5796 185.296 74.2244C185.698 73.7536 186.394 73.6838 186.973 73.4673C188.411 72.9266 189.261 71.1724 188.789 69.7202C190.644 68.8624 192.715 68.4764 194.748 68.592C194.029 67.2634 193.287 65.8491 193.357 64.3352C193.427 62.828 194.655 61.268 196.154 61.4067C196.386 62.2873 196.371 63.23 196.123 64.1106C196.564 64.2114 196.996 64.3043 197.437 64.404C196.486 65.192 195.521 66.7141 196.509 67.456C197.297 68.0435 198.426 67.2864 199.392 67.4869C199.833 67.5798 200.211 67.8729 200.644 67.9736C202.6 68.4604 204.493 65.2459 206.146 66.3977C206.703 66.7837 206.926 67.5717 207.876 67.456C208.402 67.3864 208.858 67.054 209.114 66.5903C209.661 65.6398 209.483 64.5427 209.593 63.4925C209.685 62.5807 210.124 61.5684 211.014 61.329C211.988 61.0668 212.923 61.8697 213.928 61.9783C215.619 62.1717 216.948 59.8459 215.92 58.4864C214.637 59.4677 212.991 59.9545 211.376 59.8229C210.897 58.988 211.894 58.0844 212.768 57.6905C215.773 56.3537 219.181 55.9439 222.419 56.5314C222.998 55.9907 222.165 55.141 221.453 54.8008C220.741 54.4687 219.953 53.5572 220.566 53.0625C218.433 52.2047 216.561 55.1949 214.258 55.3027C211.902 55.4184 210.533 52.2664 211.407 50.0723C212.289 47.8858 214.475 46.5493 216.524 45.3745C215.171 43.25 211.632 43.0796 210.085 45.0654C210.279 46.688 209.622 48.3877 208.386 49.4539C207.112 50.551 205.032 51.5554 205.465 53.1853C205.845 54.6144 208.125 55.3027 207.813 56.7549C207.536 58.0914 205.349 58.1074 204.831 59.3662C204.46 60.2858 205.18 61.4138 204.739 62.3025C204.291 63.1991 203.016 63.23 202.212 63.8324C201.663 64.2423 201.354 64.8908 200.852 65.3545C200.342 65.8104 199.422 65.9878 199.051 65.4084C198.688 64.8369 199.167 64.1337 199.429 63.5074C200.234 61.6611 199.074 59.6057 197.953 57.9289C195.682 57.7434 194.506 62.0392 192.397 61.1665C191.802 60.9192 191.454 60.3167 191.152 59.7451C190.317 58.2001 189.475 56.6233 189.158 54.8929C188.849 53.1623 189.15 51.2304 190.363 49.9635C191.979 48.2789 194.691 48.1792 196.484 46.695C198.493 45.0343 198.98 41.9514 201.136 40.4911C202.426 39.6183 204.405 39.1467 204.559 37.5938C203.138 37.7094 201.715 37.8251 200.293 37.9418C200.943 36.7519 202.48 36.1335 203.763 36.5436C203.23 35.4004 204.551 34.1715 205.811 33.994C207.072 33.8244 208.392 34.1874 209.606 33.8245C210.596 33.5232 211.383 32.7892 212.334 32.3793C213.153 32.0242 214.064 31.9394 214.962 31.8926C215.967 31.8457 216.977 31.8457 217.982 31.8926C216.004 33.6468 214.661 36.1345 215.231 38.638C216.113 42.4939 221.121 45.7225 219.289 49.2234C221.014 48.8373 222.812 48.4584 224.521 48.8913C225.44 49.1155 226.33 49.6562 226.932 50.3822C226.848 51.0545 227.395 51.6878 227.712 52.3143C227.72 52.3991 227.72 52.4839 227.712 52.5766C227.688 52.8937 227.62 53.195 227.518 53.4883C226.034 53.4344 222.55 52.7153 224.217 55.1488C224.961 54.2682 225.306 54.8319 226.165 54.739C226.521 54.7003 226.853 54.3292 226.722 53.9971C226.916 54.0049 227.107 54.0131 227.301 54.028C226.992 54.6922 226.576 55.3255 226.28 55.9907C225.052 58.7645 225.95 61.9474 226.05 64.9763C226.097 66.5293 225.741 68.2599 224.969 69.6043C225.154 69.5656 225.34 69.5276 225.526 69.4968C228.963 68.9092 232.889 69.7828 234.999 72.5637C237.101 75.3482 236.397 80.1306 233.167 81.4362Z" fill="white"/>
<path d="M168.939 68.1642C168.934 69.0202 169.759 69.794 169.531 70.6192C169.306 71.4344 168.151 71.8045 168.101 72.649C168.046 73.5924 169.359 73.9334 170.286 73.7445C171.999 73.3964 173.558 72.354 174.536 70.9063C175.014 70.1979 175.201 68.9822 174.395 68.7004C175.5 68.3125 176.604 67.9239 177.71 67.5361C178.578 68.2756 179.51 69.5219 178.795 70.4098C178.333 70.9822 177.246 71.3779 177.574 72.0368C177.707 72.3054 178.062 72.4396 178.125 72.7338C178.191 73.0439 177.896 73.2975 177.653 73.5016C176.607 74.3796 175.991 75.7478 176.029 77.1136C177.6 75.663 179.76 74.8716 181.897 74.9635C182.397 74.9847 182.955 75.0349 183.338 74.7125C183.721 74.3901 183.551 73.5589 183.058 73.6393C183.656 73.2101 184.254 72.7806 184.852 72.3504C184.988 72.2533 185.128 72.1491 185.194 71.9971C185.349 71.6393 185.001 71.2499 184.633 71.1243C184.264 70.9989 183.852 71.0175 183.499 70.8524C182.719 70.4865 182.588 69.4664 182.318 68.6483C182.05 67.8302 181.09 67.0009 180.428 67.5528C180.595 66.7667 180.756 65.9232 180.446 65.182C180.136 64.4409 179.146 63.9363 178.5 64.4142C178.126 63.8604 178.992 63.348 179.446 62.8579C179.941 62.3242 179.931 61.3968 179.416 60.8825C178.9 60.3693 177.959 60.3704 177.455 60.8951C177.524 59.3809 177.845 57.517 179.289 57.0559C179.685 56.9287 180.117 56.9365 180.511 56.8023C180.906 56.6673 181.282 56.3066 181.217 55.895C181.286 56.3773 182.065 56.4021 182.354 56.0109C182.643 55.6194 182.582 55.0798 182.508 54.5993C181.384 54.2769 180.899 56.1708 179.784 56.5286C179.272 56.6929 178.686 56.4977 178.19 56.7052C177.014 57.1972 177.33 59.3853 176.101 59.7263C175.81 59.8067 175.489 59.752 175.212 59.871C174.653 60.1115 174.591 60.8844 174.727 61.4779C174.863 62.0717 175.103 62.7103 174.846 63.2625C174.705 63.5655 174.415 63.8667 174.533 64.1795C174.687 64.5927 175.295 64.4815 175.712 64.628C176.76 64.9999 176.188 66.2323 175.645 66.7182C174.965 67.3259 173.818 67.1668 173.016 67.0556C171.812 66.8852 168.954 65.8339 168.939 68.1642Z" fill="white"/>
<path d="M195.216 92.7388C195.074 92.6203 194.931 92.502 194.789 92.3837C195.232 92.2777 195.528 91.8174 195.554 91.3615C195.579 90.9067 195.385 90.4641 195.13 90.0867C194.823 89.6327 194.292 89.2069 193.774 89.3854C193.116 89.6125 193.106 90.5463 193.326 91.206C193.547 91.8661 193.859 92.637 193.458 93.206C193.704 93.1476 193.978 93.2264 194.155 93.4065C193.197 94.0215 192.972 95.9753 194.387 96.0894C195.799 96.2033 196.077 94.3897 194.649 94.0602C194.676 93.972 195.231 92.7511 195.216 92.7388Z" fill="white"/>
<path d="M355.417 108.041C355.495 107.279 355.574 106.391 356.22 105.975C356.427 106.503 356.812 106.959 357.301 107.248C357.741 106.994 357.979 106.508 358.236 106.07C358.492 105.632 358.843 105.181 359.343 105.099C359.843 105.017 360.408 105.576 360.144 106.01C361.453 106.527 362.322 104.621 363.536 103.91C364.177 103.535 364.955 103.507 365.675 103.323C366.392 103.139 367.151 102.681 367.253 101.946C367.313 101.517 367.13 101.091 367.117 100.657C367.086 99.7312 367.795 98.9759 368.25 98.1702C369.046 96.764 369.083 94.9575 368.345 93.5202C367.944 92.7411 367.332 92.0547 367.133 91.2013C366.936 90.3481 367.431 89.2351 368.305 89.2474C368.549 89.9919 368.873 90.8267 369.604 91.1049C370.337 91.3834 371.318 90.453 370.787 89.8762C371.609 89.6501 372.473 89.575 373.323 89.6554C373.682 89.1272 373.595 88.3445 373.132 87.9064C375.818 86.97 378.126 85.1229 379.899 82.8984C377.451 84.4189 375.004 85.9392 372.556 87.4586C372.268 87.6387 371.923 87.825 371.603 87.7033C371.316 87.5929 371.174 87.2739 371.028 87.0001C370.368 85.7633 368.983 84.9507 367.583 84.979C367.695 86.1485 367.808 87.3181 367.923 88.4876C367.091 88.3356 366.334 89.1191 366.141 89.9443C365.95 90.7694 366.141 91.6281 366.211 92.4716C366.457 95.4388 365.052 98.49 362.638 100.233C362.628 99.7532 362.617 99.2745 362.61 98.7948C361.332 98.9812 361.916 101.361 360.769 101.947C360.445 102.111 360.063 102.08 359.701 102.118C357.903 102.308 357.932 104.156 355.987 103.419C355.796 105.78 352.796 105.364 353.011 107.74C353.192 109.748 355.084 111.279 355.417 108.041Z" fill="white"/>
<path d="M371.188 70.6919C371.219 70.8625 371.25 71.0373 371.224 71.2095C371.172 71.539 370.918 71.8023 370.826 72.1221C370.664 72.6795 371.023 73.2545 371.442 73.6557C371.86 74.0576 372.368 74.3942 372.635 74.9089C373.083 75.7694 372.763 76.9479 373.405 77.6757C373.206 78.1706 372.455 78.0203 372.02 77.7102C371.586 77.4001 371.052 76.9939 370.583 77.2483C370.031 78.0442 370.337 79.1404 370.774 80.0061C371.209 80.8708 371.777 81.7551 371.688 82.7198C371.648 83.1738 371.303 83.6985 370.858 83.5925C370.688 83.552 370.554 83.4256 370.429 83.3036C369.829 82.7279 369.198 82.0872 369.088 81.2657C369.005 80.667 369.217 80.0731 369.366 79.4885C369.675 78.2826 369.735 77.0141 369.541 75.7846C369.457 75.257 369.327 74.7307 369.348 74.1971C369.384 73.2076 369.905 72.1079 369.329 71.3021C369.149 71.0504 368.858 70.7704 368.994 70.4932C369.24 69.9879 370.337 69.0382 370.724 68.6406C370.973 69.2828 371.059 69.9983 371.188 70.6919Z" fill="white"/>
<path d="M308.756 154.341C309.565 154.936 310.573 155.363 311.044 156.249C311.411 156.933 311.411 157.823 311.971 158.357C312.272 158.642 312.691 158.776 312.997 159.057C313.712 159.715 313.554 160.871 313.897 161.779C314.387 163.066 315.887 163.83 316.172 165.177C316.269 165.638 316.214 166.135 316.413 166.561C316.795 167.373 317.889 167.545 318.502 168.202C318.803 168.525 318.97 168.95 319.229 169.309C319.96 170.322 321.478 170.665 322.575 170.066C322.185 169.469 321.965 168.762 321.949 168.049C321.938 167.629 321.999 167.203 321.918 166.79C321.724 165.792 320.771 165.091 320.507 164.108C320.954 163.781 321.541 164.262 321.873 164.705C322.205 165.147 322.766 165.645 323.232 165.346C322.383 164.236 321.412 163.219 320.347 162.318C320.431 162.721 319.886 163.019 319.502 162.879C319.114 162.737 318.881 162.352 318.677 161.993C318.525 161.722 318.368 161.431 318.397 161.123C318.421 160.865 318.572 160.634 318.617 160.38C318.714 159.845 318.329 159.337 317.892 159.017C317.452 158.696 316.936 158.479 316.554 158.092C315.792 157.322 315.662 155.985 314.709 155.469C314.253 155.223 313.698 155.225 313.235 154.99C311.801 154.258 311.526 152.134 309.885 151.48C307.558 150.549 307.066 153.095 308.756 154.341Z" fill="white"/>
<path d="M323.108 170.41C322.765 170.887 322.425 171.363 322.084 171.84C322.009 171.943 321.933 172.055 321.933 172.182C321.935 172.536 322.443 172.588 322.794 172.539C323.904 172.387 325.042 172.443 326.129 172.704C327.969 173.145 329.717 174.167 331.605 174.049C331.89 174.031 332.178 173.986 332.46 174.03C332.767 174.076 333.047 174.219 333.345 174.308C334.028 174.511 334.801 174.397 335.4 174.004C334.892 173.514 334.096 173.55 333.392 173.498C332.691 173.446 331.853 173.124 331.769 172.424C331.746 172.234 331.785 172.038 331.738 171.852C331.636 171.458 331.183 171.262 330.777 171.238C330.369 171.214 329.958 171.305 329.56 171.228C328.885 171.099 328.369 170.475 327.699 170.382C327.021 170.289 326.723 170.803 326.178 170.829C325.05 170.882 324.16 168.941 323.108 170.41Z" fill="white"/>
<path d="M339.067 174.408C339.662 174.42 340.24 174.887 340.795 174.682C340.936 174.63 341.065 174.537 341.214 174.524C341.4 174.508 341.567 174.617 341.735 174.695C343.36 175.445 345.227 173.304 346.894 173.955C346.507 175.536 344.415 176.035 343.593 177.44C345.009 177.233 346.347 176.51 347.297 175.438C347.556 175.146 347.792 174.824 348.122 174.616C348.31 174.496 348.525 174.418 348.71 174.296C349.15 174.01 349.415 173.477 349.378 172.954C348.894 172.943 348.407 173.062 347.983 173.296C347.669 173.469 347.381 173.708 347.03 173.788C346.449 173.921 345.87 173.585 345.279 173.501C344.028 173.324 342.826 174.625 341.688 174.41C341.24 174.325 341.007 173.82 340.436 173.676C339.976 173.56 339.24 173.758 338.719 173.684C338.136 173.601 336.934 173.01 336.494 173.631C335.199 175.461 338.748 174.402 339.067 174.408Z" fill="white"/>
<path d="M338.751 176.143C339.002 175.863 339.484 176.039 339.73 176.322C339.979 176.604 340.133 176.98 340.452 177.177C340.774 177.376 341.224 177.333 341.502 177.078C341.664 176.927 341.769 176.685 341.685 176.479C341.601 176.27 341.363 176.174 341.151 176.099C340.944 176.027 340.738 175.953 340.531 175.881C340.167 175.753 339.79 175.624 339.408 175.676C339.026 175.728 338.649 176.023 338.644 176.408" fill="white"/>
<path d="M328.606 165.172C327.922 165.244 327.027 165.304 326.763 164.67C326.608 164.296 326.784 163.875 326.794 163.471C326.81 162.808 326.383 162.229 326.077 161.64C325.54 160.609 325.347 159.404 325.535 158.259C325.582 157.969 325.661 157.667 325.865 157.455C325.993 157.319 326.161 157.229 326.326 157.143C326.962 156.809 327.598 156.475 328.234 156.141C329.066 155.704 329.901 155.265 330.684 154.743C332.634 153.438 334.231 151.609 335.259 149.499C335.615 149.121 336.275 149.477 336.513 149.938C336.749 150.399 336.809 150.966 337.175 151.335C337.738 151.901 338.966 152.026 338.872 152.817C338.835 153.13 338.568 153.356 338.351 153.585C337.592 154.386 337.275 155.585 337.547 156.657C337.817 157.728 338.662 158.636 339.712 158.98C338.751 159.073 337.51 159.448 337.508 160.415C337.505 161.023 338.047 161.665 337.712 162.174C337.367 162.704 336.437 162.455 336.026 162.938C335.694 163.325 335.901 163.906 335.971 164.409C336.144 165.669 335.168 166.976 333.911 167.165C333.38 167.246 332.762 167.102 332.493 166.637C332.354 166.393 332.33 166.099 332.218 165.842C331.754 164.809 331.063 165.431 330.383 165.421C329.909 165.414 329.242 165.104 328.606 165.172Z" fill="white"/>
<path d="M347.353 157.773C347.465 157.735 347.578 157.698 347.69 157.66C347.45 157.502 347.125 157.551 346.889 157.717C346.656 157.884 346.489 158.127 346.298 158.342C345.633 159.084 344.61 159.487 343.617 159.399C342.994 159.343 342.372 159.107 341.756 159.225C341.003 159.371 340.432 160.044 340.209 160.779C340.094 161.149 340.204 161.713 340.589 161.682C340.804 161.021 341.403 160.535 342.065 160.325C342.73 160.115 343.445 160.149 344.131 160.273C344.667 160.369 345.206 160.52 345.748 160.449C346.287 160.379 346.84 160.009 346.905 159.467C346.952 159.075 346.743 158.654 346.91 158.296C347.057 157.985 347.471 157.708 347.306 157.406C347.133 157.44 347.531 157.739 347.353 157.773Z" fill="white"/>
<path d="M339.046 166.501C339.294 167.619 339.818 168.786 339.412 169.857C339.862 170.06 340.402 169.68 340.553 169.212C340.705 168.743 340.585 168.233 340.47 167.754C340.352 167.274 340.242 166.762 340.407 166.297C340.446 166.19 340.511 166.076 340.624 166.052C340.679 166.04 340.737 166.052 340.789 166.068C341.399 166.242 341.815 166.821 342.009 167.425C342.2 168.029 342.213 168.672 342.299 169.299C342.352 169.69 342.462 170.117 342.789 170.337C343.331 170.699 344.1 170.215 344.302 169.597C344.506 168.979 344.341 168.31 344.255 167.666C344.134 166.771 344.069 165.691 343.276 165.257C342.948 165.079 342.493 164.999 342.388 164.643C342.263 164.215 342.77 163.886 343.197 163.759C343.587 163.645 343.985 163.562 344.388 163.513C344.867 163.454 345.487 163.318 345.537 162.837C345.587 162.337 344.956 162.088 344.461 162.004C343.865 161.903 343.257 161.802 342.658 161.879C342.058 161.956 341.456 162.241 341.14 162.756C341.072 162.864 341.009 162.991 340.891 163.038C340.726 163.106 340.54 162.983 340.441 162.833C340.344 162.683 340.294 162.502 340.179 162.363C338.886 160.762 338.949 166.067 339.046 166.501Z" fill="white"/>
<path d="M349.825 165.383C349.166 165.228 348.469 165.244 347.818 165.429C347.7 165.463 347.561 165.528 347.556 165.65C347.551 165.781 347.697 165.858 347.825 165.892C348.451 166.063 349.139 165.991 349.715 165.695C349.629 165.437 349.289 165.304 349.048 165.433" fill="white"/>
<path d="M352.656 165.036C352.324 164.867 351.894 164.915 351.609 165.156C351.326 165.395 351.206 165.811 351.316 166.165C351.975 166.332 352.64 165.554 353.271 165.811C353.682 165.98 353.891 166.547 354.339 166.571C354.716 166.591 354.986 166.058 354.745 165.766C354.541 165.519 354.151 165.521 353.904 165.317C353.454 164.945 353.734 164.225 354.041 163.73C353.538 163.621 353.164 164.209 353.098 164.717C353.069 164.94 353.067 165.175 352.962 165.376C352.86 165.576 352.611 165.726 352.405 165.632" fill="white"/>
<path d="M349.852 161.939C349.844 162.122 349.839 162.314 349.925 162.477C350.006 162.64 350.211 162.758 350.378 162.684C350.504 162.628 350.567 162.488 350.622 162.361C350.792 161.95 350.959 161.479 350.771 161.077C350.684 160.897 350.53 160.751 350.465 160.562C350.268 160 350.949 159.693 351.389 159.738C351.284 159.027 350.679 159.53 350.677 158.757C350.677 158.639 352.012 158.129 350.902 157.943C349.452 157.699 349.886 160.996 349.852 161.939Z" fill="white"/>
<path d="M355.861 161.056C355.191 161.107 354.458 161.089 353.932 160.67C353.434 161.082 353.762 161.942 354.306 162.285C354.853 162.629 355.536 162.688 356.102 162.997C356.67 163.305 357.096 164.089 356.683 164.585C357.138 164.703 357.591 164.821 358.047 164.938C358.151 165.365 357.667 165.672 357.301 165.914C356.934 166.157 356.636 166.754 357.018 166.972C357.193 167.351 357.759 167.289 358.125 167.09C358.494 166.889 358.887 166.601 359.287 166.723C359.546 166.802 359.722 167.036 359.913 167.231C360.717 168.048 361.939 168.244 362.968 168.748C363.999 169.252 364.928 170.473 364.371 171.474C364.159 171.853 363.779 172.102 363.494 172.427C363.208 172.753 363.017 173.254 363.263 173.611C364.169 173.673 365.093 173.384 365.802 172.818C366.53 173.598 367.391 174.326 368.433 174.553C369.477 174.779 370.726 174.351 371.132 173.365C371.213 173.17 371.268 172.948 371.43 172.813C371.661 172.625 371.998 172.687 372.283 172.768C373.163 173.015 374.019 173.333 374.846 173.718C375.003 173.791 375.171 173.879 375.247 174.036C375.354 174.264 375.223 174.526 375.186 174.775C375.055 175.7 376.197 176.233 377.118 176.396C378.364 176.617 379.631 176.73 380.898 176.737C380.94 176.102 380.254 175.668 379.634 175.528C379.013 175.389 378.314 175.369 377.843 174.942C377.286 174.44 377.233 173.531 376.65 173.061C376.212 172.709 375.44 172.475 375.558 171.926C375.686 171.337 376.72 171.414 376.919 170.845C377.042 170.494 376.736 170.121 376.388 169.989C376.04 169.858 375.652 169.882 375.286 169.812C374.372 169.639 373.618 168.818 373.524 167.892C373.49 167.541 373.537 167.171 373.393 166.848C373.179 166.361 372.616 166.148 372.108 165.984C369.404 165.113 366.703 164.242 364.002 163.371C363.614 163.246 363.19 163.121 362.808 163.256C361.769 163.619 361.842 165.483 360.761 165.679C360.201 165.782 359.704 165.333 359.311 164.921C358.923 164.517 358.369 163.936 358.319 163.345C358.285 162.938 358.701 162.584 358.662 162.225C358.507 160.848 356.926 160.975 355.861 161.056Z" fill="white"/>
<path d="M376.873 169.577C376.952 169.696 377.096 169.747 377.232 169.785C378.358 170.095 379.598 169.968 380.637 169.434C380.973 169.263 381.3 169.046 381.674 169.007C381.917 168.981 382.166 169.033 382.41 169.008C382.656 168.982 382.92 168.841 382.965 168.599C383.012 168.362 382.836 168.088 382.978 167.891C383.124 167.685 383.485 167.766 383.648 167.571C383.828 167.356 383.611 167.041 383.407 166.847C382.572 166.06 381.763 165.21 380.87 164.496C380.792 165.621 381.614 166.918 380.732 167.881C380.221 168.442 376.606 169.161 376.873 169.577Z" fill="white"/>
<path d="M387.946 173.087C388.354 173.223 388.788 173.284 389.189 173.445C389.589 173.606 389.972 173.895 390.092 174.311C390.089 174.291 390.087 174.273 390.084 174.254C389.943 173.148 388.82 172.457 387.823 171.936C387.692 171.868 387.553 171.792 387.482 171.662C387.438 171.579 386.105 172.479 387.946 173.087Z" fill="white"/>
<path d="M391.476 173.373C392.094 173.636 392.887 173.538 393.355 174.02C393.813 174.495 393.717 175.301 394.107 175.833C394.29 176.085 394.57 176.253 394.769 176.491C394.97 176.729 395.078 177.106 394.876 177.342C394.625 177.639 394.099 177.455 393.905 177.118C393.711 176.78 393.73 176.368 393.683 175.981C393.635 175.594 393.468 175.166 393.099 175.04C392.745 174.92 392.274 175.107 392.026 174.826C391.942 174.733 391.91 174.606 391.863 174.489C391.505 173.538 390.29 173.069 390.078 172.105C390.562 172.478 390.858 173.11 391.476 173.373Z" fill="white"/>
<path d="M355.312 171.785C354.692 172.312 354.129 172.909 353.64 173.56C354.011 173.742 354.501 173.646 354.776 173.335C355.051 173.025 355.087 172.529 354.859 172.181" fill="white"/>
<path d="M359.42 169.198C359.786 169.472 360.113 169.861 360.127 170.319C360.14 170.775 359.689 171.243 359.255 171.099C359.339 170.444 359.425 169.79 359.509 169.135" fill="white"/>
<path d="M355.483 179.13C355.163 178.457 354.216 178.177 353.58 178.567C354.135 179.03 354.187 179.974 353.687 180.496C353.433 180.763 353.08 180.911 352.787 181.137C351.821 181.882 351.779 183.539 352.705 184.332C352.258 184.564 351.81 184.797 351.36 185.03C351.046 183.851 350.145 182.845 349.009 182.402C347.462 183.372 346.308 184.953 345.861 186.722C345.68 186.753 345.499 186.785 345.321 186.816C345.238 187.339 345.156 187.863 345.073 188.386C344.675 187.854 344.515 187.152 344.641 186.5C343.706 186.685 343.18 187.679 342.924 188.596C342.667 189.513 342.513 190.527 341.837 191.199C341.343 191.691 340.646 191.912 339.982 192.117C338.955 192.431 337.932 192.745 336.909 193.059C336.066 193.318 335.147 193.633 334.689 194.39C334.32 195.003 334.084 195.983 333.372 195.897C333.074 195.861 332.841 195.615 332.548 195.54C331.943 195.388 331.404 196.053 331.378 196.675C331.351 197.297 331.645 197.881 331.807 198.483C331.969 199.084 331.956 199.825 331.467 200.211C332.035 200.245 332.618 200.467 332.956 200.927C333.291 201.387 333.288 202.106 332.857 202.477C332.425 202.847 331.605 202.636 331.506 202.075C332.752 205.469 333.631 208.996 334.126 212.578C334.33 214.042 334.448 215.618 333.736 216.914C334.972 217.844 336.772 217.941 338.099 217.15C338.843 216.707 339.429 216.023 340.209 215.643C341.563 214.981 343.209 215.365 344.651 214.927C345.973 214.527 347.052 213.462 348.41 213.223C349.439 213.042 350.58 213.339 351.48 212.812C351.904 212.563 352.216 212.156 352.627 211.883C353.082 211.576 353.64 211.452 354.19 211.42C356.373 211.295 358.611 212.798 359.103 214.927C359.226 215.46 359.247 216.02 359.456 216.525C359.666 217.03 360.142 217.486 360.689 217.437C360.825 215.769 362.411 214.353 364.084 214.405C364.165 214.943 363.78 215.435 363.369 215.792C362.961 216.15 362.485 216.474 362.273 216.974C362.058 217.474 362.299 218.207 362.841 218.246C363.115 217.728 363.492 217.264 363.945 216.892C364.799 217.65 364.398 219.32 363.293 219.608C364.351 219.294 365.851 219.189 366.207 220.234C366.306 220.53 366.275 220.851 366.304 221.162C366.458 222.777 368.149 223.721 369.628 224.387C369.929 224.522 370.251 224.66 370.576 224.606C371.136 224.512 371.434 223.919 371.759 223.455C372.086 222.99 372.751 222.584 373.177 222.958C373.549 223.282 373.395 223.92 373.688 224.314C374.083 224.848 374.968 224.562 375.4 224.059C375.834 223.555 376.091 222.88 376.653 222.525C377.7 221.865 379.596 222.381 379.907 221.183C380.075 220.532 379.525 219.933 379.347 219.285C379.069 218.272 379.724 217.238 380.475 216.503C381.226 215.769 382.132 215.135 382.58 214.184C383.323 212.594 382.54 210.701 382.841 208.971C383.142 207.234 384.519 205.507 383.797 203.898C383.514 203.266 382.941 202.792 382.703 202.142C382.475 201.515 382.569 200.754 382.142 200.241C381.873 199.916 381.449 199.766 381.106 199.519C379.965 198.697 379.933 197.056 379.499 195.721C378.706 193.287 376.423 191.705 374.842 189.691C374.552 189.319 374.277 188.919 374.151 188.463C374.007 187.933 374.073 187.371 374.031 186.823C373.923 185.489 373.122 184.23 371.955 183.573C371.701 183.429 371.421 183.306 371.243 183.074C370.989 182.746 371.005 182.293 370.992 181.879C370.942 180.318 370.322 178.781 369.275 177.621C368.584 181.048 367.89 184.473 367.196 187.9C366.796 188.206 366.306 188.395 365.804 188.44C365.602 187.565 365.403 186.69 365.202 185.815C364.215 185.866 363.178 185.907 362.291 185.471C361.404 185.034 360.754 183.945 361.15 183.04C361.367 182.545 361.859 181.995 361.534 181.562C362.419 181.894 363.191 180.458 362.545 179.771C361.524 178.689 360.409 180.258 359.359 180.201C358.053 180.13 356.886 178.305 355.483 179.13Z" fill="white"/>
<path d="M339.942 134.901C339.866 135.123 339.788 135.35 339.793 135.585C339.806 136.389 340.733 136.935 340.801 137.736C340.83 138.055 340.712 138.37 340.715 138.69C340.715 139.01 340.911 139.38 341.23 139.383C341.508 139.386 341.699 139.124 341.898 138.931C342.094 138.738 342.46 138.614 342.618 138.843C342.686 138.944 342.678 139.077 342.667 139.199C342.584 140.057 342.348 140.898 341.979 141.677C342.442 141.861 342.981 141.562 343.238 141.136C343.494 140.71 343.536 140.193 343.573 139.698C343.591 139.451 343.607 139.193 343.508 138.966C343.358 138.625 342.987 138.443 342.746 138.16C342.293 137.634 342.34 136.832 342.594 136.186C342.845 135.541 343.269 134.973 343.526 134.329C343.594 134.161 343.649 133.981 343.623 133.802C343.597 133.617 343.484 133.457 343.403 133.289C343.201 132.872 343.178 132.393 343.091 131.938C342.317 127.958 340.183 134.202 339.942 134.901Z" fill="white"/>
<path d="M347.554 141.097C347.638 141.835 347.329 142.607 346.755 143.081C346.627 143.188 346.483 143.285 346.402 143.432C346.13 143.936 346.766 144.415 347.221 144.761C348.656 145.845 348.829 148.232 347.569 149.513C347.449 149.634 347.318 149.749 347.245 149.901C347.172 150.05 347.161 150.221 347.161 150.388C347.151 151.14 347.287 151.895 347.554 152.599C346.808 152.973 345.876 152.356 345.591 151.571C345.308 150.787 345.47 149.92 345.606 149.097C345.659 148.792 345.698 148.451 345.525 148.193C345.242 147.777 344.562 147.863 344.209 148.221C343.858 148.579 343.737 149.096 343.599 149.578C343.46 150.06 343.25 150.571 342.811 150.814C342.478 149.14 343.85 147.331 345.554 147.204C345.928 147.177 346.321 147.213 346.656 147.044C346.988 146.875 347.187 146.378 346.912 146.125C346.585 146.136 346.457 145.703 346.486 145.38C346.515 145.057 346.57 144.661 346.308 144.47C346.038 144.274 345.643 144.477 345.465 144.758C345.287 145.039 345.232 145.383 345.057 145.667C344.795 146.093 344.261 146.331 343.769 146.241C343.74 145.5 344.182 144.762 344.847 144.433C344.256 144.224 343.646 143.887 343.415 143.304C343.185 142.721 343.591 141.897 344.214 141.948C344.436 142.521 344.659 143.095 344.884 143.667C345.368 143.971 346.051 143.665 346.334 143.168C346.617 142.671 346.593 142.06 346.515 141.494C347.145 141.817 347.87 140.928 347.611 140.268C347.462 139.889 347.114 139.626 346.763 139.576C347.161 139.982 347.488 140.527 347.554 141.097Z" fill="white"/>
<path d="M252.821 31.4928C253.253 31.1863 252.926 30.4423 252.423 30.2745C251.923 30.1068 251.379 30.2701 250.85 30.2868C250.321 30.3028 249.685 30.0529 249.627 29.5274C249.612 29.3717 249.651 29.2154 249.711 29.0715C250.08 28.1961 251.12 27.847 251.797 27.1828C252.855 26.1493 252.949 24.4488 253.876 23.2968C255.158 21.7041 257.582 21.6352 259.226 20.4162C259.742 20.0337 260.171 19.5417 260.708 19.1865C262.098 18.267 263.901 18.4198 265.566 18.3756C267.749 18.3173 269.919 17.8553 271.937 17.0205C271.51 19.0425 269.089 19.7996 267.084 20.3049C265.736 20.645 264.401 21.039 263.084 21.4842C261.407 22.0504 259.729 22.7182 258.357 23.8348C256.988 24.9514 255.946 26.59 255.92 28.3586C255.907 29.2869 257.017 31.2931 256.402 32.0123C255.679 32.8583 253.614 31.8461 252.821 31.4928Z" fill="white"/>
<path d="M303.855 7.88254C303.35 8.0442 302.845 8.20585 302.34 8.3675C302.806 9.08481 303.769 9.43552 304.586 9.18462C305.442 8.92226 306.277 8.08395 307.08 8.47881C307.29 8.86485 306.816 9.24824 306.431 9.45847C306.046 9.66872 305.635 10.1678 305.949 10.4752C306.025 10.5494 306.127 10.5874 306.23 10.6201C307.991 11.1855 310.001 10.7049 311.69 11.469C312.219 11.7093 312.734 12.0759 313.318 12.0503C313.899 12.0247 314.443 11.2879 314.043 10.8666C313.781 10.591 313.245 10.5865 313.14 10.2217C312.949 9.55122 314.53 9.28093 314.221 8.65551C313.077 8.69084 311.933 8.72617 310.792 8.7615C310.402 8.77299 309.928 8.73588 309.758 8.38606C309.664 8.18819 309.7 7.93643 309.57 7.75975C309.407 7.54421 309.091 7.54952 308.821 7.5769C308.216 7.63785 307.614 7.6988 307.01 7.75975C308.331 7.62636 310.064 6.92322 311.389 6.60166C309.63 4.60965 304.544 4.84995 303.855 7.88254Z" fill="white"/>
<path d="M319.826 10.785C319.797 10.0421 318.771 9.71615 318.098 10.0351C317.428 10.3539 317.023 11.0359 316.567 11.6233C316.02 12.3274 315.358 12.9316 314.698 13.5323C316.431 13.3088 318.161 13.0853 319.894 12.8627C320.562 12.7761 321.365 12.5844 321.564 11.9405C320.891 11.4829 320.109 11.194 319.3 11.1048" fill="white"/>
<path d="M365.233 21.2843C365.453 21.1518 365.654 20.9778 365.9 20.9063C366.887 20.6201 367.733 22.0758 368.733 21.8391C369.157 21.7393 369.455 21.3559 369.861 21.2013C370.808 20.84 371.868 21.8329 372.769 21.2216C373.941 20.4239 373.436 19.7402 372.512 19.3798C371.664 19.0485 370.35 19.3975 369.395 19.1228C368.688 18.9196 368.076 18.5282 367.405 18.242C365.83 17.5689 363.335 16.4417 362.262 18.4735C361.299 20.2985 363.435 22.3621 365.233 21.2843Z" fill="white"/>
<path d="M379.215 20.7873C378.513 20.2148 377.702 19.7793 376.838 19.5152C376.715 19.4772 376.587 19.4428 376.459 19.449C376.001 19.4693 375.707 20.0426 375.857 20.479C376.006 20.9153 376.456 21.1901 376.909 21.2767C377.362 21.3632 377.828 21.3005 378.288 21.2687C379.254 21.2025 380.233 21.2802 381.178 21.4984C381.356 20.8933 380.759 20.2838 380.134 20.1998C379.511 20.1159 378.898 20.3915 378.328 20.6609" fill="white"/>
<path d="M370.318 24.3041C369.782 24.0471 369.206 23.8695 368.62 23.7776C368.308 23.7291 367.847 23.8563 367.923 24.1628C367.957 24.2944 368.086 24.3748 368.203 24.4402C369.01 24.8774 369.868 25.2211 370.753 25.4613C371.161 25.5726 371.729 25.5833 371.865 25.1831C371.962 24.9022 371.758 24.6071 371.53 24.419C370.97 23.9605 370.18 23.7997 369.486 24.002" fill="white"/>
<path d="M198.218 11.6318C198.97 12.0743 199.886 12.1574 200.662 12.5558C201.572 13.0213 202.243 13.9294 202.421 14.9356C202.529 15.5522 202.475 16.2297 202.818 16.7535C203.316 17.5141 204.509 17.568 205.235 17.0194C205.96 16.4708 206.261 15.5062 206.258 14.5972C206.253 13.8826 206.13 13.0549 206.64 12.5567C206.86 12.3429 207.161 12.2378 207.452 12.1406C208.02 11.9507 208.619 11.7652 209.211 11.8667C209.8 11.9675 210.373 12.4507 210.36 13.0505C210.344 13.773 209.535 14.4435 209.854 15.0919C210.998 15.076 212.142 15.0601 213.286 15.0442C213.681 14.6441 213.404 13.9241 212.935 13.6105C212.469 13.2969 211.883 13.2262 211.367 12.9983C210.854 12.7704 210.37 12.251 210.514 11.7068C210.729 10.8862 211.894 10.9904 212.742 11.0205C215.001 11.1017 217.087 8.97283 216.956 6.71671C214.951 6.41018 213.959 8.60446 212.294 9.17777C210.917 9.65124 210.163 8.85093 208.904 8.9693C207.562 9.09562 207.242 9.95249 206.206 10.2007C204.595 10.5859 203.435 9.78817 201.767 9.56645C200.465 9.39153 194.808 9.62651 198.218 11.6318Z" fill="white"/>
<path d="M177.994 2.05205C176.718 4.26311 174.556 5.94594 172.099 6.64027C170.94 6.96711 169.652 7.11994 168.778 7.94677C168.237 8.45913 167.932 9.16581 167.64 9.85132C167.067 11.2011 166.484 12.5915 166.453 14.0579C166.422 15.5243 167.071 17.102 168.391 17.7416C166.552 18.6523 166.372 21.6929 168.091 22.8139C167.389 24.5647 164.451 23.5868 163.063 24.865C161.986 25.8587 162.404 27.6388 163.053 28.9534C163.702 30.2669 164.526 31.7369 164.003 33.1061C162.031 32.3375 160.058 31.5681 158.086 30.7994C157.341 32.4073 159.482 34.4002 161.033 33.5434C159.541 36.228 155.559 35.6988 152.763 36.9691C149.778 38.325 148.171 41.8125 145.153 43.0943C143.668 43.725 141.979 43.7525 140.499 44.3963C139.019 45.0403 137.74 46.7479 138.436 48.2038C138.574 48.4916 138.787 48.7753 138.749 49.0915C138.709 49.4244 138.412 49.6549 138.156 49.8724C135.732 51.9385 135.705 55.6071 135.874 58.7873C135.01 59.434 133.791 58.556 133.314 57.5869C132.838 56.6186 132.593 55.4297 131.681 54.8529C130.773 54.2777 129.554 54.5524 128.56 54.1434C127.654 53.7697 127.073 52.8927 126.548 52.0639C125.565 50.511 124.583 48.9572 123.599 47.4043C122.771 46.096 121.924 44.7383 121.692 43.2081C121.461 41.6774 122.013 39.9159 123.388 39.203C124.359 38.6995 125.937 37.9379 125.234 37.1005C125.076 36.9134 124.835 36.8241 124.605 36.7419C122.822 36.1086 121.039 35.4753 119.257 34.8417C119.951 32.6944 122.441 31.3056 124.633 31.8436C125.44 30.554 123.573 29.1397 122.053 29.1643C120.531 29.19 118.836 29.7422 117.601 28.8526C118.75 27.2518 118.69 24.9852 117.764 23.2458C116.839 21.5065 115.173 20.2539 113.369 19.4597C112.565 19.1055 111.711 18.8281 110.833 18.8157C109.445 18.7954 108.114 19.4323 106.727 19.4412C104.762 19.4535 102.968 18.1797 101.842 16.5702C100.715 14.9607 100.138 13.0403 99.5791 11.1569C101.161 12.0315 103.248 12.0809 104.721 11.0306C106.192 9.98028 106.798 7.76831 105.836 6.23656C107.837 5.78868 109.838 5.34083 111.838 4.89295C112.344 4.77989 112.861 4.66152 113.3 4.38503C113.859 4.03079 114.236 3.45219 114.743 3.02729C115.716 2.21282 117.057 2.03967 118.319 1.89922C121.696 1.52379 125.072 1.14836 128.448 0.772925C129.096 0.700488 129.764 0.629818 130.395 0.797659C132.054 1.23934 133.558 3.2499 135.048 2.39478C135.107 1.7411 134.912 1.06709 134.511 0.547669C136.41 -0.3251 138.603 -0.0574397 140.693 -0.0274066C144.904 0.0344287 149.071 -0.939924 153.281 -1.00176C157.412 -1.06271 161.554 -0.230583 165.341 1.42132C164.074 2.29674 162.628 2.91067 161.118 3.21368C162.104 3.15183 163.103 3.32233 164.013 3.7057C163.289 3.40006 160.008 5.98834 159.486 6.45474C161.271 7.84164 165.193 4.9707 167.038 4.09174C170.53 2.42749 174.095 1.47608 177.994 2.05205Z" fill="white"/>
<path d="M171.661 47.0526C170.715 47.4397 169.832 47.9759 169.052 48.6349C168.329 49.246 167.521 50.0172 166.593 49.8317C165.651 49.6427 165.206 48.5941 164.793 47.7268C164.379 46.8592 163.541 45.9247 162.632 46.2374C163.126 45.6428 163.62 45.0475 164.114 44.4529C162.937 44.2815 161.76 44.1093 160.582 43.9378C160.294 43.8965 159.98 43.84 159.791 43.6191C159.349 43.1033 160.008 42.3391 160.66 42.1465C162.125 41.7136 163.74 42.3718 164.841 43.4317C165.301 43.8753 165.887 44.4361 166.476 44.187C166.866 44.0218 167.032 43.5722 167.293 43.2391C167.917 42.4406 169.084 42.3354 170.092 42.4529C171.794 42.6518 175.191 41.4045 175.856 43.4406C176.601 45.7232 173.029 46.4926 171.661 47.0526Z" fill="white"/>
<path d="M25.0394 31.3765C20.5872 33.2288 15.969 35.0741 11.1475 35.0149C9.05711 34.9893 6.9895 34.6041 4.93525 34.2199C0.467077 33.385 -4.04768 32.5361 -8.20488 30.6979C-9.31551 30.2067 -10.4314 29.638 -11.6436 29.5636C-12.9982 29.4807 -14.3067 30.0284 -15.5223 30.6309C-19.2067 32.4584 -22.5818 34.9089 -25.4603 37.8471C-22.4661 38.3179 -19.6829 40.0114 -17.8885 42.4539C-19.3031 43.14 -21.2105 42.5086 -21.9361 41.1137C-23.8356 40.5625 -26.0488 42.0642 -26.237 44.0332C-26.4252 46.0023 -24.5363 47.8962 -22.5669 47.7144C-21.868 46.7877 -20.7875 46.1578 -19.636 46.0075C-19.0937 46.9201 -18.5521 47.8334 -18.0095 48.746C-18.9557 49.8883 -20.6194 50.0058 -22.0659 50.3335C-23.5124 50.6611 -25.1415 51.6805 -24.9745 53.1541C-24.6963 55.6089 -19.9815 55.8157 -20.1883 58.2775C-20.1184 57.4419 -10.3722 56.7908 -15.0859 62.3852C-15.8246 63.2617 -16.9352 63.8958 -18.0767 63.795C-17.7595 64.6926 -17.8309 65.8091 -18.5379 66.4479C-19.2447 67.0865 -20.6302 66.8559 -20.8519 65.931C-21.6073 67.545 -23.689 67.9276 -25.4622 68.1024C-25.6726 68.8153 -25.8828 69.5289 -26.093 70.2418C-26.2362 69.3523 -27.4122 68.826 -28.18 69.2976C-28.9477 69.7702 -29.0202 71.0361 -28.3224 71.6058C-27.673 72.1358 -26.7275 72.0078 -25.904 71.8516C-25.5964 71.7932 -25.2457 71.7021 -25.1122 71.4187C-25.0311 71.2447 -25.0557 71.0431 -25.0496 70.8516C-25.0188 69.9152 -24.1987 69.173 -23.3223 68.8401C-22.4457 68.5078 -21.4879 68.4698 -20.5755 68.2578C-19.0662 67.9064 -17.7064 67.0794 -16.4997 66.1087C-15.1856 65.0512 -14.0036 63.7995 -12.5139 63.0089C-11.943 62.7058 -11.3344 62.4744 -10.7847 62.1345C-6.7435 59.6292 -9.32075 55.2917 -3.34173 54.5461C-3.25692 55.3757 -3.82676 56.2247 -4.62642 56.4613C-2.7109 57.8766 -0.61528 53.4208 1.62901 54.2193C2.26168 54.4446 2.6708 55.0462 3.2142 55.4393C4.22223 56.1682 5.56974 56.1169 6.80836 56.2221C11.7438 56.6416 16.2454 60.3005 17.6644 65.0452C19.8228 64.4082 21.6201 66.7138 22.6946 68.6907C24.4688 71.9547 26.2419 75.2197 28.0161 78.4836C29.1427 80.5561 30.2797 82.656 30.8647 84.9412C31.7013 88.2096 31.3647 91.6858 32.1466 94.9673C32.9287 98.2491 35.4565 101.588 38.8297 101.499C39.3768 106.641 40.8821 111.68 43.2476 116.279C42.0946 117.448 43.9499 119.182 45.527 119.641C47.1041 120.099 49.1814 121.268 48.4922 122.759C50.353 120.689 47.9841 117.568 45.7189 115.95C43.4534 114.333 40.7939 111.654 42.2121 109.259C42.9851 108.479 44.3386 109.388 44.7027 110.424C45.0668 111.459 45.0341 112.685 45.7647 113.503C46.4052 114.22 47.4417 114.401 48.2686 114.891C51.2657 116.67 50.6367 121.725 53.5372 123.657C54.5966 124.362 55.9899 124.526 56.9081 125.407C57.5672 126.041 57.8745 126.945 58.3056 127.751C59.8291 130.598 62.8932 132.21 65.7814 133.656C66.6234 134.078 67.4655 134.499 68.3084 134.921C73.1317 137.336 77.9548 139.75 82.7782 142.164C83.242 142.396 83.7776 142.633 84.26 142.442C86.2425 141.658 82.1932 138.132 83.8765 136.826C81.5076 135.684 79.1388 134.542 76.7701 133.4C78.2483 132.081 78.4443 129.566 77.1879 128.034C78.0619 127.828 78.7854 127.088 78.9728 126.211C77.9292 125.126 76.0199 126.023 75.2098 127.291C74.3994 128.559 74.0735 130.154 72.9815 131.189C70.5092 133.533 66.1347 131.046 65.1788 127.777C64.2229 124.507 65.3168 121.042 65.6816 117.655C65.829 116.287 65.945 114.728 67.0281 113.879C69.5056 111.939 73.1529 116.03 76.0278 114.751C77.1287 114.261 77.7774 113.09 78.8137 112.477C80.6012 111.42 83.0319 112.4 84.2705 114.066C85.5083 115.733 85.8557 117.877 86.1666 119.93C86.7514 120.889 88.3772 119.829 88.2861 118.709C88.1952 117.59 87.2718 116.75 86.6632 115.806C85.1081 113.395 85.8133 109.809 88.1651 108.166C90.2555 106.705 93.6997 106.133 93.8348 103.587C93.9222 101.941 92.3585 100.592 92.2941 98.9444C92.2365 97.4948 93.3348 96.2881 94.3588 95.2607C97.2533 92.3552 100.147 89.4498 103.041 86.5454C103.721 85.8634 104.542 85.1275 105.499 85.2353C106.456 85.3432 106.989 86.9244 106.079 87.2379C109.491 87.3695 114.063 86.5462 114.338 83.1435C112.959 84.3521 111.324 85.2654 109.573 85.8051C109.391 84.1851 109.866 82.4995 110.869 81.2135C109.598 79.0235 106.557 78.4211 104.14 79.1745C101.722 79.929 99.7847 81.7089 97.9344 83.4385C100.713 80.1604 104.432 77.4141 108.701 76.915C110.309 76.7268 112.033 76.8388 113.432 76.0236C115.378 74.8894 117.1 72.0316 119.062 73.1394C117.63 75.6517 116.198 78.1641 114.766 80.6754C116.31 80.5605 117.854 80.4456 119.398 80.331C120.026 81.4016 120.331 82.6568 120.267 83.8954C122.156 83.7638 124.755 82.5191 123.912 80.8238C123.483 79.9625 122.363 79.7461 121.62 79.1366C119.575 77.4617 121.167 74.02 120.143 71.5838C119.631 70.3656 118.513 69.5318 117.49 68.6944C113.145 65.1334 109.739 60.4384 107.704 55.2025C107.207 56.4456 106.662 57.7528 105.588 58.5505C104.513 59.3492 102.739 59.3623 102.032 58.2254C101.645 57.6026 101.666 56.8164 101.465 56.1106C101.007 54.5119 99.4798 53.4993 98.0626 52.6284C96.3432 51.5711 94.3172 50.4738 92.4098 51.133C90.5021 51.792 90.0595 55.2255 92.0535 55.5419C90.1964 55.6089 90.2574 58.4939 91.3167 60.0212C92.376 61.5488 93.8649 63.4506 92.8498 65.0072C91.9493 66.3869 89.6681 66.2519 88.7614 67.6271C87.8877 68.9532 88.8376 70.6616 89.5019 72.1041C90.1663 73.5466 90.1487 75.8151 88.591 76.1233C87.2605 76.3866 86.2957 74.8452 86.0465 73.5121C85.6549 71.4132 85.9316 69.1377 84.9508 67.2419C83.97 65.3453 80.8203 64.4524 79.8332 66.3453C79.2916 64.416 77.7279 62.8065 75.815 62.2093C74.2599 61.7236 72.5292 61.8712 71.0518 61.1822C68.8429 60.1521 67.8516 57.6115 67.0627 55.3059C69.9464 53.6577 73.0194 51.8017 74.3041 48.7397C74.6497 47.9156 74.8758 46.9926 75.5286 46.382C76.1163 45.8327 76.9521 45.6367 77.6059 45.1675C78.2598 44.6985 78.6768 43.6666 78.0891 43.1173C78.9364 42.5996 79.9719 42.3999 80.9509 42.5643C82.6253 44.8354 77.491 48.7044 79.9083 50.1595C81.2116 50.9438 82.6201 49.3325 83.2933 47.9695C84.3464 48.3945 85.3997 48.8185 86.4527 49.2435C87.8107 48.1402 86.2161 46.0306 84.6602 45.2292C83.1041 44.4282 81.1339 42.9856 81.9142 41.4193C83.3064 41.3947 84.699 41.3691 86.0915 41.3442C86.1789 40.0148 85.2963 38.6801 84.038 38.2391C84.7555 37.1342 85.4722 36.0283 86.1894 34.9231C85.5384 34.2057 84.4817 33.8841 83.5407 34.1157C86.3601 33.7004 89.1132 32.8391 91.6659 31.5725C93.7555 33.9566 95.7212 36.4496 97.5527 39.036C97.8469 39.4513 98.1493 39.907 98.1386 40.4149C98.1147 41.5253 96.7727 41.9998 95.8024 42.5421C94.8323 43.0835 94.2465 44.8045 95.3236 45.0782C95.176 45.8997 93.9426 45.8919 93.2489 45.4289C92.5556 44.9652 91.9177 44.2363 91.0845 44.285C89.509 44.3761 89.7679 47.1533 91.2753 47.6233C92.7825 48.0923 94.3227 47.1198 95.6019 46.1957C98.5469 48.852 102.057 50.8776 105.831 52.0976C104.308 51.7805 103.199 50.1294 103.48 48.6002C105.247 49.109 106.93 49.9077 108.443 50.9545C109.726 49.3927 108.081 47.1242 106.399 46.0041C104.716 44.884 102.609 43.497 102.873 41.4926C105.081 41.4387 107.271 42.6975 108.335 44.6323C109.172 43.4431 110.01 42.2534 110.847 41.0642C109.9 37.9353 103.863 38.8939 103.234 35.6854C103.113 35.0662 103.235 34.356 102.847 33.8577C102.244 33.0838 101.038 33.4628 100.057 33.4329C96.6251 33.3259 94.5478 27.5797 91.3803 28.9055C92.704 26.4269 88.9391 23.2891 86.7383 25.0364C87.9468 25.486 89.2624 26.1097 89.7024 27.3216C90.1435 28.5336 88.8577 30.191 87.733 29.5592C86.5959 28.9206 87.1385 27.1193 86.5111 25.9762C85.7468 24.5841 83.447 24.8615 82.522 26.1521C81.5969 27.4428 81.7126 29.2014 82.0827 30.7465C81.3187 30.728 80.5543 30.7086 79.7908 30.69C79.623 28.5291 80.0436 26.3253 80.9951 24.3783C80.0991 23.0426 78.0645 24.3253 77.0793 25.5965C76.0438 26.9322 74.9766 28.3339 74.6541 29.9921C74.3306 31.651 75.0083 33.636 76.589 34.2332C77.6033 34.6166 78.7749 34.3719 79.7837 34.7695C82.0916 35.6784 81.1826 39.9847 78.7032 39.8842C77.9373 38.6254 77.4892 37.1756 77.4114 35.704C76.217 36.0539 75.1038 36.6757 74.1795 37.5087C72.9681 34.5185 71.2824 31.7209 69.2051 29.2527C69.6991 28.2978 70.193 27.3428 70.6869 26.3879C72.675 27.2573 75.2229 25.1292 74.7211 23.0179C73.0689 22.555 71.3327 22.0886 69.6585 22.4667C67.984 22.8439 66.436 24.3739 66.6695 26.0736C66.8098 27.0929 67.5336 27.9393 67.8003 28.9329C68.0681 29.9266 67.4707 31.3155 66.4557 31.1485C65.9253 33.5635 71.0437 33.6211 71.2727 36.0837C71.4335 37.8107 69.0894 38.4901 67.355 38.4663C67.8621 40.1305 67.7835 41.9671 67.1367 43.5818C65.8353 41.1393 66.5475 37.8081 68.7335 36.1104C67.4213 34.0935 64.388 33.4583 62.3772 34.7791C63.129 35.9283 64.32 36.7825 65.6489 37.1261C64.9474 37.9389 64.2459 38.7526 63.5444 39.5652C62.0247 38.4726 59.9429 39.3302 58.0742 39.4372C56.2056 39.544 53.9341 37.4804 55.2541 36.1536C54.1301 35.4742 52.6059 35.2421 51.5379 36.0078C50.4705 36.7728 50.3812 38.7162 51.5722 39.2702C49.0895 39.908 44.9739 35.3426 43.1777 38.8408C42.053 35.2816 40.2442 34.2207 36.681 34.0388C34.3157 33.9179 27.3038 32.1671 26.0961 34.1545C25.983 33.9037 24.9925 31.3966 25.0394 31.3765Z" fill="white"/>
<path d="M31.6109 22.0416C30.2652 22.1856 29.515 23.6944 29.3428 25.0362C29.1706 26.378 29.3012 27.8198 28.6402 29.0008C28.4769 29.2924 28.2649 29.5698 28.2128 29.8993C28.0625 30.8427 29.287 31.4459 30.2307 31.2957C32.9802 30.8568 34.7067 27.0998 37.452 27.567C37.4792 28.3039 37.5067 29.0406 37.5331 29.7773C39.3408 29.7933 41.1514 29.5308 42.8803 29.0042C43.4069 29.3452 43.1119 30.2403 42.5499 30.5174C41.9879 30.7959 41.3236 30.7022 40.6988 30.7595C40.0743 30.8171 39.3631 31.1552 39.2958 31.7791C40.5027 31.4292 41.7655 31.0759 42.9996 31.3117C44.2341 31.5475 45.4154 32.5739 45.3745 33.8293C43.6244 33.7508 41.867 33.8143 40.1274 34.02C41.0851 35.1579 42.8229 35.0226 44.3021 35.1825C45.7803 35.3424 47.5359 36.5272 47.0137 37.9192C49.0166 35.8088 52.3582 35.1014 55.0451 36.2178C55.7165 36.4971 56.3536 36.8794 57.0666 37.0226C57.7797 37.1657 58.6225 37.0014 59.0209 36.3937C59.4196 35.786 59.0227 34.7533 58.2964 34.7772C59.2384 34.6473 60.0645 33.8981 60.2844 32.9724C58.6641 33.499 56.7141 32.6013 56.0602 31.029C55.4673 29.6022 55.8191 27.7685 54.7561 26.6476C55.683 26.9266 56.6062 25.8232 56.3819 24.8816C56.1583 23.94 55.143 23.3507 54.1748 23.3269C53.5369 23.311 52.8547 23.523 52.4783 24.038C52.1019 24.553 52.1718 25.3974 52.7239 25.7154C51.9773 25.3524 51.2316 24.9885 50.4851 24.6245C50.1882 26.4513 53.779 27.5416 52.9369 29.1898C52.3998 30.2403 50.5725 29.5776 50.356 28.4178C50.2139 27.6546 50.3895 26.6387 49.6906 26.3011C48.3575 25.6573 47.3848 28.9265 46.1106 28.1731C46.191 27.4398 46.2713 26.7067 46.3509 25.9742C44.7084 25.8436 43.0208 26.4364 41.822 27.5662C41.9712 26.8559 42.1196 26.1456 42.2691 25.4346C40.4868 24.4461 38.7207 27.9477 36.7963 27.2827C38.6474 27.9231 42.7921 24.3065 39.5327 22.7757C38.7516 22.4082 37.1206 22.9815 36.2529 22.9205C34.7279 22.8128 33.1419 21.8782 31.6109 22.0416Z" fill="white"/>
<path d="M39.7084 14.4617C38.4441 13.8301 36.9058 14.5155 35.8339 15.4351C34.7615 16.3556 33.8699 17.5358 32.5886 18.1329C31.9827 18.4156 31.2652 18.5896 30.8906 19.1435C33.0182 19.1144 35.1439 18.9704 37.2565 18.7124C37.1372 19.4306 36.7775 20.1055 36.2485 20.6046C37.2379 20.9659 38.0614 19.7203 38.1975 18.6762C38.2399 18.3511 38.2787 17.9837 38.5375 17.7831C38.7454 17.6215 39.0297 17.6206 39.2904 17.5782C40.1863 17.4342 40.9745 16.5844 40.8659 15.6834C40.7562 14.7823 39.5731 14.1489 38.8425 14.6869" fill="white"/>
<path d="M46.3513 20.3837C46.612 20.2441 46.7552 19.9155 46.6793 19.6293C45.3574 19.6726 44.0984 18.5754 43.9615 17.2601C43.2087 16.7796 42.0583 17.1532 41.7324 17.9845C41.4062 18.8157 41.9954 19.8722 42.8739 20.0312C41.5926 20.5789 40.3116 21.1266 39.0303 21.6743C41.4777 22.9932 44.3811 20.1213 47.1007 20.6973C47.0997 21.0259 47.0981 21.3545 47.0971 21.6831C45.9239 21.6973 44.7672 22.2388 44.0039 23.1301C46.0288 23.3103 48.108 22.8041 49.823 21.7132C50.308 21.4049 50.7894 21.0409 51.3584 20.9605C51.8587 20.8899 52.3578 21.048 52.8578 21.1187C54.0401 21.2856 55.5395 20.616 55.4971 19.4226C54.6992 19.1558 53.8475 19.0516 53.0091 19.1187C52.7518 17.5675 50.8142 16.5622 49.3987 17.2451C49.4217 18.3131 49.9201 19.3625 50.7339 20.0551C49.9298 20.7582 48.6733 20.8855 47.7449 20.3563C47.3038 20.1054 46.8984 19.7123 46.3911 19.7097C45.8469 19.707 45.1391 20.1001 44.8627 19.6311" fill="white"/>
<path d="M47.8767 12.6439C45.8816 12.4062 43.821 12.749 42.0107 13.6191C42.9889 14.0608 43.9679 14.5016 44.9458 14.9433C45.1686 15.044 45.401 15.1465 45.6447 15.142C45.8604 15.1385 46.0653 15.0519 46.2643 14.9663C47.2069 14.5617 48.1505 14.1562 49.0933 13.7507C48.9297 13.5113 48.7664 13.2728 48.6028 13.0334C49.0234 13.3188 49.6587 12.9036 49.6862 12.3965C49.7134 11.8886 49.2849 11.4425 48.7999 11.2923C48.3141 11.1421 47.7882 11.2243 47.2935 11.3418C46.7184 11.4787 46.1538 11.6616 45.6078 11.8895C45.8949 12.4919 46.4622 12.953 47.1097 13.1112C47.1202 13.3488 47.1309 13.5864 47.1414 13.8249" fill="white"/>
<path d="M61.8227 12.943C61.3887 12.965 61.1309 12.45 61.1113 12.0163C61.0919 11.5826 61.1864 11.1153 60.9717 10.7372C60.4451 9.807 59.019 10.496 57.9642 10.3264C57.3367 10.2257 56.8208 9.78755 56.2253 9.56673C55.6298 9.34587 54.7852 9.46956 54.6137 10.0808C54.4221 10.7646 55.2597 11.3149 55.9701 11.329C56.6805 11.3432 57.4129 11.0905 58.088 11.3158C58.2141 11.3582 58.3398 11.42 58.4191 11.526C58.9212 12.1956 57.1177 12.685 57.2839 13.5048C57.3661 13.9076 57.8705 14.0339 58.2788 14.0772C58.8858 14.1426 59.4928 14.207 60.0998 14.2724C60.7315 14.3404 61.4311 14.3908 61.9392 14.0092C62.4473 13.6276 62.4596 12.64 61.8429 12.4871" fill="white"/>
<path d="M65.0354 19.3481C65.3899 18.9347 65.1734 18.2448 64.73 17.9285C64.2863 17.6114 63.7076 17.5716 63.1634 17.5681C61.5737 17.5575 59.9825 17.7616 58.4478 18.1741C57.9725 18.3022 57.4786 18.4506 56.9972 18.3481C56.5156 18.2457 56.0693 17.7872 56.1763 17.3066C55.5188 18.046 56.3096 19.2748 57.2658 19.5301C58.2217 19.7854 59.2342 19.4903 60.222 19.5433C61.2099 19.5963 62.3425 20.2756 62.2383 21.2597C62.2135 21.4947 62.1198 21.7412 62.2161 21.9567C62.332 22.2137 62.6616 22.2915 62.9432 22.2782C64.2588 22.2164 65.2653 20.6661 64.7865 19.44C64.4701 19.4894 64.1327 19.3057 64.001 19.0142C64.5779 18.7871 65.0294 18.2642 65.1697 17.66C64.0963 17.2545 62.8443 17.3517 61.8467 17.9179" fill="white"/>
<path d="M64.4766 24.7897C65.0235 24.3922 64.6622 23.4152 64.0136 23.2235C63.3652 23.0318 62.6805 23.3754 62.1449 23.7879C62.1114 24.3436 62.0769 24.8992 62.0434 25.4558C61.4018 25.3198 60.7074 25.4548 60.1632 25.8214C61.1113 26.075 61.8897 26.8824 62.1059 27.84C61.2039 28.4584 59.7745 28.0247 59.3687 27.0077C59.1805 26.5354 59.1125 25.9002 58.6285 25.7437C57.9445 25.522 57.5451 26.605 57.8605 27.2509C58.6955 28.9582 61.2374 28.847 62.6564 30.1121C63.1663 30.5669 63.9403 31.2162 64.3725 30.687C64.7161 30.2665 64.2691 29.6711 63.8529 29.3215C64.3554 29.3851 64.8902 29.4309 65.3459 29.211C65.8019 28.9909 66.1181 28.4037 65.8708 27.9619C65.7428 27.7321 65.5006 27.5953 65.2949 27.4301C64.5429 26.824 64.2698 25.6935 64.663 24.8109C64.3918 24.697 64.1214 24.5821 63.8503 24.4681" fill="white"/>
<path d="M89.3749 20.2609C87.6572 19.2292 85.526 18.9111 83.5822 19.3961C82.1774 19.7468 80.8644 20.4959 79.4198 20.5975C77.3082 20.745 75.2885 19.4208 74.137 17.6453C75.7372 16.549 78.0778 18.6991 79.7635 17.7398C80.2496 17.4633 80.587 16.9615 81.0976 16.7354C81.6191 16.504 82.2198 16.6002 82.7818 16.7009C85.4818 17.1841 88.1828 17.6682 90.8829 18.1514C91.2011 16.9969 90.2141 15.6771 89.016 15.655C90.4306 15.0853 91.8461 14.5155 93.2607 13.9457C93.9745 13.6586 94.7388 13.3282 95.1283 12.6648C95.5173 12.0005 95.2416 10.9237 94.4781 10.8274C97.7356 9.69406 100.892 8.27005 103.897 6.57665C103.595 6.05369 103.291 5.53075 102.989 5.00779C105.079 5.22333 107.244 4.58378 108.882 3.26843C106.537 3.07498 104.157 3.29758 101.888 3.92214C105.791 4.41417 109.831 3.75781 113.377 2.05645C112.103 0.946056 109.785 2.39125 108.529 1.25965C108.153 0.920438 107.966 0.40808 107.583 0.0768157C107.111 -0.330416 106.44 -0.386949 105.818 -0.420518C99.4499 -0.761497 93.0539 -0.58129 86.7144 0.11834C85.6682 0.23406 84.3492 0.637762 84.289 1.68808C82.7711 1.62537 81.2531 1.56264 79.7352 1.49992C78.6432 2.97074 76.4926 3.54138 74.8147 2.80644C74.4349 3.40799 74.0559 4.00957 73.6769 4.61204C74.737 5.34259 76.0625 5.67827 77.3417 5.54135C78.1246 7.1535 80.6613 7.50685 81.8549 6.1703C82.386 7.9971 85.118 7.65437 86.7393 6.65791C88.3595 5.66147 90.4413 4.38943 91.9592 5.53604C89.9429 7.09608 87.3594 7.90435 84.813 7.77185C85.4509 8.53861 86.088 9.30627 86.7259 10.0739C85.1619 10.1702 83.7749 9.17641 82.4062 8.41229C81.0377 7.64817 79.245 7.11107 77.9807 8.03685C79.1238 8.9688 80.2663 9.90076 81.4097 10.8336C78.2597 9.17463 75.1108 7.51656 71.9611 5.85759C71.0376 5.37174 69.9704 4.87262 68.9922 5.23571C68.0143 5.59877 67.7198 7.30719 68.7263 7.58193C67.9463 7.72503 67.2738 8.34692 67.0723 9.11457C68.9383 9.26474 70.7735 9.78328 72.4417 10.6322C71.6561 10.884 70.8716 11.1366 70.0861 11.3884C71.8797 11.9723 73.6732 12.5562 75.4678 13.141C75.8335 13.2602 76.2505 13.3751 76.5873 13.1896C76.9255 13.0023 77.0475 12.588 77.2365 12.2497C77.8003 11.2399 79.2476 10.8513 80.2407 11.4431C80.0127 11.9846 79.7847 12.5253 79.5577 13.0668C80.405 13.0721 81.2523 13.0765 82.1004 13.0818C82.1146 13.5464 82.1287 14.012 82.1428 14.4766C83.3721 14.6665 84.6355 14.6312 85.8522 14.3733C85.4067 16.0207 83.015 16.1656 81.5235 15.337C80.032 14.5075 78.8562 13.0862 77.2137 12.6215C77.7375 13.8468 78.5769 14.936 79.6292 15.7549C77.438 15.4024 75.1576 15.6197 73.0725 16.3812C72.8683 15.9421 72.6652 15.5022 72.461 15.0632C70.7471 15.7743 71.0049 18.2557 71.5635 20.025C71.7278 20.5445 71.899 21.078 72.2438 21.5003C73.0248 22.457 74.42 22.5674 75.6542 22.6036C77.5124 22.6566 79.3703 22.7105 81.2285 22.7635C83.8147 22.8342 89.4738 24.0497 89.3749 20.2609Z" fill="white"/>
<path d="M68.9927 18.2623C69.5016 17.9107 70.4232 18.2076 70.6583 17.6351C70.835 17.2041 70.3756 16.7942 69.9691 16.5663C69.5626 16.3383 69.0794 15.9841 69.1906 15.5318C68.8284 15.5831 68.4493 15.5044 68.1376 15.3145C68.9142 15.1105 69.6909 14.9055 70.4675 14.7015C70.7635 14.6237 71.1389 14.3561 70.964 14.1052C70.9038 14.0195 70.796 13.9824 70.6944 13.9568C70.2131 13.8331 69.689 13.8172 69.2666 13.5557C68.8443 13.2943 68.6074 12.6379 68.976 12.304C68.7101 12.2801 68.4433 12.2563 68.1774 12.2316C68.1659 12.0204 68.1544 11.8084 68.1428 11.5973C66.7663 11.5602 65.3915 11.448 64.0265 11.2607C63.8267 12.1812 64.7128 13.1626 65.6494 13.0584C65.8006 13.0416 65.9684 13.0054 66.0938 13.092C66.2053 13.1688 66.2388 13.3146 66.2972 13.4374C66.4728 13.8022 66.9597 13.978 67.3283 13.8093C67.2204 14.0743 67.0374 14.3092 66.8068 14.4789C67.2513 14.7156 67.74 14.8684 68.2399 14.9285C67.846 15.2412 67.3803 15.462 66.8882 15.5689C67.0906 15.7332 67.2937 15.8975 67.496 16.0619C66.9764 16.0725 66.4571 16.0822 65.9375 16.0928C65.7794 16.5813 66.2556 17.0503 66.7328 17.2403C67.261 17.4505 69.8312 19.0865 68.2894 19.8162C67.4138 20.2305 67.0471 18.7862 67.3565 18.234C67.846 19.3657 67.6965 20.9433 68.5546 21.9336C69.1802 22.6553 70.1324 22.7896 70.7405 21.8373C71.7927 20.1907 69.2472 19.6969 68.9927 18.2623Z" fill="white"/>
<path d="M84.3827 145.699C83.7723 147.335 85.7407 149.246 87.3586 148.586C87.825 148.396 88.2315 148.05 88.7281 147.962C90.1177 147.72 90.9166 149.468 91.2108 150.848C91.5474 152.426 91.876 154.113 91.2875 155.615C90.5826 157.416 88.653 158.673 88.4268 160.595C88.242 162.164 89.2775 163.785 88.7456 165.273C88.5045 165.948 87.9672 166.484 87.7146 167.156C87.2615 168.358 87.803 169.684 88.3349 170.854C90.1054 174.742 91.876 178.629 93.6467 182.516C94.0451 183.391 94.472 184.302 95.2353 184.885C95.8431 185.348 96.6074 185.558 97.2516 185.969C98.3047 186.639 98.9481 187.779 99.5496 188.873C100.662 190.896 101.789 192.956 102.264 195.215C102.912 198.296 102.302 201.487 101.691 204.576C100.799 209.093 99.9058 213.609 99.0133 218.127C98.0309 223.096 97.0493 228.066 96.0667 233.034C97.1174 232.397 97.8974 231.329 98.1837 230.135C98.6847 233.367 98.0476 236.762 96.4088 239.592C96.2664 238.372 96.1242 237.152 95.9818 235.932C94.7804 238.525 94.16 241.385 94.1794 244.243C94.1831 244.757 94.2273 245.32 94.5841 245.69C94.9233 246.042 95.4492 246.12 95.8821 246.346C96.8221 246.838 97.2252 248.146 96.725 249.081C97.2223 249.196 97.7199 249.311 98.2165 249.426C98.9868 250.036 97.1684 250.89 97.1765 251.872C97.1791 252.272 97.5034 252.585 97.8029 252.849C99.2096 254.089 100.616 255.327 102.023 256.567C103.003 256.856 104.021 257.149 105.031 256.991C106.04 256.834 107.036 256.09 107.129 255.073C107.258 253.676 105.805 252.743 104.866 251.702C103.408 250.085 103.053 247.707 103.42 245.561C103.788 243.417 104.787 241.439 105.774 239.499C105.136 239.259 104.498 239.018 103.86 238.779C103.907 237.346 105.369 236.458 106.294 235.361C107.973 233.369 107.789 230.072 105.897 228.278C106.597 227.785 107.296 227.292 107.996 226.8C108.571 227.717 109.145 228.634 109.719 229.551C111.155 228.399 111.692 226.257 110.971 224.565C114.224 225.399 117.9 222.734 118.118 219.384C117.313 219.356 116.677 218.431 116.94 217.67C117.202 216.909 118.273 216.572 118.924 217.046C118.565 217.977 119.627 218.991 120.617 218.87C121.606 218.748 122.347 217.859 122.68 216.919C123.013 215.979 123.041 214.963 123.226 213.984C123.523 212.412 124.234 210.921 125.269 209.701C126.129 208.687 127.23 207.823 127.732 206.592C128.1 205.69 128.102 204.689 128.258 203.728C128.767 200.592 131.079 197.814 134.071 196.744C134.194 198.146 136.408 197.856 137.447 196.906C138.998 195.487 140.045 193.527 140.362 191.448C140.64 189.624 140.394 187.656 141.257 186.026C141.623 185.336 142.176 184.735 142.386 183.983C142.565 183.338 142.47 182.653 142.506 181.986C142.695 178.398 146.539 175.566 146.091 172.003C145.8 169.688 143.787 168.03 141.926 166.624C139.084 164.475 136.062 162.252 132.527 161.811C130.282 161.531 127.866 161.974 125.847 160.952C126.745 160.897 127.382 159.96 127.427 159.062C127.472 158.164 127.084 157.308 126.704 156.492C126.447 155.942 126.19 155.391 125.933 154.84C124.891 152.605 123.181 149.98 120.739 150.331C120.012 150.435 119.216 150.8 118.596 150.405C118.029 150.043 117.966 149.255 117.659 148.657C116.455 146.314 111.89 147.27 111.198 144.728C111.018 144.065 111.168 143.262 110.692 142.768C110.306 142.367 109.678 142.36 109.121 142.381C106.597 142.474 104.072 142.568 101.547 142.66C101.462 143.651 100.816 144.574 99.9129 144.991C100.045 145.572 100.176 146.153 100.308 146.734C100.101 147.765 98.3657 147.639 97.9126 146.69C97.4584 145.74 97.8966 144.613 98.4303 143.705C98.9638 142.798 99.6176 141.873 99.6035 140.82C98.4575 140.273 97.2985 141.464 96.4713 142.426C95.6444 143.389 94.0239 144.225 93.2659 143.207C93.363 144.254 93.4611 145.303 93.5583 146.35C91.9309 147.771 88.9985 147.15 88.0865 145.191C87.4575 145.969 86.7657 146.788 85.8027 147.06C84.8394 147.331 83.5796 146.727 83.583 145.727C84.0754 147.889 86.2144 149.554 88.432 149.501" fill="white"/>
<path d="M82.0879 124.98C82.8593 125.756 84.0513 124.588 85.1371 124.452C86.1859 124.322 87.0455 125.203 87.8329 125.909C88.62 126.615 89.8474 127.208 90.6654 126.539C91.0577 128.174 93.3311 128.99 94.6741 127.978C94.5522 128.555 95.312 128.95 95.8934 128.847C96.4748 128.746 96.9925 128.379 97.5809 128.337C98.4309 128.275 99.2517 129.029 99.2633 129.881C99.2818 130.193 98.8444 130.307 98.5424 130.229C98.24 130.15 97.9045 129.994 97.6375 130.157C97.4503 130.272 97.3778 130.504 97.248 130.681C96.7742 131.326 95.7785 131.08 95.0223 130.82C94.2658 130.558 93.1897 130.484 92.9018 131.23C95.2767 131.699 97.7498 131.662 100.11 131.123C99.9153 131.308 100.058 131.667 100.304 131.776C100.55 131.885 100.833 131.824 101.095 131.761C102.102 131.519 103.109 131.277 104.118 131.034C104.723 131.402 105.534 131.404 106.142 131.041C106.1 131.317 106.058 131.594 106.016 131.871C107.199 132.383 108.726 131.893 109.39 130.788C107.713 130.51 106.038 130.233 104.362 129.956C103.16 129.757 101.926 129.547 100.877 128.929C99.8412 128.32 99.0185 127.333 97.8752 126.962C96.2795 126.444 94.4469 127.256 92.8955 126.618C91.3925 126 90.4481 124.131 88.8242 124.101C88.2967 124.091 87.7392 124.286 87.2594 124.066C86.0435 123.508 86.2035 122.355 84.6282 122.956C84.3314 123.068 82.353 125.247 82.0879 124.98Z" fill="white"/>
<path d="M216.723 93.2031C215.958 94.7791 215.61 96.5336 215.911 98.2561C216.429 101.223 218.733 103.966 218.084 106.91C217.079 106.647 216.074 106.384 215.068 106.13" fill="white"/>
<path d="M227.517 53.4883C227.457 53.6738 227.379 53.8515 227.303 54.029L227.517 53.4883Z" fill="white"/>
<path d="M227.712 52.3147C227.696 51.6037 227.395 50.9395 226.932 50.3828L227.712 52.3147Z" fill="white"/>
</g>
</svg>
