<svg width="208" height="111" viewBox="0 0 208 111" fill="none" xmlns="http://www.w3.org/2000/svg">
<path d="M167.787 57.9884C167.64 57.7261 167.493 57.4703 167.339 57.2208C167.192 56.9714 167.038 56.7155 166.885 56.4661C166.584 55.9672 166.277 55.4747 165.964 54.9822C165.343 53.9971 164.704 53.0249 164.058 52.0591C162.759 50.1338 161.41 48.2405 160.015 46.3856C157.22 42.6758 154.233 39.1067 151.029 35.7295C147.818 32.3587 144.389 29.1797 140.686 26.327C138.837 24.9006 136.912 23.5574 134.923 22.3166C132.927 21.0821 130.861 19.9563 128.718 18.9713C128.181 18.7283 127.644 18.4916 127.1 18.2613L126.691 18.095L126.486 18.0119L126.384 17.9735L126.358 17.9607C126.339 17.9543 126.422 17.9863 126.377 17.9671L126.326 17.9479C126.058 17.8264 125.789 17.7113 125.514 17.6025C124.433 17.1484 123.346 16.7262 122.245 16.3297C120.051 15.5301 117.838 14.8202 115.593 14.1869C113.355 13.5537 111.09 13.0036 108.8 12.5431C106.511 12.089 104.202 11.7244 101.873 11.4877C100.709 11.3726 99.5387 11.2894 98.3618 11.2447L97.4919 11.2191L96.622 11.1999C96.0399 11.1871 95.4579 11.1807 94.8758 11.1743C93.7117 11.1679 92.5412 11.1871 91.3706 11.2447C90.2001 11.3022 89.0168 11.3982 87.8399 11.5645C86.663 11.7308 85.4797 11.9674 84.3156 12.3064C83.1514 12.6454 82.0065 13.0996 80.9191 13.6944C79.8382 14.2893 78.8212 15.0312 77.9321 15.9011C77.0366 16.7646 76.2755 17.756 75.6358 18.7986L75.6294 18.8114C75.6166 18.837 75.5975 18.8626 75.5911 18.8882L75.5655 18.9457L75.5399 18.9969L75.4951 19.0929C75.4695 19.1568 75.4439 19.2208 75.4184 19.2847C75.3672 19.4127 75.316 19.5342 75.2712 19.6621C75.1753 19.9116 75.0921 20.1674 75.0154 20.4233C74.8555 20.935 74.7276 21.4531 74.6252 21.9776C74.4205 23.0329 74.331 24.1203 74.4205 25.2332C74.4653 25.7833 74.5676 26.3398 74.7212 26.8899C74.8747 27.4336 75.0921 27.9708 75.3672 28.4761C75.6422 28.9814 75.9812 29.4484 76.3714 29.8769C76.7552 30.2991 77.1901 30.6764 77.6507 30.9963C77.8809 31.1562 78.1176 31.3097 78.3542 31.444C78.4758 31.5144 78.5973 31.5783 78.7188 31.6423C78.7828 31.6743 78.8404 31.7062 78.9043 31.7382L78.9939 31.783L79.0578 31.815L79.1026 31.8342C79.6015 32.058 80.1132 32.2499 80.6441 32.397C81.175 32.5441 81.7251 32.6465 82.2879 32.6977C82.8444 32.7488 83.4137 32.736 83.9766 32.6657C84.5394 32.5953 85.0959 32.461 85.6268 32.2627C86.1577 32.0708 86.663 31.8214 87.1363 31.5335C88.083 30.9515 88.9017 30.2095 89.5989 29.3972C89.9507 28.9878 90.2705 28.5593 90.5647 28.1116C90.7118 27.8877 90.8525 27.6638 90.9869 27.4336L91.0828 27.2609L91.1787 27.0946C91.2491 26.973 91.3131 26.8515 91.3706 26.7236C91.8568 25.7194 92.1382 24.6384 92.2469 23.5638C92.3621 22.4829 92.3109 21.4083 92.1574 20.3657C92.0039 19.3167 91.7352 18.2997 91.3898 17.3147C90.699 15.3447 89.6948 13.5089 88.4795 11.8331C87.2642 10.1573 85.8379 8.64779 84.2388 7.34296C82.6397 6.03812 80.868 4.94437 78.9747 4.11286C77.0814 3.28774 75.0602 2.73127 73.007 2.48822C70.9538 2.24516 68.8686 2.31551 66.841 2.66731C66.3357 2.75686 65.8304 2.8592 65.3315 2.98072C65.082 3.03829 64.8325 3.10225 64.5831 3.17261C64.4616 3.20459 64.3336 3.24297 64.2121 3.27495L64.0266 3.33252L63.9371 3.3581L63.8923 3.3709L63.8667 3.37729C63.8539 3.38369 63.9243 3.3645 63.8795 3.3709L63.7708 3.39648L63.6748 3.42207L63.4829 3.47964C63.355 3.51801 63.2335 3.55639 63.1055 3.60116C62.8561 3.68431 62.613 3.77386 62.37 3.8698C61.8839 4.06169 61.4105 4.27277 60.9436 4.51582C60.0162 4.99554 59.1271 5.5712 58.3339 6.27479C57.5408 6.97837 56.8372 7.80989 56.3191 8.76293C56.0633 9.23625 55.8522 9.74155 55.6987 10.2597C55.5452 10.7777 55.4428 11.315 55.398 11.8523C55.3725 12.1209 55.3661 12.3896 55.3661 12.6582V12.7606V12.7862C55.3725 12.8629 55.3661 12.8181 55.3661 12.8437L55.3725 12.8885C55.3789 12.9589 55.3853 13.0228 55.3917 13.0868C55.4044 13.2211 55.4236 13.3554 55.4428 13.4833C55.5196 14.0142 55.6475 14.5387 55.8266 15.0504C56.0057 15.5621 56.2424 16.0546 56.5366 16.5152C56.8308 16.9757 57.1762 17.4043 57.5664 17.7816C58.3531 18.5428 59.3126 19.0993 60.3424 19.4319C61.3722 19.7581 62.4723 19.8668 63.5469 19.7197C64.0842 19.6493 64.6151 19.5086 65.1268 19.3039C65.6321 19.0929 66.1182 18.8178 66.5467 18.466L66.502 18.498C66.9497 18.2038 67.3399 17.852 67.6789 17.4554C68.0179 17.0589 68.2993 16.6239 68.536 16.1698C69.0029 15.2615 69.2779 14.2701 69.3867 13.2723C69.4954 12.2745 69.4379 11.2575 69.2332 10.2788C69.0285 9.30021 68.6767 8.35357 68.2034 7.48368C67.73 6.6074 67.1288 5.80787 66.4508 5.09148C65.7664 4.37511 64.9988 3.74827 64.1865 3.21099C63.3678 2.66731 62.4979 2.21318 61.6088 1.8294C60.7133 1.44563 59.7923 1.13861 58.8584 0.882755C58.3915 0.754829 57.9182 0.646099 57.4512 0.550156C57.2146 0.498985 56.9779 0.454212 56.7413 0.415836L56.7221 0.409439H56.7093L56.6773 0.403038L56.6325 0.396645L56.543 0.383854L56.3639 0.364662L56.0057 0.326286C55.0463 0.23674 54.0932 0.18557 53.1338 0.159985C52.1743 0.134399 51.2149 0.147194 50.2555 0.191967C49.296 0.23674 48.3366 0.326283 47.3835 0.460606C46.4305 0.601322 45.4774 0.786816 44.55 1.06186C43.6161 1.33049 42.7015 1.68229 41.8444 2.15561C41.4158 2.39227 41.0001 2.66731 40.6099 2.97433C40.2197 3.28135 39.8615 3.63314 39.5417 4.01691C39.2219 4.40709 38.9533 4.82924 38.7358 5.28337C38.5183 5.73751 38.3648 6.21722 38.2625 6.70333V6.70974C38.2625 6.71613 38.2625 6.72253 38.2561 6.72892C38.1665 7.4517 38.2049 8.18727 38.3968 8.89725C38.4927 9.24904 38.627 9.59444 38.8061 9.92065C38.9788 10.2469 39.1963 10.5475 39.4522 10.8161C39.7016 11.0848 39.9894 11.3214 40.3029 11.5197C40.6099 11.718 40.9425 11.8779 41.2815 11.9994C41.6205 12.121 41.9723 12.2169 42.3241 12.2809C42.6823 12.3448 43.0469 12.3704 43.4178 12.3512C43.7824 12.332 44.147 12.2617 44.4988 12.1401C44.8506 12.0186 45.1768 11.8523 45.4774 11.6412C46.0787 11.2191 46.5584 10.637 46.8846 9.9974C47.2172 9.35777 47.4091 8.65419 47.4795 7.93781C47.5115 7.57962 47.5115 7.22144 47.4923 6.86964C47.4667 6.51146 47.4155 6.15966 47.326 5.81426C47.1597 5.11707 46.859 4.45826 46.4561 3.8698C46.0531 3.28135 45.5414 2.77604 44.9785 2.3475C44.4157 1.92534 43.7952 1.57994 43.1556 1.29851C42.516 1.01708 41.8508 0.799606 41.1791 0.626907C39.8295 0.281509 38.4479 0.108814 37.0664 0.038456C36.721 0.019268 36.3756 0.0128708 36.0302 0.00647354C35.6848 7.62939e-05 35.3394 8.01086e-05 34.994 8.01086e-05C34.3032 8.01086e-05 33.6188 0.00646973 32.928 0.0192642C30.1776 0.0704346 27.4272 0.191967 24.6768 0.351871C21.9328 0.51178 19.1888 0.710056 16.4448 0.914738C10.9568 1.33689 5.4816 1.81661 0 2.30273C5.4816 1.86139 10.9696 1.42644 16.4576 1.05546C19.2016 0.869968 21.9456 0.697266 24.6896 0.562943C27.4336 0.428623 30.184 0.326283 32.928 0.300701C33.6124 0.294304 34.3032 0.294304 34.9876 0.300701C35.333 0.307095 35.672 0.307098 36.0174 0.313496C36.3564 0.319893 36.7018 0.339077 37.0408 0.358269C38.4032 0.441418 39.7656 0.626907 41.0768 0.978699C41.7356 1.15779 42.3753 1.37527 42.9893 1.6503C43.6033 1.92534 44.1918 2.26434 44.7227 2.6737C45.2536 3.08306 45.7205 3.56278 46.0915 4.11286C46.4625 4.66293 46.7311 5.27698 46.8782 5.923C46.955 6.24281 46.9998 6.57541 47.0189 6.90802C47.0381 7.24062 47.0317 7.57323 46.9998 7.89944C46.9294 8.55825 46.7439 9.19787 46.4369 9.77353C46.1299 10.3492 45.7013 10.8609 45.1704 11.2191C44.9082 11.3982 44.6203 11.5453 44.3133 11.6412C44.0127 11.7436 43.6929 11.8011 43.3731 11.8139C43.0533 11.8267 42.727 11.8011 42.4136 11.7436C42.0938 11.6796 41.774 11.5965 41.467 11.4813C40.8593 11.2511 40.3029 10.8993 39.8743 10.426C39.4394 9.95903 39.1387 9.37696 38.9788 8.75013C38.8189 8.1297 38.7869 7.46449 38.8765 6.82486L38.8701 6.85045C38.966 6.40911 39.1068 5.98056 39.305 5.5776C39.4969 5.17463 39.7464 4.79726 40.0342 4.45186C40.6099 3.76107 41.3519 3.20459 42.1514 2.76965C42.9573 2.3347 43.8336 2.0085 44.7227 1.75904C45.6182 1.50959 46.5392 1.3305 47.4667 1.20897C48.3941 1.08105 49.328 1.01068 50.2682 0.972305C51.2085 0.933926 52.1487 0.933929 53.089 0.965908C54.0292 0.99789 54.9695 1.06186 55.9034 1.1578L56.2551 1.19617L56.4278 1.21537L56.511 1.22815L56.5558 1.23455C56.5622 1.23455 56.5238 1.22815 56.543 1.23455H56.5558L56.575 1.24095C56.8052 1.28572 57.0355 1.33049 57.2594 1.38166C57.7135 1.484 58.1676 1.59274 58.6154 1.72067C59.5108 1.97012 60.3935 2.27714 61.2442 2.65452C62.0949 3.0255 62.9073 3.46684 63.6684 3.98493C64.4296 4.49663 65.1396 5.09149 65.76 5.75669C66.3804 6.42191 66.9241 7.16387 67.3463 7.9634C67.7684 8.76293 68.0818 9.62002 68.2545 10.5027C68.4272 11.3854 68.472 12.2937 68.3633 13.1827C68.2545 14.0718 68.0051 14.9417 67.5957 15.7156C67.391 16.1058 67.148 16.4704 66.8666 16.7902C66.5851 17.1164 66.2653 17.3979 65.9135 17.6281C65.9007 17.6345 65.8879 17.6473 65.8751 17.6601L65.8687 17.6665C65.1779 18.223 64.3017 18.5556 63.3998 18.6643C62.4979 18.7794 61.5576 18.6835 60.6878 18.3957C59.8179 18.1078 59.0183 17.6281 58.3723 16.9949C57.7263 16.3617 57.2402 15.5685 56.9459 14.705C56.7988 14.2701 56.6965 13.8224 56.6325 13.3618C56.6197 13.2467 56.6069 13.1316 56.5941 13.0164C56.5878 12.9589 56.5814 12.9013 56.5814 12.8437V12.799C56.5814 12.8054 56.5814 12.7478 56.5814 12.8117V12.7926V12.703C56.5814 12.4727 56.5941 12.2425 56.6133 12.0122C56.7029 11.0976 56.9715 10.2085 57.4129 9.40895C57.8542 8.60942 58.4619 7.89304 59.1718 7.2854C59.8818 6.67136 60.6814 6.15966 61.5321 5.73111C61.9606 5.52003 62.3956 5.32815 62.8433 5.15545C63.0672 5.0723 63.291 4.98915 63.5149 4.91879C63.63 4.88041 63.7388 4.84842 63.8539 4.81644L64.0202 4.77167L64.1034 4.75248L64.1801 4.7333L64.5703 4.62456C64.6854 4.59258 64.807 4.56059 64.9221 4.52861C65.1587 4.46465 65.389 4.40709 65.6257 4.35592C66.099 4.24718 66.5723 4.15124 67.052 4.07448C68.9645 3.76746 70.909 3.72269 72.8215 3.96575C74.734 4.20881 76.6017 4.73969 78.3606 5.53283C80.1196 6.31956 81.7635 7.36215 83.2474 8.59663C84.7313 9.8311 86.0553 11.2575 87.1683 12.8309C88.2812 14.398 89.1959 16.1186 89.81 17.9223C90.117 18.8242 90.3472 19.7453 90.4752 20.6791C90.6031 21.6066 90.6351 22.5404 90.5263 23.4487C90.424 24.357 90.1809 25.2332 89.7908 26.0264C89.7396 26.1223 89.6884 26.2247 89.6373 26.3206L89.5477 26.4805L89.4582 26.6276C89.343 26.8259 89.2151 27.0242 89.0872 27.2161C88.8249 27.5999 88.5435 27.9708 88.2429 28.3162C87.6352 29.007 86.9444 29.6147 86.1897 30.0688C85.4285 30.5229 84.597 30.8236 83.7399 30.9195C82.8828 31.0218 82.0001 30.9259 81.143 30.6764C80.7145 30.5549 80.2859 30.3886 79.8766 30.2031L79.8318 30.1839L79.8126 30.1775L79.7358 30.1392C79.6847 30.1136 79.6335 30.088 79.5887 30.0624C79.4928 30.0112 79.3904 29.9537 79.2945 29.8961C79.1026 29.781 78.9171 29.6658 78.738 29.5379C78.3862 29.2821 78.06 28.9942 77.7786 28.6744C77.4971 28.3546 77.2477 28.0092 77.0494 27.6382C76.6464 26.8963 76.4226 26.0456 76.3586 25.1629C76.2883 24.2802 76.3714 23.3591 76.5569 22.4573C76.6528 22.0031 76.768 21.5554 76.9087 21.1141C76.979 20.8902 77.0558 20.6727 77.139 20.4553C77.1773 20.3465 77.2221 20.2378 77.2669 20.1354L77.3308 19.9819L77.3628 19.9052L77.3884 19.8476L77.3372 19.9372C77.9001 19.0225 78.5653 18.1846 79.3265 17.449C80.0876 16.7135 80.9511 16.093 81.885 15.5877C82.8188 15.0824 83.8294 14.6858 84.872 14.3916C85.9146 14.091 87.002 13.8863 88.1021 13.7328C89.2023 13.5857 90.3216 13.5025 91.441 13.4514C92.5667 13.4066 93.6989 13.3938 94.831 13.4066C95.4003 13.413 95.9696 13.4258 96.5388 13.4386L97.3959 13.4642L98.2466 13.4961C99.3724 13.5473 100.498 13.6369 101.617 13.752C103.863 13.9951 106.101 14.3596 108.321 14.8202C110.54 15.2807 112.747 15.8372 114.928 16.464C117.109 17.0972 119.271 17.8072 121.401 18.5939C122.463 18.9905 123.518 19.4063 124.554 19.8476C124.81 19.9563 125.073 20.0715 125.328 20.1866L126.147 20.5256C126.665 20.7431 127.177 20.967 127.689 21.2036C129.729 22.1439 131.705 23.2312 133.618 24.4273C135.53 25.6234 137.379 26.9282 139.17 28.3162C142.745 31.0922 146.078 34.2008 149.199 37.5012C152.321 40.8081 155.237 44.3196 157.969 47.9655C159.331 49.7884 160.649 51.6497 161.915 53.543C162.548 54.4897 163.169 55.4427 163.77 56.4085C164.071 56.8882 164.371 57.3744 164.659 57.8605C164.806 58.1035 164.947 58.3466 165.094 58.5896C165.235 58.8327 165.382 59.0758 165.51 59.3124C165.855 59.9329 166.642 60.1567 167.262 59.8049C167.915 59.402 168.139 58.6152 167.787 57.9884Z" fill="white"/>
<path d="M184.045 71.2788L200.938 39.7197L202.307 41.2612L190.243 79.7986C190.243 79.7986 202.377 95.1368 204.814 99.3008C205.607 100.957 208.914 107.642 206.036 110.085C206.023 110.091 206.01 110.104 206.004 110.11C205.991 110.117 205.978 110.13 205.972 110.136C202.825 112.215 197.33 107.175 195.961 105.947C192.648 102.441 181.32 86.4955 181.32 86.4955L140.941 87.2823L139.841 85.5361L174.873 78.1548C174.873 78.1548 169.647 69.9228 167.108 65.599C164.569 61.2751 159.132 50.9324 159.132 50.9324L146.538 49.9409L146.717 49.1414L158.013 46.1224L163.718 37.5898L164.537 37.6474L162.317 48.553C162.317 48.553 170.722 56.6634 174.163 60.3157C177.611 63.9615 184.045 71.2788 184.045 71.2788Z" fill="white"/>
</svg>
