<svg width="85" height="398" viewBox="0 0 85 398" fill="none" xmlns="http://www.w3.org/2000/svg">
<path d="M54.1938 390.648C54.4498 376.197 35.4218 390.317 35.4218 390.317C35.4218 390.317 53.9378 405.098 54.1938 390.648ZM42.297 390.438C42.3446 387.754 44.7424 385.611 47.6408 385.662C50.5392 385.713 52.8596 387.939 52.8121 390.623C52.7645 393.307 50.3666 395.451 47.4683 395.4C44.5693 395.38 42.2489 393.154 42.297 390.438Z" fill="#DF1119"/>
<path d="M52.1382 390.611C52.1797 388.271 50.1908 386.362 47.6631 386.318C45.1355 386.273 43.0802 388.111 43.0388 390.451C42.9978 392.761 44.9862 394.7 47.5139 394.745C50.0078 394.788 52.0968 392.952 52.1382 390.611ZM43.7465 390.464C43.7813 388.497 45.5278 386.967 47.6173 387.004C49.7405 387.041 51.3974 388.663 51.3631 390.598C51.3283 392.564 49.5818 394.094 47.4923 394.057C45.4022 394.052 43.7117 392.43 43.7465 390.464Z" fill="#A00070"/>
<path d="M31.7183 391.906C30.741 391.889 29.9785 391.158 29.9946 390.253C30.0106 389.348 30.7985 388.643 31.7758 388.661C32.7532 388.678 33.5156 389.409 33.4996 390.314C33.4835 391.219 32.6957 391.924 31.7183 391.906Z" fill="#032532"/>
<path d="M10.927 11.5012C10.8992 13.0767 11.7437 14.5415 13.1155 15.3536L27.1536 23.6386C28.1426 24.2233 28.7049 25.2419 28.7176 26.3453L28.674 32.4594C28.6473 33.9719 29.0072 35.4912 29.6601 36.858L30.0956 37.7483C30.4379 38.4478 31.4692 38.4659 31.8359 37.779L32.3027 36.9046C33.0035 35.5616 33.4169 34.0559 33.4437 32.5435L33.6163 26.4316C33.6358 25.3288 34.2665 24.2997 35.275 23.7816L49.5973 15.9964C50.997 15.233 51.8928 13.7989 51.9206 12.2234C45.7072 15.392 37.9397 17.1148 34.7369 17.7518C34.284 17.8384 33.9034 17.485 33.9106 17.0753L35.2381 16.752C35.8855 16.6058 36.2833 15.9824 36.1978 15.3505L35.9056 13.6433C35.8773 13.4221 35.7523 13.1993 35.5617 13.0384C35.3711 12.8774 35.2461 12.6546 35.2183 12.4019L35.1328 11.77L34.9916 12.461C34.9555 12.681 34.8555 12.8683 34.6915 13.023L34.4293 13.2706L34.0031 13.6728L34.0259 12.3809C34.0404 11.5617 33.9588 10.7092 33.7793 9.918L32.8199 5.83501L37.3285 4.27542C38.3015 3.94584 38.8983 3.01074 38.7872 2.00014L38.6206 0.484273L32.1011 2.73341L31.8311 1.59391C31.8022 1.40428 31.5121 1.39917 31.4766 1.58766L31.1665 2.71695L24.7305 0.239564L24.5104 1.74862C24.3642 2.72317 24.9276 3.67871 25.8877 4.07386L30.3378 5.8228L29.2352 9.83795C29.0274 10.6538 28.9162 11.4714 28.9017 12.2906L28.8789 13.5826L28.4671 13.1655L28.2138 12.9089C28.0554 12.7485 27.9621 12.5578 27.9338 12.3366L27.8171 11.6411L27.7093 12.2696C27.6726 12.5212 27.5398 12.7395 27.3436 12.8936C27.1475 13.0477 27.0469 13.2666 26.9786 13.486L26.6262 15.1819C26.4861 15.8098 26.8939 16.4474 27.5357 16.6163L28.8509 16.9862C28.8431 17.4273 28.4186 17.7351 28.0013 17.6332C24.6941 16.8815 17.0246 14.8867 10.927 11.5012Z" fill="#F62459"/>
<path d="M29.262 52.3298C29.2626 52.2986 29.2626 52.2986 29.2631 52.2674C29.3488 51.2387 29.4686 50.1793 29.588 49.1512C29.631 48.6212 30.1432 48.2556 30.6813 48.3276C31.2536 48.3689 31.6497 48.8441 31.5735 49.3423C31.4542 50.3704 31.3686 51.3991 31.283 52.4278C31.2399 52.9578 30.7615 53.324 30.1891 53.2827C29.651 53.2108 29.2538 52.798 29.262 52.3298Z" fill="#E5D0E8"/>
<path d="M1.99693 273.129C2.00688 272.567 2.05109 271.975 2.09529 271.382C2.13839 270.852 2.6505 270.487 3.18858 270.558C3.7609 270.6 4.157 271.075 4.08075 271.573C3.87687 273.568 4.00997 275.568 4.44913 277.418C4.57508 277.919 4.22924 278.413 3.68785 278.528C3.14646 278.643 2.61283 278.322 2.48688 277.82C2.14218 276.347 1.96818 274.752 1.99693 273.129ZM3.71677 265.479C3.71899 265.354 3.75435 265.261 3.79025 265.137C4.7029 263.093 5.94923 261.241 7.42756 259.613C7.80544 259.214 8.41312 259.162 8.84512 259.513C9.27712 259.864 9.33455 260.427 8.95668 260.826C7.6159 262.301 6.50769 263.967 5.6652 265.857C5.45472 266.321 4.84374 266.56 4.34157 266.364C3.93995 266.201 3.71014 265.854 3.71677 265.479ZM5.15396 283.299C5.15894 283.018 5.29926 282.709 5.60586 282.527C6.08261 282.254 6.68754 282.358 7.01733 282.77C8.20228 284.383 9.65959 285.845 11.3566 287.092C11.7892 287.412 11.8798 288.007 11.5356 288.406C11.1915 288.806 10.5495 288.889 10.117 288.569C8.25362 287.194 6.63003 285.604 5.34675 283.833C5.21471 283.675 5.15064 283.486 5.15396 283.299ZM12.3736 256.328C12.3796 255.985 12.5874 255.676 12.8934 255.526C14.7297 254.621 16.7284 254.063 18.7885 253.85C19.0923 253.824 19.3961 253.798 19.7 253.772C20.2734 253.751 20.7386 254.134 20.7629 254.665C20.7877 255.165 20.375 255.626 19.8016 255.647C19.5315 255.674 19.2619 255.669 18.9912 255.726C17.2013 255.914 15.4396 256.413 13.8077 257.196C13.2978 257.437 12.694 257.27 12.4327 256.797C12.4017 256.641 12.3708 256.484 12.3736 256.328ZM15.4684 290.942C15.4706 290.817 15.5065 290.693 15.5419 290.6C15.7523 290.135 16.3633 289.896 16.8655 290.092C18.8067 290.876 20.8872 291.412 23.0721 291.762C23.6101 291.834 24.0057 292.341 23.8957 292.838C23.8195 293.337 23.2737 293.702 22.7362 293.598C20.4165 293.245 18.1686 292.644 16.0932 291.827C15.7247 291.696 15.4617 291.316 15.4684 290.942ZM26.0009 145.46C26.0098 144.96 26.4556 144.531 26.9948 144.541C27.5676 144.551 27.9985 144.964 28.0234 145.464C28.0228 147.4 28.1548 149.462 28.3194 151.588C28.378 152.089 27.9653 152.55 27.3913 152.602C26.851 152.655 26.3522 152.272 26.2942 151.74C26.0964 149.582 25.9992 147.458 26.0009 145.46ZM26.2457 139.252C26.2463 139.22 26.2463 139.22 26.2468 139.189C26.4535 137.039 26.7944 134.922 27.2336 132.963C27.3435 132.465 27.8888 132.131 28.4263 132.234C28.9638 132.338 29.3257 132.843 29.2157 133.341C28.777 135.269 28.4715 137.293 28.2665 139.35C28.2234 139.879 27.7113 140.245 27.1727 140.204C26.6341 140.164 26.2369 139.751 26.2457 139.252ZM28.2995 70.8871C28.3084 70.3878 28.7542 69.9585 29.3271 69.9686C29.9 69.9787 30.3308 70.3921 30.3214 70.9227C30.285 72.9825 30.3159 75.0434 30.3468 77.1044C30.3379 77.6038 29.8921 78.033 29.3524 78.0548C28.7795 78.0447 28.3486 77.6313 28.3237 77.1313C28.2928 75.0703 28.2625 72.9781 28.2995 70.8871ZM28.4427 64.7083C28.5134 62.6179 28.6179 60.528 28.7555 58.47C28.7986 57.94 29.277 57.5738 29.8162 57.5833C30.3885 57.6246 30.7851 58.0687 30.7763 58.568C30.6392 60.5948 30.5348 62.6846 30.4646 64.7438C30.4552 65.2744 29.9763 65.6718 29.4039 65.6305C28.8984 65.6217 28.4338 65.2076 28.4427 64.7083ZM27.0631 157.81C27.0708 157.373 27.4487 156.974 27.9221 156.889C28.463 156.804 28.9955 157.188 29.0541 157.689C29.2037 158.753 29.3866 159.849 29.6031 160.945C29.7887 161.885 29.9406 162.824 30.1599 163.765C30.2522 164.266 29.9064 164.759 29.3655 164.843C28.8247 164.928 28.291 164.606 28.1988 164.105C28.0137 163.134 27.8281 162.194 27.6425 161.254C27.4265 160.127 27.2437 159.031 27.094 157.967C27.0614 157.904 27.062 157.872 27.0631 157.81ZM25.3668 255.464C25.3685 255.37 25.3702 255.277 25.405 255.215C25.5823 254.719 26.1265 254.447 26.6629 254.613C28.8091 255.244 30.9497 256.187 32.9501 257.439C33.4169 257.728 33.5412 258.324 33.2302 258.755C32.9191 259.187 32.2767 259.301 31.8098 259.011C29.9763 257.855 28.0367 256.978 26.0579 256.413C25.6226 256.249 25.3597 255.87 25.3668 255.464ZM28.4839 83.3155C28.4927 82.8161 28.9043 82.4175 29.444 82.3958C30.0174 82.3746 30.482 82.7887 30.5069 83.2886C30.6052 85.3508 30.7035 87.413 30.8355 89.4757C30.8598 90.0069 30.4477 90.4367 29.8743 90.4578C29.3008 90.479 28.8357 90.0961 28.8114 89.565C28.6794 87.5022 28.5479 85.4083 28.4833 83.3467L28.4839 83.3155ZM29.3433 95.6933C29.3516 95.2251 29.7295 94.8259 30.2697 94.773C30.81 94.7201 31.3089 95.1034 31.3669 95.6352C31.5105 97.0426 31.6535 98.4811 31.7971 99.8885C31.8535 100.514 31.943 101.171 32.033 101.797C32.0916 102.298 31.712 102.79 31.138 102.843C30.5978 102.896 30.0647 102.543 30.0067 102.011C29.9172 101.354 29.8608 100.729 29.7714 100.071C29.6277 98.6641 29.451 97.2249 29.3416 95.7869C29.3422 95.7557 29.3427 95.7245 29.3433 95.6933ZM29.0219 127.156C29.0235 127.063 29.0589 126.97 29.0948 126.845C29.4832 125.853 29.9053 124.862 30.3605 123.902C30.8157 122.942 31.3383 121.983 31.9278 121.057C32.2057 120.594 32.815 120.448 33.3161 120.707C33.8171 120.966 33.9757 121.53 33.6978 121.994C33.1768 122.859 32.6548 123.786 32.2343 124.684C31.7802 125.581 31.3924 126.542 31.0046 127.503C30.8272 128 30.2499 128.239 29.7135 128.074C29.2782 127.91 29.0147 127.562 29.0219 127.156ZM29.5102 169.997C29.5179 169.56 29.8278 169.191 30.3013 169.106C30.8427 168.99 31.3763 169.312 31.5023 169.814C31.9724 171.82 32.5099 173.827 33.0816 175.804C33.2413 176.307 32.8949 176.831 32.3535 176.947C31.8115 177.093 31.2442 176.771 31.1182 176.269C30.547 174.261 30.0101 172.222 29.5063 170.216C29.5074 170.153 29.5085 170.091 29.5102 169.997ZM30.9452 108.022C30.9529 107.585 31.2971 107.185 31.77 107.131C32.3108 107.047 32.8439 107.399 32.9362 107.901C33.3361 110.062 33.773 112.036 34.279 113.918C34.405 114.42 34.0928 114.914 33.5509 115.061C33.0095 115.176 32.4753 114.886 32.3157 114.383C31.7771 112.438 31.3407 110.432 30.9413 108.24C30.9435 108.115 30.9446 108.053 30.9452 108.022ZM28.5782 293.014C28.5865 292.546 28.9986 292.116 29.5383 292.095C31.7315 291.977 33.8617 291.609 35.8941 291.051C36.436 290.905 37.0045 291.165 37.1641 291.667C37.3238 292.169 37.0448 292.695 36.5029 292.841C34.3346 293.459 32.0359 293.824 29.7073 293.971C29.1339 293.992 28.6688 293.609 28.6445 293.078C28.5776 293.046 28.5776 293.046 28.5782 293.014ZM32.9379 182.014C32.9451 181.609 33.2208 181.27 33.6616 181.122C34.2035 180.975 34.772 181.235 34.9316 181.737C35.5708 183.715 36.2779 185.663 37.0187 187.612C37.212 188.115 36.933 188.64 36.3905 188.818C35.848 188.996 35.2796 188.736 35.0862 188.233C34.3454 186.285 33.6394 184.274 33.0003 182.296C32.9683 182.202 32.9362 182.108 32.9379 182.014ZM34.2723 120.006C34.279 119.631 34.5209 119.292 34.9281 119.143C35.4369 118.965 36.039 119.225 36.2329 119.697C37.0069 121.677 37.9178 123.535 38.8989 125.238C39.1607 125.68 38.9818 126.27 38.5056 126.511C38.0294 126.753 37.3918 126.585 37.13 126.144C36.0826 124.377 35.1396 122.425 34.3336 120.35C34.2679 120.255 34.2701 120.131 34.2723 120.006ZM35.6164 116.439C35.6203 116.221 35.691 116.035 35.8628 115.85C37.3412 114.222 38.9864 112.69 40.7293 111.347C41.1735 111.011 41.8126 111.085 42.143 111.465C42.5065 111.878 42.4291 112.438 42.0187 112.774C40.3779 114.057 38.8024 115.465 37.4262 117.033C37.0821 117.433 36.4407 117.484 36.0081 117.164C35.7082 116.972 35.6115 116.72 35.6164 116.439ZM37.3821 193.737C37.3887 193.363 37.6307 193.023 38.0378 192.874C38.5466 192.696 39.1493 192.925 39.3432 193.397C39.6338 194.12 39.9586 194.813 40.2492 195.536C40.7679 196.7 41.2866 197.864 41.8711 199.123C42.0987 199.595 41.8528 200.153 41.3435 200.363C40.8341 200.572 40.2314 200.343 40.0038 199.871C39.4194 198.612 38.8675 197.416 38.3488 196.252C38.0245 195.528 37.734 194.805 37.4091 194.112C37.3782 193.955 37.3804 193.831 37.3821 193.737ZM36.4044 262.245C36.4088 261.996 36.5143 261.748 36.7535 261.565C37.164 261.228 37.8037 261.271 38.1678 261.652C39.0948 262.605 39.9195 263.618 40.6763 264.662C41.1691 265.389 41.6619 266.115 42.1198 266.904C42.3817 267.345 42.2027 267.935 41.7265 268.177C41.2503 268.418 40.6128 268.251 40.3509 267.809C39.9256 267.084 39.4665 266.358 38.9726 265.693C38.2821 264.713 37.4899 263.763 36.6624 262.905C36.4635 262.715 36.4005 262.464 36.4044 262.245ZM35.725 376.713C35.7266 376.619 35.762 376.526 35.7979 376.402C36.5398 374.48 37.2823 372.526 37.9574 370.571C38.1348 370.075 38.7126 369.804 39.2153 369.969C39.7518 370.134 40.0456 370.67 39.8689 371.135C39.1938 373.09 38.4507 375.075 37.6745 377.028C37.4972 377.525 36.9199 377.764 36.3835 377.599C35.9807 377.498 35.7178 377.119 35.725 376.713ZM40.6534 130.857C40.6583 130.576 40.7975 130.329 41.0367 130.146C41.4809 129.81 42.1201 129.884 42.4499 130.296C43.3089 131.279 44.2359 132.232 45.1976 133.123C45.7617 133.632 46.36 134.111 46.9925 134.559C47.4251 134.879 47.5156 135.474 47.1715 135.873C46.8273 136.273 46.1854 136.355 45.7528 136.036C45.0877 135.524 44.4226 135.013 43.8259 134.441C42.7973 133.517 41.8378 132.502 40.9124 131.455C40.7467 131.296 40.6495 131.076 40.6534 130.857ZM42.6748 205.131C42.6809 204.788 42.8891 204.448 43.2626 204.299C43.7719 204.089 44.3752 204.287 44.6028 204.759C45.4485 206.491 46.328 208.224 47.208 209.925L47.4361 210.366C47.6637 210.838 47.4516 211.397 46.9423 211.606C46.4329 211.816 45.8297 211.618 45.6021 211.146L45.3739 210.705C44.4945 208.972 43.6487 207.24 42.7693 205.508C42.7035 205.413 42.6726 205.256 42.6748 205.131ZM39.8441 364.922C39.8458 364.829 39.8469 364.766 39.8822 364.673C40.4899 362.717 41.065 360.698 41.6396 358.71C41.7832 358.213 42.3279 357.91 42.8649 358.045C43.4019 358.179 43.73 358.684 43.5864 359.181C43.045 361.201 42.4361 363.22 41.8279 365.207C41.6842 365.704 41.1064 365.975 40.5694 365.84C40.133 365.739 39.8364 365.359 39.8441 364.922ZM41.2494 289.397C41.255 289.085 41.429 288.776 41.7356 288.594C43.1996 287.777 44.6315 286.866 45.9651 285.796C45.9347 285.609 45.9043 285.421 45.8745 285.202C45.7822 284.7 46.1618 284.208 46.7357 284.155C47.2423 284.102 47.7097 284.36 47.8367 284.799C48.0384 284.834 48.2052 284.93 48.3709 285.089C48.735 285.47 48.7245 286.063 48.314 286.4C48.2455 286.461 48.2113 286.492 48.1428 286.553C48.1411 286.646 48.1731 286.741 48.1715 286.834C48.3819 288.274 48.5587 289.713 48.7355 291.152C48.794 291.653 48.3813 292.114 47.8405 292.198C47.3002 292.251 46.8014 291.868 46.7091 291.366C46.5605 290.24 46.4457 289.114 46.2634 287.987C45.1364 288.81 43.9437 289.538 42.752 290.204C42.2753 290.477 41.6378 290.309 41.3759 289.868C41.3108 289.742 41.2461 289.585 41.2494 289.397ZM42.9219 273.006C42.9285 272.631 43.2047 272.261 43.6113 272.144C44.1538 271.966 44.7223 272.226 44.8819 272.728C45.5901 274.613 46.1956 276.591 46.6955 278.816C46.8214 279.318 46.4756 279.811 45.9342 279.927C45.3928 280.042 44.8592 279.72 44.7332 279.219C44.2322 277.056 43.6594 275.141 42.9832 273.35C42.918 273.224 42.9197 273.13 42.9219 273.006ZM45.8681 108.596C45.8736 108.284 46.0482 107.944 46.3879 107.794C48.4624 106.769 50.6346 105.933 52.8012 105.409C53.3432 105.262 53.9111 105.553 54.037 106.055C54.1967 106.557 53.884 107.083 53.3426 107.198C51.3107 107.724 49.3087 108.47 47.3702 109.434C46.894 109.676 46.2565 109.508 45.9946 109.067C45.8963 108.909 45.8653 108.752 45.8681 108.596ZM43.1578 352.93C43.1589 352.868 43.16 352.805 43.1948 352.743C43.6683 350.754 44.1091 348.701 44.5152 346.71C44.6251 346.213 45.1367 345.878 45.7085 345.951C46.246 346.054 46.6084 346.528 46.5316 347.058C46.1249 349.08 45.6841 351.133 45.2101 353.153C45.1001 353.651 44.5549 353.985 44.0179 353.85C43.4804 353.747 43.15 353.367 43.1578 352.93ZM45.5986 340.735C45.5992 340.704 45.6003 340.642 45.6008 340.61C45.94 338.587 46.2461 336.532 46.4842 334.507C46.5605 334.009 47.0389 333.643 47.6112 333.684C48.1493 333.756 48.5796 334.2 48.5028 334.73C48.2305 336.785 47.9238 338.872 47.5846 340.895C47.5083 341.393 46.9962 341.759 46.4245 341.686C45.9544 341.584 45.5903 341.203 45.5986 340.735ZM48.3067 216.407C48.3128 216.063 48.5211 215.724 48.8945 215.574C49.4039 215.365 50.0071 215.563 50.2347 216.035C51.276 218.145 52.1533 220.002 52.9653 221.733C53.1929 222.206 52.9471 222.763 52.4377 222.973C51.9284 223.183 51.3257 222.953 51.0981 222.481C50.3192 220.782 49.4082 218.924 48.4006 216.814C48.3354 216.688 48.3045 216.532 48.3067 216.407ZM47.3432 297.434C47.3515 296.966 47.7631 296.567 48.2697 296.514C48.81 296.461 49.3082 296.875 49.3668 297.376C49.5325 299.439 49.6639 301.533 49.7623 303.596C49.7866 304.127 49.3407 304.556 48.801 304.578C48.2276 304.599 47.763 304.185 47.7381 303.685C47.6398 301.623 47.5078 299.56 47.3416 297.528C47.3421 297.496 47.3427 297.465 47.3432 297.434ZM47.1655 328.4C47.166 328.369 47.166 328.369 47.1666 328.338C47.3716 326.281 47.5091 324.223 47.6462 322.196C47.6893 321.666 48.1677 321.3 48.7069 321.309C49.2792 321.351 49.6764 321.763 49.667 322.294C49.5294 324.352 49.3913 326.441 49.1863 328.498C49.1432 329.028 48.6648 329.394 48.0924 329.353C47.5538 329.312 47.1566 328.899 47.1655 328.4ZM47.9325 309.838C47.9414 309.339 48.3872 308.91 48.9264 308.919C49.4992 308.929 49.9301 309.343 49.955 309.843C49.9859 311.904 49.9825 313.995 49.9118 316.086C49.9024 316.616 49.4234 317.014 48.8843 317.004C48.3114 316.994 47.881 316.549 47.8899 316.05C47.9606 313.96 47.9634 311.899 47.9325 309.838ZM51.1031 138.471C51.1053 138.346 51.1412 138.222 51.1771 138.098C51.3876 137.633 51.9981 137.425 52.5002 137.622C54.4746 138.437 56.5545 139.004 58.672 139.354C59.2095 139.457 59.5719 139.931 59.4957 140.429C59.3857 140.927 58.8742 141.261 58.3361 141.19C56.0507 140.806 53.8371 140.174 51.7285 139.325C51.3263 139.193 51.0965 138.846 51.1031 138.471ZM51.1376 281.142C51.1409 280.955 51.2116 280.769 51.3497 280.584C52.6248 279.014 53.8015 277.287 54.8445 275.494C55.0887 275.03 55.7323 274.854 56.1996 275.112C56.7012 275.34 56.8935 275.905 56.6156 276.368C55.5372 278.254 54.2915 280.074 52.9474 281.736C52.6032 282.136 51.9613 282.218 51.5287 281.898C51.2619 281.737 51.1321 281.454 51.1376 281.142ZM53.5652 227.832C53.5718 227.457 53.8138 227.118 54.2209 226.969C54.7297 226.791 55.3324 227.02 55.5258 227.523L55.7523 228.057C56.4953 229.881 57.1714 231.673 57.7813 233.4C57.9409 233.903 57.6619 234.429 57.12 234.575C56.5781 234.722 56.0096 234.462 55.85 233.96C55.2395 232.263 54.5971 230.472 53.8535 228.68L53.627 228.145C53.5613 228.05 53.563 227.957 53.5652 227.832ZM58.6664 105.419C58.6752 104.919 59.1211 104.49 59.6603 104.499C59.8961 104.504 60.132 104.508 60.3342 104.511C61.3452 104.529 62.3887 104.61 63.3975 104.752C64.4399 104.896 65.515 105.102 66.5541 105.432C67.0905 105.598 67.3849 106.103 67.2076 106.599C67.0303 107.095 66.4861 107.367 65.9497 107.201C65.0106 106.935 64.0703 106.731 63.0953 106.589C62.1534 106.479 61.2109 106.4 60.2674 106.383C60.0652 106.38 59.863 106.376 59.6271 106.372C59.1216 106.363 58.657 105.949 58.6664 105.419ZM57.637 239.642C57.6442 239.236 57.9541 238.867 58.3944 238.75C58.9358 238.634 59.47 238.925 59.6296 239.427C60.1992 241.529 60.6682 243.597 61.004 245.57C61.0963 246.071 60.7167 246.564 60.1759 246.648C59.6351 246.732 59.102 246.379 59.0097 245.878C58.6733 243.937 58.2038 241.899 57.6663 239.892C57.6343 239.798 57.6353 239.735 57.637 239.642ZM57.3648 270.231C57.3665 270.138 57.3681 270.044 57.4035 269.951C58.1112 268.059 58.6857 266.071 59.0581 264.08C59.168 263.582 59.6796 263.248 60.2513 263.32C60.7889 263.423 61.1513 263.898 61.0745 264.427C60.6667 266.512 60.0911 268.562 59.348 270.547C59.1707 271.044 58.5934 271.283 58.057 271.118C57.6206 271.016 57.3576 270.637 57.3648 270.231ZM59.746 251.885C59.7543 251.417 60.1665 250.987 60.7062 250.966C61.2796 250.944 61.7448 251.327 61.7696 251.827C61.8773 253.359 61.9176 254.889 61.8916 256.356C61.8811 256.949 61.8706 257.542 61.827 258.103C61.7839 258.633 61.3386 259.031 60.7663 258.99C60.194 258.949 59.7968 258.536 59.8062 258.005C59.8498 257.444 59.8598 256.882 59.8703 256.289C59.8957 254.854 59.8543 253.386 59.7455 251.916C59.7449 251.948 59.7455 251.916 59.746 251.885ZM64.1439 140.636C64.1522 140.168 64.5637 139.769 65.0703 139.716C67.2977 139.568 69.3616 139.136 71.262 138.42C71.7714 138.21 72.3735 138.471 72.5674 138.942C72.795 139.415 72.5155 139.972 72.0067 140.15C69.9367 140.925 67.6358 141.416 65.2056 141.591C64.6654 141.644 64.1671 141.23 64.1085 140.729C64.1428 140.699 64.1433 140.667 64.1439 140.636ZM71.2094 109.042C71.2127 108.855 71.2834 108.669 71.3873 108.514C71.6983 108.083 72.3403 108 72.8071 108.29C74.6726 109.54 76.3653 111.037 77.8518 112.749C78.2153 113.161 78.1374 113.753 77.6938 114.057C77.2502 114.362 76.6105 114.319 76.2807 113.908C74.9267 112.323 73.3666 110.953 71.6679 109.799C71.3674 109.638 71.2039 109.354 71.2094 109.042ZM76.2279 135.916C76.2323 135.666 76.3373 135.45 76.5428 135.266C77.3306 134.562 78.0189 133.762 78.641 132.899C79.194 132.128 79.6464 131.325 79.9989 130.457C80.2099 129.961 80.7872 129.721 81.2894 129.917C81.8253 130.114 82.0854 130.649 81.875 131.114C81.4871 132.075 80.9645 133.034 80.3425 133.897C79.6514 134.852 78.8597 135.775 77.9692 136.571C77.5581 136.938 76.9179 136.927 76.5538 136.546C76.3201 136.417 76.2235 136.166 76.2279 135.916ZM79.4323 118.677C79.4389 118.303 79.6809 117.963 80.0543 117.814C80.5631 117.636 81.1658 117.865 81.3597 118.336C82.2662 120.444 82.8015 122.576 82.933 124.67C82.9578 125.17 82.5451 125.631 81.9717 125.652C81.3983 125.674 80.9331 125.291 80.9088 124.76C80.8072 122.885 80.336 120.941 79.493 119.053C79.4615 118.927 79.4301 118.802 79.4323 118.677Z" fill="#E1DEE1"/>
<path d="M32.0686 385.482C32.0708 385.357 32.1062 385.264 32.1421 385.14C32.5637 384.18 32.9852 383.219 33.4068 382.259C33.6173 381.794 34.1946 381.555 34.7305 381.751C35.2327 381.948 35.4929 382.483 35.2819 382.979C34.8603 383.939 34.4382 384.931 34.0167 385.891C33.8062 386.356 33.1951 386.595 32.6929 386.399C32.2918 386.204 32.062 385.857 32.0686 385.482Z" fill="#E5D0E8"/>
</svg>
