<svg width="600" height="380" viewBox="0 0 600 380" fill="none" xmlns="http://www.w3.org/2000/svg">
<path d="M292.679 378.274C291.683 378.07 290.735 379.004 290.079 379.348C288.767 379.925 287.2 378.626 286.738 377.529C283.183 376.046 278.38 378.576 276.428 374.402C274.658 373.993 272.344 374.038 271.314 372.064L267.778 371.577C267.009 371.702 267.432 370.697 267.313 370.257C265.533 369.406 266.268 367.397 265.463 365.753C265.333 364.757 264.116 364.448 263.875 363.345C261.437 362.616 263.917 359.689 262.245 358.724C262.326 357.281 262.956 355.609 262.051 354.294C260.168 353.776 258.814 352.141 257.571 350.614C257.553 349.618 256.871 348.524 256.204 348.202C255.844 346.66 255.164 345.674 253.719 345.038C251.499 344.194 252.327 341.409 251.425 340.208C251.285 338.66 249.502 337.697 249.69 335.92C248.005 334.29 249.394 331.938 247.386 330.648C247.463 328.984 245.385 329.8 245.132 328.032C243.588 328.061 244.433 326.052 242.892 326.081C242.648 324.866 241.438 325 240.765 324.458C241.181 323.122 238.747 322.614 238.948 321.502C236.082 321.558 233.412 320.28 230.442 320.448C229.219 319.917 228.543 319.154 226.893 319.297C226.496 321.629 223.49 320.026 222.632 321.261C221.561 322.944 221.472 324.05 220.519 326.174C219.529 326.305 219.435 327.081 219.234 328.082C217.252 328.232 218.383 329.76 216.745 330.568C213.244 331.962 212.399 327.992 209.314 328.05C207.937 325.086 203.656 326.053 202.376 322.534C201.59 321.773 200.271 321.909 199.813 321.032C198.987 318.168 196.417 316.333 197.56 312.656C197.305 310.777 195.741 309.7 196.034 307.7C195.325 305.277 193.218 304.43 191.526 302.469C190.423 302.378 189.85 301.282 188.956 300.636C188.365 298.541 185.581 297.044 184.771 295.066C183.401 292.544 179.541 292.397 179.584 288.85C179.657 286.854 177.674 286.893 176.231 286.365C169.938 285.822 162.639 284.521 156.238 284.092L155.473 290.198L120.541 284.773L77.7237 258.784L77.2767 258.46C77.918 257.45 78.8987 256.768 79.0977 255.654L50.557 251.588L50.4026 251.492C50.495 250.584 50.6003 249.674 50.1311 248.836C48.4657 248.318 49.9825 247.066 49.6336 246.297C51.0907 242.389 48.6834 238.233 46.0876 235.521L42.3343 230.288C41.6567 229.528 41.0178 230.541 40.2465 230.557L39.2329 229.581C40.4174 228.336 39.0562 226.594 38.8058 225.27C36.0438 225 33.5932 223.836 31.7874 221.882C31.6225 219.449 29.7183 218.05 28.3596 216.421C27.2582 216.445 26.2623 216.357 25.367 215.712C23.2523 214.762 21.1165 212.925 18.585 213.093L16.9793 210.249C17.2976 209.689 17.9437 209.009 17.3749 208.246C18.6646 206.777 16.9851 205.598 18.7184 204.228C19.2439 203.109 18.2257 201.913 17.3292 201.266C16.5381 200.398 16.8389 199.064 17.3726 198.276C16.2514 197.414 15.8839 195.76 15.3011 194.334C14.7324 193.572 13.5058 192.934 13.8066 191.598C12.7825 190.181 13.1828 188.29 12.0534 187.096C12.3121 183.877 7.84963 181.428 10.3167 178.382C8.93803 175.865 12.5192 178.333 12.5801 176.116C12.6561 174.564 12.8469 173.229 11.7152 171.926C10.8328 171.946 9.94569 171.634 9.26572 170.764C8.01932 169.24 7.41192 166.705 8.14573 165.028C7.65068 162.602 8.37511 160.48 9.31722 158.244C10.9896 159.093 10.0253 160.333 9.82981 161.445L11.872 164.057C12.7369 163.262 12.0335 161.394 11.7889 160.293L11.1055 159.312C11.6403 158.634 11.1815 157.76 10.834 156.992L12.8926 155.393C12.4373 154.74 11.7445 153.314 10.6619 154.224C10.3412 154.674 9.80524 155.35 10.3682 155.893C9.49978 156.466 10.5156 157.55 9.31838 158.242L8.52256 157.152C6.96019 156.301 7.02923 154.417 5.79337 153.336L4.91915 153.688C4.57273 152.92 5.6506 151.9 6.19714 151.665C5.94317 150.12 5.02448 148.478 5.2129 147.034C3.16366 144.088 2.55159 141.333 1.15539 138.04C2.76341 136.01 1.39179 133.825 2.22155 131.481C3.81203 128.675 4.37612 124.232 2.54924 121.392C3.06067 119.608 0.838232 118.772 0.800781 117.111L1.60011 113.438C2.74936 110.53 6.26619 110.12 6.52833 107.012L8.52842 102.757C9.03165 100.642 10.1868 97.9557 8.81515 95.7719C11.0891 93.9479 8.7262 91.7854 9.66832 89.5486L9.92929 86.3299C11.8802 84.8459 11.2775 82.5327 11.123 80.5418L15.1689 74.1362L16.5767 72.9967C20.2141 68.0399 22.1803 62.2353 24.7011 56.6399C26.3852 53.0567 28.7376 49.7922 29.7557 46.0021C30.6206 45.2071 30.376 44.1053 31.2398 43.3102C30.8745 41.7674 32.0671 40.8547 31.9221 39.3061C33.448 38.497 32.7388 36.4085 33.4867 35.283L34.2755 36.0403C35.4798 35.6805 36.4079 37.7655 37.7034 36.5178C38.2639 36.9482 38.5144 38.2723 38.9498 38.0407L38.6958 36.4954C37.0527 36.9763 36.4382 34.1094 34.4792 35.2606C34.0262 34.7174 33.6809 34.0599 33.0221 34.1858C33.2058 32.5194 34.5013 31.2729 34.911 29.9334L35.4798 30.6955L36.5401 28.7893C36.2019 28.4646 35.8671 28.2506 35.426 28.2613C35.3007 27.5991 35.2668 26.0491 35.8051 25.4835C36.4827 26.2433 36.6758 25.0202 37.2248 24.8979L36.1012 23.9266C35.9409 21.7145 37.1217 20.2481 36.4218 18.4911C36.2534 15.8358 38.4934 12.4631 36.23 9.85359C36.0638 7.30995 37.447 5.06266 38.6163 3.15403C41.3162 5.64123 43.8242 9.35262 47.3691 10.1582C48.4809 10.5756 49.7203 11.7669 50.9187 11.1872L51.6115 12.6124C52.4786 11.9292 53.1821 13.7955 53.8129 12.4525C55.7006 13.0746 53.9779 14.8867 54.4472 16.205C54.027 17.0999 52.831 17.9031 52.0433 17.1458C51.3318 19.8211 47.8009 19.6777 47.1935 22.1285C47.6582 23.2257 48.8613 22.7565 49.5096 22.1873C49.0625 21.865 48.5231 22.4307 48.3955 21.6593L50.2305 19.9565C52.2083 19.6906 53.6022 17.8867 55.3471 17.0718C55.8106 18.0585 54.5022 18.7522 54.0692 19.0945C54.5326 20.0811 53.429 19.9953 52.7713 20.2317C52.6753 20.8983 52.8053 21.7815 53.587 22.2073C53.6046 22.9822 53.4033 23.8737 52.6449 24.4439C51.5084 22.9187 51.127 25.5858 50.2457 25.6058C50.124 25.0543 50.7701 24.3758 50.5348 23.7161L50.2024 23.6126C49.2323 24.631 48.1532 25.6529 47.1748 26.2279L47.8582 27.2099C48.6072 26.1962 49.7389 27.5003 50.5126 27.5933L52.5595 25.4423C53.2054 24.7627 53.0194 26.3185 53.7801 25.8587C55.0721 24.5005 54.3652 22.4119 55.4373 21.0571C54.9749 20.0705 56.6181 19.5907 56.2623 18.4899C57.1296 17.8067 57.5403 16.4673 58.7469 16.2179C57.4011 15.1397 58.2437 13.3486 58.651 11.8998L57.8317 9.47963C57.7065 8.81755 58.3631 8.58237 58.7002 8.90575L58.6745 7.68743C60.3221 7.4299 58.7434 5.80234 59.6048 4.89801L59.1566 4.57579L58.5047 5.03326C58.479 3.92666 57.4443 1.95454 58.5211 0.823242L58.6276 0.914972L70.6128 5.24139L109.085 17.2458L145.519 26.4078L175.83 32.2537L208.551 37.3891L246.873 41.531L281.079 43.5361C292.441 44.0934 303.134 44.1111 315.476 43.9865C315.773 42.2083 315.625 40.2174 315.718 39.3295C316.375 38.9838 319.664 38.1465 319.375 40.3667L320.726 47.6519C321.625 48.6327 323.158 48.0482 324.262 48.1389C325.729 49.9945 330.314 47.5802 329.936 50.9106C330.926 50.8918 332.339 49.8675 333.315 48.9621C335.523 49.1419 337.837 49.2078 339.515 50.3943C339.19 50.8435 338.88 51.8467 339.547 52.1654C340.648 52.1442 342.516 51.7761 342.436 53.4402L343.329 53.9775C344.428 53.8447 343.844 52.0842 345.512 52.8286C346.309 54.1422 347.53 54.6738 349.074 54.7549C349.005 56.9717 350.98 56.3801 352.302 56.4647C354.616 56.4201 355.454 54.0775 357.426 53.4861C358.105 54.3598 358.692 56.3425 360.329 55.3135L365.838 55.2089L367.952 56.2766L370.342 55.7521L370.763 55.5639C369.834 56.3342 368.855 57.0833 368.069 57.9477C364.692 60.0091 360.852 60.8594 357.933 63.6877C354.369 67.4131 351.157 72.2417 347.246 75.0887C347.365 75.6403 347.824 76.5163 348.594 76.3906C351.227 75.7838 353.74 74.7371 356.025 73.2519C357.566 73.1107 358.517 70.987 360.41 72.0571C360.534 72.7203 360.106 73.393 359.562 73.7353C360.027 74.9453 358.505 76.0813 359.185 77.0667C360.698 75.485 361.499 77.0209 363.266 77.2067C365.457 76.4987 367.53 75.4603 369.369 73.6517L373.32 72.6874C374.964 72.3229 375.354 69.7674 377.119 69.8427C378.302 68.2681 380.677 65.7833 382.193 64.425C384.264 63.1643 386.642 60.7911 389.321 62.5117C388.902 63.6277 387.673 62.7657 387.022 63.3325L387.035 63.9969C384.322 66.1561 382.505 69.0713 383.007 72.1641C383.559 72.1535 383.322 71.3821 383.757 71.041C384.641 71.1339 385.041 69.0207 385.947 70.3331C386.746 70.259 387.726 70.1826 388.67 70.3083C389.545 70.4237 390.388 70.7141 391.036 71.3397C391.835 72.6533 393.617 73.6141 394.195 75.0441C395.42 75.685 396.955 75.211 397.826 74.6395C399.058 75.7226 400.255 74.9241 401.482 75.6743C402.774 74.0974 404.405 72.9579 406.038 71.9289C408.12 71.3338 409.766 70.9681 412.078 70.8117C413.491 69.7863 415.572 69.0807 417.436 68.6009L417.774 68.9266C416.693 70.0555 418.262 71.3538 417.622 72.4746C417.966 73.1331 418.606 72.1229 418.954 72.8909C419.616 72.9885 420.945 73.2942 421.37 72.4005C421.592 72.6181 422.038 72.8309 422.046 73.2742C422.814 73.1483 423.686 72.5769 424.005 72.0171C425.549 72.097 425.256 73.9869 426.37 74.629L425.958 76.0766C426.737 76.5046 427.611 76.0437 428.28 76.4741L428.075 77.2538C428.856 77.7923 429.523 78.1122 430.296 78.2063C429.227 79.8891 427.005 78.9366 425.352 78.9695C424.573 78.6519 423.728 80.4418 423.259 79.0118C422.143 78.3686 422.726 80.0197 422.071 80.2537C421.753 80.9239 422.54 81.6837 421.774 81.9213C419.766 80.7429 417.85 78.565 415.104 79.0623C413.889 78.8649 412.702 80.2183 412.392 81.2215L410.194 81.5978C409.887 82.8221 408.761 81.6261 407.995 81.8625C406.114 81.5673 406.048 83.7839 405.296 84.7965C404.091 85.1529 403.79 86.5981 403.368 87.6035L402.36 86.8486C402.44 85.2963 404.425 85.3679 403.955 83.8263C403.072 83.8439 402.217 85.1905 401.317 84.3214C401.115 85.2127 401.249 86.317 400.267 86.8909C399.485 86.3523 399.913 85.6785 399.46 85.0234C398.473 85.2634 398.843 87.3625 397.528 87.7211C397.023 90.0566 396.185 92.4003 394.576 94.5371C393.829 95.7707 394.52 97.3077 393.217 98.3309C391.237 98.4814 392.271 100.565 390.856 101.591C391.096 102.583 389.586 104.274 391.469 104.68C392.542 103.219 393.731 102.087 394.136 100.196C397.229 100.577 396.825 96.8197 397.893 95.0263C399.212 94.8887 398.947 92.5686 400.273 92.7638C400.389 93.2047 400.625 93.8657 399.964 93.8774C400.103 95.3157 399.247 96.5505 398.829 97.7782C397.123 100.692 396.749 104.134 396.043 107.471C396.394 108.461 396.865 110.002 395.554 110.581C394.714 112.702 394.634 114.255 395.449 116.455C394.083 119.805 393.709 123.246 394.325 126.558L394.912 128.429C396.717 130.497 395.682 133.953 396.07 136.825C397.221 139.35 398.148 141.657 399.412 144.18C400.32 145.492 401.331 146.469 403.088 146.212C405.403 146.166 406.688 144.257 408.53 142.67C410.638 137.754 413.626 132.709 412.411 126.973L408.998 119.409L407.457 115.993L408.09 114.541C407.954 113.214 408.132 111.106 407.01 110.131L409.126 105.547C409.637 103.543 406.698 99.8349 410.331 99.5409C410.638 98.4273 409.724 96.6727 411.256 96.1987C413.25 96.7139 412.973 93.8374 414.162 92.7061L414.819 92.4721C415.263 92.5733 414.941 93.0237 414.724 93.1377C414.857 94.3537 414.122 96.1411 415.021 97.1195L415.761 95.4438C416.654 96.0894 415.352 97.1137 415.805 97.6582C418.624 95.2769 414.475 91.7018 417.847 89.4193C418.721 88.9594 419.945 89.5991 420.363 88.3726L419.247 87.7294C417.786 86.3194 419.859 85.1705 419.717 83.6217C420.713 83.8239 421.366 83.3677 422.126 82.7985C423.492 84.9858 426.103 83.2735 428.001 84.5649C428.034 86.2253 429.688 86.1935 430.892 85.8361C431.452 86.2687 432.122 86.6981 432.889 86.4617C433.789 87.4413 435.532 86.4099 436.223 87.947C435.699 89.1758 437.917 90.0178 437.832 91.2385L436.838 91.1467L436.636 92.037C439.213 94.2019 438.958 98.0827 439.352 101.288C438.917 101.519 438.263 101.974 438.387 102.637C436.185 102.682 438.455 106.07 436.471 106.109C436.274 107.332 433.731 106.938 434.323 109.031C435.324 109.454 433.595 111.261 435.038 111.786C436.36 111.76 437.941 113.613 438.221 111.058C439.86 110.361 439.691 107.373 441.214 106.346C442.203 106.215 442.849 105.428 443.498 104.749C447.567 104.335 447.337 109.436 448.82 111.956C450.295 114.142 449.406 117.559 452.076 118.836L451.374 119.486C450.974 121.708 452.122 124.124 450.835 125.92L450.813 125.894C450.705 125.214 450.424 124.582 449.833 124.341C449.174 124.465 448.311 125.369 448.768 126.245C447.894 126.594 448.242 127.475 448.149 128.362C448.158 128.805 447.281 129.043 447.621 129.592L447.576 129.45C447.155 130.566 445.974 131.22 445.888 132.439L446.107 132.726L446.141 132.724C445.167 133.629 446.4 134.712 445.317 135.618C445.659 136.277 444.233 136.526 444.567 136.742L444.046 138.304L444.072 139.633L444.844 139.617C446.387 139.697 447.51 140.672 448.948 140.976C449.832 141.068 451.028 140.158 451.812 140.918L450.839 141.824C451.958 142.798 453.35 140.665 454.379 142.529C455.8 141.946 457.234 141.918 458.197 140.46C460.612 139.969 462.932 140.254 464.423 137.565C465.699 135.214 467.232 134.629 469.298 133.259C472.232 131.096 475.957 130.025 478.099 126.88L478.543 126.981C481.695 124.814 483.621 121.786 486.657 119.176L487.494 116.944C488.144 116.377 489.453 115.686 489.099 114.475C488.764 114.26 488.758 113.928 488.424 113.713L488.305 113.708C486.418 112.969 486.79 110.2 485.734 108.816L485.671 108.851C486.539 108.178 487.436 107.541 488.519 107.285C492.448 105.213 497.277 104.231 501.823 105.581C503.553 103.885 505.659 104.508 507.745 104.023C508.381 102.792 510.363 102.642 510.556 101.198C511.858 100.176 511.817 98.1815 513.807 98.4755C514.55 96.9091 513.304 95.1615 512.609 93.5141C513.38 93.4987 514.244 92.5955 513.789 91.8289C512.915 92.2886 513.112 91.1785 512.885 90.7399C512.441 90.6375 512.007 90.9786 511.794 91.315L511.569 91.0974C511.119 90.5529 511.106 89.9978 511.54 89.5474C513.725 88.6185 514.228 86.1701 515.184 84.379L515.122 84.4495C515.55 83.7769 516.455 81.2367 516.878 80.3418C518.376 77.9863 520.525 75.0653 523.258 73.9057L537.732 69.9733L555.47 64.4697L555.415 64.5119C555.402 63.4689 555.72 62.2823 555.414 60.8853C555.941 59.6563 557.482 59.5165 558.255 59.6129L558.451 58.2805C558.996 57.9371 559.892 58.6967 560.331 58.5769C560.426 57.689 560.058 55.8121 561.381 55.7886L560.922 54.9113C560.45 53.2578 561.646 52.3501 562.506 51.2246C562.367 49.6758 562.795 49.0031 563.1 47.6685C562.977 47.0051 561.638 46.1455 562.277 44.9154C561.148 43.4961 562 41.9297 562.409 40.2598C561.313 34.8526 563.839 28.4905 565.172 23.1481C567.237 21.6687 566.952 23.9994 567.958 24.8673C569.971 26.3809 571.461 23.5819 573.097 22.6635L574.289 21.5334C575.821 20.9502 576.503 22.045 577.833 22.4625C578.731 23.3315 579.931 22.7541 580.505 23.8525C582.37 29.2443 585.23 34.7291 586.875 40.1257C587.218 40.8947 587.894 41.5462 588.467 42.7539L591.229 43.0327C592.992 42.9998 591.918 44.4591 592.156 45.4517C592.935 45.7693 593.382 46.2043 593.288 46.9817C593.631 47.6402 594.53 48.5093 595.18 47.9425L596.277 47.7002C596.722 47.913 597.432 48.287 597.651 48.1717L597.698 48.2365C597.935 49.0067 599.056 49.757 598.302 50.5495L598.763 51.4257C599.203 51.4163 599.409 50.7459 599.749 51.1822C600.65 52.049 598.895 52.4206 599.248 53.4095C599.044 54.1893 598.617 54.7525 597.851 55.1018C597.073 54.7866 596.782 56.5659 595.671 56.1473C596.139 57.3562 594.816 57.3855 594.503 58.1675L593.18 58.0877C593.085 58.8649 593.671 60.4031 592.465 60.6513C592.252 60.9887 592.264 61.5426 591.828 61.7743C591.152 61.1251 590.79 59.6929 589.8 59.8246C589.586 60.0515 589.372 60.3878 589.036 60.0633C588.605 60.5159 588.967 61.9483 587.973 61.8602C588.537 62.4011 587.667 62.975 587.344 63.3149C587.032 64.0969 588.155 65.0694 586.723 65.1011C586.378 64.4438 585.613 64.793 585.168 64.5814C584.83 64.2569 585.686 63.0185 584.475 63.1561L584.13 62.4987C583.023 62.3011 583.719 63.837 583.063 64.0734C582.995 65.9585 583.142 67.6166 583.406 69.6051L582.128 71.6278C581.138 71.7607 581.101 70.1002 580.471 71.5549C580.493 72.4405 580.421 74.215 579.201 73.9093C578.643 73.5894 578.848 72.9202 578.951 72.5862C577.841 72.2782 578.21 74.0433 577.218 73.9551C577.45 74.5043 578.457 75.1463 577.482 75.9437C577.049 76.2859 576.378 75.8578 576.069 76.8621C575.073 76.6622 576.254 75.3075 575.161 75.665C574.414 76.7893 573.349 78.4745 574.588 79.6657C574.497 80.4442 572.751 81.2579 573.983 82.1177C573.233 83.1313 573.146 84.1297 572.286 85.1469C572.423 86.3629 572.674 87.687 571.819 88.9242C571.856 90.5846 571.459 92.5885 572.816 94.109C573.494 94.8687 574.666 93.0707 574.706 94.8429C572.419 96.1118 572.787 97.7663 572.282 99.8819L571.957 100.111C571.965 100.443 572.411 100.766 572.746 100.87C572.824 99.4269 574.281 100.503 574.944 100.598C575.193 101.811 577.511 101.981 577.108 103.651C578.214 103.847 578.684 105.167 579.144 106.043L582.232 106.195C582.868 104.962 585.182 105.021 584.372 103.266C583.274 103.402 583.345 101.738 582.345 101.318C581.908 101.548 581.806 101.884 581.358 101.561C580.912 101.35 581.234 101.01 581.23 100.79C583.322 100.744 585.133 102.807 585.728 104.787C586.549 106.985 583.216 105.841 582.927 107.73C580.931 107.111 581.324 109.982 579.338 109.805C578.774 109.264 578.53 108.161 578.077 107.619L576.587 109.979L576.367 109.985C576.385 110.76 575.843 111.215 575.198 111.893C574.309 111.582 573.672 112.702 573.226 112.491C572.908 113.051 572.708 113.942 572.257 113.509C572.354 112.953 572.228 112.18 573.226 112.491C572.976 111.167 572.96 110.393 572.615 109.734C572.309 110.849 571.513 109.759 570.967 109.992C570.892 111.544 571.596 113.523 571.303 115.191C569.869 115.223 569.134 116.791 567.929 117.149C566.923 116.506 566.291 117.85 565.403 117.538C564.656 118.662 563.341 119.025 562.355 119.268C561.614 120.614 559.716 119.548 559.085 120.892C557.88 121.252 556.317 120.29 556.251 122.284C555.265 122.528 555.516 123.962 554.294 123.547L550.832 126.506C550.755 127.949 549.214 128.093 548.913 129.43C548.27 130.219 547.41 131.236 547.214 132.347C547.214 132.347 547.25 132.776 546.231 132.702C544.699 133.29 545.28 134.606 545.081 135.608C545.998 137.14 546.85 135.672 548.076 136.428C548.508 136.696 549.083 137.181 549.083 137.181C549.731 141.486 550.839 146.669 548.39 150.601C548.768 152.697 546.261 153.973 545.974 155.973C545.902 157.636 545.391 159.532 543.866 160.34C542.86 159.697 545.082 155.549 541.921 157.06C541.573 156.292 541.262 157.185 540.821 157.194C538.925 156.24 537.139 155.172 535.35 153.993C536.061 156.194 538.287 157.141 538.45 159.574C539.368 161.216 541.159 162.504 542.825 163.021C543.394 164.429 543.941 165.905 544.238 167.413C544.612 169.31 544.588 171.26 543.711 173.193C543.729 173.968 543.318 175.306 542.884 175.648L543.508 173.144C541.958 172.845 542.537 174.992 541.896 175.892C542.81 177.312 541.07 178.458 541.215 180.006C541.017 181.006 541.504 182.99 540.175 182.8C538.893 184.601 539.933 186.793 539.318 188.801C538.327 188.934 537.969 187.613 537.399 186.849C536.896 183.98 537.609 181.416 538.214 178.854C538.758 178.509 539.395 177.389 538.395 177.078L538.5 176.744C537.824 176.094 536.872 177.888 536.621 176.564C537.039 175.557 536.7 175.121 536.46 174.241C536.019 174.25 535.379 175.152 535.137 174.27C535.122 173.605 536.21 172.916 534.987 172.501L534.017 173.52C532.457 172.78 530.901 172.148 530.204 170.613C530.52 169.942 530.508 169.388 530.275 168.84L531.467 167.926C530.792 167.277 528.796 166.768 529.532 165.201C529.75 165.085 530.304 165.182 530.075 164.854C529.845 164.417 529.83 163.752 529.172 163.877C528.961 164.216 528.865 164.881 528.419 164.669C528.405 164.116 528.042 162.572 529.481 162.872C529.138 162.326 530.095 160.754 528.78 161.116C528.315 160.018 529.058 158.784 529.144 157.672C530.127 157.206 530.556 156.753 530.752 155.642C529.761 155.665 530.622 154.76 530.497 154.097C530.168 154.104 529.067 154.24 529.307 155.009C529.324 155.785 529.461 157.001 528.359 157.025C527.608 157.929 526.629 158.504 526.768 159.832L525.901 160.516C526.244 161.061 527.489 162.473 526.062 162.728C526.403 163.162 526.314 164.162 526.869 164.372C526.12 165.385 527.68 166.126 526.818 167.032C527.626 168.674 527.674 170.89 529.685 172.064C528.381 172.98 530.595 173.262 530.063 174.161C530.624 174.592 531.411 175.349 531.431 176.234L531.107 176.574C530.226 176.594 530.176 174.38 529.218 175.841C528.082 174.316 527.331 175.329 525.788 175.253C525.56 174.926 525.548 174.372 525.104 174.27C524.578 175.39 523.665 173.972 522.893 173.989C522.252 174.889 523.814 175.741 524.48 175.946C524.926 176.158 525.694 176.03 526.041 176.688C526.576 176.01 527.132 176.22 527.788 175.984C528.82 177.844 531.026 177.905 532.7 178.754C532.93 179.192 532.72 179.64 532.395 179.98L533.009 182.736C532.005 182.204 531.13 182.556 530.123 181.913C530.163 183.685 532.344 182.64 532.924 183.845C533.697 183.938 533.72 184.933 534.283 185.476L534.296 186.14C533.745 186.042 532.525 185.737 532.544 186.622C532.774 187.06 533.778 187.592 532.907 188.165L534.495 190.122C535.591 189.876 534.732 190.892 535.291 191.212L534.102 192.237C532.773 191.933 532.853 190.602 531.425 190.744C531.176 189.53 530.304 189.885 529.42 189.793L529.203 190.018C529.541 190.344 530.971 190.201 530.557 191.428C531.674 192.068 533.219 192.144 533.473 193.689C534.114 192.789 535.571 193.753 535.648 192.31L538.729 192.132C539.199 193.45 540.766 194.522 540.141 196.088C539.794 197.189 540.73 197.848 540.73 197.848L541.418 199.05C542.111 200.476 543.464 201.885 543.605 203.324L541.818 202.254C540.95 202.829 540.182 202.956 539.655 204.074C538.644 203.212 538.801 205.312 537.68 204.562C537.615 206.556 535.188 206.5 533.865 206.53C533.985 206.969 533.226 207.541 533.89 207.637C535.628 206.489 537.969 207.657 539.356 205.63C540.343 205.388 541.56 205.582 541.805 206.685C541.886 205.465 543.451 206.426 543.533 205.206C544.657 206.178 545.769 206.596 545.696 208.26C544.837 209.277 546.276 209.576 545.528 210.589L544.43 210.722C542.914 211.977 543.777 216.166 540.768 214.572C540.224 214.917 539.583 215.818 539.007 214.722C538.685 215.173 537.806 215.304 537.571 214.533C537.663 213.756 536.682 214.221 536.457 214.116L536.37 215.116C535.94 215.566 535.143 214.478 534.837 215.593C535.74 216.57 538.141 215.408 538.288 217.177C538.087 218.069 536.553 218.434 537.788 219.404C537.147 220.417 536.407 221.762 535.091 222.124C536.456 223.976 536.934 220.642 538.162 221.389C538.592 220.826 539.25 220.7 539.235 220.036C539.687 220.468 540.244 220.786 540.888 219.998L541.338 220.43C541.264 222.094 540.198 223.669 539.005 224.582L538.223 224.156C532.846 225.162 529.551 230.664 526.439 234.501C525.163 236.524 525.666 239.393 525.051 241.51C524.833 241.625 524.505 241.745 524.389 241.414L524.594 240.745C521.74 241.253 518.539 241.104 516.392 243.7L512.348 250.216C511.943 251.886 512.653 254.086 511.02 255.009C510.707 255.792 510.73 256.789 509.746 257.142C509.188 256.822 508.628 256.502 508.207 257.288C508.465 259.056 506.835 260.088 505.646 261.113C505.58 263.108 503.179 264.158 501.763 264.965C500.678 265.766 500.272 267.326 498.602 266.586C497.95 267.045 499.058 267.241 498.847 267.69C498.983 268.905 498.456 269.913 497.472 270.268C497.137 270.165 496.902 269.505 496.468 269.738C498.058 271.917 493.338 272.798 495.141 274.532C495.257 274.861 494.938 275.312 494.714 275.205L494.163 275.217C494.065 275.773 494.313 276.986 493.211 277.012C493.678 278.221 491.155 278.72 492.179 280.136C492.779 282.338 490.282 284.166 491.433 286.246C491.349 287.466 489.597 287.949 490.18 289.486C489.422 290.058 490.645 290.584 490.22 291.257C490.188 294.804 491.579 297.874 492.426 301.29C494.934 309.986 501.484 317.04 506.606 324.348C506.191 325.776 506.172 327.218 506.634 328.856L506.783 329.406C506.992 329.541 507.429 330.778 507.638 330.913C507.846 331.046 507.644 331.414 507.644 331.414C507.092 330.814 506.6 329.684 506.376 328.893C504.364 327.61 504.309 325.174 504.371 322.956C502.826 322.88 503.79 321.638 502.674 321.001L502.465 321.56L504.592 327.937C506.621 329.997 507.132 333.198 509.815 334.8C511.353 339.64 516.054 342.746 516.83 347.936L517.166 353.136L517.335 360.777C516.947 363.222 514.906 365.594 516.059 367.896C515.2 368.912 515.144 371.35 513.257 370.728C512.062 371.53 511.107 373.214 509.656 372.36C508.793 373.154 507.573 372.848 506.593 373.425C505.379 373.342 505.233 371.793 505.653 370.786L505.651 370.676C506.434 371.212 507.333 372.077 508.205 371.614C508.743 371.049 507.745 370.738 507.629 370.409C504.665 370.918 504.148 367.606 503.119 365.857C502.233 365.765 501.67 365.114 501.541 364.229L498.761 363.073C498.331 363.637 497.755 362.542 497.109 363.221C497.095 362.557 496.653 362.456 496.205 362.134C495.514 360.82 494.289 360.293 494.472 358.518C493.798 357.978 493.78 357.202 493.654 356.43C492.209 355.908 489.887 355.518 489.404 353.645C490.501 353.398 490.143 352.188 490.344 351.297C489.779 350.757 490.208 350.193 490.305 349.637L488.33 350.014C488.234 350.68 489.673 350.87 489.031 351.772C487.935 352.018 486.493 351.606 486.242 350.282C484.229 348.998 484.169 346.341 482.38 345.052L481.119 342.865C482.41 341.508 483.021 339.278 484.085 337.481C483.747 337.154 483.726 336.16 483.069 336.397C482.193 336.636 482.999 338.17 481.993 337.528C482.192 336.526 481.196 336.438 480.743 335.894L479.987 336.576C480.004 337.35 481.539 336.984 481.344 338.096L481.047 339.653L479.847 340.233L478.143 337.944C478.77 336.49 478.844 334.828 478.258 333.288C479.563 332.484 478.205 330.853 478.951 329.728C479.903 327.933 478.868 325.964 478.941 324.409C478.389 324.31 478.927 323.745 478.81 323.414C476.915 322.462 477.751 320.337 475.965 319.38C474.523 318.969 472.903 320.446 472.413 318.241C471.198 318.158 470.599 315.956 469.61 316.089C468.706 315.112 467.596 314.805 467.674 313.362C465.133 313.088 464.719 309.33 461.964 309.39C460.872 309.86 460.619 308.424 459.735 308.221C457.986 308.925 456.426 308.185 454.916 309.658C454.928 310.213 454.831 310.768 455.278 311.09L452.439 312.262C451.361 313.394 449.966 315.089 448.851 314.449C447.883 315.577 446.442 315.166 445.462 315.742C442.864 317.906 444.095 313.78 442.651 313.258C441.973 312.498 440.974 312.188 440.201 312.093L439.181 310.898C439.51 310.781 440.177 311.098 440.856 311.858C441.071 311.633 441.51 311.512 441.612 311.177C440.5 310.758 440.37 309.876 438.944 310.129C437.499 309.608 439.013 308.356 437.463 308.057C436.693 308.076 435.932 308.536 435.728 309.314C433.721 308.253 431.848 308.296 429.846 307.564C430.157 306.67 432.161 307.512 430.921 306.321L427.844 306.721C426.219 307.977 424.78 307.677 422.914 308.05L420.898 306.654C420.569 306.772 420.262 307.778 419.919 307.23L419.484 307.461C418.288 308.265 418.335 310.256 416.456 310.077C415.871 308.538 415.479 310.764 414.585 310.229C413.621 311.47 411.533 311.738 410.54 311.65C410.867 311.533 411.401 310.745 411.166 310.084C410.819 309.316 409.837 309.781 409.811 308.674C410.333 307.333 409.646 306.13 408.741 305.154C407.786 306.837 407.721 308.833 407.433 310.722C406.554 310.853 403.979 309.028 403.584 311.141C402.71 311.493 401.578 310.189 401.05 311.197L397.727 310.498C395.853 310.429 394.462 312.453 392.683 311.717C391.825 312.734 391.199 314.298 389.991 314.658L388.561 314.802C388.473 314.716 388.145 314.921 387.681 314.933L387.111 314.058C385.912 314.638 385.655 312.982 384.458 313.674C383.766 312.361 382.553 312.276 381.336 312.082C380.82 313.757 378.515 314.141 378.887 316.016C379.46 317 380.667 316.75 381.551 316.841C383.884 317.674 385.244 314.321 387.035 315.61C387.378 315.689 387.3 315.626 387.96 315.265L388.56 314.802C388.473 315.8 387.73 317.146 386.405 317.065L386.425 317.952C387.623 317.26 387.888 319.248 389.088 318.668C389.514 317.993 389.261 316.558 390.48 316.753C390.557 315.31 391.686 316.504 392.445 315.934L394.066 314.457L394.323 316.113C393.446 316.354 392.012 316.276 391.591 317.172C393.132 317.137 391.962 318.936 392.414 319.48C392.116 320.926 390.738 318.52 390.673 320.516L389.918 321.309L390.255 321.522C390.044 321.97 389.047 321.77 389.396 322.538L388.412 322.893C388.316 323.56 389.209 324.094 389.53 323.644L390.296 323.405L390.544 324.618C391.537 324.706 392.236 326.352 393.205 325.334C393.433 325.662 394.002 326.422 394.651 325.965L397.357 328.674L395.972 330.81C395.409 330.269 394.635 330.177 393.983 330.634C393.44 330.978 393.682 331.97 392.802 331.989C392.35 331.554 393.217 330.87 393.204 330.318C392.088 329.677 391.809 327.025 389.95 327.73C389.797 325.852 386.659 328.468 387.597 326.01C386.57 324.481 384.614 325.745 383.591 324.328C383.264 324.445 382.595 324.128 382.607 324.681C383.822 324.765 384.294 326.194 384.101 327.417L384.324 327.524C384.217 327.748 383.566 328.205 384.457 328.628C384.382 330.18 382.394 330.116 381.526 330.688L381.482 328.694C380.823 328.821 380.358 327.722 379.715 328.513L379.257 327.748C378.939 328.309 378.276 328.214 377.722 328.114C376.742 328.689 377.464 331.333 375.582 331.042C375.23 330.053 374.24 330.185 373.699 330.641C372.807 330.218 372.135 329.68 371.039 329.926C370.242 328.836 368.822 329.421 368.029 328.442C368.348 327.881 368.996 327.313 369.561 327.964C369.678 328.294 369.795 328.513 370.02 328.729C371.186 326.709 368.017 327.886 368.635 325.992C367.643 325.902 366.748 325.369 366.081 325.05C365.65 325.502 364.655 325.414 364.748 324.637C364.728 323.75 363.968 324.21 363.522 324C363.94 322.994 363.154 322.346 362.387 322.474L360.517 322.625C360.178 322.301 360.608 321.738 360.05 321.417C358.825 320.892 358.315 322.785 357.326 322.917C357.125 323.81 357.915 324.568 358.901 324.324C360.093 323.41 361.226 324.714 362.445 325.018C362.343 325.465 361.806 326.032 361.37 326.262C358.67 323.774 355.855 326.054 352.756 325.569L350.986 325.276C347.448 324.692 343.969 321.998 339.914 322.977C336.821 322.714 334.553 324.869 331.577 324.826C329.083 326.654 325.659 326.398 323.953 328.984L323.617 328.77C323.708 327.881 324.406 327.504 325.501 327.257C326.271 327.129 326.544 326.49 326.205 326.053C325.327 326.294 324.015 326.768 323.449 326.116C323.873 325.33 324.627 324.538 324.161 323.441L323.933 323.113C322.721 323.14 322.006 325.705 320.872 324.289C319.455 324.986 321.455 325.716 320.593 326.621C320.716 327.173 322.034 327.033 321.394 327.933C322.39 328.133 322.191 329.133 321.987 329.914C320.452 330.169 320.5 332.384 318.837 331.978C319.001 334.413 316.057 335.808 314.432 337.173C313.14 338.53 310.925 338.028 309.286 338.729C308.419 339.412 309.63 339.386 309.644 339.941L307.632 340.552C306.626 339.91 304.931 341.153 304.67 339.276C303.913 339.956 302.684 339.209 302.046 340.222L300.601 339.7C299.854 340.824 301.293 341.125 301.859 341.777C302.411 341.765 302.748 342.088 302.757 342.533C301.67 343.222 300.281 345.246 298.819 343.95C298.807 343.396 298.142 343.192 297.706 343.422C298.064 344.742 297.427 345.754 296.674 346.658C296.138 347.225 295.552 345.686 295.244 346.8C294.237 346.16 293.267 347.066 292.513 347.86C292.853 348.185 292.637 348.522 293.084 348.733C293.285 347.841 294.175 348.154 294.711 347.589L295.054 348.025L292.593 351.404C291.714 351.533 292.022 350.529 291.364 350.654C290.706 350.778 289.601 350.694 289.845 351.685C289.111 353.364 290.976 352.989 291.652 353.64C289.805 354.901 290.983 358.308 288.57 358.805C288.106 357.708 287.24 358.502 286.586 358.849C286.939 359.837 288.143 359.478 289.028 359.569C289.26 360.117 288.959 361.454 288.524 361.685L288.771 362.897L287.675 363.254C287.58 363.92 288.14 364.241 288.59 364.674L288.164 365.348C288.315 367.228 289.466 369.417 288.843 371.093C288.865 372.09 290.624 371.94 290.1 373.17C290.783 374.153 290.815 375.592 291.498 376.574C291.288 377.022 291.079 377.581 291.526 377.902L291.861 378.006L292.379 376.554L292.825 376.765L292.679 378.274Z" fill="#F5F5F5"/>
</svg>
