<svg width="384" height="248" viewBox="0 0 384 248" fill="none" xmlns="http://www.w3.org/2000/svg">
<path d="M307.777 193.979C290.376 204.963 272.12 214.773 253.032 222.856C243.479 226.881 233.737 230.505 223.803 233.558C213.864 236.606 203.75 239.127 193.507 241.012C183.26 242.833 172.883 244 162.484 244.32C152.09 244.674 141.68 244.065 131.466 242.487C130.182 242.323 128.913 242.068 127.647 241.833C126.378 241.591 125.105 241.387 123.843 241.108C121.336 240.529 118.812 240.002 116.343 239.291L114.481 238.793C113.858 238.628 113.243 238.453 112.631 238.256L108.961 237.103C107.734 236.732 106.551 236.249 105.344 235.83C104.139 235.401 102.931 234.976 101.759 234.472L98.2207 233.027L94.7479 231.44C94.176 231.169 93.5867 230.926 93.0257 230.634L91.3321 229.769C90.2102 229.174 89.0621 228.637 87.9666 228.007C83.5254 225.58 79.2835 222.845 75.195 219.949C71.1569 216.975 67.2919 213.811 63.6569 210.425C62.7498 209.574 61.88 208.689 60.9882 207.824L59.6648 206.522L58.3962 205.164C57.5614 204.256 56.6959 203.37 55.8787 202.445L53.4598 199.644C50.3134 195.853 47.3182 191.947 44.6605 187.833C43.2626 185.819 42.051 183.696 40.7604 181.62C40.1447 180.565 39.5663 179.493 38.9616 178.431L38.0698 176.838C37.7762 176.301 37.5089 175.756 37.2285 175.213L35.5676 171.959C35.0352 170.867 34.5357 169.757 34.0186 168.652C32.9581 166.466 32.0839 164.194 31.1242 161.969C29.3472 157.446 27.6755 152.893 26.2842 148.252C23.4467 138.989 21.3149 129.529 19.8841 119.964C16.9897 100.833 16.58 81.3866 17.899 62.0648C19.2158 42.7327 22.268 23.5001 26.5076 4.51215C26.8385 3.00257 27.1978 1.50128 27.5528 0H5.53053C5.48671 0.26542 5.4407 0.534989 5.39688 0.806629C2.00294 20.85 0.0507129 41.1547 0.000318573 61.5174C-0.0281649 81.8656 1.85176 102.282 6.29302 122.261C8.49283 132.252 11.431 142.11 15.1054 151.719C16.9108 156.528 19.0099 161.253 21.2185 165.909C22.3972 168.212 23.4862 170.547 24.7701 172.803L26.6369 176.206L28.6111 179.551C28.9485 180.109 29.2618 180.67 29.6102 181.222L30.6641 182.858C31.3718 183.951 32.0554 185.05 32.7784 186.128C34.2837 188.256 35.7079 190.423 37.3183 192.482C40.4142 196.67 43.8235 200.645 47.3752 204.49L50.0943 207.325C51.0145 208.258 51.9786 209.156 52.9208 210.068L54.3406 211.432L55.8151 212.739C56.8099 213.603 57.7783 214.491 58.784 215.339C62.8265 218.717 67.0684 221.869 71.4658 224.799L74.8247 226.908C75.3922 227.252 75.9421 227.619 76.5184 227.946L78.2471 228.929C79.4018 229.572 80.5302 230.263 81.7133 230.862L85.2519 232.683C86.4241 233.292 87.6533 233.809 88.8474 234.377L90.6594 235.21C91.2598 235.486 91.882 235.725 92.4933 235.984L96.1743 237.502L99.9144 238.872C101.155 239.345 102.428 239.737 103.69 240.141C104.963 240.533 106.214 240.979 107.498 241.329L111.334 242.391C111.974 242.582 112.62 242.742 113.264 242.885L115.206 243.341C117.785 243.994 120.405 244.452 123.008 244.967C124.314 245.215 125.633 245.385 126.939 245.603C128.251 245.804 129.564 246.028 130.883 246.161L134.838 246.627C136.154 246.771 137.478 246.851 138.803 246.968C141.444 247.223 144.097 247.297 146.739 247.43C148.063 247.505 149.393 247.478 150.716 247.505C152.04 247.505 153.363 247.556 154.688 247.519L158.652 247.43C159.316 247.413 159.978 247.413 160.639 247.376L162.618 247.27C173.181 246.723 183.676 245.396 194.007 243.405C204.344 241.41 214.53 238.771 224.515 235.608C234.5 232.444 244.316 228.807 253.912 224.72C273.117 216.567 291.511 206.794 309.151 195.949C317.957 190.508 326.611 184.843 335.043 178.887C340.426 175.07 345.75 171.173 351 167.192C349.346 167.13 347.692 167.049 346.031 166.97C333.77 176.567 321.031 185.628 307.777 193.979Z" fill="white" fill-opacity="0.16"/>
<path d="M368.506 173.992L369.254 169.303L370.296 168.743L370.419 168.939L371.434 168.304C371.609 168.195 371.663 167.964 371.553 167.789L371.107 167.079C370.997 166.904 370.767 166.851 370.591 166.961L369.576 167.596L369.699 167.793L369.468 167.958L370.296 162.772L371.409 162.173L371.532 162.369L372.547 161.734C372.723 161.625 372.776 161.393 372.665 161.219L372.219 160.509C372.111 160.334 371.879 160.281 371.703 160.391L370.689 161.025L370.811 161.222L370.509 161.441L371.604 154.574L374.467 152.795C376.964 151.058 378.508 149.777 379.459 148.839C379.457 148.84 380.648 148.096 380.648 148.096C381.223 147.736 381.396 146.98 381.036 146.406C380.676 145.832 379.918 145.66 379.344 146.018L378.154 146.762C376.895 147.208 375.065 148.035 372.412 149.52L369.559 151.316L362.89 149.304L363.219 149.128L363.342 149.324L364.358 148.69C364.533 148.58 364.586 148.348 364.476 148.174L364.03 147.464C363.921 147.289 363.69 147.236 363.515 147.345L362.499 147.981L362.623 148.177L361.598 148.915L356.56 147.396L356.81 147.261L356.934 147.458L357.949 146.823C358.124 146.713 358.177 146.482 358.067 146.307L357.622 145.598C357.512 145.423 357.282 145.37 357.106 145.479L356.09 146.114L356.214 146.31L355.254 147.002L350.7 145.629C349.796 145.356 348.815 145.57 348.106 146.194L347.416 146.803L347.971 147.087L349.283 147.76L353.62 149.984L353.222 150.434L353.958 150.157L355.845 151.125L355.461 151.56L356.172 151.292L357.126 151.781L358.842 153.178L358.785 153.165L358.238 153.718L359.071 153.364L360.443 154.481L360.399 154.471L359.851 155.024L360.679 154.673L362.224 155.931L355.78 159.985C355.334 160.267 354.903 160.569 354.489 160.895C353.478 161.69 352.089 162.855 350.792 163.963L344.061 162.156C343.856 162.101 343.637 162.133 343.458 162.246L342.488 162.852L342.625 162.977L347.158 167.112C346.986 167.26 346.861 167.455 346.8 167.673L346.785 167.727L345.911 168.374L346.876 167.871L346.929 167.88C347.153 167.921 347.383 167.894 347.593 167.805L349.396 173.855L350.365 173.25C350.545 173.138 350.671 172.955 350.71 172.747L352.016 165.913C353.581 165.231 355.237 164.492 356.394 163.932C356.868 163.701 357.33 163.446 357.778 163.167L364.244 159.149L364.704 161.084L364.027 161.675L364.764 161.425L364.774 161.381L365.183 163.099L364.5 163.695L365.237 163.444L365.251 163.387L365.762 165.537L365.786 166.608L365.235 167.13L365.796 166.974L365.845 169.092L365.274 169.631L365.853 169.471L366.014 176.43L366.864 176.075C367.736 175.712 368.357 174.924 368.506 173.992Z" fill="white" fill-opacity="0.16"/>
</svg>
