<svg width="332" height="178" viewBox="0 0 332 178" fill="none" xmlns="http://www.w3.org/2000/svg">
<path d="M268.458 84.2623C268.223 84.682 267.988 85.0916 267.742 85.4908C267.507 85.8901 267.261 86.2996 267.015 86.6989C266.534 87.4974 266.043 88.2857 265.542 89.074C264.549 90.6506 263.526 92.2068 262.492 93.7527C260.415 96.8342 258.255 99.8646 256.024 102.834C251.552 108.771 246.773 114.484 241.645 119.89C236.508 125.285 231.022 130.373 225.097 134.939C222.139 137.222 219.059 139.372 215.876 141.358C212.683 143.334 209.378 145.136 205.949 146.712C205.089 147.101 204.23 147.48 203.36 147.849L202.705 148.115L202.377 148.248L202.214 148.309L202.173 148.33C202.142 148.34 202.275 148.289 202.204 148.32L202.122 148.35C201.692 148.545 201.262 148.729 200.822 148.903C199.092 149.63 197.353 150.306 195.592 150.941C192.082 152.22 188.541 153.357 184.949 154.37C181.367 155.384 177.744 156.264 174.08 157.001C170.417 157.728 166.722 158.312 162.997 158.69C161.134 158.875 159.262 159.008 157.379 159.079L155.987 159.12L154.595 159.151C153.664 159.172 152.732 159.182 151.801 159.192C149.938 159.202 148.066 159.172 146.193 159.079C144.32 158.987 142.427 158.834 140.544 158.568C138.661 158.301 136.767 157.923 134.905 157.38C133.042 156.837 131.21 156.111 129.47 155.158C127.741 154.206 126.114 153.019 124.691 151.626C123.258 150.244 122.041 148.657 121.017 146.989L121.007 146.968C120.986 146.927 120.956 146.886 120.945 146.845L120.905 146.753L120.864 146.671L120.792 146.518C120.751 146.415 120.71 146.313 120.669 146.211C120.587 146.006 120.505 145.811 120.434 145.607C120.28 145.207 120.147 144.798 120.024 144.388C119.769 143.569 119.564 142.74 119.4 141.901C119.073 140.211 118.929 138.471 119.073 136.69C119.144 135.809 119.308 134.918 119.554 134.038C119.799 133.168 120.147 132.308 120.587 131.499C121.027 130.69 121.57 129.943 122.194 129.257C122.808 128.581 123.504 127.977 124.241 127.465C124.609 127.209 124.988 126.964 125.367 126.749C125.561 126.636 125.755 126.534 125.95 126.431C126.052 126.38 126.144 126.329 126.247 126.278L126.39 126.206L126.492 126.155L126.564 126.124C127.362 125.766 128.181 125.459 129.03 125.223C129.88 124.988 130.76 124.824 131.66 124.742C132.551 124.66 133.462 124.681 134.362 124.793C135.263 124.906 136.153 125.121 137.003 125.438C137.852 125.745 138.661 126.145 139.418 126.605C140.933 127.537 142.242 128.725 143.358 130.025C143.921 130.68 144.433 131.366 144.903 132.083C145.139 132.441 145.364 132.799 145.579 133.168L145.732 133.444L145.886 133.71C145.998 133.905 146.101 134.099 146.193 134.304C146.971 135.912 147.421 137.642 147.595 139.362C147.779 141.092 147.697 142.812 147.452 144.48C147.206 146.159 146.776 147.787 146.223 149.364C145.118 152.517 143.511 155.455 141.567 158.138C139.623 160.82 137.34 163.236 134.782 165.324C132.223 167.413 129.389 169.164 126.359 170.495C123.33 171.815 120.096 172.706 116.811 173.095C113.526 173.484 110.19 173.371 106.945 172.808C106.137 172.665 105.328 172.501 104.53 172.307C104.131 172.214 103.732 172.112 103.333 171.999C103.138 171.948 102.934 171.887 102.739 171.836L102.442 171.744L102.299 171.703L102.227 171.682L102.187 171.672C102.166 171.662 102.279 171.692 102.207 171.682L102.033 171.641L101.88 171.6L101.573 171.508C101.368 171.447 101.173 171.385 100.969 171.314C100.57 171.18 100.181 171.037 99.7918 170.884C99.014 170.576 98.2567 170.239 97.5096 169.85C96.0257 169.082 94.6032 168.16 93.3341 167.034C92.0651 165.908 90.9394 164.577 90.1104 163.052C89.7011 162.294 89.3633 161.485 89.1177 160.656C88.8721 159.827 88.7084 158.967 88.6367 158.107C88.5958 157.677 88.5856 157.247 88.5856 156.817V156.653V156.612C88.5958 156.489 88.5856 156.561 88.5856 156.52L88.5958 156.448C88.606 156.336 88.6163 156.233 88.6265 156.131C88.647 155.916 88.6777 155.701 88.7084 155.496C88.8312 154.647 89.0359 153.807 89.3224 152.988C89.609 152.169 89.9876 151.381 90.4584 150.644C90.9292 149.906 91.4818 149.221 92.1061 148.617C93.3648 147.398 94.8999 146.508 96.5476 145.975C98.1953 145.453 99.9555 145.279 101.675 145.515C102.535 145.627 103.384 145.852 104.203 146.18C105.011 146.518 105.789 146.958 106.475 147.521L106.403 147.47C107.119 147.941 107.744 148.504 108.286 149.139C108.828 149.773 109.279 150.47 109.657 151.196C110.404 152.65 110.845 154.237 111.019 155.834C111.192 157.431 111.1 159.059 110.773 160.625C110.445 162.192 109.883 163.707 109.125 165.099C108.368 166.502 107.406 167.782 106.321 168.928C105.226 170.075 103.998 171.078 102.698 171.938C101.388 172.808 99.9965 173.535 98.574 174.149C97.1412 174.764 95.6675 175.255 94.1733 175.665C93.4262 175.869 92.6689 176.043 91.9218 176.197C91.5432 176.279 91.1645 176.35 90.7859 176.412L90.7552 176.422H90.7347L90.6835 176.432L90.6119 176.443L90.4686 176.463L90.1821 176.494L89.609 176.555C88.0739 176.699 86.549 176.78 85.0139 176.821C83.4788 176.862 81.9437 176.842 80.4086 176.77C78.8735 176.699 77.3384 176.555 75.8135 176.34C74.2887 176.115 72.7638 175.818 71.2799 175.378C69.7857 174.948 68.3222 174.385 66.9509 173.627C66.2652 173.248 65.6 172.808 64.9757 172.317C64.3514 171.825 63.7783 171.262 63.2666 170.648C62.7549 170.024 62.3251 169.348 61.9771 168.621C61.6292 167.894 61.3836 167.126 61.2198 166.348V166.338C61.2198 166.328 61.2198 166.318 61.2096 166.307C61.0663 165.15 61.1277 163.973 61.4347 162.837C61.5882 162.274 61.8032 161.721 62.0897 161.199C62.366 160.677 62.714 160.195 63.1234 159.765C63.5225 159.335 63.983 158.957 64.4845 158.639C64.9757 158.322 65.5079 158.066 66.0503 157.871C66.5927 157.677 67.1555 157.523 67.7184 157.421C68.2915 157.319 68.8749 157.278 69.4684 157.308C70.0518 157.339 70.6351 157.452 71.198 157.646C71.7609 157.841 72.2828 158.107 72.7638 158.445C73.7258 159.12 74.4933 160.052 75.0153 161.076C75.5474 162.1 75.8545 163.226 75.967 164.372C76.0182 164.946 76.0182 165.519 75.9875 166.082C75.9466 166.655 75.8647 167.218 75.7214 167.771C75.4553 168.887 74.9743 169.942 74.3296 170.884C73.6848 171.825 72.8661 172.634 71.9655 173.32C71.0649 173.996 70.0722 174.549 69.0488 174.999C68.0254 175.45 66.9611 175.798 65.8865 176.074C63.7272 176.627 61.5166 176.903 59.3061 177.016C58.7534 177.047 58.2008 177.057 57.6482 177.067C57.0955 177.077 56.5429 177.077 55.9902 177.077C54.885 177.077 53.7899 177.067 52.6847 177.047C48.284 176.965 43.8834 176.77 39.4828 176.514C35.0924 176.258 30.702 175.941 26.3116 175.613C17.5309 174.938 8.77054 174.17 0 173.392C8.77054 174.098 17.5513 174.794 26.3321 175.388C30.7225 175.685 35.1129 175.961 39.5033 176.176C43.8937 176.391 48.2943 176.555 52.6847 176.596C53.7797 176.606 54.885 176.606 55.98 176.596C56.5326 176.586 57.0751 176.586 57.6277 176.576C58.1701 176.565 58.7227 176.535 59.2651 176.504C61.445 176.371 63.6248 176.074 65.7228 175.511C66.7769 175.224 67.8003 174.876 68.7828 174.436C69.7652 173.996 70.7067 173.453 71.5562 172.798C72.4056 172.143 73.1527 171.375 73.7462 170.495C74.3398 169.614 74.7697 168.631 75.005 167.597C75.1278 167.085 75.1995 166.553 75.2302 166.021C75.2609 165.488 75.2506 164.956 75.1995 164.434C75.0869 163.379 74.7901 162.356 74.2989 161.434C73.8077 160.513 73.122 159.694 72.2726 159.12C71.853 158.834 71.3924 158.598 70.9012 158.445C70.4202 158.281 69.9085 158.189 69.3968 158.168C68.8851 158.148 68.3632 158.189 67.8617 158.281C67.35 158.383 66.8383 158.516 66.3471 158.701C65.3748 159.069 64.4845 159.632 63.7988 160.39C63.1029 161.137 62.6219 162.069 62.366 163.072C62.1102 164.065 62.059 165.13 62.2023 166.154L62.1921 166.113C62.3456 166.819 62.5707 167.505 62.888 168.15C63.195 168.795 63.5941 169.399 64.0546 169.952C64.9757 171.058 66.1628 171.948 67.4421 172.644C68.7316 173.341 70.1336 173.863 71.5562 174.262C72.9889 174.661 74.4626 174.948 75.9466 175.142C77.4305 175.347 78.9247 175.46 80.4291 175.521C81.9335 175.583 83.4379 175.583 84.9423 175.531C86.4467 175.48 87.951 175.378 89.4452 175.224L90.0081 175.163L90.2844 175.132L90.4174 175.112L90.4891 175.102C90.4993 175.102 90.4379 175.112 90.4686 175.102H90.4891L90.5198 175.091C90.8882 175.02 91.2566 174.948 91.6148 174.866C92.3414 174.702 93.0681 174.528 93.7844 174.323C95.2172 173.924 96.6295 173.433 97.9906 172.829C99.3517 172.235 100.651 171.529 101.869 170.699C103.087 169.88 104.223 168.928 105.216 167.863C106.209 166.799 107.078 165.611 107.754 164.331C108.429 163.052 108.931 161.68 109.207 160.267C109.483 158.854 109.555 157.4 109.381 155.977C109.207 154.554 108.808 153.162 108.153 151.923C107.826 151.299 107.437 150.715 106.986 150.203C106.536 149.681 106.024 149.231 105.461 148.862C105.441 148.852 105.421 148.832 105.4 148.811L105.39 148.801C104.285 147.91 102.882 147.378 101.439 147.204C99.9965 147.019 98.4921 147.173 97.1003 147.634C95.7084 148.094 94.4292 148.862 93.3955 149.876C92.3619 150.889 91.5841 152.159 91.1134 153.541C90.878 154.237 90.7142 154.954 90.6119 155.691C90.5914 155.875 90.571 156.059 90.5505 156.244C90.5403 156.336 90.53 156.428 90.53 156.52V156.592C90.53 156.581 90.53 156.674 90.53 156.571V156.602V156.745C90.53 157.114 90.5505 157.482 90.5812 157.851C90.7245 159.315 91.1543 160.738 91.8604 162.018C92.5666 163.297 93.5388 164.444 94.6748 165.417C95.8108 166.399 97.09 167.218 98.4511 167.904C99.1368 168.242 99.8327 168.549 100.549 168.826C100.907 168.959 101.265 169.092 101.624 169.205C101.808 169.266 101.982 169.317 102.166 169.368L102.432 169.44L102.565 169.471L102.688 169.501L103.312 169.676C103.497 169.727 103.691 169.778 103.875 169.829C104.254 169.931 104.622 170.024 105.001 170.105C105.758 170.28 106.516 170.433 107.283 170.556C110.343 171.047 113.454 171.119 116.514 170.73C119.574 170.341 122.562 169.491 125.377 168.222C128.191 166.963 130.821 165.294 133.196 163.318C135.57 161.342 137.688 159.059 139.469 156.541C141.25 154.032 142.713 151.278 143.696 148.391C144.187 146.948 144.555 145.474 144.76 143.979C144.965 142.494 145.016 141 144.842 139.546C144.678 138.092 144.289 136.69 143.665 135.42C143.583 135.267 143.501 135.103 143.419 134.949L143.276 134.693L143.133 134.458C142.949 134.14 142.744 133.823 142.539 133.516C142.12 132.902 141.669 132.308 141.188 131.755C140.216 130.649 139.111 129.677 137.903 128.95C136.685 128.223 135.355 127.742 133.984 127.588C132.612 127.424 131.2 127.578 129.829 127.977C129.143 128.172 128.457 128.438 127.802 128.735L127.731 128.766L127.7 128.776L127.577 128.837C127.495 128.878 127.413 128.919 127.342 128.96C127.188 129.042 127.024 129.134 126.871 129.226C126.564 129.411 126.267 129.595 125.981 129.8C125.418 130.209 124.896 130.67 124.446 131.182C123.995 131.694 123.596 132.246 123.279 132.84C122.634 134.028 122.276 135.389 122.174 136.802C122.061 138.215 122.194 139.689 122.491 141.133C122.644 141.86 122.829 142.576 123.054 143.283C123.166 143.641 123.289 143.989 123.422 144.337C123.484 144.511 123.555 144.685 123.627 144.849L123.729 145.095L123.78 145.218L123.821 145.31L123.739 145.166C124.64 146.63 125.704 147.972 126.922 149.149C128.14 150.326 129.522 151.319 131.016 152.128C132.51 152.937 134.127 153.572 135.795 154.043C137.463 154.524 139.203 154.851 140.963 155.097C142.723 155.332 144.514 155.466 146.305 155.547C148.107 155.619 149.918 155.64 151.729 155.619C152.64 155.609 153.551 155.588 154.462 155.568L155.833 155.527L157.194 155.476C158.996 155.394 160.797 155.251 162.588 155.066C166.18 154.677 169.762 154.094 173.313 153.357C176.864 152.619 180.395 151.729 183.885 150.726C187.374 149.712 190.834 148.576 194.241 147.316C195.94 146.682 197.629 146.016 199.287 145.31C199.696 145.136 200.116 144.951 200.525 144.767L201.835 144.225C202.664 143.876 203.483 143.518 204.301 143.139C207.566 141.634 210.728 139.894 213.788 137.98C216.848 136.065 219.806 133.977 222.672 131.755C228.392 127.312 233.724 122.336 238.718 117.054C243.713 111.761 248.379 106.14 252.749 100.305C254.929 97.387 257.037 94.4079 259.064 91.3775C260.077 89.8623 261.069 88.3369 262.031 86.791C262.512 86.0232 262.993 85.2451 263.454 84.4671C263.689 84.078 263.915 83.689 264.15 83.3C264.375 82.9109 264.61 82.5219 264.815 82.1431C265.368 81.15 266.627 80.7917 267.619 81.3548C268.663 81.9998 269.021 83.259 268.458 84.2623Z" fill="white"/>
<path d="M294.472 62.9892L321.5 113.502L323.69 111.035L304.389 49.3526C304.389 49.3526 323.803 24.8025 327.702 18.1378C328.971 15.4862 334.262 4.78781 329.656 0.877004C329.636 0.866766 329.616 0.846291 329.605 0.836053C329.585 0.825815 329.564 0.80534 329.554 0.795102C324.519 -2.53216 315.728 5.53516 313.538 7.50081C308.237 13.1111 290.112 38.6337 290.112 38.6337L225.505 37.3745L223.745 40.1694L279.797 51.9837C279.797 51.9837 271.435 65.1596 267.373 72.0803C263.31 79.001 254.611 95.5554 254.611 95.5554L234.46 97.1423L234.747 98.422L252.82 103.254L261.949 116.911L263.258 116.819L259.707 99.3638C259.707 99.3638 273.155 86.3824 278.661 80.5367C284.177 74.7012 294.472 62.9892 294.472 62.9892Z" fill="white"/>
</svg>
