<svg width="260" height="137" viewBox="0 0 260 137" fill="none" xmlns="http://www.w3.org/2000/svg">
<path d="M1.09738 55.3628C0.33525 51.9492 2.96803 50.3949 5.33682 49.101C6.3892 48.5842 7.44344 47.8052 8.4958 47.2884C15.0853 42.3543 21.9351 37.6841 28.783 33.2762C37.2114 27.8308 46.415 23.964 56.6484 22.7263C66.0936 21.7451 75.7878 22.6009 85.2123 24.5034C89.4012 25.3198 93.326 26.3966 97.2509 27.4733C102 23.3125 107.531 19.6816 112.538 16.047C118.334 12.1559 124.394 8.00448 130.71 4.6414C139.919 -0.0118608 152.259 -2.54539 161.388 4.07408C161.388 4.07408 161.648 4.33811 161.386 4.33624C161.912 4.07783 162.431 4.86804 161.904 5.12645C161.112 5.9073 160.06 6.42412 159.268 7.20497C154.249 12.4125 148.71 17.092 143.434 21.7734C137.629 26.9753 132.084 32.4412 126.281 37.381C132.816 40.0494 139.353 42.4556 145.89 44.8619C165.241 51.8165 189.049 58.8031 209.042 49.2456C219.038 44.598 224.35 34.9356 233.046 28.7057C237.263 25.5898 242.255 24.0524 247.499 24.0899C247.761 24.0918 248.285 24.0955 248.547 24.0974C252.217 24.1236 255.88 25.1985 259.275 27.0579C259.797 27.3238 259.532 27.8463 259.007 27.8425C259.005 28.1047 258.741 28.365 258.739 28.6271C258.738 28.8893 258.475 28.8874 258.213 28.8855C257.151 30.7131 256.09 32.5407 255.028 34.3683C255.028 34.3683 255.026 34.6305 254.764 34.6286C254.234 35.4113 253.704 36.1941 253.172 37.2389C253.17 37.5011 253.167 38.0254 252.642 38.0217C251.581 39.8493 250.255 41.9372 249.193 43.7648C249.191 44.0269 249.189 44.2891 248.927 44.2872C246.542 47.9405 244.418 51.5957 242.032 55.2491C236.993 63.3403 232.475 71.9597 227.176 79.7869C226.644 80.8318 226.108 82.401 225.316 83.1818C230.265 87.6741 234.95 92.4266 239.898 97.181C240.158 97.445 240.154 97.9693 240.152 98.2315C240.413 98.4955 240.411 98.7577 240.147 99.018C237.505 101.883 233.836 101.595 230.172 100.782C225.198 99.6977 220.487 98.6153 215.515 97.269C211.291 101.434 202.125 100.057 197.408 99.7613C190.071 99.1845 181.684 98.8624 174.626 95.9281C186.865 107.551 199.104 119.174 211.609 130.274C212.13 130.803 211.86 131.849 211.074 131.844C211.072 132.106 211.332 132.37 211.07 132.368C202.368 139.384 188.491 136.926 178.549 133.971C173.317 132.36 168.089 130.226 163.391 127.308C159.213 124.919 154.257 121.475 150.875 117.781C150.867 118.829 150.336 119.874 149.543 120.655C146.105 124.825 139.831 122.421 137.235 118.732C136.196 117.414 135.683 115.837 135.432 114.262C134.657 112.684 134.672 110.586 135.471 108.757C135.207 109.017 135.207 109.017 134.943 109.277C134.941 109.54 134.413 110.06 134.153 109.796C133.889 110.056 133.365 110.053 133.101 110.313C133.099 110.575 132.571 111.096 132.312 110.569L132.052 110.305C129.693 110.289 127.08 108.959 125.783 107.115C123.182 104.212 121.386 98.6938 124.554 95.5704C124.817 95.5722 124.818 95.3101 125.081 95.312C124.822 94.7858 124.828 93.9993 125.094 93.4769C124.051 92.6829 123.27 91.8908 122.491 90.8366C109.141 87.8573 96.0542 84.88 82.7029 82.1629L82.4408 82.161C73.5406 80.2622 64.6404 78.3634 55.7402 76.4646C55.478 76.4628 55.478 76.4628 55.2158 76.4609C53.1223 75.9216 50.7648 75.6426 48.6713 75.1033C42.1267 73.7457 35.5822 72.3881 29.0395 70.7683C23.5436 69.4182 17.7817 68.5905 12.5517 66.718C9.67549 65.6487 5.49596 63.5215 2.89498 60.619C2.63284 60.6172 2.37071 60.6153 2.11041 60.3513C1.33142 59.297 0.814605 58.2447 0.559927 57.1942C1.34828 56.9376 1.09176 56.1493 1.09738 55.3628ZM21.6523 40.566C31.075 42.7307 41.0538 40.4424 48.441 33.941C45.3045 32.6077 42.4302 31.2763 39.2936 29.9431C32.9813 32.7818 27.1876 36.4108 21.6523 40.566ZM160.86 4.59465C149.632 -1.77765 137.803 2.59472 127.534 8.81343C117.791 14.7737 108.829 21.5261 99.6066 28.0145C105.885 29.8945 111.9 32.0348 117.913 34.4373C117.914 34.1752 118.178 33.9149 118.703 33.9186C118.965 33.9205 118.963 34.1827 119.225 34.1845C119.225 34.1845 119.225 34.1845 119.486 34.4486C119.486 34.4486 119.486 34.4486 119.748 34.4504C116.349 33.1153 112.688 31.7783 109.291 30.181C108.769 29.9151 109.037 29.1305 109.561 29.1343C113.222 30.4713 116.881 32.0704 120.542 33.4074C120.806 33.1472 121.332 32.8887 121.596 32.6285C118.982 31.5611 116.106 30.4919 113.491 29.4245C112.969 29.1586 113.237 28.374 113.761 28.3778C116.637 29.447 119.514 30.5162 122.388 31.8476C122.652 31.5873 122.916 31.327 123.442 31.0686C121.351 30.2672 119.259 29.4657 116.907 28.4002C116.385 28.1343 116.652 27.3497 117.177 27.3535C119.53 28.1568 121.882 29.2223 124.236 30.0256C124.762 29.7672 125.026 29.5069 125.553 29.2485C123.723 28.4489 121.894 27.6494 120.064 26.8498C119.542 26.5839 119.811 25.5371 120.334 25.803C122.425 26.6045 124.515 27.6681 126.607 28.4695C127.135 27.949 127.661 27.6906 128.189 27.17C126.36 26.3704 124.792 25.5727 122.963 24.7731C122.44 24.5072 122.71 23.4605 123.233 23.7264C125.062 24.526 127.154 25.3274 128.981 26.3892C129.245 26.1289 129.507 26.1307 129.771 25.8705C128.464 25.3368 126.895 24.8012 125.588 24.2675C125.066 24.0016 125.334 23.217 125.858 23.2208C127.165 23.7545 128.734 24.29 130.041 24.8237C130.041 24.8237 130.041 24.8237 130.303 24.8256C130.567 24.5653 130.829 24.5672 131.09 24.8312C133.724 23.0148 136.361 20.9363 138.996 19.1199C145.583 14.448 151.911 9.51194 158.759 5.10397C159.539 5.89606 160.069 5.11334 160.86 4.59465ZM121.049 35.7706C121.572 36.0365 122.356 36.3043 122.879 36.5702C123.146 35.7856 123.414 35.001 123.684 33.9542C123.158 34.2126 122.894 34.4729 122.365 34.9935C122.364 35.2556 122.098 35.7781 121.837 35.5141C121.313 35.5103 121.313 35.5103 121.049 35.7706ZM142.653 20.9813C144.237 19.4196 145.819 18.12 147.403 16.5583C145.031 18.3766 142.66 19.9326 140.288 21.7509C137.389 23.8275 134.752 25.906 131.854 27.9827C131.846 29.0313 131.577 30.0781 130.783 31.1211C130.255 31.6416 129.736 30.8514 130.002 30.329C130.268 29.8066 130.534 29.2841 130.799 28.7617C130.273 29.0201 130.009 29.2804 129.481 29.8009C129.21 31.1098 128.938 32.4188 128.667 33.7277C133.417 29.3047 137.904 25.1421 142.653 20.9813ZM127.876 34.2464C127.614 34.2445 127.616 33.9823 127.618 33.7202C127.888 32.6734 127.895 31.6248 128.167 30.3159C127.903 30.5762 127.376 30.8346 127.112 31.0949C127.112 31.0949 127.112 31.0949 127.111 31.357C126.575 32.9262 126.303 34.2351 125.768 35.8043C125.502 36.3267 124.717 36.059 124.721 35.5347C124.991 34.4879 125.26 33.4412 125.794 32.1341C125.53 32.3944 125.004 32.6528 124.74 32.9131C124.468 34.222 123.935 35.529 123.663 36.838C123.923 37.102 124.448 37.1057 124.708 37.3698C125.764 36.3286 126.82 35.2875 127.876 34.2464ZM231.966 33.1549C225.635 38.6152 220.865 45.6597 213.495 49.8018C198.224 58.8686 178.836 57.1571 162.352 52.5824C147.699 48.5452 133.586 42.4144 119.205 37.0683C118.678 37.3267 118.156 37.0608 117.898 36.5346C113.976 34.9336 109.791 33.5928 105.868 32.2539C87.8226 26.0951 67.1459 21.2283 48.4954 26.3384C45.8682 27.1062 43.2391 28.1361 40.8722 29.1678C44.0087 30.5011 46.8831 31.8325 50.0196 33.1657C50.2799 33.4298 50.5402 33.6938 50.2761 33.9541C42.6211 41.2401 31.5918 43.783 21.1243 41.0865C21.1243 41.0865 21.1243 41.0865 20.8621 41.0847C20.3341 41.6052 19.8079 41.8637 19.2798 42.3842C22.6841 42.9329 25.8244 43.7418 29.2287 44.2905C29.4908 44.2924 29.7549 44.0321 29.753 44.2942C46.5067 47.8222 62.9982 51.3482 80.0196 54.0915C118.512 60.6586 157.545 64.87 196.595 66.7221C203.409 67.0329 209.437 67.3382 215.753 63.9751C220.755 61.127 224.977 57.2246 228.94 53.0582C233.168 48.3693 237.136 43.4164 240.321 37.9336C242.709 34.0181 244.572 30.0989 246.959 26.1834C241.184 27.1908 236.186 29.5146 231.966 33.1549ZM227.82 99.7164C231.484 100.529 236.452 102.4 239.879 99.8026C232.542 99.2258 224.944 98.6472 218.144 96.2391C217.88 96.4994 217.878 96.7615 217.613 97.284C220.753 98.0929 224.155 98.9037 227.82 99.7164ZM216.575 95.7035C215.268 95.1698 213.699 94.6343 212.394 93.8385C211.349 93.3066 210.566 92.7767 209.521 92.2449C211.083 93.8291 212.645 95.4133 214.206 96.9974C214.995 96.7409 215.785 96.2222 216.575 95.7035ZM152.195 116.479C152.716 117.007 153.5 117.275 154.021 117.803C153.762 117.277 153.242 116.749 152.983 116.223C152.723 115.959 153.251 115.438 153.51 115.964C154.551 117.02 155.852 118.341 156.629 119.657L156.627 119.919C156.888 120.183 157.15 120.185 157.148 120.447C156.888 120.183 156.629 119.657 156.369 119.393C156.109 119.129 156.637 118.608 156.897 118.872C157.678 119.665 158.197 120.455 158.715 121.245C158.713 121.507 158.713 121.507 158.711 121.769C160.275 123.091 161.84 124.151 163.666 125.475C168.364 128.392 173.066 130.786 178.298 132.396C188.236 135.875 199.76 137.531 209.751 133.407L209.491 133.143C186.919 136.652 168.11 127.342 151.165 113.85C151.684 114.64 151.94 115.429 152.195 116.479ZM140.64 119.281C141.42 120.073 142.465 120.604 143.772 121.138C142.991 120.346 142.475 119.294 141.694 118.502C141.173 117.974 141.963 117.455 142.486 117.721C143.525 119.039 144.564 120.357 145.343 121.412C145.606 121.413 145.868 121.415 146.392 121.419C144.832 119.573 143.27 117.989 141.973 116.144C141.452 115.616 142.242 115.097 142.765 115.363C144.325 117.21 146.147 119.058 147.705 121.166C148.229 121.17 148.755 120.912 149.019 120.651C146.939 118.277 145.119 116.167 143.038 113.792C142.518 113.264 143.308 112.745 143.83 113.011C145.911 115.386 147.731 117.496 149.811 119.87C150.075 119.61 150.339 119.35 150.343 118.826C148.525 116.453 146.707 114.081 144.89 111.446C144.632 110.92 145.162 110.137 145.682 110.665C147.501 113.038 149.058 115.146 150.877 117.519C150.88 116.994 151.146 116.472 151.15 115.947C149.59 114.101 148.029 112.517 146.469 110.671C145.948 110.143 146.738 109.624 147.261 109.89C148.562 111.21 149.602 112.528 150.903 113.848C150.646 113.06 150.128 112.27 149.609 111.48C149.347 111.478 149.085 111.476 149.088 110.952C149.09 110.689 148.83 110.425 148.832 110.163C148.572 109.899 148.572 109.899 148.311 109.635C147.27 108.579 146.227 107.785 144.924 106.727C143.093 106.19 140.99 106.961 139.664 109.049C137.275 113.227 138.297 116.904 140.64 119.281ZM142.568 106.186C142.306 106.184 142.306 106.184 142.568 106.186V106.186ZM140.222 104.334C139.962 104.07 139.701 103.806 139.441 103.542C139.439 103.804 139.439 103.804 139.7 104.068C139.96 104.332 139.96 104.332 140.22 104.596L140.222 104.334ZM138.883 108.257C139.147 107.997 139.147 107.997 139.411 107.736L139.149 107.734C138.885 107.995 138.885 107.995 138.883 108.257ZM127.884 106.605C128.665 107.397 129.445 108.189 130.492 108.459C130.232 108.195 129.709 107.929 129.451 107.403C128.93 106.875 129.721 106.356 130.243 106.622C131.024 107.414 131.805 108.206 132.588 108.736C133.112 108.74 133.636 108.744 134.162 108.485C132.603 106.639 131.305 104.795 129.745 102.948C129.487 102.422 130.017 101.639 130.537 102.167C132.097 104.014 133.655 106.122 134.953 107.967C135.217 107.706 135.743 107.448 136.009 106.926C136.009 106.926 136.009 106.926 135.747 106.924C133.926 104.813 132.369 102.705 130.547 100.857C130.026 100.329 130.816 99.8098 131.339 100.076C133.159 102.186 134.719 104.032 136.539 106.143L136.541 105.881C136.808 105.096 136.812 104.572 136.818 103.785C136.554 104.046 136.291 104.044 136.031 103.78C134.992 102.461 133.953 101.143 132.651 99.8229C132.389 99.8211 132.391 99.5589 132.391 99.5589C131.87 99.0309 132.661 98.5122 133.183 98.7781C134.484 100.098 135.524 101.416 136.823 102.999C136.571 101.686 136.054 100.634 135.277 99.3174C133.191 97.7294 130.848 95.3532 127.957 96.3812C123.487 98.1845 125.803 104.231 127.884 106.605ZM127.193 93.2297C127.455 93.2316 127.455 93.2316 127.193 93.2297C127.455 93.2316 127.717 93.2334 127.717 93.2334C127.979 93.2353 128.24 93.4994 128.24 93.4994C128.502 93.5012 128.5 93.7634 128.5 93.7634L128.498 94.0255C128.758 94.2896 129.02 94.2914 129.017 94.8158C129.541 94.8195 130.065 94.8232 130.588 95.0891C129.807 94.2971 128.764 93.5031 127.985 92.4488C127.462 92.1829 126.676 92.1773 126.154 91.9114C126.672 92.7016 126.933 92.9657 127.193 93.2297ZM126.657 94.7989C126.655 95.0611 126.655 95.0611 126.654 95.3232L126.652 95.5854C126.914 95.5872 126.916 95.3251 127.178 95.327C127.18 95.0648 126.918 95.0629 126.657 94.7989ZM4.47729 59.3195C4.47542 59.5817 4.73759 59.5835 4.73572 59.8457C6.03714 61.1658 7.60257 62.2257 9.16802 63.2856C9.43018 63.2874 9.69233 63.2893 9.69046 63.5515C10.4751 63.8192 10.9956 64.3473 11.7802 64.6151C9.70357 61.7164 7.36477 58.8158 5.28812 55.9171C5.02971 55.3909 5.55966 54.6082 6.08022 55.1362C8.67743 58.563 11.0144 61.7257 13.6116 65.1525C15.1808 65.6881 16.75 66.2236 18.321 66.497C14.943 62.2782 11.5649 58.0593 8.18495 54.1026C7.66438 53.5745 8.45461 53.0558 8.97705 53.3218C12.6154 57.8046 16.2538 62.2875 19.8921 66.7704C20.6767 67.0382 21.4632 67.0438 21.9856 67.3097C22.7702 67.5775 23.2945 67.5812 24.0791 67.849C22.0043 64.6881 19.9277 61.7894 17.8529 58.6286C17.5945 58.1024 18.3847 57.5837 18.6431 58.1099C20.9782 61.5348 23.053 64.6956 25.388 68.1205C26.9591 68.3939 28.7904 68.9313 30.3615 69.2047C28.283 66.5682 26.2026 64.1938 24.1241 61.5572C23.6035 61.0292 24.3937 60.5105 24.9162 60.7764C27.255 63.677 29.5938 66.5775 31.9326 69.4781C33.5036 69.7515 35.0728 70.2871 36.6439 70.5605C34.8238 68.4501 33.0056 66.0776 30.9233 63.9654C30.4027 63.4373 31.1929 62.9186 31.7154 63.1845C33.7939 65.821 36.1364 68.1973 38.215 70.8339C38.9996 71.1016 39.786 71.1073 40.8328 71.3769C39.0146 69.0044 37.4585 66.6337 35.6421 63.9991C35.3837 63.4729 36.1739 62.9542 36.4323 63.4804C38.2487 66.115 40.0651 68.7497 42.1417 71.6484C43.1885 71.9181 44.4974 72.1896 45.5441 72.4592C44.5086 70.6167 43.2091 69.0344 42.1736 67.1918C41.9151 66.6656 42.7054 66.1469 42.9638 66.6731C44.2596 68.7797 45.5572 70.6242 46.853 72.7308C47.8998 73.0004 48.9465 73.2701 50.2554 73.5416C48.4428 70.3826 46.6283 67.4858 44.5536 64.3249C44.2952 63.7987 45.0854 63.28 45.3438 63.8062C47.4167 67.2292 49.4915 70.3901 51.3022 73.8112C52.0868 74.079 53.1354 74.0865 53.92 74.3543C51.8452 71.1934 49.7705 68.0326 47.6957 64.8717C47.4373 64.3455 48.2275 63.8268 48.4859 64.353C50.821 67.7779 53.156 71.2028 55.2308 74.3636C55.7551 74.3674 56.5397 74.6352 57.0622 74.9011C57.3243 74.9029 57.3243 74.9029 57.5865 74.9048C56.2907 72.7982 55.2552 70.9556 53.9594 68.849C53.701 68.3228 54.4912 67.8041 54.7496 68.3303C56.0435 70.6991 57.3393 72.8057 58.6332 75.1745C59.68 75.4441 60.9889 75.7156 62.0356 75.9853C59.18 72.0323 56.3225 68.3415 53.4669 64.3886C53.2085 63.8624 53.7384 63.0797 54.259 63.6077C57.3749 67.8247 60.4908 72.0417 63.6086 75.9965C64.6554 76.2662 65.7021 76.5358 66.7488 76.8055C64.6685 74.4311 62.5881 72.0567 60.5076 69.6823C59.9871 69.1542 60.7773 68.6355 61.2997 68.9014C63.3783 71.538 65.7208 73.9143 67.7994 76.5508C68.0596 76.8148 68.0596 76.8148 67.7956 77.0751C68.8424 77.3448 69.8891 77.6144 70.9377 77.6219C68.863 74.461 66.7863 71.5623 64.7115 68.4015C64.4531 67.8753 65.2433 67.3566 65.5017 67.8828C67.5765 71.0436 69.6513 74.2045 71.728 77.1032C71.9882 77.3672 71.7242 77.6275 71.7242 77.6275C73.2953 77.9009 74.8663 78.1743 76.4355 78.7099C74.0967 75.8093 71.7598 72.6466 69.421 69.746C69.1626 69.2198 69.6925 68.4371 70.2131 68.9651C72.8103 72.3919 75.4094 75.5565 78.0066 78.9833C78.7912 79.251 79.8398 79.2585 80.6244 79.5263C77.7669 75.8355 74.9075 72.4069 72.05 68.7161C71.7916 68.1899 72.3197 67.6693 72.8421 67.9352C75.9599 71.8901 79.0777 75.8449 82.1955 79.7997C83.7666 80.0731 85.0755 80.3446 86.6465 80.618C83.7853 77.4515 80.924 74.2851 78.0647 70.8564C77.5441 70.3284 78.3343 69.8097 78.8567 70.0756C81.9764 73.7682 85.0979 77.1987 88.2176 80.8914C91.0976 81.4363 94.2378 82.2453 97.1178 82.7902C94.2603 79.0994 91.4028 75.4086 88.5453 71.7178C88.2869 71.1916 88.815 70.6711 89.3374 70.937C92.4552 74.8918 95.5749 78.5844 98.4305 82.5374L98.4286 82.7996C99.4754 83.0692 100.522 83.3389 101.309 83.3445C98.9754 79.6574 96.3782 76.2307 94.045 72.5436C93.7866 72.0174 94.5768 71.4987 94.8352 72.0249C97.4287 75.976 100.024 79.6649 102.618 83.616C103.664 83.8856 104.711 84.1553 105.758 84.4249C102.898 80.9963 100.041 77.3055 97.1815 73.8769C96.661 73.3488 97.4512 72.8301 97.9736 73.096C101.093 76.7887 103.949 80.7416 107.069 84.4343L107.067 84.6965C107.851 84.9642 108.9 84.9717 109.684 85.2395C107.087 81.8127 104.49 78.386 101.631 74.9573C101.372 74.4312 101.902 73.6484 102.423 74.1765C105.28 77.8673 108.136 81.8202 111.256 85.5129C112.564 85.7844 113.611 86.0541 114.92 86.3256C111.542 82.1067 108.426 77.8898 105.05 73.4088C104.792 72.8826 105.321 72.0998 105.842 72.6279C109.479 77.3729 112.855 81.854 116.491 86.599C117.8 86.8705 119.109 87.142 120.418 87.4136C120.158 87.1495 120.158 87.1495 119.897 86.8855C117.555 84.5092 114.95 82.1311 113.136 79.2343C112.877 78.7081 113.405 78.1875 113.928 78.4534C116.798 80.3091 118.875 83.2078 121.216 85.8462C121.997 86.6383 122.777 87.4304 123.556 88.4847C124.081 88.4884 124.603 88.7543 125.127 88.7581C118.1 81.6293 111.072 74.5005 104.299 68.4222C103.256 67.6282 104.838 66.3287 105.619 67.1207C119.165 79.2773 131.125 93.2578 144.673 105.152C146.242 105.688 147.545 106.746 148.321 108.324C149.624 109.382 150.927 110.44 152.493 111.5C151.452 110.444 150.673 109.39 149.632 108.334C149.111 107.806 149.901 107.287 150.424 107.553C152.504 109.927 154.586 112.039 156.406 114.15C157.972 115.21 159.275 116.268 160.842 117.065C158.498 114.951 156.418 112.577 154.073 110.463C153.553 109.935 154.343 109.416 154.865 109.682C157.989 112.85 161.112 116.019 164.236 119.187C165.018 119.717 165.803 119.985 166.323 120.513C163.721 117.872 161.382 114.972 158.779 112.332C158.258 111.804 159.049 111.285 159.571 111.551C162.693 114.981 165.814 118.412 168.936 121.842C169.98 122.374 171.025 122.906 172.332 123.44C169.992 120.801 167.653 117.901 165.05 115.26C164.529 114.732 165.32 114.214 165.842 114.479C168.703 117.646 171.563 121.075 174.424 124.241C175.469 124.773 176.778 125.044 177.823 125.576C175.74 123.464 173.66 121.09 171.84 118.979C171.319 118.451 172.11 117.932 172.632 118.198C174.973 120.837 177.576 123.477 179.914 126.378C181.221 126.911 182.268 127.181 183.577 127.452C181.755 125.604 179.933 123.756 178.373 121.91C177.853 121.382 178.643 120.863 179.165 121.129C181.248 123.241 183.068 125.351 185.15 127.464C185.15 127.464 185.41 127.728 185.146 127.988C186.455 128.26 187.764 128.531 188.811 128.801C186.993 126.428 184.914 123.792 183.096 121.419C182.837 120.893 183.365 120.372 183.888 120.638C185.966 123.275 188.045 125.911 190.123 128.548L190.122 128.81C191.43 129.082 192.739 129.353 194.05 129.363C192.228 127.514 190.408 125.404 188.586 123.556C188.066 123.028 188.856 122.509 189.378 122.775C191.46 124.887 193.541 127.261 195.623 129.374C196.672 129.381 197.719 129.651 198.505 129.657C196.683 127.808 195.121 126.224 193.299 124.376C192.779 123.848 193.569 123.329 194.091 123.595C196.174 125.707 197.996 127.555 200.078 129.668C200.864 129.673 201.913 129.681 202.699 129.686C200.615 127.836 198.793 125.988 196.711 123.876C196.191 123.348 196.981 122.829 197.503 123.095C199.585 125.207 201.93 127.321 204.012 129.434C205.061 129.441 206.111 129.186 207.16 129.194C206.119 128.138 204.815 127.08 203.776 125.762C203.256 125.234 204.046 124.715 204.568 124.981C205.87 126.301 207.171 127.621 208.735 128.943C209.259 128.947 209.521 128.949 210.047 128.69C187.903 109.131 166.552 88.5297 144.937 68.1882C144.417 67.6601 145.209 66.8793 145.729 67.4073C155.113 75.0773 164.228 83.5319 173.083 91.7224L173.347 91.4621C170.746 88.5597 168.147 85.395 165.809 82.4945C165.288 81.9664 166.078 81.4477 166.601 81.7136C169.462 84.8801 172.061 88.0447 174.92 91.4733C176.229 91.7449 177.538 92.0164 178.845 92.5501C175.465 88.5934 171.825 84.3726 168.445 80.416C167.924 79.8879 168.715 79.3692 169.237 79.6351C173.138 84.1199 176.776 88.6027 180.677 93.0875C181.985 93.359 183.03 93.8908 184.339 94.1623C181.221 90.2075 177.841 86.2508 174.724 82.296C174.203 81.7679 174.993 81.2492 175.516 81.5151C178.894 85.734 182.534 89.9547 185.912 94.1736C187.483 94.447 188.792 94.7185 190.363 94.9919C186.985 90.773 183.607 86.5542 180.231 82.0732C179.972 81.547 180.501 81.0264 181.023 81.2923C184.661 85.7752 188.298 90.5202 191.936 95.0031C193.247 95.0125 194.294 95.2822 195.604 95.2915C193.005 92.1269 190.67 88.702 188.071 85.5374C187.813 85.0112 188.343 84.2285 188.863 84.7566C191.461 88.1833 194.318 91.8741 196.915 95.3009C197.964 95.3084 199.011 95.578 200.321 95.5874C197.2 92.1569 194.342 88.4661 191.221 85.0356C190.7 84.5075 191.49 83.9888 192.013 84.2547C195.133 87.9474 198.513 91.9041 201.632 95.5968C202.681 95.6042 203.728 95.8739 204.776 95.8814C201.913 92.9771 199.31 90.3368 196.447 87.4324C195.927 86.9044 196.717 86.3857 197.239 86.6516C200.363 89.8199 203.226 92.7243 206.349 95.8926C206.873 95.8964 207.136 95.8982 207.66 95.902C208.446 95.9076 209.233 95.9132 210.021 95.6567C206.639 91.9621 202.995 88.2657 199.614 84.5712C199.093 84.0431 199.883 83.5244 200.406 83.7903C204.048 87.7489 207.692 91.4453 211.334 95.4039C212.384 95.1492 213.173 94.8927 213.961 94.6362C211.879 92.5239 210.057 90.6757 207.975 88.5635C207.714 88.2994 207.716 88.0373 207.978 88.0392C202.499 84.3296 197.814 79.5771 194.185 73.7834C193.408 72.467 195.251 71.4315 196.028 72.7479C200.696 79.8599 206.424 85.4064 214 89.1309C214.523 89.3968 214.783 89.6608 215.307 89.6646C214.268 88.3463 213.491 87.0299 212.452 85.7116C212.193 85.1854 212.984 84.6667 213.242 85.1929C214.54 87.0374 215.577 88.6178 216.875 90.4623C218.182 90.9959 219.489 91.5296 220.798 91.8011C219.758 90.4829 218.717 89.4267 217.94 88.1103C217.42 87.5823 218.21 87.0636 218.732 87.3295C220.032 88.9118 221.331 90.4941 222.631 92.0764C223.94 92.3479 224.987 92.6176 226.296 92.8891C224.734 91.3049 223.432 89.9848 221.871 88.4006C221.35 87.8725 222.14 87.3538 222.663 87.6197C224.485 89.468 226.307 91.3162 227.868 92.9003C228.915 93.17 229.964 93.1775 231.011 93.4471C229.187 91.8611 227.627 90.0147 225.803 88.4287C225.282 87.9006 226.073 87.3819 226.595 87.6478C228.679 89.4979 230.499 91.6083 232.584 93.4584C233.108 93.4621 233.632 93.4659 234.155 93.7318C232.853 92.4116 231.29 91.0896 229.988 89.7694C229.468 89.2414 230.258 88.7227 230.78 88.9886C232.604 90.5746 234.166 92.1588 235.99 93.7449C236.514 93.7486 237.3 93.7542 237.825 93.758C230.535 86.6273 223.245 79.4966 216.219 72.1057C215.699 71.5776 216.491 70.7968 217.011 71.3248C219.878 73.7048 222.743 76.347 225.348 78.7252C225.614 78.2027 225.88 77.6803 226.146 77.1578C226.678 76.113 227.209 75.0681 227.739 74.2854L228.003 74.0251C229.331 71.675 230.659 69.325 231.984 67.2371C231.722 67.2352 231.722 67.2352 231.46 67.2333C229.37 66.1697 227.02 64.8421 224.93 63.7785C224.408 63.5126 224.938 62.7299 225.46 62.9958C227.55 64.0594 229.9 65.387 231.99 66.4506C232.252 66.4525 232.25 66.7147 232.248 66.9768C232.778 66.1941 233.044 65.6717 233.574 64.8889C232.269 64.0931 230.702 63.2954 229.397 62.4995C228.874 62.2336 229.404 61.4509 229.926 61.7168C231.232 62.5127 232.799 63.3104 234.104 64.1062C234.634 63.3235 234.9 62.801 235.43 62.0183C234.125 61.2225 232.82 60.4266 231.514 59.6308C230.992 59.3649 231.522 58.5822 232.044 58.8481C233.349 59.6439 234.655 60.4398 235.96 61.2356C236.226 60.7132 236.754 60.1926 237.022 59.408C235.718 58.35 234.151 57.5523 232.848 56.4943C232.325 56.2284 232.857 55.1835 233.378 55.7116C234.681 56.7696 236.248 57.5673 237.551 58.6253C238.081 57.8425 238.611 57.0598 239.143 56.0149C237.316 54.9532 235.226 53.8896 233.398 52.8279C232.876 52.5619 233.406 51.7792 233.928 52.0451C235.756 53.1069 237.845 54.1705 239.673 55.2322C239.939 54.7098 240.467 54.1892 240.735 53.4046C239.43 52.6088 237.862 51.8111 236.559 50.7531C236.037 50.4872 236.567 49.7044 237.089 49.9704C238.394 50.7662 239.961 51.5639 241.265 52.6219C241.531 52.0994 241.797 51.577 242.062 51.0546C242.064 50.7924 242.327 50.7943 242.328 50.5321C241.023 49.7363 239.456 48.9386 238.153 47.8806C237.63 47.6147 238.16 46.832 238.683 47.0979C239.988 47.8937 241.555 48.6914 242.858 49.7494C243.124 49.227 243.654 48.4442 243.92 47.9218C242.877 47.1278 241.572 46.332 240.529 45.538C240.006 45.2721 240.538 44.2273 241.059 44.7553C242.102 45.5493 243.407 46.3451 244.45 47.1391C244.716 46.6166 245.244 46.0961 245.512 45.3115C244.207 44.5156 242.901 43.7198 241.596 42.924C241.074 42.6581 241.604 41.8753 242.126 42.1412C243.431 42.9371 244.736 43.7329 246.042 44.5288C246.572 43.746 246.839 42.9614 247.367 42.4409C246.324 41.6469 245.017 41.1132 243.974 40.3193C243.452 40.0534 243.982 39.2706 244.504 39.5365C245.547 40.3305 246.854 40.8642 247.897 41.6581C248.163 41.1357 248.427 40.8754 248.693 40.353C247.91 39.823 247.388 39.5571 246.605 39.0272C246.083 38.7613 246.615 37.7164 247.135 38.2445C247.918 38.7744 248.44 39.0403 249.223 39.5703C249.755 38.5254 250.285 37.7426 250.817 36.6978C249.511 35.9019 247.944 35.1042 246.639 34.3084C246.117 34.0425 246.647 33.2598 247.169 33.5257C248.474 34.3215 250.041 35.1192 251.347 35.915C251.612 35.3926 252.142 34.6099 252.408 34.0874C251.365 33.2935 250.06 32.4976 249.017 31.7037C248.495 31.4378 249.027 30.3929 249.547 30.921C250.59 31.7149 251.895 32.5108 252.938 33.3047C253.468 32.522 253.734 31.9996 254.264 31.2168C252.699 30.157 251.393 29.3611 249.828 28.3013C249.306 28.0354 249.837 26.9905 250.358 27.5185C251.923 28.5784 253.229 29.3742 254.794 30.4341C255.06 29.9117 255.59 29.1289 255.856 28.6065C254.813 27.8125 253.768 27.2807 252.987 26.4886C252.465 26.2227 252.996 25.1779 253.517 25.7059C254.56 26.4999 255.605 27.0317 256.386 27.8238C256.65 27.5635 256.916 27.0411 257.18 26.7808C256.657 26.5149 256.133 26.5111 255.873 26.2471C255.612 25.9831 255.878 25.4606 256.138 25.7247C256.661 25.9906 257.185 25.9943 257.708 26.2602C257.71 25.9981 257.972 25.9999 257.974 25.7378C258.238 25.4775 258.238 25.4775 258.502 25.2172C258.766 24.9569 259.028 24.9588 259.026 25.2209C255.627 23.8858 252.223 23.3371 248.813 23.575C245.345 31.9396 240.044 40.029 234.49 46.8057C228.67 54.1049 221.539 61.3947 212.864 64.741C207.87 66.5405 202.891 66.2427 197.387 65.9412C191.622 65.6379 185.856 65.3345 179.828 65.0293C168.559 64.4244 157.554 63.5593 146.289 62.4301C115.375 59.3253 84.4726 54.6477 53.8433 48.3989C54.8844 49.455 55.9256 50.5112 57.2289 51.5691C57.7494 52.0972 56.9592 52.6159 56.4368 52.35C54.8732 51.028 53.5718 49.7078 52.0101 48.1236L51.7479 48.1218C52.7853 49.7022 53.8246 51.0205 54.862 52.6009C55.1204 53.1271 54.3302 53.6458 54.0717 53.1196C52.7741 51.2751 51.7367 49.6947 50.439 47.8503C49.3923 47.5806 48.3436 47.5731 47.2969 47.3035C47.0347 47.3016 46.5123 47.0357 46.2501 47.0338C47.81 48.8801 49.6338 50.4662 51.1936 52.3125C51.7142 52.8406 50.924 53.3593 50.4015 53.0934C48.3193 50.9811 46.237 48.8689 44.4169 46.7585C43.8926 46.7548 43.108 46.487 42.5837 46.4833C43.8851 47.8034 45.1846 49.3857 46.4861 50.7059C47.0066 51.2339 46.2164 51.7526 45.694 51.4867C44.3944 49.9044 43.093 48.5843 41.5313 47.0001C41.271 46.7361 41.2729 46.4739 41.5369 46.2136C40.228 45.9421 38.6569 45.6687 37.348 45.3972C39.6887 48.0356 41.7691 50.41 44.1098 53.0484C44.6304 53.5765 43.8401 54.0952 43.3177 53.8293C40.7167 50.9268 38.3761 48.2884 35.7751 45.3859L35.777 45.1238C34.468 44.8523 32.897 44.5789 31.59 44.0452C34.1928 46.6855 36.5353 49.0618 39.1382 51.7021C39.6588 52.2301 38.8685 52.7488 38.3461 52.4829C35.483 49.5786 32.6199 46.6743 29.7567 43.7699C28.4478 43.4984 27.4011 43.2288 26.0922 42.9572C28.1726 45.3316 29.9908 47.7041 32.0712 50.0785C32.5917 50.6066 31.8015 51.1253 31.2791 50.8594C29.2006 48.2228 27.1202 45.8485 25.0417 43.2119C24.7814 42.9479 24.7832 42.6857 25.0454 42.6876C23.4743 42.4142 21.9051 41.8786 20.3341 41.6052C21.6336 43.1876 23.1935 45.0339 24.493 46.6162C25.0136 47.1443 24.2233 47.6629 23.7009 47.397C22.4014 45.8147 20.8415 43.9684 19.542 42.3861C19.2817 42.1221 19.5476 41.5996 19.8098 41.6015C19.2873 41.3356 18.5009 41.33 17.9784 41.0641C17.9784 41.0641 17.9784 41.0641 17.7162 41.0622C15.0816 42.8786 12.1847 44.6931 9.54818 46.7716C6.37045 51.2058 1.09922 55.1007 4.47729 59.3195ZM3.48488 51.4473C2.95683 51.9679 2.42877 52.4885 2.16285 53.0109L2.16098 53.2731C2.68904 52.7525 3.21709 52.2319 3.48488 51.4473Z" fill="#545353"/>
</svg>
