<svg width="339" height="147" viewBox="0 0 339 147" fill="none" xmlns="http://www.w3.org/2000/svg">
<path d="M1.90542 64.5367C1.03563 61.1489 3.61791 59.5121 5.94456 58.1439C6.98005 57.594 8.00911 56.7821 9.04459 56.2322C15.4746 51.092 22.1732 46.2074 28.8782 41.5849C37.13 35.8755 46.2065 31.7194 56.3957 30.1584C65.8051 28.8788 75.5215 29.4273 85.0015 31.0306C89.2141 31.7141 93.1711 32.666 97.1281 33.618C101.743 29.309 107.157 25.5049 112.046 21.7136C117.716 17.641 123.641 13.2999 129.847 9.7386C138.905 4.7962 151.158 1.87339 160.492 8.20063C160.492 8.20063 160.761 8.45629 160.498 8.46271C161.016 8.18778 161.56 8.96118 161.042 9.23612C160.275 10.0416 159.239 10.5915 158.472 11.397C153.621 16.7608 148.233 21.6132 143.107 26.4593C137.47 31.8423 132.101 37.481 126.457 42.602C133.074 45.0622 139.683 47.2603 146.293 49.4585C165.855 55.7972 189.871 62.0267 209.552 51.8413C219.396 46.8796 224.4 37.054 232.894 30.552C237.011 27.3042 241.952 25.6096 247.193 25.4811C247.455 25.4747 247.98 25.4618 248.242 25.4554C251.911 25.3654 255.606 26.3238 259.058 28.0749C259.588 28.3241 259.339 28.8547 258.815 28.8676C258.821 29.1297 258.566 29.3982 258.572 29.6602C258.579 29.9223 258.317 29.9288 258.054 29.9352C257.051 31.7955 256.048 33.6558 255.044 35.5161C255.044 35.5161 255.051 35.7781 254.789 35.7846C254.284 36.5837 253.779 37.3828 253.28 38.444C253.287 38.706 253.3 39.2302 252.776 39.2431C251.772 41.1034 250.513 43.2322 249.51 45.0924C249.516 45.3545 249.523 45.6166 249.261 45.623C246.992 49.35 244.985 53.0706 242.716 56.7976C237.936 65.0443 233.692 73.8023 228.643 81.7934C228.145 82.8546 227.659 84.4399 226.892 85.2454C231.981 89.5788 236.814 94.1807 241.91 98.7761C242.178 99.0318 242.191 99.5559 242.197 99.818C242.466 100.074 242.472 100.336 242.217 100.604C239.667 103.551 235.991 103.379 232.302 102.683C227.297 101.757 222.554 100.824 217.542 99.6357C213.452 103.932 204.247 102.846 199.523 102.7C192.171 102.356 183.778 102.299 176.631 99.5897C189.232 110.819 201.833 122.049 214.683 132.748C215.22 133.26 214.983 134.314 214.197 134.334C214.203 134.596 214.472 134.851 214.21 134.858C205.734 142.146 191.786 140.128 181.756 137.489C176.476 136.045 171.183 134.077 166.395 131.31C162.144 129.054 157.08 125.769 153.583 122.183C153.609 123.231 153.111 124.293 152.344 125.098C149.039 129.375 142.691 127.17 139.981 123.565C138.9 122.281 138.337 120.721 138.037 119.155C137.212 117.602 137.161 115.505 137.902 113.651C137.646 113.92 137.646 113.92 137.391 114.188C137.397 114.45 136.886 114.987 136.617 114.732C136.362 115 135.837 115.013 135.582 115.282C135.588 115.544 135.077 116.081 134.802 115.563L134.533 115.307C132.175 115.365 129.522 114.119 128.166 112.316C125.475 109.498 123.505 104.039 126.573 100.817C126.835 100.81 126.829 100.548 127.091 100.542C126.816 100.024 126.797 99.2379 127.046 98.7073C125.978 97.9467 125.173 97.1798 124.361 96.1507C110.924 93.5954 97.7489 91.0338 84.3183 88.7406L84.0562 88.747C75.1004 87.1309 66.1445 85.5147 57.1887 83.8986C56.9266 83.905 56.9266 83.905 56.6645 83.9114C54.555 83.4387 52.1898 83.2344 50.0802 82.7616C43.496 81.6118 36.9118 80.462 30.3211 79.0501C24.7852 77.8746 19.0001 77.2297 13.7134 75.5236C10.8048 74.546 6.56001 72.5521 3.86848 69.7334C3.60641 69.7399 3.34434 69.7463 3.07582 69.4906C2.26386 68.4616 1.71399 67.4261 1.4262 66.3842C2.20603 66.1028 1.92469 65.323 1.90542 64.5367ZM21.9818 49.0968C31.4682 50.9621 41.3696 48.3592 48.5474 41.6272C45.3702 40.3939 42.4552 39.1541 39.278 37.9208C33.0587 40.958 27.3828 44.7685 21.9818 49.0968ZM159.981 8.73765C148.557 2.72389 136.872 7.46845 126.805 14.009C117.256 20.2747 108.512 27.3074 99.4997 34.0843C105.835 35.7647 111.914 37.7136 118 39.9246C117.993 39.6625 118.249 39.394 118.773 39.3812C119.035 39.3748 119.042 39.6368 119.304 39.6304C119.304 39.6304 119.304 39.6304 119.572 39.8861C119.572 39.8861 119.572 39.8861 119.834 39.8796C116.395 38.6527 112.694 37.4323 109.248 35.9433C108.718 35.6941 108.96 34.9014 109.485 34.8885C113.186 36.109 116.894 37.5916 120.595 38.812C120.851 38.5435 121.368 38.2686 121.624 38.0001C118.977 37.016 116.069 36.0383 113.422 35.0542C112.892 34.805 113.135 34.0123 113.659 33.9995C116.567 34.9771 119.476 35.9548 122.391 37.1945C122.647 36.926 122.902 36.6575 123.42 36.3826C121.304 35.6477 119.188 34.9129 116.804 33.9224C116.273 33.6731 116.516 32.8805 117.04 32.8676C119.418 33.596 121.803 34.5866 124.181 35.315C124.698 35.04 124.954 34.7715 125.472 34.4966C123.618 33.7553 121.764 33.014 119.91 32.2728C119.38 32.0235 119.616 30.9688 120.147 31.218C122.263 31.9529 124.385 32.9498 126.501 33.6847C127.012 33.1476 127.53 32.8727 128.041 32.3357C126.187 31.5944 124.596 30.8467 122.742 30.1054C122.211 29.8562 122.447 28.8014 122.978 29.0507C124.832 29.7919 126.948 30.5268 128.808 31.5302C129.064 31.2616 129.326 31.2552 129.582 30.9867C128.258 30.4947 126.673 30.009 125.35 29.517C124.819 29.2678 125.062 28.4751 125.586 28.4622C126.909 28.9543 128.495 29.4399 129.818 29.9319C129.818 29.9319 129.818 29.9319 130.08 29.9255C130.336 29.657 130.598 29.6506 130.866 29.9062C133.442 28.0074 136.012 25.8465 138.588 23.9476C145.024 19.0695 151.192 13.9357 157.897 9.31322C158.702 10.0802 159.207 9.28109 159.981 8.73765ZM121.177 41.1579C121.708 41.4072 122.5 41.65 123.031 41.8992C123.274 41.1065 123.516 40.3139 123.753 39.2591C123.235 39.534 122.979 39.8025 122.468 40.3396C122.475 40.6016 122.225 41.1322 121.957 40.8766C121.433 40.8894 121.433 40.8894 121.177 41.1579ZM142.302 25.6923C143.836 24.0812 145.376 22.7323 146.91 21.1212C144.596 23.0136 142.276 24.6439 139.962 26.5364C137.131 28.7037 134.561 30.8646 131.73 33.032C131.755 34.0803 131.519 35.1351 130.758 36.2027C130.247 36.7397 129.704 35.9663 129.953 35.4357C130.202 34.9051 130.451 34.3745 130.701 33.8439C130.183 34.1189 129.927 34.3874 129.416 34.9244C129.186 36.2412 128.956 37.5581 128.726 38.8749C133.334 34.3039 137.687 30.0013 142.302 25.6923ZM127.953 39.4184C127.691 39.4248 127.684 39.1627 127.678 38.9006C127.914 37.8459 127.888 36.7975 128.118 35.4807C127.863 35.7492 127.345 36.0241 127.089 36.2926C127.089 36.2926 127.089 36.2926 127.096 36.5547C126.61 38.1401 126.38 39.4569 125.894 41.0423C125.645 41.5729 124.853 41.3301 124.84 40.8059C125.076 39.7511 125.312 38.6964 125.805 37.3731C125.549 37.6416 125.031 37.9166 124.775 38.1851C124.546 39.5019 124.053 40.8252 123.823 42.142C124.092 42.3977 124.616 42.3848 124.885 42.6405C125.907 41.5665 126.93 40.4924 127.953 39.4184ZM231.955 35.0331C225.8 40.6911 221.256 47.883 214.02 52.2563C199.044 61.8019 179.612 60.7048 162.991 56.6541C148.218 53.0827 133.918 47.4017 119.374 42.5133C118.857 42.7883 118.326 42.539 118.051 42.0213C114.081 40.5452 109.856 39.3375 105.893 38.1235C87.6609 32.5389 66.8406 28.3289 48.361 34.0268C45.7595 34.8773 43.1643 35.9899 40.8313 37.096C44.0084 38.3293 46.9235 39.5691 50.1006 40.8024C50.3691 41.0581 50.6376 41.3137 50.382 41.5822C42.9614 49.1069 32.0181 51.9976 21.4705 49.6338C21.4705 49.6338 21.4705 49.6338 21.2084 49.6402C20.6971 50.1772 20.1793 50.4522 19.668 50.9892C23.088 51.4298 26.2522 52.139 29.6722 52.5796C29.9343 52.5732 30.1899 52.3047 30.1964 52.5668C47.0533 55.5627 63.6482 58.565 80.7479 60.7682C119.429 66.1138 158.576 69.0877 197.665 69.7029C204.485 69.798 210.52 69.9123 216.726 66.351C221.635 63.346 225.732 59.3119 229.561 55.0222C233.638 50.2019 237.447 45.1259 240.458 39.545C242.72 35.5559 244.458 31.5797 246.721 27.5906C240.98 28.7803 236.059 31.2611 231.955 35.0331ZM229.918 101.693C233.606 102.389 238.631 104.101 241.974 101.397C234.623 101.053 227.009 100.715 220.137 98.5231C219.882 98.7916 219.888 99.0537 219.639 99.5843C222.803 100.293 226.23 100.996 229.918 101.693ZM218.552 98.0375C217.229 97.5455 215.643 97.0598 214.314 96.3057C213.252 95.8072 212.453 95.3024 211.392 94.8039C213.003 96.3378 214.614 97.8718 216.225 99.4058C217.005 99.1244 217.779 98.581 218.552 98.0375ZM154.862 120.84C155.399 121.352 156.191 121.595 156.728 122.106C156.453 121.588 155.916 121.077 155.641 120.559C155.373 120.303 155.884 119.766 156.159 120.284C157.233 121.307 158.576 122.585 159.394 123.876L159.401 124.138C159.669 124.394 159.931 124.388 159.938 124.65C159.669 124.394 159.394 123.876 159.126 123.621C158.857 123.365 159.368 122.828 159.637 123.084C160.443 123.851 160.986 124.624 161.529 125.397C161.536 125.659 161.536 125.659 161.542 125.922C163.147 127.193 164.745 128.203 166.612 129.469C171.4 132.236 176.175 134.479 181.456 135.923C191.498 139.086 203.069 140.376 212.925 135.938L212.657 135.683C190.207 139.904 171.112 131.194 153.749 118.245C154.293 119.019 154.574 119.799 154.862 120.84ZM143.401 124.006C144.206 124.773 145.267 125.272 146.591 125.764C145.785 124.997 145.235 123.961 144.43 123.194C143.893 122.683 144.666 122.139 145.197 122.389C146.277 123.673 147.358 124.958 148.17 125.987C148.432 125.981 148.694 125.974 149.218 125.961C147.6 124.165 145.989 122.631 144.634 120.829C144.097 120.318 144.87 119.774 145.401 120.023C147.018 121.819 148.898 123.609 150.522 125.667C151.046 125.654 151.564 125.379 151.819 125.111C149.665 122.804 147.779 120.752 145.624 118.444C145.087 117.933 145.861 117.39 146.391 117.639C148.546 119.946 150.432 121.998 152.586 124.305C152.842 124.037 153.098 123.768 153.085 123.244C151.192 120.93 149.3 118.617 147.401 116.041C147.126 115.523 147.631 114.724 148.168 115.235C150.061 117.549 151.684 119.607 153.577 121.921C153.564 121.397 153.813 120.866 153.8 120.342C152.183 118.546 150.572 117.012 148.954 115.216C148.417 114.705 149.191 114.161 149.721 114.41C151.064 115.689 152.144 116.973 153.487 118.252C153.206 117.472 152.662 116.699 152.119 115.925C151.857 115.932 151.595 115.938 151.582 115.414C151.575 115.152 151.307 114.896 151.3 114.634C151.032 114.378 151.032 114.378 150.763 114.123C149.689 113.1 148.622 112.339 147.286 111.323C145.438 110.844 143.361 111.682 142.102 113.81C139.846 118.062 140.984 121.705 143.401 124.006ZM144.914 110.857C144.652 110.863 144.652 110.863 144.914 110.857V110.857ZM142.51 109.08C142.242 108.824 141.973 108.569 141.705 108.313C141.711 108.575 141.711 108.575 141.98 108.831C142.248 109.087 142.248 109.087 142.517 109.342L142.51 109.08ZM141.296 113.044C141.552 112.775 141.552 112.775 141.807 112.506L141.545 112.513C141.29 112.781 141.29 112.781 141.296 113.044ZM130.25 111.741C131.056 112.508 131.861 113.275 132.916 113.511C132.647 113.256 132.117 113.006 131.842 112.489C131.305 111.977 132.078 111.434 132.609 111.683C133.414 112.45 134.22 113.217 135.019 113.722C135.543 113.709 136.067 113.696 136.585 113.421C134.968 111.625 133.612 109.823 131.995 108.027C131.72 107.509 132.225 106.71 132.762 107.221C134.379 109.017 136.003 111.075 137.358 112.878C137.614 112.609 138.132 112.334 138.381 111.804C138.381 111.804 138.381 111.804 138.119 111.81C136.233 109.758 134.609 107.7 132.73 105.911C132.193 105.399 132.966 104.856 133.497 105.105C135.383 107.157 137 108.953 138.886 111.005L138.88 110.743C139.122 109.95 139.11 109.426 139.09 108.639C138.835 108.908 138.572 108.914 138.304 108.659C137.224 107.374 136.143 106.089 134.801 104.811C134.538 104.817 134.532 104.555 134.532 104.555C133.995 104.044 134.768 103.501 135.299 103.75C136.642 105.028 137.722 106.313 139.071 107.853C138.777 106.549 138.227 105.514 137.409 104.223C135.273 102.701 132.857 100.401 129.999 101.52C125.589 103.463 128.096 109.433 130.25 111.741ZM129.136 98.3938C129.398 98.3874 129.398 98.3874 129.136 98.3938C129.398 98.3874 129.66 98.381 129.66 98.381C129.922 98.3745 130.191 98.6302 130.191 98.6302C130.453 98.6238 130.459 98.8859 130.459 98.8859L130.466 99.1479C130.734 99.4036 130.996 99.3972 131.009 99.9214C131.533 99.9085 132.058 99.8956 132.588 100.145C131.783 99.3779 130.715 98.6173 129.903 97.5883C129.373 97.3391 128.586 97.3583 128.056 97.1091C128.599 97.8825 128.868 98.1382 129.136 98.3938ZM128.65 99.9792C128.657 100.241 128.657 100.241 128.663 100.503L128.67 100.765C128.932 100.759 128.925 100.497 129.188 100.49C129.181 100.228 128.919 100.235 128.65 99.9792ZM5.40886 68.3845C5.41529 68.6465 5.67739 68.6401 5.68381 68.9022C7.02636 70.1805 8.62456 71.1903 10.2228 72.2001C10.4849 72.1937 10.7469 72.1872 10.7534 72.4493C11.546 72.6921 12.0831 73.2034 12.8757 73.4462C10.7084 70.6147 8.27895 67.7896 6.1116 64.9581C5.83667 64.4403 6.34158 63.6412 6.87859 64.1526C9.58295 67.4954 12.0188 70.5826 14.7232 73.9254C16.3085 74.4111 17.8939 74.8967 19.4728 75.1202C15.9629 71.0104 12.453 66.9006 8.94955 63.0528C8.41254 62.5415 9.18595 61.9981 9.71654 62.2473C13.4949 66.6128 17.2734 70.9783 21.0518 75.3438C21.8444 75.5866 22.6307 75.5673 23.1613 75.8165C23.954 76.0593 24.4781 76.0465 25.2708 76.2893C23.097 73.1957 20.9297 70.3641 18.7559 67.2705C18.481 66.7528 19.2544 66.2093 19.5293 66.7271C21.9716 70.0764 24.1454 73.17 26.5877 76.5192C28.1666 76.7428 30.014 77.222 31.593 77.4455C29.432 74.8761 27.2775 72.5687 25.1166 69.9993C24.5796 69.4879 25.353 68.9445 25.8836 69.1937C28.313 72.0188 30.7425 74.8439 33.1719 77.669C34.7508 77.8926 36.3362 78.3782 37.9151 78.6017C36.0291 76.55 34.1367 74.2363 31.9886 72.191C31.4516 71.6797 32.225 71.1362 32.7556 71.3854C34.9165 73.9549 37.3331 76.2558 39.4941 78.8253C40.2867 79.0681 41.073 79.0488 42.1278 79.2852C40.2353 76.9714 38.605 74.6512 36.7062 72.0753C36.4312 71.5576 37.2046 71.0141 37.4796 71.5319C39.3784 74.1078 41.2773 76.6836 43.4446 79.5152C44.4994 79.7515 45.8162 79.9815 46.871 80.2179C45.7777 78.409 44.4287 76.8686 43.3354 75.0597C43.0605 74.542 43.8339 73.9985 44.1088 74.5163C45.4706 76.5808 46.826 78.3833 48.1878 80.4478C49.2426 80.6842 50.2973 80.9206 51.6142 81.1506C49.7025 78.0505 47.7972 75.2126 45.6235 72.119C45.3485 71.6012 46.122 71.0578 46.3969 71.5755C48.5771 74.9312 50.7509 78.0248 52.669 81.387C53.4616 81.6298 54.51 81.6041 55.3027 81.8469C53.1289 78.7533 50.9551 75.6597 48.7813 72.566C48.5064 72.0483 49.2798 71.5048 49.5547 72.0226C51.997 75.3719 54.4393 78.7211 56.6131 81.8148C57.1373 81.8019 57.9299 82.0447 58.4605 82.2939C58.7226 82.2875 58.7226 82.2875 58.9847 82.2811C57.6229 80.2165 56.5296 78.4077 55.1677 76.3431C54.8928 75.8254 55.6662 75.2819 55.9412 75.7997C57.3094 78.1263 58.6712 80.1909 60.0395 82.5175C61.0942 82.7539 62.4111 82.9838 63.4658 83.2202C60.4865 79.3596 57.5137 75.7611 54.5344 71.9005C54.2594 71.3828 54.7643 70.5837 55.3013 71.095C58.5491 75.2112 61.797 79.3275 65.0384 83.1817C66.0931 83.418 67.1479 83.6544 68.2026 83.8908C66.0481 81.5835 63.8936 79.2761 61.7391 76.9687C61.2021 76.4574 61.9755 75.914 62.5061 76.1632C64.667 78.7326 67.0836 81.0336 69.2446 83.603C69.5131 83.8587 69.5131 83.8587 69.2574 84.1272C70.3122 84.3636 71.3669 84.6 72.4153 84.5743C70.2415 81.4807 68.0741 78.6491 65.9003 75.5555C65.6254 75.0378 66.3988 74.4943 66.6738 75.0121C68.8476 78.1057 71.0213 81.1993 73.1887 84.0308C73.4572 84.2865 73.2015 84.555 73.2015 84.555C74.7805 84.7785 76.3594 85.0021 77.9447 85.4877C75.5153 82.6626 73.0795 79.5754 70.65 76.7503C70.3751 76.2325 70.88 75.4334 71.417 75.9448C74.1214 79.2876 76.8193 82.3684 79.5237 85.7112C80.3164 85.954 81.3647 85.9283 82.1574 86.1711C79.1845 82.5726 76.218 79.2362 73.2452 75.6377C72.9702 75.12 73.4816 74.5829 74.0121 74.8322C77.2535 78.6863 80.4949 82.5405 83.7363 86.3947C85.3152 86.6182 86.6321 86.8482 88.211 87.0717C85.251 83.9974 82.291 80.923 79.3245 77.5866C78.7875 77.0753 79.5609 76.5318 80.0915 76.7811C83.3264 80.3732 86.555 83.7032 89.7899 87.2952C92.6857 87.7487 95.85 88.4579 98.7458 88.9114C95.7729 85.3129 92.8001 81.7144 89.8272 78.1159C89.5522 77.5981 90.0636 77.0611 90.5941 77.3103C93.8355 81.1645 97.0705 84.7566 100.05 88.6172L100.056 88.8793C101.111 89.1157 102.166 89.352 102.952 89.3328C100.503 85.7214 97.7989 82.3786 95.3502 78.7672C95.0753 78.2494 95.8487 77.706 96.1236 78.2238C98.8408 82.0908 101.552 85.6957 104.269 89.5627C105.324 89.7991 106.378 90.0355 107.433 90.2719C104.467 86.9354 101.494 83.3369 98.5274 80.0005C97.9904 79.4892 98.7638 78.9457 99.2944 79.195C102.529 82.7871 105.509 86.6477 108.744 90.2397L108.75 90.5018C109.543 90.7446 110.591 90.7189 111.384 90.9617C108.679 87.6189 105.975 84.2761 103.009 80.9396C102.734 80.4219 103.238 79.6228 103.775 80.1341C106.748 83.7326 109.728 87.5932 112.963 91.1853C114.279 91.4152 115.334 91.6516 116.651 91.8816C113.141 87.7718 109.893 83.6555 106.377 79.2836C106.102 78.7659 106.607 77.9667 107.144 78.4781C110.929 83.1056 114.445 87.4776 118.23 92.1051C119.547 92.3351 120.864 92.5651 122.181 92.795C121.912 92.5394 121.912 92.5394 121.644 92.2837C119.227 89.9828 116.548 87.6882 114.643 84.8503C114.368 84.3325 114.879 83.7955 115.41 84.0448C118.338 85.8087 120.505 88.6402 122.928 91.2032C123.734 91.9702 124.539 92.7372 125.351 93.7662C125.875 93.7534 126.406 94.0026 126.93 93.9898C119.68 87.087 112.431 80.1842 105.469 74.3233C104.401 73.5627 105.942 72.2137 106.747 72.9807C120.671 84.7025 133.067 98.2974 146.985 109.757C148.57 110.243 149.906 111.259 150.731 112.812C152.067 113.828 153.403 114.845 155.002 115.854C153.928 114.832 153.116 113.803 152.042 112.78C151.505 112.269 152.278 111.725 152.809 111.975C154.963 114.282 157.111 116.327 158.997 118.379C160.595 119.389 161.931 120.405 163.523 121.153C161.113 119.114 158.959 116.806 156.548 114.768C156.011 114.256 156.785 113.713 157.315 113.962C160.538 117.03 163.76 120.098 166.982 123.166C167.781 123.671 168.574 123.913 169.111 124.425C166.425 121.868 163.996 119.043 161.311 116.486C160.774 115.975 161.547 115.432 162.078 115.681C165.306 119.011 168.535 122.341 171.764 125.671C172.825 126.169 173.886 126.668 175.209 127.16C172.786 124.597 170.357 121.772 167.672 119.215C167.135 118.704 167.908 118.16 168.439 118.41C171.399 121.484 174.365 124.82 177.325 127.895C178.386 128.393 179.703 128.623 180.764 129.122C178.616 127.076 176.462 124.769 174.576 122.717C174.039 122.206 174.812 121.663 175.343 121.912C177.766 124.475 180.451 127.031 182.88 129.857C184.204 130.349 185.258 130.585 186.575 130.815C184.696 129.025 182.816 127.236 181.199 125.44C180.662 124.928 181.435 124.385 181.966 124.634C184.114 126.679 186 128.731 188.148 130.776C188.148 130.776 188.416 131.032 188.161 131.301C189.477 131.531 190.794 131.76 191.849 131.997C189.957 129.683 187.796 127.114 185.903 124.8C185.628 124.282 186.14 123.745 186.67 123.994C188.831 126.564 190.992 129.133 193.153 131.703L193.159 131.965C194.476 132.195 195.793 132.425 197.104 132.393C195.224 130.603 193.338 128.551 191.458 126.762C190.921 126.25 191.695 125.707 192.225 125.956C194.374 128.001 196.528 130.309 198.676 132.354C199.724 132.328 200.779 132.565 201.565 132.545C199.686 130.756 198.075 129.222 196.195 127.432C195.658 126.921 196.432 126.377 196.962 126.627C199.11 128.672 200.99 130.462 203.138 132.507C203.924 132.488 204.973 132.462 205.759 132.443C203.617 130.659 201.738 128.87 199.589 126.824C199.052 126.313 199.826 125.77 200.356 126.019C202.505 128.064 204.915 130.103 207.063 132.148C208.111 132.123 209.153 131.835 210.201 131.809C209.127 130.787 207.791 129.77 206.711 128.486C206.174 127.974 206.947 127.431 207.478 127.68C208.82 128.958 210.163 130.237 211.767 131.509C212.292 131.496 212.554 131.489 213.071 131.214C190.319 112.366 168.327 92.4505 146.079 72.8032C145.542 72.2919 146.309 71.4864 146.846 71.9977C156.467 79.3669 165.846 87.5287 174.956 95.4349L175.212 95.1664C172.52 92.3477 169.822 89.2669 167.393 86.4418C166.856 85.9305 167.629 85.3871 168.16 85.6363C171.12 88.7106 173.818 91.7914 176.784 95.1278C178.101 95.3578 179.418 95.5877 180.741 96.0798C177.238 92.232 173.466 88.1286 169.962 84.2809C169.425 83.7696 170.199 83.2261 170.729 83.4754C174.77 87.8344 178.548 92.1999 182.589 96.559C183.905 96.7889 184.967 97.2874 186.283 97.5174C183.042 93.6632 179.539 89.8154 176.297 85.9613C175.76 85.45 176.534 84.9065 177.064 85.1557C180.574 89.2656 184.346 93.369 187.856 97.4788C189.435 97.7023 190.752 97.9323 192.331 98.1558C188.821 94.046 185.311 89.9362 181.795 85.5643C181.52 85.0465 182.031 84.5095 182.561 84.7587C186.34 89.1242 190.125 93.7518 193.903 98.1173C195.214 98.0852 196.268 98.3216 197.579 98.2894C194.881 95.2087 192.439 91.8594 189.741 88.7786C189.466 88.2609 189.971 87.4618 190.508 87.9731C193.212 91.3159 196.185 94.9145 198.889 98.2573C199.938 98.2316 200.992 98.468 202.303 98.4359C199.074 95.1059 196.101 91.5074 192.873 88.1773C192.336 87.666 193.109 87.1226 193.64 87.3718C196.875 90.9639 200.378 94.8116 203.613 98.4037C204.661 98.378 205.716 98.6144 206.765 98.5887C203.811 95.7765 201.126 93.2199 198.172 90.4076C197.635 89.8963 198.409 89.3529 198.939 89.6021C202.161 92.67 205.115 95.4823 208.337 98.5502C208.861 98.5373 209.123 98.5309 209.647 98.5181C210.434 98.4988 211.22 98.4795 212 98.1981C208.503 94.6125 204.744 91.0332 201.247 87.4476C200.71 86.9363 201.483 86.3928 202.014 86.6421C205.779 90.4834 209.538 94.0626 213.304 97.9039C214.346 97.6161 215.126 97.3348 215.905 97.0534C213.757 95.0082 211.878 93.2185 209.73 91.1733C209.461 90.9176 209.455 90.6555 209.717 90.6491C204.123 87.1148 199.29 82.513 195.479 76.8371C194.661 75.5459 196.47 74.4526 197.288 75.7437C202.179 82.7044 208.08 88.0668 215.77 91.5496C216.301 91.7989 216.57 92.0545 217.094 92.0417C216.013 90.757 215.195 89.4658 214.114 88.1811C213.84 87.6634 214.613 87.1199 214.888 87.6377C216.243 89.4401 217.33 90.9869 218.686 92.7894C220.009 93.2814 221.332 93.7735 222.649 94.0034C221.568 92.7187 220.494 91.6961 219.676 90.4049C219.139 89.8936 219.912 89.3502 220.443 89.5994C221.792 91.1398 223.141 92.6802 224.49 94.2206C225.807 94.4505 226.862 94.6869 228.178 94.9169C226.567 93.3829 225.225 92.1046 223.614 90.5707C223.077 90.0593 223.85 89.5159 224.381 89.7651C226.26 91.5547 228.14 93.3444 229.751 94.8783C230.806 95.1147 231.854 95.089 232.909 95.3254C231.036 93.7979 229.418 92.0018 227.545 90.4743C227.008 89.963 227.781 89.4195 228.312 89.6688C230.454 91.4519 232.34 93.5036 234.481 95.2868C235.005 95.274 235.53 95.2611 236.06 95.5104C234.718 94.2321 233.113 92.9602 231.77 91.6819C231.233 91.1706 232.007 90.6271 232.537 90.8764C234.411 92.4039 236.022 93.9379 237.895 95.4654C238.419 95.4525 239.205 95.4333 239.729 95.4204C232.218 88.524 224.706 81.6277 217.45 74.4628C216.913 73.9514 217.68 73.1459 218.217 73.6572C221.157 75.9453 224.104 78.4955 226.783 80.79C227.032 80.2594 227.282 79.7288 227.531 79.1982C228.029 78.137 228.528 77.0758 229.033 76.2767L229.288 76.0082C230.541 73.6173 231.794 71.2265 233.053 69.0977C232.79 69.1041 232.79 69.1041 232.528 69.1105C230.406 68.1136 228.015 66.861 225.893 65.864C225.362 65.6148 225.867 64.8157 226.398 65.0649C228.52 66.0619 230.911 67.3145 233.033 68.3114C233.295 68.305 233.302 68.5671 233.308 68.8292C233.813 68.0301 234.062 67.4995 234.567 66.7004C233.238 65.9462 231.646 65.1985 230.316 64.4444C229.785 64.1952 230.29 63.3961 230.821 63.6453C232.151 64.3994 233.742 65.1471 235.072 65.9013C235.577 65.1022 235.826 64.5716 236.331 63.7725C235.001 63.0183 233.672 62.2642 232.342 61.5101C231.811 61.2608 232.316 60.4617 232.847 60.711C234.177 61.4651 235.506 62.2192 236.836 62.9734C237.085 62.4428 237.597 61.9057 237.839 61.1131C236.503 60.0968 234.912 59.3491 233.575 58.3329C233.045 58.0837 233.543 57.0225 234.08 57.5338C235.416 58.55 237.008 59.2977 238.344 60.314C238.849 59.5149 239.354 58.7157 239.853 57.6546C237.992 56.6512 235.87 55.6543 234.01 54.6509C233.479 54.4017 233.984 53.6026 234.515 53.8518C236.375 54.8552 238.497 55.8521 240.357 56.8555C240.607 56.3249 241.118 55.7878 241.361 54.9952C240.031 54.241 238.439 53.4933 237.103 52.4771C236.573 52.2279 237.078 51.4288 237.608 51.678C238.938 52.4321 240.53 53.1798 241.866 54.1961C242.115 53.6655 242.364 53.1349 242.613 52.6043C242.607 52.3422 242.869 52.3358 242.863 52.0737C241.533 51.3196 239.941 50.5719 238.605 49.5556C238.074 49.3064 238.579 48.5073 239.11 48.7565C240.44 49.5107 242.031 50.2584 243.368 51.2746C243.617 50.744 244.122 49.9449 244.371 49.4143C243.303 48.6537 241.974 47.8996 240.906 47.1391C240.375 46.8898 240.874 45.8286 241.411 46.34C242.479 47.1005 243.808 47.8546 244.876 48.6152C245.125 48.0846 245.636 47.5476 245.879 46.7549C244.549 46.0008 243.22 45.2466 241.89 44.4925C241.359 44.2433 241.864 43.4442 242.395 43.6934C243.725 44.4475 245.054 45.2017 246.384 45.9558C246.889 45.1567 247.132 44.364 247.643 43.827C246.575 43.0664 245.252 42.5744 244.185 41.8138C243.654 41.5646 244.159 40.7655 244.689 41.0147C245.757 41.7753 247.08 42.2673 248.148 43.0279C248.397 42.4973 248.653 42.2288 248.902 41.6982C248.103 41.1933 247.572 40.9441 246.773 40.4392C246.243 40.1899 246.741 39.1288 247.278 39.6401C248.077 40.145 248.608 40.3942 249.407 40.8991C249.905 39.8379 250.41 39.0388 250.909 37.9776C249.579 37.2235 247.987 36.4758 246.658 35.7217C246.127 35.4724 246.632 34.6733 247.163 34.9225C248.492 35.6767 250.084 36.4244 251.414 37.1785C251.663 36.6479 252.168 35.8488 252.417 35.3182C251.349 34.5577 250.02 33.8035 248.952 33.043C248.422 32.7937 248.92 31.7326 249.457 32.2439C250.525 33.0044 251.854 33.7586 252.922 34.5191C253.427 33.72 253.676 33.1894 254.181 32.3903C252.583 31.3805 251.253 30.6264 249.655 29.6166C249.124 29.3674 249.623 28.3062 250.16 28.8175C251.758 29.8273 253.088 30.5814 254.686 31.5912C254.935 31.0606 255.44 30.2615 255.689 29.7309C254.622 28.9704 253.56 28.4719 252.755 27.7049C252.224 27.4557 252.723 26.3945 253.26 26.9058C254.327 27.6664 255.389 28.1648 256.194 28.9318C256.45 28.6633 256.699 28.1327 256.955 27.8642C256.424 27.615 255.9 27.6278 255.631 27.3722C255.363 27.1165 255.612 26.5859 255.881 26.8416C256.411 27.0908 256.935 27.078 257.466 27.3272C257.46 27.0651 257.722 27.0587 257.715 26.7966C257.971 26.5281 257.971 26.5281 258.227 26.2596C258.482 25.9911 258.744 25.9846 258.751 26.2467C255.312 25.0198 251.892 24.5792 248.491 24.9248C245.289 33.395 240.247 41.6481 234.91 48.5973C229.324 56.077 222.428 63.5888 213.863 67.2079C208.928 69.1646 203.942 69.0246 198.432 68.8974C192.659 68.7767 186.887 68.6559 180.853 68.5416C169.57 68.2937 158.543 67.7773 147.248 67.0053C116.251 64.8805 85.2162 61.1832 54.4045 55.9069C55.4786 56.9296 56.5526 57.9522 57.8887 58.9684C58.4257 59.4798 57.6523 60.0232 57.1217 59.774C55.5171 58.5021 54.1746 57.2238 52.5635 55.6898L52.3014 55.6963C53.3883 57.2431 54.4688 58.5278 55.5557 60.0746C55.8306 60.5923 55.0572 61.1358 54.7822 60.618C53.4268 58.8156 52.3399 57.2688 50.9846 55.4663C49.9298 55.2299 48.8815 55.2556 47.8267 55.0192C47.5646 55.0256 47.034 54.7764 46.7719 54.7828C48.3894 56.5789 50.2626 58.1064 51.88 59.9025C52.4171 60.4138 51.6436 60.9572 51.1131 60.708C48.965 58.6627 46.8169 56.6174 44.9309 54.5657C44.4068 54.5786 43.6141 54.3358 43.0899 54.3486C44.4324 55.6269 45.7814 57.1673 47.124 58.4456C47.661 58.9569 46.8876 59.5004 46.357 59.2511C45.008 57.7107 43.6655 56.4325 42.0544 54.8985C41.7859 54.6428 41.7795 54.3807 42.0351 54.1122C40.7183 53.8823 39.1393 53.6587 37.8225 53.4288C40.2455 55.9918 42.4 58.2992 44.823 60.8622C45.3601 61.3735 44.5867 61.9169 44.056 61.6677C41.3645 58.849 38.9415 56.286 36.25 53.4673L36.2436 53.2052C34.9267 52.9753 33.3478 52.7518 32.0245 52.2597C34.7096 54.8163 37.1262 57.1172 39.8113 59.6738C40.3483 60.1852 39.5749 60.7286 39.0443 60.4794C36.0907 57.6671 33.1371 54.8549 30.1835 52.0426C28.8667 51.8126 27.8119 51.5763 26.495 51.3463C28.6496 53.6537 30.542 55.9674 32.6965 58.2748C33.2335 58.7861 32.4601 59.3296 31.9295 59.0803C29.7686 56.5109 27.6141 54.2035 25.4531 51.6341C25.1846 51.3784 25.1782 51.1163 25.4403 51.1099C23.8614 50.8864 22.276 50.4008 20.6971 50.1772C22.046 51.7176 23.6635 53.5136 25.0125 55.054C25.5495 55.5653 24.7761 56.1088 24.2455 55.8596C22.8965 54.3192 21.2791 52.5231 19.9301 50.9827C19.6616 50.7271 19.9108 50.1965 20.1729 50.1901C19.6423 49.9408 18.8561 49.9601 18.3254 49.7109C18.3254 49.7109 18.3254 49.7109 18.0634 49.7173C15.4875 51.6161 12.6495 53.5214 10.0801 55.6823C7.04428 60.2149 1.89896 64.2746 5.40886 68.3845ZM4.1678 60.5476C3.65649 61.0846 3.14517 61.6217 2.89592 62.1523L2.90235 62.4143C3.41366 61.8773 3.92498 61.3403 4.1678 60.5476Z" fill="#545353"/>
<path d="M159.299 66.4478C159.292 66.1857 159.03 66.1921 159.299 66.4478C157.668 64.1276 158.384 61.2254 160.979 60.1128C163.056 59.2751 165.696 59.9971 166.528 61.8125C168.734 66.2165 162.265 69.7842 159.299 66.4478ZM161.784 60.8798C159.701 61.4553 158.972 63.8334 160.059 65.3802C159.765 64.0762 159.995 62.7593 161.017 61.6853C161.784 60.8798 162.826 60.592 163.875 60.5663C162.826 60.592 162.302 60.6048 161.784 60.8798ZM160.852 65.623C160.807 63.7884 162.609 62.433 164.431 61.8639C162.315 61.129 160.014 63.5456 160.852 65.623ZM165.761 62.618C165.499 62.6244 165.499 62.6244 165.761 62.618C164.719 62.9058 163.939 63.1871 163.172 63.9927C162.405 64.7982 162.424 65.5844 161.919 66.3835L161.664 66.6521C163.511 67.1313 166.356 65.4881 165.761 62.618Z" fill="#545353"/>
<path d="M144.564 64.449C142.934 62.1288 143.649 59.2266 146.245 58.114C148.322 57.2764 150.962 57.9984 151.793 59.8137C153.999 64.2177 147.537 68.0475 144.564 64.449ZM147.05 58.881C144.966 59.4566 144.238 61.8346 145.331 63.6435C145.6 63.8991 145.868 64.1548 146.13 64.1484C145.574 62.8508 146.584 61.2526 147.613 60.4406C148.642 59.6287 149.952 59.5966 151.013 60.095C150.201 59.066 148.354 58.5868 147.05 58.881ZM148.169 61.7382C147.14 62.5502 147.166 63.5985 146.929 64.6533L146.674 64.9218C148.79 65.6566 151.372 64.0199 151.314 61.6611C150.253 61.1627 149.205 61.1884 148.169 61.7382Z" fill="#545353"/>
<path d="M113.93 55.7589C115.458 53.8857 118.328 53.2909 120.208 55.0805C121.557 56.6209 122.139 58.9668 120.873 60.8335C119.863 62.4317 118.297 62.7323 116.974 62.2403C116.712 62.2467 116.718 62.5088 116.45 62.2532C116.188 62.2596 116.181 61.9975 115.913 61.7418C113.79 60.7449 112.422 58.4183 113.93 55.7589ZM116.686 61.1984C117.741 61.4348 118.789 61.4091 119.812 60.335C120.573 59.2674 120.54 57.957 119.984 56.6594C118.667 56.4295 117.37 56.9858 116.878 58.309C116.628 58.8396 116.379 59.3702 116.661 60.15C116.411 60.6806 116.68 60.9363 116.686 61.1984ZM115.088 60.1886C115.069 59.4023 115.305 58.3476 115.554 57.817C116.309 56.4873 117.868 55.9246 119.179 55.8924C117.836 54.6141 115.477 54.672 114.467 56.2702C113.72 57.862 114.276 59.1595 115.088 60.1886Z" fill="#545353"/>
<path d="M100.513 53.9901C102.04 52.1169 104.91 51.5221 106.79 53.3117C108.139 54.8521 108.721 57.198 107.455 59.0647C106.701 60.3944 105.397 60.6886 104.349 60.7143C104.355 60.9764 104.093 60.9828 103.831 60.9892C103.562 60.7336 103.3 60.74 103.294 60.4779C100.647 59.4938 99.0042 56.6495 100.513 53.9901ZM103.537 59.6852C104.592 59.9216 105.633 59.6338 106.4 58.8283C107.423 57.7543 107.116 55.9261 106.304 54.8971C104.994 54.9292 103.696 55.4855 103.204 56.8087C102.961 57.6014 103.249 58.6433 103.537 59.6852ZM101.939 58.6755C101.657 57.8956 101.894 56.8409 102.136 56.0482C102.891 54.7185 103.92 53.9065 105.492 53.868C104.156 52.8518 102.066 53.1653 101.056 54.7635C100.302 56.0932 100.865 57.6528 101.939 58.6755Z" fill="#545353"/>
<path d="M86.8332 52.2279C88.3607 50.3547 91.2308 49.7599 93.1104 51.5495C93.3789 51.8052 93.3789 51.8052 93.3853 52.0673L93.6474 52.0608C93.9095 52.0544 93.9223 52.5786 93.6602 52.585C94.4786 53.8761 94.5236 55.7107 93.5074 57.0469C93.0025 57.846 92.2291 58.3894 91.1871 58.6772C91.1871 58.6772 91.1872 58.6772 90.9251 58.6836C88.3171 59.272 84.82 55.6864 86.8332 52.2279C86.5775 52.4964 86.8396 52.49 86.8332 52.2279ZM91.43 57.8845C91.9541 57.8717 92.4654 57.3346 92.7211 57.0661C93.4817 55.9985 93.4431 54.426 92.8868 53.1284C92.107 53.4098 91.3336 53.9532 90.8287 54.7523C90.3302 55.8135 90.8801 56.849 91.43 57.8845ZM90.1195 57.9166C89.5697 56.8811 89.5311 55.3086 89.7739 54.516C90.2724 53.4548 91.0394 52.6492 92.0813 52.3615C90.7387 51.0832 88.6485 51.3966 87.3766 53.0013C86.3797 55.1237 88.01 57.4439 90.1195 57.9166Z" fill="#545353"/>
<path d="M72.0916 49.9666C73.6191 48.0935 76.4892 47.4986 78.3688 49.2883C79.7177 50.8286 80.2998 53.1746 79.0343 55.0413C78.0245 56.6395 76.4584 56.9401 74.8731 56.4545C74.8795 56.7166 74.6174 56.723 74.3553 56.7294C74.0868 56.4738 73.8183 56.2181 73.5498 55.9624C71.9388 54.4285 70.8326 52.0954 72.0916 49.9666ZM73.1464 50.203C74.1883 49.9152 75.4923 49.621 76.5342 49.3332C75.2109 48.8412 73.9069 49.1354 73.1464 50.203ZM74.841 55.1441C75.9021 55.6425 77.2126 55.6104 78.2288 54.2743C79.2514 53.2002 78.9443 51.3721 78.1324 50.343C77.8639 50.0874 77.5954 49.8317 77.3269 49.576L77.3333 49.8381C77.5954 49.8317 77.8703 50.3494 77.6082 50.3559C76.5727 50.9057 75.5373 51.4556 75.0388 52.5168C74.7896 53.0474 74.8024 53.5716 74.8217 54.3578C74.5724 54.8884 74.5789 55.1505 74.841 55.1441ZM73.5048 54.1279C73.4856 53.3416 73.7348 52.811 73.984 52.2804C74.2268 51.4877 74.7382 50.9507 75.2495 50.4137C74.7317 50.6886 73.9455 50.7079 73.4277 50.9828C73.1657 50.9893 72.8971 50.7336 72.8907 50.4715C72.143 52.0633 72.6993 53.3609 73.5048 54.1279Z" fill="#545353"/>
<path d="M63.1043 47.04C64.4533 48.5804 65.0352 50.9263 63.7698 52.7931C62.76 54.3913 61.1939 54.6919 59.8706 54.1998L59.6086 54.2063C59.078 53.957 58.8159 53.9635 58.5474 53.7078C58.2853 53.7142 58.2853 53.7142 58.2789 53.4521C58.2789 53.4521 58.2789 53.4521 58.2724 53.1901C56.9299 51.9118 56.0922 49.8344 57.0956 47.9741C57.0956 47.9741 57.0956 47.9741 57.3513 47.7056C58.3482 45.5832 61.2247 45.2504 63.1043 47.04ZM62.9707 52.2882C63.7377 51.4826 63.7055 50.1722 63.4178 49.1303C62.3694 49.156 61.3404 49.9679 60.8355 50.767C60.3306 51.5662 60.3498 52.3524 60.3691 53.1387C61.1618 53.3815 62.2037 53.0937 62.9707 52.2882ZM58.7773 52.391L59.0458 52.6466C59.0266 51.8604 59.2629 50.8056 59.7678 50.0065C60.2727 49.2074 61.0461 48.664 62.0881 48.3762C59.7036 47.3857 57.4091 50.0643 58.7773 52.391ZM57.6262 48.2233C57.1213 49.0224 57.1341 49.5466 57.4155 50.3264C57.3962 49.5402 57.9076 49.0031 58.1568 48.4725C59.1794 47.3985 60.7455 47.0979 62.0688 47.5899C60.7262 46.3116 58.636 46.6251 57.6262 48.2233Z" fill="#545353"/>
<path d="M85.6279 77.9565C88.5943 81.2929 91.5608 84.6294 94.5273 87.9658C95.0643 88.4771 94.2909 89.0205 93.7603 88.7713C90.7938 85.4349 87.8274 82.0985 84.8609 78.762C84.586 78.2443 85.3529 77.4388 85.6279 77.9565Z" fill="#545353"/>
<path d="M6.94934 67.0358C7.49278 67.8092 8.0298 68.3205 8.57324 69.0939C8.84818 69.6116 8.34327 70.4107 7.80625 69.8994C7.26281 69.126 6.72579 68.6147 6.18235 67.8413C5.90742 67.3235 6.41874 66.7865 6.94934 67.0358Z" fill="#545353"/>
<path d="M223.132 70.9145C225.261 72.1735 227.396 73.6946 229.787 74.9472C230.318 75.1965 229.819 76.2577 229.282 75.7463C227.154 74.4873 225.018 72.9662 222.628 71.7136C222.097 71.4644 222.602 70.6653 223.132 70.9145Z" fill="#545353"/>
<path d="M220.564 73.0757C222.961 74.5904 225.09 75.8494 227.487 77.3641C228.018 77.6133 227.519 78.6745 226.982 78.1632C224.585 76.6485 222.456 75.3895 220.059 73.8748C219.528 73.6256 220.033 72.8265 220.564 73.0757Z" fill="#545353"/>
<path d="M219.834 75.4535C222.232 76.9682 224.898 78.7386 227.295 80.2532C227.826 80.5025 227.327 81.5637 226.79 81.0523C224.393 79.5377 221.727 77.7673 219.33 76.2526C218.793 75.7413 219.297 74.9422 219.834 75.4535Z" fill="#545353"/>
<path d="M39.9507 43.9363C39.4265 43.9491 39.158 43.6934 39.4137 43.4249L39.158 43.6934C39.695 44.2048 40.2321 44.7161 40.7691 45.2274C41.0376 45.4831 40.7884 46.0137 40.5263 46.0201C38.6917 46.0651 36.8635 46.3721 35.0418 46.9413C34.524 47.2162 34.2362 46.1743 34.754 45.8993C36.3136 45.3366 37.6176 45.0424 39.1901 45.0039C38.6531 44.4925 38.1097 43.7191 37.3106 43.2143C37.0421 42.9586 37.2849 42.1659 37.8155 42.4151C38.3396 42.4023 38.6082 42.658 39.1323 42.6451C39.3944 42.6387 39.6629 42.8943 39.4072 43.1629C39.4072 43.1629 39.4072 43.1629 39.6629 42.8943C40.1871 42.8815 40.4749 43.9234 39.9507 43.9363Z" fill="#545353"/>
<path d="M135.614 63.095C134.854 64.1626 133.818 64.7125 132.77 64.7382C132.776 65.0003 132.514 65.0067 132.252 65.0131C131.99 65.0195 131.984 64.7574 131.984 64.7574C129.343 64.0354 127.176 61.2039 128.94 58.276C128.94 58.276 128.94 58.276 129.196 58.0075C130.723 56.1344 133.593 55.5395 135.473 57.3291C136.01 57.8405 136.285 58.3582 136.56 58.8759L136.566 59.138C136.336 60.4549 136.368 61.7653 135.614 63.095ZM129.471 58.5252C128.716 59.8549 129.273 61.1525 130.085 62.1816C129.266 60.8904 129.49 59.3115 130.512 58.2375C131.279 57.4319 132.059 57.1506 133.108 57.1249C131.791 56.8949 130.231 57.4576 129.471 58.5252ZM131.056 59.0109C130.289 59.8164 130.315 60.8647 130.864 61.9002C130.845 61.114 131.094 60.5834 131.344 60.0528C131.849 59.2537 132.884 58.7038 133.926 58.416C132.871 58.1796 131.823 58.2053 131.056 59.0109ZM132.149 60.8198C131.9 61.3503 131.651 61.8809 131.932 62.6608C131.945 63.1849 132.213 63.4406 132.482 63.6963C133.268 63.677 134.048 63.3956 134.815 62.5901C135.582 61.7846 135.55 60.4741 135.262 59.4322C133.945 59.2023 132.91 59.7521 132.149 60.8198Z" fill="#545353"/>
<path d="M125.071 50.241C102.135 45.2962 78.694 41.1504 55.9941 35.1509C55.4635 34.9016 55.7128 34.371 56.2369 34.3582C79.416 38.5103 102.378 44.5035 125.321 49.7104C125.583 49.7039 125.596 50.2281 125.071 50.241Z" fill="#545353"/>
<path d="M131.232 87.5909C142.791 99.1084 155.608 108.497 169.947 115.751C170.216 116.006 169.966 116.537 169.698 116.281C155.103 109.296 141.761 99.9204 130.72 88.1279C130.452 87.8723 130.963 87.3352 131.232 87.5909Z" fill="#545353"/>
<path d="M159.673 103.153C157.263 101.114 154.584 98.8192 152.167 96.5183C151.899 96.2626 152.41 95.7256 152.679 95.9813C155.351 98.0137 157.768 100.315 160.178 102.353C160.715 102.865 160.203 103.402 159.673 103.153Z" fill="#545353"/>
<path d="M161.861 10.5275C161.599 10.5339 161.324 10.0162 161.848 10.0034C162.11 9.99693 162.123 10.5211 161.861 10.5275Z" fill="#545353"/>
<path d="M200.969 65.4264C200.445 65.4392 200.164 64.6594 200.682 64.3845C216.617 61.8959 230.238 50.5478 235.107 35.2184C235.356 34.6878 236.149 34.9306 236.162 35.4548C230.775 51.0591 216.905 62.9378 200.969 65.4264Z" fill="#545353"/>
<path d="M207.176 115.362C225.343 118.326 243.255 121.558 261.422 124.522C261.947 124.509 261.71 125.564 261.186 125.577C243.019 122.613 225.107 119.381 206.94 116.417C206.409 116.168 206.645 115.113 207.176 115.362Z" fill="#545353"/>
<path d="M231.032 115.04C243.427 117.883 255.56 120.732 267.955 123.575C268.486 123.825 268.243 124.617 267.719 124.63C255.324 121.787 243.191 118.938 230.796 116.095C230.265 115.845 230.508 115.053 231.032 115.04Z" fill="#545353"/>
<path d="M288.998 115.454C276.104 113.672 263.211 111.891 250.055 110.115C249.531 110.128 249.767 109.073 250.291 109.06C263.185 110.842 276.079 112.624 289.234 114.4C290.027 114.642 289.784 115.435 288.998 115.454Z" fill="#545353"/>
<path d="M278.629 109.677C271.789 108.796 264.687 107.921 257.853 107.302C257.329 107.314 257.304 106.266 257.828 106.253C264.668 107.135 271.77 108.009 278.603 108.629C279.396 108.871 279.415 109.658 278.629 109.677Z" fill="#545353"/>
<path d="M302.115 115.657C300.229 113.606 299.883 110.205 300.867 107.558C301.615 105.967 302.893 104.624 304.191 104.068C303.321 100.68 305.341 97.4836 308.454 96.096C312.34 94.1651 317.103 95.884 320.056 98.6963C323.393 95.7298 328.097 95.09 331.588 98.4136C334.004 100.715 334.369 104.901 332.33 107.312C339.752 110.539 339.262 122.614 331.176 124.386C331.566 129.621 326.434 134.205 321.186 134.071C317.248 133.906 313.777 131.368 312.383 127.993C306.15 130.506 298.338 122.044 302.115 115.657ZM312.357 126.945C312.069 125.903 311.781 124.861 312.018 123.806C312.005 123.282 312.791 123.263 312.804 123.787C313.699 128.223 316.685 132.346 321.671 132.486C326.657 132.626 329.444 128.624 330.913 124.392C330.651 124.399 330.389 124.405 330.127 124.411C329.341 124.431 329.322 123.644 330.102 123.363C333.739 121.963 336.819 119.265 336.717 115.071C336.639 111.926 334.479 109.357 331.819 107.849C331.046 108.392 330.01 108.942 328.7 108.974C328.176 108.987 328.156 108.201 328.681 108.188C329.46 107.906 330.24 107.625 330.752 107.088C330.745 106.826 331.001 106.557 331.263 106.551C333.564 104.134 333.199 99.9475 329.747 98.1965C326.825 96.6946 323.7 97.558 321.386 99.4504L321.13 99.7189C320.363 100.524 319.59 101.068 319.091 102.129C318.836 102.398 318.305 102.148 318.561 101.88C319.066 101.081 319.57 100.282 320.337 99.4761C317.678 97.9678 314.75 96.2039 311.362 97.0737C307.975 97.9435 305.949 100.878 306.026 104.023C308.109 103.447 310.213 103.658 311.574 105.722C311.843 105.978 311.332 106.515 311.063 106.26C307.317 103.204 302.683 106.727 302.523 110.927C302.338 114.078 304.749 116.117 307.408 117.626C307.939 117.875 307.427 118.412 307.165 118.418C306.11 118.182 305.049 117.683 304.25 117.178C303.797 120.074 303.599 122.702 305.753 125.009C306.853 127.08 309.487 127.54 312.357 126.945Z" fill="#545353"/>
<path d="M290.047 126.181C288.174 124.653 287.848 122.039 289.113 120.172C290.641 118.299 293.249 117.711 295.116 118.976C295.384 119.232 295.135 119.762 294.866 119.507C293.281 119.021 291.184 119.072 290.175 120.671C289.165 122.269 289.472 124.097 290.552 125.382C290.552 125.382 290.552 125.382 290.559 125.644C292.361 124.288 295.238 123.956 297.124 126.007C297.124 126.007 297.124 126.007 297.386 126.001C297.648 125.994 297.923 126.512 297.399 126.525C297.405 126.787 297.149 127.056 296.619 126.806C294.477 125.023 291.076 125.369 290.099 128.277C289.377 130.918 291.525 132.963 294.152 133.161C294.676 133.148 294.964 134.19 294.178 134.209C290.528 135.085 287.549 131.225 288.776 127.785C289.287 127.248 289.536 126.718 290.047 126.181Z" fill="#545353"/>
<path d="M298.299 109.719C295.62 107.425 292.533 109.861 292.341 112.75C292.354 113.274 291.568 113.294 291.555 112.769C290.66 108.333 295.85 106.108 298.804 108.92C299.341 109.432 298.829 109.969 298.299 109.719Z" fill="#545353"/>
<path d="M293.521 96.7244C280.372 95.2111 266.929 92.3938 254.009 89.5636C253.479 89.3143 253.728 88.7837 254.252 88.7709C267.414 90.8084 280.838 92.8395 293.508 96.2003C294.033 96.1874 293.783 96.718 293.521 96.7244Z" fill="#545353"/>
<path d="M119.967 23.88C128.692 16.0611 139.749 7.13602 152.426 10.7589C152.956 11.0081 152.714 11.8008 152.189 11.8137C139.782 8.44644 129.242 17.0966 120.773 24.647C119.993 24.9283 119.45 24.1549 119.967 23.88Z" fill="#545353"/>
<path d="M18.9466 53.6296C19.7522 54.3966 20.5577 55.1635 21.3632 55.9305C21.9003 56.4418 21.1268 56.9853 20.5962 56.736C19.7907 55.9691 18.9852 55.2021 18.1797 54.4351C17.6426 53.9238 18.4161 53.3803 18.9466 53.6296Z" fill="#545353"/>
<path d="M16.6134 54.7358C16.8819 54.9915 16.882 54.9915 17.1505 55.2471C17.4254 55.7649 16.9205 56.564 16.3835 56.0527C16.115 55.797 16.115 55.797 15.8465 55.5413C15.5651 54.7615 16.3385 54.2181 16.6134 54.7358Z" fill="#545353"/>
<path d="M59.5064 60.7647C60.3183 61.7937 61.1303 62.8228 61.9422 63.8519C62.2172 64.3696 61.7123 65.1687 61.1753 64.6574C60.3633 63.6283 59.5513 62.5993 58.7394 61.5702C58.196 60.7968 58.9694 60.2533 59.5064 60.7647Z" fill="#545353"/>
<path d="M32.5741 42.5436C32.5805 42.8057 32.587 43.0678 32.5934 43.3299C32.5998 43.5919 32.5998 43.5919 32.3441 43.8605C31.8521 45.1837 30.2989 46.0085 28.9756 45.5165C28.445 45.2673 28.6878 44.4746 29.212 44.4617C30.2732 44.9602 31.82 43.8733 31.5258 42.5693L31.5194 42.3072C31.775 42.0387 32.5613 42.0194 32.5741 42.5436Z" fill="#545353"/>
<path d="M317.341 105.581C323.356 104.909 326.445 113.225 321.011 116.243C320.494 116.518 320.219 116 320.468 115.47C324.322 112.228 322.858 105.97 317.354 106.105C316.83 106.118 316.817 105.594 317.341 105.581Z" fill="#545353"/>
<path d="M306.196 132.341C306.464 132.597 306.215 133.127 305.953 133.134C304.368 132.648 302.552 133.479 302.329 135.058C302.112 136.899 303.716 138.171 305.289 138.133C305.813 138.12 305.832 138.906 305.308 138.919C302.962 139.501 300.545 137.2 301.012 134.828C301.485 132.719 304.08 131.606 306.196 132.341Z" fill="#545353"/>
<path d="M251.07 98.0274C252.585 95.6301 256.26 95.8023 258.146 97.854C258.415 98.1096 257.897 98.3846 257.891 98.1225C256.535 96.32 253.128 96.4035 252.131 98.5259C251.134 100.648 252.49 102.451 254.094 103.723C254.363 103.978 254.114 104.509 253.852 104.515C250.432 104.075 249.549 100.163 251.07 98.0274Z" fill="#545353"/>
<path d="M243.842 113.414C241.202 112.692 241.106 108.761 242.902 107.144C244.691 105.264 248.118 105.967 249.224 108.3C249.499 108.818 248.719 109.099 248.451 108.843C247.364 107.297 244.73 106.837 243.72 108.435C242.704 109.771 243.529 111.324 244.347 112.615C244.878 112.865 244.366 113.402 243.842 113.414Z" fill="#545353"/>
<path d="M236.919 109.126C235.857 108.628 234.553 108.922 233.786 109.727C233.013 110.271 232.515 111.332 232.01 112.131C231.754 112.4 231.23 112.413 231.217 111.888C230.616 108.756 235.039 107.337 237.423 108.327C237.954 108.576 237.449 109.375 236.919 109.126Z" fill="#545353"/>
<path d="M268.856 117.522C269.118 117.515 269.393 118.033 268.868 118.046C268.606 118.052 268.331 117.534 268.856 117.522Z" fill="#545353"/>
<path d="M262.886 120.028C262.899 120.553 262.112 120.572 261.838 120.054C261.243 117.184 264.343 115.272 266.734 116.525C267.533 117.03 266.772 118.097 266.235 117.586C264.65 117.1 262.841 118.194 262.886 120.028Z" fill="#545353"/>
<path d="M249.189 128.231C249.451 128.225 249.726 128.743 249.201 128.755C249.201 128.755 248.926 128.238 249.189 128.231Z" fill="#545353"/>
<path d="M237.58 125.369C239.37 123.49 242.515 123.413 244.656 125.196C245.187 125.445 244.42 126.25 244.145 125.733C242.54 124.461 239.919 124.525 238.385 126.136C236.852 127.747 237.434 130.093 238.789 131.896C239.064 132.413 238.553 132.95 238.278 132.433C235.88 130.918 235.797 127.511 237.58 125.369Z" fill="#545353"/>
</svg>
