<svg width="42" height="32" viewBox="0 0 42 32" fill="none" xmlns="http://www.w3.org/2000/svg">
<path d="M41.9841 3.68823L37.5029 9.55994L39.2128 14.5812L41.9841 3.68823Z" fill="url(#paint0_linear_482_8641)"/>
<path d="M41.9998 3.67993L35.7845 7.62984L30.9873 5.43L41.9998 3.67993Z" fill="url(#paint1_linear_482_8641)"/>
<path d="M8.84863 29.1378C11.4174 30.9451 14.5372 32.0082 17.9001 32.0082C26.6599 32.0082 33.7585 24.8444 33.7585 16.0041C33.7585 15.0064 33.6613 14.025 33.4911 13.0764C29.091 19.0463 18.4269 31.7383 8.84863 29.1378Z" fill="url(#paint2_linear_482_8641)"/>
<path d="M32.8512 10.6639C30.6714 4.44876 24.8045 0 17.9004 0C9.14065 0 2.04206 7.16381 2.04206 16.0041C2.04206 17.2471 2.17982 18.4574 2.44723 19.6187C1.24793 19.7986 0 18.5719 0 18.5719C0.867065 20.2075 2.05016 21.3197 3.22516 22.0721C3.23326 22.0884 3.23326 22.0966 3.24137 22.113C3.75188 22.4237 4.30291 22.7018 4.88636 22.9389C5.91549 23.3642 6.78256 23.5359 7.19583 23.5932C12.6737 24.55 20.8663 22.0639 32.8512 10.6639Z" fill="url(#paint3_radial_482_8641)"/>
<defs>
<linearGradient id="paint0_linear_482_8641" x1="37.5049" y1="9.13684" x2="41.9841" y2="9.13684" gradientUnits="userSpaceOnUse">
<stop stop-color="#00639E"/>
<stop offset="0.7092" stop-color="#008BBF"/>
<stop offset="0.9949" stop-color="#00B6F1"/>
</linearGradient>
<linearGradient id="paint1_linear_482_8641" x1="30.9895" y1="5.65495" x2="42.0002" y2="5.65495" gradientUnits="userSpaceOnUse">
<stop stop-color="#003E56"/>
<stop offset="0.6531" stop-color="#00517B"/>
<stop offset="0.9949" stop-color="#008BBF"/>
</linearGradient>
<linearGradient id="paint2_linear_482_8641" x1="8.84788" y1="22.5401" x2="33.7562" y2="22.5401" gradientUnits="userSpaceOnUse">
<stop offset="0.00510204" stop-color="#00B6F1"/>
<stop offset="0.5663" stop-color="#008BBF"/>
<stop offset="1" stop-color="#00639E"/>
</linearGradient>
<radialGradient id="paint3_radial_482_8641" cx="0" cy="0" r="1" gradientUnits="userSpaceOnUse" gradientTransform="translate(4.98327 12.3701) scale(29.7451 30.0184)">
<stop offset="0.00510204" stop-color="#008BBF"/>
<stop offset="0.3469" stop-color="#00517B"/>
<stop offset="1" stop-color="#003E56"/>
</radialGradient>
</defs>
</svg>
