<svg width="176" height="38" viewBox="0 0 176 38" fill="none" xmlns="http://www.w3.org/2000/svg">
<path d="M58.0254 29.42C55.4254 29.42 53.3654 28.7 51.8454 27.26C50.3254 25.8 49.5654 23.72 49.5654 21.02V15.98C49.5654 13.28 50.3254 11.21 51.8454 9.77C53.3654 8.31 55.4254 7.58 58.0254 7.58C60.6054 7.58 62.5954 8.29 63.9954 9.71C65.4154 11.11 66.1254 13.04 66.1254 15.5V15.68H62.2254V15.38C62.2254 14.14 61.8754 13.12 61.1754 12.32C60.4954 11.52 59.4454 11.12 58.0254 11.12C56.6254 11.12 55.5254 11.55 54.7254 12.41C53.9254 13.27 53.5254 14.44 53.5254 15.92V21.08C53.5254 22.54 53.9254 23.71 54.7254 24.59C55.5254 25.45 56.6254 25.88 58.0254 25.88C59.4454 25.88 60.4954 25.48 61.1754 24.68C61.8754 23.86 62.2254 22.84 62.2254 21.62V21.08H66.1254V21.5C66.1254 23.96 65.4154 25.9 63.9954 27.32C62.5954 28.72 60.6054 29.42 58.0254 29.42ZM72.5921 29.42C71.5321 29.42 70.5821 29.24 69.7421 28.88C68.9021 28.5 68.2321 27.96 67.7321 27.26C67.2521 26.54 67.0121 25.67 67.0121 24.65C67.0121 23.63 67.2521 22.78 67.7321 22.1C68.2321 21.4 68.9121 20.88 69.7721 20.54C70.6521 20.18 71.6521 20 72.7721 20H76.8521V19.16C76.8521 18.46 76.6321 17.89 76.1921 17.45C75.7521 16.99 75.0521 16.76 74.0921 16.76C73.1521 16.76 72.4521 16.98 71.9921 17.42C71.5321 17.84 71.2321 18.39 71.0921 19.07L67.6121 17.9C67.8521 17.14 68.2321 16.45 68.7521 15.83C69.2921 15.19 70.0021 14.68 70.8821 14.3C71.7821 13.9 72.8721 13.7 74.1521 13.7C76.1121 13.7 77.6621 14.19 78.8021 15.17C79.9421 16.15 80.5121 17.57 80.5121 19.43V24.98C80.5121 25.58 80.7921 25.88 81.3521 25.88H82.5521V29H80.0321C79.2921 29 78.6821 28.82 78.2021 28.46C77.7221 28.1 77.4821 27.62 77.4821 27.02V26.99H76.9121C76.8321 27.23 76.6521 27.55 76.3721 27.95C76.0921 28.33 75.6521 28.67 75.0521 28.97C74.4521 29.27 73.6321 29.42 72.5921 29.42ZM73.2521 26.36C74.3121 26.36 75.1721 26.07 75.8321 25.49C76.5121 24.89 76.8521 24.1 76.8521 23.12V22.82H73.0421C72.3421 22.82 71.7921 22.97 71.3921 23.27C70.9921 23.57 70.7921 23.99 70.7921 24.53C70.7921 25.07 71.0021 25.51 71.4221 25.85C71.8421 26.19 72.4521 26.36 73.2521 26.36ZM83.8158 29V14.12H87.5358V15.8H88.0758C88.2958 15.2 88.6558 14.76 89.1558 14.48C89.6758 14.2 90.2758 14.06 90.9558 14.06H92.7558V17.42H90.8958C89.9358 17.42 89.1458 17.68 88.5258 18.2C87.9058 18.7 87.5958 19.48 87.5958 20.54V29H83.8158ZM92.963 21.62V21.14C92.963 19.58 93.273 18.25 93.893 17.15C94.513 16.03 95.333 15.18 96.353 14.6C97.393 14 98.523 13.7 99.743 13.7C101.103 13.7 102.133 13.94 102.833 14.42C103.533 14.9 104.043 15.4 104.363 15.92H104.903V14.12H108.623V31.64C108.623 32.66 108.323 33.47 107.723 34.07C107.123 34.69 106.323 35 105.323 35H95.363V31.7H104.003C104.563 31.7 104.843 31.4 104.843 30.8V26.93H104.303C104.103 27.25 103.823 27.58 103.463 27.92C103.103 28.24 102.623 28.51 102.023 28.73C101.423 28.95 100.663 29.06 99.743 29.06C98.523 29.06 97.393 28.77 96.353 28.19C95.333 27.59 94.513 26.74 93.893 25.64C93.273 24.52 92.963 23.18 92.963 21.62ZM100.823 25.76C101.983 25.76 102.953 25.39 103.733 24.65C104.513 23.91 104.903 22.87 104.903 21.53V21.23C104.903 19.87 104.513 18.83 103.733 18.11C102.973 17.37 102.003 17 100.823 17C99.663 17 98.693 17.37 97.913 18.11C97.133 18.83 96.743 19.87 96.743 21.23V21.53C96.743 22.87 97.133 23.91 97.913 24.65C98.693 25.39 99.663 25.76 100.823 25.76ZM118.394 29.42C116.914 29.42 115.584 29.12 114.404 28.52C113.224 27.92 112.294 27.05 111.614 25.91C110.934 24.77 110.594 23.4 110.594 21.8V21.32C110.594 19.72 110.934 18.35 111.614 17.21C112.294 16.07 113.224 15.2 114.404 14.6C115.584 14 116.914 13.7 118.394 13.7C119.874 13.7 121.204 14 122.384 14.6C123.564 15.2 124.494 16.07 125.174 17.21C125.854 18.35 126.194 19.72 126.194 21.32V21.8C126.194 23.4 125.854 24.77 125.174 25.91C124.494 27.05 123.564 27.92 122.384 28.52C121.204 29.12 119.874 29.42 118.394 29.42ZM118.394 26.06C119.554 26.06 120.514 25.69 121.274 24.95C122.034 24.19 122.414 23.11 122.414 21.71V21.41C122.414 20.01 122.034 18.94 121.274 18.2C120.534 17.44 119.574 17.06 118.394 17.06C117.234 17.06 116.274 17.44 115.514 18.2C114.754 18.94 114.374 20.01 114.374 21.41V21.71C114.374 23.11 114.754 24.19 115.514 24.95C116.274 25.69 117.234 26.06 118.394 26.06ZM127.463 29V23.96L137.843 12.02V11.54H127.763V8H141.983V13.04L131.603 24.98V25.46H142.043V29H127.463ZM150.514 29.42C149.034 29.42 147.724 29.11 146.584 28.49C145.464 27.85 144.584 26.96 143.944 25.82C143.324 24.66 143.014 23.3 143.014 21.74V21.38C143.014 19.82 143.324 18.47 143.944 17.33C144.564 16.17 145.434 15.28 146.554 14.66C147.674 14.02 148.974 13.7 150.454 13.7C151.914 13.7 153.184 14.03 154.264 14.69C155.344 15.33 156.184 16.23 156.784 17.39C157.384 18.53 157.684 19.86 157.684 21.38V22.67H146.854C146.894 23.69 147.274 24.52 147.994 25.16C148.714 25.8 149.594 26.12 150.634 26.12C151.694 26.12 152.474 25.89 152.974 25.43C153.474 24.97 153.854 24.46 154.114 23.9L157.204 25.52C156.924 26.04 156.514 26.61 155.974 27.23C155.454 27.83 154.754 28.35 153.874 28.79C152.994 29.21 151.874 29.42 150.514 29.42ZM146.884 19.85H153.844C153.764 18.99 153.414 18.3 152.794 17.78C152.194 17.26 151.404 17 150.424 17C149.404 17 148.594 17.26 147.994 17.78C147.394 18.3 147.024 18.99 146.884 19.85ZM159.548 29V14.12H163.268V16.07H163.808C164.048 15.55 164.498 15.06 165.158 14.6C165.818 14.12 166.818 13.88 168.158 13.88C169.318 13.88 170.328 14.15 171.188 14.69C172.068 15.21 172.748 15.94 173.228 16.88C173.708 17.8 173.948 18.88 173.948 20.12V29H170.168V20.42C170.168 19.3 169.888 18.46 169.328 17.9C168.788 17.34 168.008 17.06 166.988 17.06C165.828 17.06 164.928 17.45 164.288 18.23C163.648 18.99 163.328 20.06 163.328 21.44V29H159.548Z" fill="#032532"/>
<g clip-path="url(#clip0_444_52)">
<path d="M41.9841 6.68823L37.5029 12.5599L39.2128 17.5812L41.9841 6.68823Z" fill="url(#paint0_linear_444_52)"/>
<path d="M41.9998 6.67993L35.7845 10.6298L30.9873 8.43L41.9998 6.67993Z" fill="url(#paint1_linear_444_52)"/>
<path d="M8.84863 32.1378C11.4174 33.9451 14.5372 35.0082 17.9001 35.0082C26.6599 35.0082 33.7585 27.8444 33.7585 19.0041C33.7585 18.0064 33.6613 17.025 33.4911 16.0764C29.091 22.0463 18.4269 34.7383 8.84863 32.1378Z" fill="url(#paint2_linear_444_52)"/>
<path d="M32.8512 13.6639C30.6714 7.44876 24.8045 3 17.9004 3C9.14065 3 2.04206 10.1638 2.04206 19.0041C2.04206 20.2471 2.17982 21.4574 2.44723 22.6187C1.24793 22.7986 0 21.5719 0 21.5719C0.867065 23.2075 2.05016 24.3197 3.22516 25.0721C3.23326 25.0884 3.23326 25.0966 3.24137 25.113C3.75188 25.4237 4.30291 25.7018 4.88636 25.9389C5.91549 26.3642 6.78256 26.5359 7.19583 26.5932C12.6737 27.55 20.8663 25.0639 32.8512 13.6639Z" fill="url(#paint3_radial_444_52)"/>
</g>
<defs>
<linearGradient id="paint0_linear_444_52" x1="37.5049" y1="12.1368" x2="41.9841" y2="12.1368" gradientUnits="userSpaceOnUse">
<stop stop-color="#00639E"/>
<stop offset="0.7092" stop-color="#008BBF"/>
<stop offset="0.9949" stop-color="#00B6F1"/>
</linearGradient>
<linearGradient id="paint1_linear_444_52" x1="30.9895" y1="8.65495" x2="42.0002" y2="8.65495" gradientUnits="userSpaceOnUse">
<stop stop-color="#003E56"/>
<stop offset="0.6531" stop-color="#00517B"/>
<stop offset="0.9949" stop-color="#008BBF"/>
</linearGradient>
<linearGradient id="paint2_linear_444_52" x1="8.84788" y1="25.5401" x2="33.7562" y2="25.5401" gradientUnits="userSpaceOnUse">
<stop offset="0.00510204" stop-color="#00B6F1"/>
<stop offset="0.5663" stop-color="#008BBF"/>
<stop offset="1" stop-color="#00639E"/>
</linearGradient>
<radialGradient id="paint3_radial_444_52" cx="0" cy="0" r="1" gradientUnits="userSpaceOnUse" gradientTransform="translate(4.98327 15.3701) scale(29.7451 30.0184)">
<stop offset="0.00510204" stop-color="#008BBF"/>
<stop offset="0.3469" stop-color="#00517B"/>
<stop offset="1" stop-color="#003E56"/>
</radialGradient>
<clipPath id="clip0_444_52">
<rect width="42" height="32" fill="white" transform="translate(0 3)"/>
</clipPath>
</defs>
</svg>
