<svg width="76" height="25" viewBox="0 0 76 25" fill="none" xmlns="http://www.w3.org/2000/svg">
<path fill-rule="evenodd" clip-rule="evenodd" d="M64.0682 23.5369C64.1545 23.5369 64.2268 23.5622 64.2891 23.6169C64.3176 23.6406 64.3405 23.6701 64.3563 23.7035C64.3721 23.7369 64.3805 23.7734 64.3807 23.8103C64.3807 23.886 64.347 23.949 64.2891 24.0037C64.2283 24.0575 64.1493 24.0861 64.0682 24.0838C63.9869 24.0861 63.9077 24.0575 63.8468 24.0037C63.818 23.9804 63.7948 23.9509 63.779 23.9174C63.7632 23.884 63.7552 23.8473 63.7556 23.8103C63.7556 23.7346 63.7845 23.6673 63.8468 23.6169C63.9077 23.5632 63.9869 23.5345 64.0682 23.5369ZM67.7939 22.1148L67.5151 22.2662C67.2696 21.9845 66.9382 21.8458 66.5151 21.8458C66.1785 21.8458 65.8949 21.9381 65.6735 22.1275C65.4525 22.3165 65.3372 22.5441 65.3372 22.8132C65.3372 22.9899 65.3898 23.154 65.4911 23.3098C65.5965 23.4666 65.7427 23.5917 65.9141 23.6716C66.1026 23.7578 66.3079 23.8009 66.5151 23.7976C66.9237 23.7976 67.2551 23.6589 67.5151 23.3772L67.7939 23.5369C67.6641 23.7136 67.4861 23.844 67.2648 23.9407C67.039 24.0374 66.7843 24.0838 66.5007 24.0838C66.0632 24.0838 65.7024 23.9657 65.414 23.7219C65.1255 23.4778 64.9813 23.1877 64.9813 22.8381C64.9813 22.6071 65.0488 22.3883 65.1834 22.1905C65.3201 21.9862 65.5116 21.8244 65.7362 21.7237C65.9716 21.6099 66.2363 21.5552 66.5296 21.5552C66.712 21.5552 66.89 21.5762 67.0583 21.627C67.2123 21.6647 67.3587 21.7286 67.491 21.816C67.6109 21.8945 67.7139 21.9961 67.7939 22.1148ZM69.7841 21.5552C70.2071 21.5552 70.5626 21.6856 70.8414 21.9551C71.0966 22.2032 71.2215 22.4889 71.2215 22.8259C71.2215 23.1628 71.0918 23.4568 70.8226 23.7097C70.553 23.9573 70.2071 24.0838 69.7841 24.0838C69.3611 24.0838 69.0147 23.9578 68.7456 23.7093C68.4764 23.4568 68.3418 23.1623 68.3418 22.8254C68.3418 22.4933 68.4668 22.2032 68.7215 21.9591C69.0003 21.69 69.3562 21.5552 69.7841 21.5552ZM69.7841 21.858C69.486 21.858 69.2361 21.9508 69.0244 22.1442C68.8083 22.3336 68.7022 22.5651 68.7022 22.8342C68.7022 23.0066 68.7552 23.1667 68.8512 23.3181C68.9458 23.4686 69.0808 23.5896 69.2409 23.6673C69.4102 23.7491 69.596 23.7909 69.7841 23.7893C69.9809 23.7893 70.1589 23.7473 70.3224 23.6673C70.4839 23.5899 70.6204 23.4689 70.7165 23.3181C70.8108 23.1742 70.8609 23.006 70.8607 22.8342C70.8607 22.5651 70.7551 22.3336 70.539 22.1442C70.3272 21.9508 70.0774 21.858 69.7841 21.858ZM71.8751 21.6143H72.2311V22.0308C72.356 21.8751 72.481 21.7613 72.6107 21.6939C72.7858 21.6025 72.9804 21.5549 73.178 21.5552C73.3126 21.5552 73.4375 21.5762 73.5576 21.6226C73.6669 21.6617 73.7669 21.7233 73.8509 21.8033C73.9389 21.8977 74.0061 22.0095 74.0481 22.1315C74.1572 21.9537 74.3093 21.8063 74.4905 21.7027C74.6648 21.6041 74.8622 21.5533 75.0625 21.5552C75.255 21.5552 75.4229 21.5972 75.5671 21.6817C75.7098 21.7613 75.8241 21.8834 75.8941 22.0308C75.9665 22.1822 75.9998 22.4093 75.9998 22.7121V24.0247H75.6394V22.7077C75.6394 22.4513 75.6153 22.2745 75.5719 22.1783C75.5301 22.0765 75.4536 21.9928 75.3558 21.942C75.255 21.8834 75.1344 21.8541 74.9902 21.8541C74.8223 21.8541 74.6636 21.8961 74.5242 21.9884C74.385 22.07 74.2755 22.1939 74.2117 22.3419C74.1441 22.4894 74.1108 22.7375 74.1108 23.0827V24.0247H73.7597V22.7922C73.7597 22.5021 73.7356 22.3043 73.6974 22.1989C73.6541 22.0938 73.5782 22.0053 73.4809 21.9464C73.3685 21.8819 73.2404 21.85 73.1109 21.8541C72.9474 21.8541 72.7935 21.8961 72.6493 21.9845C72.5105 22.0661 72.3998 22.1878 72.3319 22.3336C72.2648 22.4767 72.2311 22.7038 72.2311 23.0026V24.0247H71.8751V21.6138V21.6143ZM52.3224 7.56117C54.9737 7.56117 57.1962 9.37961 57.781 11.8167C57.8226 11.9321 57.8441 12.0538 57.8446 12.1764C57.8446 12.757 57.3619 13.2318 56.7723 13.2318C56.1774 13.2318 55.7728 12.7522 55.6952 12.1764C55.4905 10.5837 53.6283 9.6242 52.3224 9.6242C50.3778 9.6242 48.8084 11.1736 48.8084 13.083C48.8084 14.9929 50.3778 16.5422 52.3224 16.5422C55.6659 16.5422 55.1394 13.4864 56.6163 13.4864C57.2107 13.4864 57.6933 13.9612 57.6933 14.5418C57.6796 14.714 57.6367 14.8826 57.5666 15.0406C56.7622 17.1229 54.7155 18.6053 52.3224 18.6053C49.2227 18.6053 46.7125 16.1345 46.7125 13.0834C46.7125 10.526 46.4443 5.3205 46.4443 2.70616C46.4443 2.43269 46.6687 2.21173 46.9414 2.21173H47.1509C47.424 2.21173 47.424 2.43269 47.4437 2.70616L47.858 9.73928C47.917 9.66204 47.9787 9.58688 48.043 9.51394L47.7554 1.51603C47.7458 1.22812 47.9943 0.993161 48.2867 0.993161C48.5743 0.993161 48.8036 1.22812 48.8132 1.51603L49.1056 8.55921C49.1495 8.53034 49.1981 8.49665 49.2468 8.46295V0.585368C49.2468 0.297462 49.4857 0.0625 49.7781 0.0625C50.0705 0.0625 50.3094 0.297462 50.3094 0.585368V7.93046C50.9519 7.68458 51.6343 7.55938 52.3224 7.56117ZM69.7486 7.38571C70.0848 7.38571 70.6757 7.39053 71.0839 7.39053V3.83415C71.0853 3.50429 71.2174 3.18839 71.4514 2.95546C71.6854 2.72254 72.0023 2.59154 72.3328 2.59108C72.6635 2.59073 72.9807 2.72141 73.2149 2.95442C73.4491 3.18742 73.581 3.50368 73.5817 3.83371H73.5865V7.39053C74.0718 7.39053 74.4944 7.37609 74.9122 7.37609C75.6329 7.42422 76.0318 7.91165 75.998 8.57584C75.9643 9.23566 75.5561 9.61326 74.9941 9.65658L73.5865 9.66096V17.458H73.5769C73.5526 17.7706 73.4109 18.0624 73.1802 18.2751C72.9495 18.4879 72.6469 18.6058 72.3328 18.6053C72.0184 18.6051 71.7157 18.487 71.4844 18.2746C71.2531 18.0621 71.1101 17.7707 71.0839 17.458V9.66139L69.5995 9.65658C69.2059 9.65658 68.682 9.24529 68.6627 8.58547C68.6434 7.92608 69.1528 7.39972 69.7486 7.38571ZM6.16264 7.38134H6.32177C6.37438 7.38572 6.42698 7.38571 6.48002 7.39053C6.53263 7.39053 6.58567 7.3949 6.63871 7.40015C6.69132 7.40453 6.74392 7.40453 6.79214 7.41459L6.95084 7.42859C6.99906 7.43822 7.05166 7.44303 7.10427 7.45266C7.15249 7.45747 7.20509 7.4671 7.25331 7.47672L7.40718 7.50517C7.50801 7.52442 7.60445 7.54848 7.70527 7.57211L7.84906 7.61543C7.90167 7.62462 7.94989 7.64387 7.99811 7.65831L8.14233 7.70119C8.19055 7.72044 8.23834 7.73488 8.2813 7.75369C8.32952 7.76813 8.37774 7.78738 8.42552 7.8062C8.56492 7.8587 8.6995 7.92127 8.83847 7.9834C8.97305 8.05035 9.10281 8.12211 9.23256 8.19343C9.57627 8.38884 9.89964 8.61794 10.1979 8.87731L10.3088 8.9727C10.3469 9.00639 10.3807 9.03964 10.4192 9.07333C10.5244 9.17397 10.6253 9.28335 10.7261 9.38836C10.7936 9.46537 10.8563 9.53713 10.919 9.61326C11.0143 9.72639 11.1055 9.84285 11.1925 9.96243C11.2215 10.0053 11.2451 10.0438 11.2741 10.0867C11.303 10.1248 11.3315 10.1681 11.3556 10.2061V10.211C11.4376 10.3352 11.5143 10.4595 11.5862 10.5886V10.5934C11.6055 10.6362 11.6296 10.6796 11.6537 10.7224C11.6778 10.7653 11.6967 10.8086 11.7208 10.8563C11.7401 10.8992 11.7642 10.9469 11.7835 10.9902C11.8023 11.0384 11.8264 11.0808 11.8457 11.1289C11.8843 11.2195 11.9176 11.3105 11.9562 11.4059C11.9706 11.454 11.9899 11.5017 12.0044 11.5494C12.0189 11.5975 12.0377 11.6404 12.0526 11.6929L12.0956 11.8364C12.11 11.8841 12.1197 11.9318 12.1342 11.9795C12.1482 12.032 12.1578 12.0802 12.1723 12.1283L12.2012 12.281C12.2109 12.3287 12.2205 12.3764 12.2302 12.4289C12.2398 12.4814 12.2494 12.5295 12.2587 12.582C12.2635 12.6301 12.2731 12.6827 12.2779 12.7352C12.2828 12.7829 12.2924 12.8354 12.2972 12.8883L12.3117 13.041C12.3161 13.0935 12.3161 13.146 12.3213 13.1985C12.3213 13.251 12.3257 13.3035 12.3257 13.356V13.514C12.3257 14.8096 12.2779 15.1395 12.2442 16.4635H12.2398V16.5593C12.2302 16.9894 12.2205 17.2572 12.2157 17.6873C12.0425 18.2802 11.4854 18.4858 10.9861 18.4858C10.7802 18.486 10.5777 18.4343 10.3972 18.3357C10.2167 18.237 10.064 18.0945 9.95325 17.9214C9.91227 17.8314 9.89091 17.7337 9.89056 17.6348C9.88092 17.3097 9.8761 16.9798 9.86645 16.6547L9.86207 13.5809V13.514C9.86207 12.8209 9.11245 10.9565 8.00293 10.3256C7.97882 10.3063 7.95033 10.2923 7.92578 10.2775C7.9021 10.2635 7.87317 10.2538 7.84906 10.2394C7.82013 10.2254 7.79163 10.211 7.76752 10.1965C7.73859 10.1869 7.71492 10.1729 7.68555 10.1633C7.65705 10.1488 7.63294 10.1344 7.60401 10.1248C7.57508 10.1151 7.54658 10.1011 7.51765 10.0915C7.49354 10.0819 7.46505 10.0674 7.43611 10.0578L7.34975 10.0294L7.26296 10.0005C7.23402 9.99087 7.20553 9.98168 7.1766 9.97686C7.14767 9.96724 7.11917 9.95761 7.09024 9.9528C7.05648 9.94317 7.02755 9.93836 6.99906 9.92873C6.97012 9.92436 6.94119 9.91473 6.90744 9.90992C6.87894 9.90511 6.85001 9.90029 6.81626 9.89548C6.78651 9.88632 6.75599 9.87987 6.72507 9.87623C6.69614 9.87185 6.66765 9.87185 6.63389 9.8666C6.60496 9.86223 6.5712 9.85698 6.54271 9.85698C6.50896 9.8526 6.48002 9.84779 6.44627 9.84779C6.41777 9.84298 6.38402 9.84298 6.35509 9.84298C6.32177 9.83816 6.29284 9.83816 6.25908 9.83816H6.06708C6.03814 9.83816 6.00439 9.83816 5.97546 9.84254C5.94214 9.84254 5.91321 9.84254 5.87945 9.84779C5.84614 9.84779 5.8172 9.85216 5.78827 9.85742C5.75495 9.85742 5.72602 9.86179 5.69227 9.8666C5.66334 9.87142 5.63002 9.87142 5.60109 9.87623C5.57215 9.88104 5.5384 9.88585 5.5099 9.89548L5.41828 9.90992C5.38979 9.91955 5.36086 9.92392 5.3271 9.92873C5.29817 9.93836 5.26968 9.94317 5.24074 9.9528C5.21181 9.95718 5.18332 9.96724 5.15438 9.97686C5.12063 9.98649 5.0917 9.99087 5.0632 10.0005L4.97641 10.0294C4.94791 10.039 4.91898 10.0486 4.89487 10.0578C4.86594 10.0674 4.83744 10.0819 4.80851 10.0915C4.77958 10.1011 4.75064 10.1151 4.72697 10.1248C4.69804 10.1344 4.66911 10.1488 4.645 10.1633H4.64061C4.6165 10.1729 4.58757 10.1869 4.56346 10.1965C4.53453 10.211 4.50603 10.2254 4.48192 10.2394C4.45299 10.2538 4.42932 10.2635 4.39995 10.2779C4.37627 10.2923 4.35172 10.3068 4.32323 10.326C3.76749 10.6424 3.30411 11.0981 2.97889 11.648C2.65367 12.1979 2.47789 12.823 2.46891 13.4615V13.5284L2.47374 17.6733C2.47374 18.1607 1.88281 18.5571 1.2875 18.5431C0.807044 18.5335 0.129758 18.2325 0.120114 17.6348C0.0863594 15.9192 0 15.1872 0 13.514V13.3565C0.0048221 13.304 0.0048221 13.2515 0.0096442 13.199C0.0096442 13.1465 0.0140279 13.0935 0.0192884 13.041L0.0337547 12.8879C0.0381384 12.8354 0.0433989 12.7829 0.048221 12.7347C0.0574268 12.6822 0.0622489 12.6297 0.0718931 12.582C0.0767152 12.5295 0.0863594 12.4814 0.0960036 12.4289C0.11503 12.3282 0.135929 12.2278 0.158691 12.1278C0.168335 12.0797 0.182363 12.0325 0.192007 11.9795L0.235406 11.8364L0.278805 11.6929L0.321765 11.5494C0.341054 11.5013 0.35552 11.454 0.37437 11.4059C0.408125 11.3105 0.446702 11.2195 0.485278 11.1289C0.504567 11.0808 0.523417 11.0379 0.542705 10.9902C0.566816 10.9469 0.586104 10.8992 0.610215 10.8563C0.629065 10.8082 0.653175 10.7653 0.672464 10.7224L0.744357 10.5934V10.589C0.816688 10.4595 0.88902 10.3352 0.970118 10.211V10.2066C0.999051 10.1681 1.02316 10.1248 1.05209 10.0867C1.08103 10.0438 1.10952 10.0053 1.13845 9.96243C1.22481 9.84298 1.31117 9.72834 1.40761 9.61326C1.46986 9.53669 1.53737 9.46537 1.59962 9.3888C1.70045 9.28379 1.8061 9.17878 1.91174 9.07333C1.9455 9.03964 1.98407 9.00639 2.01739 8.9727C2.05597 8.93944 2.09454 8.91056 2.12786 8.87731C2.42794 8.62009 2.75123 8.39115 3.0936 8.19343C3.22335 8.12211 3.35793 8.05035 3.49251 7.9834C3.62666 7.92127 3.76606 7.85914 3.90546 7.80663C3.94842 7.78738 3.99664 7.76813 4.04443 7.75413C4.09265 7.73488 4.14087 7.72044 4.18909 7.70162L4.33287 7.65787C4.3811 7.64387 4.42932 7.62462 4.4771 7.61543C4.52532 7.60099 4.5731 7.58655 4.62615 7.57211C4.72215 7.54848 4.82298 7.52398 4.9238 7.50517L5.07285 7.47672C5.12545 7.4671 5.17367 7.45747 5.22628 7.45266C5.2745 7.44303 5.3271 7.43822 5.37971 7.42859L5.53358 7.41459C5.58662 7.40497 5.63966 7.40497 5.68745 7.40015C5.74005 7.39534 5.79309 7.39053 5.84614 7.39053C5.89874 7.38615 5.95135 7.38615 6.00439 7.3809H6.16308L6.16264 7.38134ZM18.5756 7.28508C21.6837 7.28508 24.2008 9.79047 24.2008 12.8782C24.2008 14.6569 24.0855 16.502 24.0855 18.3183H22.9659C22.7061 18.318 22.4545 18.2278 22.2539 18.063C22.0533 17.8982 21.9163 17.6691 21.866 17.4147C20.9096 18.1076 19.7574 18.4793 18.5756 18.4762C15.4724 18.4762 12.9557 15.9713 12.9557 12.8782C12.9557 9.79047 15.4724 7.28552 18.5756 7.28552V7.28508ZM18.5756 9.52269C20.4396 9.52269 21.9476 11.0283 21.9476 12.8787C21.9476 14.733 20.4396 16.2342 18.5756 16.2342C16.7116 16.2342 15.2036 14.7334 15.2036 12.8782C15.2036 11.0283 16.7116 9.52225 18.5756 9.52225V9.52269ZM27.4285 10.2635L27.4382 17.2813C27.4362 17.5957 27.31 17.8966 27.087 18.1186C26.8639 18.3407 26.5621 18.4659 26.2471 18.467H25.0556V8.99151C25.0556 8.73817 25.1709 8.42708 25.3344 8.16892C25.3629 8.19343 25.387 8.21268 25.4111 8.23149C26.0599 8.65679 26.9818 8.95344 27.4285 10.263V10.2635ZM28.3031 12.754C28.3031 9.7524 30.7479 7.32402 33.7648 7.32402V7.34284C33.8029 7.33802 33.5631 7.33321 33.8849 7.33321C34.2066 7.33321 34.9799 7.82064 34.9799 8.4227C34.9799 9.02564 34.2163 9.50825 33.8849 9.50825C33.553 9.50825 33.7696 9.50344 33.7117 9.49863C32.1459 9.52269 30.8492 11.3057 30.5511 12.3619C30.5025 12.5344 30.4829 12.7138 30.4932 12.8927L30.5077 17.5486C30.5077 18.1511 30.0132 18.5051 29.4073 18.5051H28.3075C28.3075 16.7457 28.3031 14.5133 28.3031 12.754ZM40.1006 7.32402C43.2038 7.32402 45.7209 9.82854 45.7209 12.9167C45.7209 14.6949 45.6105 16.5352 45.6105 18.3568H44.4909C44.2313 18.3557 43.9801 18.2651 43.7797 18.1005C43.5793 17.9359 43.442 17.7072 43.391 17.4532C42.4332 18.1432 41.2818 18.5145 40.1006 18.5143C36.9925 18.5143 34.4754 16.0049 34.4754 12.9167C34.4754 9.82854 36.9925 7.32358 40.1006 7.32358V7.32402ZM40.1006 9.56076C41.9593 9.56076 43.4725 11.0615 43.4725 12.9167C43.4725 14.7715 41.9597 16.2727 40.1006 16.2727C38.2366 16.2727 36.7286 14.7715 36.7286 12.9167C36.7286 11.0615 38.2366 9.56076 40.1006 9.56076ZM64.4789 7.44303C67.5387 7.44303 70.0173 9.90992 70.0173 12.9548C70.0173 13.146 70.0081 13.3324 69.9888 13.5192H61.1981C61.3324 14.2899 61.7354 14.9885 62.3357 15.4913C62.936 15.9942 63.6952 16.2691 64.4789 16.2675C64.975 16.2687 65.465 16.1591 65.913 15.9465C66.361 15.734 66.7557 15.424 67.0679 15.0393C68.0718 14.628 69.0665 15.6702 68.5093 16.7361C67.9915 17.284 67.3668 17.7202 66.6736 18.0178C65.9804 18.3154 65.2335 18.4681 64.4789 18.4666C61.4191 18.4666 58.9405 16.0001 58.9405 12.9548C58.9405 9.90948 61.4191 7.44303 64.4789 7.44303ZM67.4669 11.4825C67.1899 10.9281 66.7636 10.4617 66.2358 10.1358C65.708 9.80985 65.0996 9.63723 64.4789 9.63733C63.8588 9.63671 63.2508 9.80917 62.7237 10.1352C62.1965 10.4613 61.7712 10.9279 61.4958 11.4825H67.4669Z" fill="#013BE5"/>
<path fill-rule="evenodd" clip-rule="evenodd" d="M27.4337 10.188L27.4114 8.22869C27.407 7.83971 27.2799 7.41792 27.098 7.07138C26.8709 6.63077 26.5123 6.33543 26.0897 6.06371C25.668 5.79637 25.1639 5.67911 24.9004 5.13086L24.9188 6.85567C24.9276 7.45073 25.2366 7.96616 25.5181 8.16306C26.1353 8.58485 27.016 8.87538 27.4337 10.188Z" fill="#F58634"/>
</svg>
